<?xml version="1.0" encoding="utf-8" standalone="no"?>
<!DOCTYPE svg PUBLIC "-//W3C//DTD SVG 1.1//EN"
  "http://www.w3.org/Graphics/SVG/1.1/DTD/svg11.dtd">
<!-- Created with matplotlib (http://matplotlib.org/) -->
<svg height="159.309562pt" version="1.1" viewBox="0 0 231.409687 159.309562" width="231.409687pt" xmlns="http://www.w3.org/2000/svg" xmlns:xlink="http://www.w3.org/1999/xlink">
 <defs>
  <style type="text/css">
*{stroke-linecap:butt;stroke-linejoin:round;}
  </style>
 </defs>
 <g id="figure_1">
  <g id="patch_1">
   <path d="M 0 159.309562 
L 231.409687 159.309562 
L 231.409687 0 
L 0 0 
z
" style="fill:#ffffff;"/>
  </g>
  <g id="axes_1">
   <g id="patch_2">
    <path d="M 29.009688 132.128 
L 224.309688 132.128 
L 224.309688 7.1 
L 29.009688 7.1 
z
" style="fill:#ffffff;"/>
   </g>
   <g id="PolyCollection_1">
    <defs>
     <path d="M 29.009688 -30.395479 
L 29.009688 -27.181562 
L 30.722845 -27.181562 
L 32.436003 -27.181562 
L 34.149161 -27.181562 
L 35.862319 -27.181562 
L 37.575477 -27.181562 
L 39.288635 -27.181562 
L 41.001793 -27.181562 
L 42.714951 -27.181562 
L 44.428109 -27.181562 
L 46.141266 -27.181562 
L 47.854424 -27.181562 
L 49.567582 -27.181562 
L 51.28074 -27.181562 
L 52.993898 -27.181562 
L 54.707056 -27.181562 
L 56.420214 -27.181562 
L 58.133372 -27.181562 
L 59.84653 -27.181562 
L 61.559688 -27.181562 
L 63.272845 -27.181562 
L 64.986003 -27.181562 
L 66.699161 -27.181562 
L 68.412319 -27.181562 
L 70.125477 -27.181562 
L 71.838635 -27.181562 
L 73.551793 -27.181562 
L 75.264951 -27.181562 
L 76.978109 -27.181562 
L 78.691266 -27.181562 
L 80.404424 -27.181562 
L 82.117582 -27.181562 
L 83.83074 -27.181562 
L 85.543898 -27.181562 
L 87.257056 -27.181562 
L 88.970214 -27.181562 
L 90.683372 -27.181562 
L 92.39653 -27.181562 
L 94.109688 -27.181562 
L 95.822845 -27.181562 
L 97.536003 -27.181562 
L 99.249161 -27.181562 
L 100.962319 -27.181562 
L 102.675477 -27.181562 
L 104.388635 -27.181562 
L 106.101793 -27.181562 
L 107.814951 -27.181562 
L 109.528109 -27.181562 
L 111.241266 -27.181562 
L 112.954424 -27.181562 
L 114.667582 -27.181562 
L 116.38074 -27.181562 
L 118.093898 -27.181562 
L 119.807056 -27.181562 
L 121.520214 -27.181562 
L 123.233372 -27.181562 
L 124.94653 -27.181562 
L 126.659688 -27.181562 
L 128.372845 -27.181562 
L 130.086003 -27.181562 
L 131.799161 -27.181562 
L 133.512319 -27.181562 
L 135.225477 -27.181562 
L 136.938635 -27.181562 
L 138.651793 -27.181562 
L 140.364951 -27.181562 
L 142.078109 -27.181562 
L 143.791266 -27.181562 
L 145.504424 -27.181562 
L 147.217582 -27.181562 
L 148.93074 -27.181562 
L 150.643898 -27.181562 
L 152.357056 -27.181562 
L 154.070214 -27.181562 
L 155.783372 -27.181562 
L 157.49653 -27.181562 
L 159.209688 -27.181562 
L 160.922845 -27.181562 
L 162.636003 -27.181562 
L 164.349161 -27.181562 
L 166.062319 -27.181562 
L 167.775477 -27.181562 
L 169.488635 -27.181562 
L 171.201793 -27.181562 
L 172.914951 -27.181562 
L 174.628109 -27.181562 
L 176.341266 -27.181562 
L 178.054424 -27.181562 
L 179.767582 -27.181562 
L 181.48074 -27.181562 
L 183.193898 -27.181562 
L 184.907056 -27.181562 
L 186.620214 -27.181562 
L 188.333372 -27.181562 
L 190.04653 -27.181562 
L 191.759688 -27.181562 
L 193.472845 -27.181562 
L 195.186003 -27.181562 
L 196.899161 -27.181562 
L 198.612319 -27.181562 
L 200.325477 -27.181562 
L 202.038635 -27.181562 
L 203.751793 -27.181562 
L 205.464951 -27.181562 
L 207.178109 -27.181562 
L 208.891266 -27.181562 
L 210.604424 -27.181562 
L 212.317582 -27.181562 
L 214.03074 -27.181562 
L 215.743898 -27.181562 
L 217.457056 -27.181562 
L 219.170214 -27.181562 
L 220.883372 -27.181562 
L 222.59653 -27.181562 
L 224.309688 -27.181562 
L 224.309688 -137.982816 
L 224.309688 -137.982816 
L 222.59653 -134.521185 
L 220.883372 -131.000479 
L 219.170214 -127.733028 
L 217.457056 -124.515376 
L 215.743898 -121.508157 
L 214.03074 -118.833239 
L 212.317582 -116.078698 
L 210.604424 -113.279973 
L 208.891266 -110.745019 
L 207.178109 -108.454604 
L 205.464951 -106.413882 
L 203.751793 -104.534886 
L 202.038635 -102.844181 
L 200.325477 -101.232858 
L 198.612319 -99.629636 
L 196.899161 -98.135096 
L 195.186003 -96.639822 
L 193.472845 -95.115291 
L 191.759688 -93.673764 
L 190.04653 -92.205337 
L 188.333372 -90.789338 
L 186.620214 -89.391419 
L 184.907056 -88.003274 
L 183.193898 -86.585279 
L 181.48074 -85.087254 
L 179.767582 -83.544522 
L 178.054424 -82.017654 
L 176.341266 -80.577433 
L 174.628109 -79.171751 
L 172.914951 -77.749171 
L 171.201793 -76.355681 
L 169.488635 -75.063399 
L 167.775477 -73.783723 
L 166.062319 -72.356873 
L 164.349161 -70.878534 
L 162.636003 -69.33853 
L 160.922845 -67.870315 
L 159.209688 -66.466349 
L 157.49653 -65.048406 
L 155.783372 -63.699172 
L 154.070214 -62.237944 
L 152.357056 -60.779807 
L 150.643898 -59.467588 
L 148.93074 -58.232024 
L 147.217582 -56.982649 
L 145.504424 -55.788645 
L 143.791266 -54.689452 
L 142.078109 -53.759535 
L 140.364951 -52.716842 
L 138.651793 -51.699227 
L 136.938635 -50.748573 
L 135.225477 -49.904513 
L 133.512319 -49.086658 
L 131.799161 -48.275707 
L 130.086003 -47.428443 
L 128.372845 -46.730622 
L 126.659688 -46.092913 
L 124.94653 -45.402385 
L 123.233372 -44.781697 
L 121.520214 -44.207152 
L 119.807056 -43.565406 
L 118.093898 -43.045036 
L 116.38074 -42.599228 
L 114.667582 -42.156915 
L 112.954424 -41.792647 
L 111.241266 -41.478196 
L 109.528109 -41.169019 
L 107.814951 -40.91631 
L 106.101793 -40.7218 
L 104.388635 -40.509956 
L 102.675477 -40.219673 
L 100.962319 -39.874745 
L 99.249161 -39.518879 
L 97.536003 -39.187865 
L 95.822845 -38.883001 
L 94.109688 -38.574195 
L 92.39653 -38.339648 
L 90.683372 -38.009052 
L 88.970214 -37.753003 
L 87.257056 -37.553313 
L 85.543898 -37.383868 
L 83.83074 -37.264971 
L 82.117582 -37.171658 
L 80.404424 -36.99623 
L 78.691266 -36.706229 
L 76.978109 -36.373014 
L 75.264951 -36.087732 
L 73.551793 -35.80628 
L 71.838635 -35.553315 
L 70.125477 -35.306124 
L 68.412319 -35.096793 
L 66.699161 -34.874754 
L 64.986003 -34.711314 
L 63.272845 -34.605165 
L 61.559688 -34.401356 
L 59.84653 -34.223061 
L 58.133372 -34.011088 
L 56.420214 -33.769868 
L 54.707056 -33.532875 
L 52.993898 -33.338484 
L 51.28074 -33.138966 
L 49.567582 -32.826392 
L 47.854424 -32.562252 
L 46.141266 -32.331176 
L 44.428109 -32.081611 
L 42.714951 -31.861789 
L 41.001793 -31.673491 
L 39.288635 -31.433946 
L 37.575477 -31.260601 
L 35.862319 -31.055888 
L 34.149161 -30.889606 
L 32.436003 -30.724041 
L 30.722845 -30.559431 
L 29.009688 -30.395479 
z
" id="m619720dfd3"/>
    </defs>
    <g clip-path="url(#p027c315f4c)">
     <use style="fill:#7a7f80;" x="0" xlink:href="#m619720dfd3" y="159.309562"/>
    </g>
   </g>
   <g id="PolyCollection_2">
    <defs>
     <path d="M 29.009688 -30.396273 
L 29.009688 -30.395479 
L 30.722845 -30.559431 
L 32.436003 -30.724041 
L 34.149161 -30.889606 
L 35.862319 -31.055888 
L 37.575477 -31.260601 
L 39.288635 -31.433946 
L 41.001793 -31.673491 
L 42.714951 -31.861789 
L 44.428109 -32.081611 
L 46.141266 -32.331176 
L 47.854424 -32.562252 
L 49.567582 -32.826392 
L 51.28074 -33.138966 
L 52.993898 -33.338484 
L 54.707056 -33.532875 
L 56.420214 -33.769868 
L 58.133372 -34.011088 
L 59.84653 -34.223061 
L 61.559688 -34.401356 
L 63.272845 -34.605165 
L 64.986003 -34.711314 
L 66.699161 -34.874754 
L 68.412319 -35.096793 
L 70.125477 -35.306124 
L 71.838635 -35.553315 
L 73.551793 -35.80628 
L 75.264951 -36.087732 
L 76.978109 -36.373014 
L 78.691266 -36.706229 
L 80.404424 -36.99623 
L 82.117582 -37.171658 
L 83.83074 -37.264971 
L 85.543898 -37.383868 
L 87.257056 -37.553313 
L 88.970214 -37.753003 
L 90.683372 -38.009052 
L 92.39653 -38.339648 
L 94.109688 -38.574195 
L 95.822845 -38.883001 
L 97.536003 -39.187865 
L 99.249161 -39.518879 
L 100.962319 -39.874745 
L 102.675477 -40.219673 
L 104.388635 -40.509956 
L 106.101793 -40.7218 
L 107.814951 -40.91631 
L 109.528109 -41.169019 
L 111.241266 -41.478196 
L 112.954424 -41.792647 
L 114.667582 -42.156915 
L 116.38074 -42.599228 
L 118.093898 -43.045036 
L 119.807056 -43.565406 
L 121.520214 -44.207152 
L 123.233372 -44.781697 
L 124.94653 -45.402385 
L 126.659688 -46.092913 
L 128.372845 -46.730622 
L 130.086003 -47.428443 
L 131.799161 -48.275707 
L 133.512319 -49.086658 
L 135.225477 -49.904513 
L 136.938635 -50.748573 
L 138.651793 -51.699227 
L 140.364951 -52.716842 
L 142.078109 -53.759535 
L 143.791266 -54.689452 
L 145.504424 -55.788645 
L 147.217582 -56.982649 
L 148.93074 -58.232024 
L 150.643898 -59.467588 
L 152.357056 -60.779807 
L 154.070214 -62.237944 
L 155.783372 -63.699172 
L 157.49653 -65.048406 
L 159.209688 -66.466349 
L 160.922845 -67.870315 
L 162.636003 -69.33853 
L 164.349161 -70.878534 
L 166.062319 -72.356873 
L 167.775477 -73.783723 
L 169.488635 -75.063399 
L 171.201793 -76.355681 
L 172.914951 -77.749171 
L 174.628109 -79.171751 
L 176.341266 -80.577433 
L 178.054424 -82.017654 
L 179.767582 -83.544522 
L 181.48074 -85.087254 
L 183.193898 -86.585279 
L 184.907056 -88.003274 
L 186.620214 -89.391419 
L 188.333372 -90.789338 
L 190.04653 -92.205337 
L 191.759688 -93.673764 
L 193.472845 -95.115291 
L 195.186003 -96.639822 
L 196.899161 -98.135096 
L 198.612319 -99.629636 
L 200.325477 -101.232858 
L 202.038635 -102.844181 
L 203.751793 -104.534886 
L 205.464951 -106.413882 
L 207.178109 -108.454604 
L 208.891266 -110.745019 
L 210.604424 -113.279973 
L 212.317582 -116.078698 
L 214.03074 -118.833239 
L 215.743898 -121.508157 
L 217.457056 -124.515376 
L 219.170214 -127.733028 
L 220.883372 -131.000479 
L 222.59653 -134.521185 
L 224.309688 -137.982816 
L 224.309688 -141.109735 
L 224.309688 -141.109735 
L 222.59653 -137.494162 
L 220.883372 -133.825492 
L 219.170214 -130.420948 
L 217.457056 -127.073858 
L 215.743898 -123.951531 
L 214.03074 -121.179651 
L 212.317582 -118.316837 
L 210.604424 -115.417334 
L 208.891266 -112.796359 
L 207.178109 -110.425686 
L 205.464951 -108.311898 
L 203.751793 -106.365385 
L 202.038635 -104.612402 
L 200.325477 -102.942709 
L 198.612319 -101.280107 
L 196.899161 -99.727378 
L 195.186003 -98.176823 
L 193.472845 -96.599606 
L 191.759688 -95.108313 
L 190.04653 -93.594022 
L 188.333372 -92.133378 
L 186.620214 -90.688192 
L 184.907056 -89.252796 
L 183.193898 -87.786191 
L 181.48074 -86.238884 
L 179.767582 -84.647555 
L 178.054424 -83.072997 
L 176.341266 -81.591298 
L 174.628109 -80.146365 
L 172.914951 -78.683549 
L 171.201793 -77.24738 
L 169.488635 -75.917901 
L 167.775477 -74.601476 
L 166.062319 -73.131196 
L 164.349161 -71.608128 
L 162.636003 -70.025935 
L 160.922845 -68.516289 
L 159.209688 -67.071539 
L 157.49653 -65.61636 
L 155.783372 -64.23031 
L 154.070214 -62.727526 
L 152.357056 -61.23264 
L 150.643898 -59.883255 
L 148.93074 -58.612634 
L 147.217582 -57.33024 
L 145.504424 -56.107112 
L 143.791266 -54.981773 
L 142.078109 -54.027314 
L 140.364951 -52.962402 
L 138.651793 -51.924744 
L 136.938635 -50.956018 
L 135.225477 -50.096104 
L 133.512319 -49.263967 
L 131.799161 -48.440036 
L 130.086003 -47.579675 
L 128.372845 -46.870145 
L 126.659688 -46.222161 
L 124.94653 -45.521613 
L 123.233372 -44.890972 
L 121.520214 -44.307139 
L 119.807056 -43.656714 
L 118.093898 -43.128821 
L 116.38074 -42.676993 
L 114.667582 -42.229439 
L 112.954424 -41.860767 
L 111.241266 -41.541481 
L 109.528109 -41.227356 
L 107.814951 -40.971104 
L 106.101793 -40.77439 
L 104.388635 -40.560936 
L 102.675477 -40.266489 
L 100.962319 -39.912357 
L 99.249161 -39.551206 
L 97.536003 -39.21643 
L 95.822845 -38.908974 
L 94.109688 -38.597571 
L 92.39653 -38.360727 
L 90.683372 -38.027887 
L 88.970214 -37.770214 
L 87.257056 -37.569619 
L 85.543898 -37.399547 
L 83.83074 -37.280158 
L 82.117582 -37.186397 
L 80.404424 -37.010394 
L 78.691266 -36.719457 
L 76.978109 -36.384919 
L 75.264951 -36.098378 
L 73.551793 -35.815754 
L 71.838635 -35.561955 
L 70.125477 -35.313913 
L 68.412319 -35.103872 
L 66.699161 -34.881082 
L 64.986003 -34.717232 
L 63.272845 -34.610934 
L 61.559688 -34.406556 
L 59.84653 -34.227919 
L 58.133372 -34.015422 
L 56.420214 -33.773523 
L 54.707056 -33.536079 
L 52.993898 -33.341502 
L 51.28074 -33.141854 
L 49.567582 -32.828934 
L 47.854424 -32.564521 
L 46.141266 -32.333176 
L 44.428109 -32.08339 
L 42.714951 -31.863403 
L 41.001793 -31.674962 
L 39.288635 -31.435253 
L 37.575477 -31.261792 
L 35.862319 -31.056992 
L 34.149161 -30.890639 
L 32.436003 -30.724964 
L 30.722845 -30.56028 
L 29.009688 -30.396273 
z
" id="mbbf7107f9f"/>
    </defs>
    <g clip-path="url(#p027c315f4c)">
     <use style="fill:#1c4966;" x="0" xlink:href="#mbbf7107f9f" y="159.309562"/>
    </g>
   </g>
   <g id="PolyCollection_3">
    <defs>
     <path d="M 29.009688 -30.418388 
L 29.009688 -30.396273 
L 30.722845 -30.56028 
L 32.436003 -30.724964 
L 34.149161 -30.890639 
L 35.862319 -31.056992 
L 37.575477 -31.261792 
L 39.288635 -31.435253 
L 41.001793 -31.674962 
L 42.714951 -31.863403 
L 44.428109 -32.08339 
L 46.141266 -32.333176 
L 47.854424 -32.564521 
L 49.567582 -32.828934 
L 51.28074 -33.141854 
L 52.993898 -33.341502 
L 54.707056 -33.536079 
L 56.420214 -33.773523 
L 58.133372 -34.015422 
L 59.84653 -34.227919 
L 61.559688 -34.406556 
L 63.272845 -34.610934 
L 64.986003 -34.717232 
L 66.699161 -34.881082 
L 68.412319 -35.103872 
L 70.125477 -35.313913 
L 71.838635 -35.561955 
L 73.551793 -35.815754 
L 75.264951 -36.098378 
L 76.978109 -36.384919 
L 78.691266 -36.719457 
L 80.404424 -37.010394 
L 82.117582 -37.186397 
L 83.83074 -37.280158 
L 85.543898 -37.399547 
L 87.257056 -37.569619 
L 88.970214 -37.770214 
L 90.683372 -38.027887 
L 92.39653 -38.360727 
L 94.109688 -38.597571 
L 95.822845 -38.908974 
L 97.536003 -39.21643 
L 99.249161 -39.551206 
L 100.962319 -39.912357 
L 102.675477 -40.266489 
L 104.388635 -40.560936 
L 106.101793 -40.77439 
L 107.814951 -40.971104 
L 109.528109 -41.227356 
L 111.241266 -41.541481 
L 112.954424 -41.860767 
L 114.667582 -42.229439 
L 116.38074 -42.676993 
L 118.093898 -43.128821 
L 119.807056 -43.656714 
L 121.520214 -44.307139 
L 123.233372 -44.890972 
L 124.94653 -45.521613 
L 126.659688 -46.222161 
L 128.372845 -46.870145 
L 130.086003 -47.579675 
L 131.799161 -48.440036 
L 133.512319 -49.263967 
L 135.225477 -50.096104 
L 136.938635 -50.956018 
L 138.651793 -51.924744 
L 140.364951 -52.962402 
L 142.078109 -54.027314 
L 143.791266 -54.981773 
L 145.504424 -56.107112 
L 147.217582 -57.33024 
L 148.93074 -58.612634 
L 150.643898 -59.883255 
L 152.357056 -61.23264 
L 154.070214 -62.727526 
L 155.783372 -64.23031 
L 157.49653 -65.61636 
L 159.209688 -67.071539 
L 160.922845 -68.516289 
L 162.636003 -70.025935 
L 164.349161 -71.608128 
L 166.062319 -73.131196 
L 167.775477 -74.601476 
L 169.488635 -75.917901 
L 171.201793 -77.24738 
L 172.914951 -78.683549 
L 174.628109 -80.146365 
L 176.341266 -81.591298 
L 178.054424 -83.072997 
L 179.767582 -84.647555 
L 181.48074 -86.238884 
L 183.193898 -87.786191 
L 184.907056 -89.252796 
L 186.620214 -90.688192 
L 188.333372 -92.133378 
L 190.04653 -93.594022 
L 191.759688 -95.108313 
L 193.472845 -96.599606 
L 195.186003 -98.176823 
L 196.899161 -99.727378 
L 198.612319 -101.280107 
L 200.325477 -102.942709 
L 202.038635 -104.612402 
L 203.751793 -106.365385 
L 205.464951 -108.311898 
L 207.178109 -110.425686 
L 208.891266 -112.796359 
L 210.604424 -115.417334 
L 212.317582 -118.316837 
L 214.03074 -121.179651 
L 215.743898 -123.951531 
L 217.457056 -127.073858 
L 219.170214 -130.420948 
L 220.883372 -133.825492 
L 222.59653 -137.494162 
L 224.309688 -141.109735 
L 224.309688 -142.627793 
L 224.309688 -142.627793 
L 222.59653 -138.967916 
L 220.883372 -135.254955 
L 219.170214 -131.810217 
L 217.457056 -128.425378 
L 215.743898 -125.264838 
L 214.03074 -122.455442 
L 212.317582 -119.553965 
L 210.604424 -116.616985 
L 208.891266 -113.958937 
L 207.178109 -111.552738 
L 205.464951 -109.405414 
L 203.751793 -107.426943 
L 202.038635 -105.641937 
L 200.325477 -103.940034 
L 198.612319 -102.246752 
L 196.899161 -100.662086 
L 195.186003 -99.081003 
L 193.472845 -97.475072 
L 191.759688 -95.957904 
L 190.04653 -94.420671 
L 188.333372 -92.938806 
L 186.620214 -91.47256 
L 184.907056 -90.01623 
L 183.193898 -88.528115 
L 181.48074 -86.960278 
L 179.767582 -85.348579 
L 178.054424 -83.75316 
L 176.341266 -82.252732 
L 174.628109 -80.788547 
L 172.914951 -79.307408 
L 171.201793 -77.853568 
L 169.488635 -76.506883 
L 167.775477 -75.172022 
L 166.062319 -73.682863 
L 164.349161 -72.141839 
L 162.636003 -70.541878 
L 160.922845 -69.014479 
L 159.209688 -67.550965 
L 157.49653 -66.077463 
L 155.783372 -64.674156 
L 154.070214 -63.152691 
L 152.357056 -61.640096 
L 150.643898 -60.273435 
L 148.93074 -58.986803 
L 147.217582 -57.689089 
L 145.504424 -56.451758 
L 143.791266 -55.312919 
L 142.078109 -54.345893 
L 140.364951 -53.268991 
L 138.651793 -52.218866 
L 136.938635 -51.238674 
L 135.225477 -50.367797 
L 133.512319 -49.525056 
L 131.799161 -48.69133 
L 130.086003 -47.820956 
L 128.372845 -47.102606 
L 126.659688 -46.446777 
L 124.94653 -45.737793 
L 123.233372 -45.098924 
L 121.520214 -44.50835 
L 119.807056 -43.852302 
L 118.093898 -43.318325 
L 116.38074 -42.860174 
L 114.667582 -42.406804 
L 112.954424 -42.032816 
L 111.241266 -41.708369 
L 109.528109 -41.388689 
L 107.814951 -41.127874 
L 106.101793 -40.92778 
L 104.388635 -40.710375 
L 102.675477 -40.410645 
L 100.962319 -40.050713 
L 99.249161 -39.684086 
L 97.536003 -39.344009 
L 95.822845 -39.031193 
L 94.109688 -38.715179 
L 92.39653 -38.474002 
L 90.683372 -38.135539 
L 88.970214 -37.874743 
L 87.257056 -37.671941 
L 85.543898 -37.500389 
L 83.83074 -37.380699 
L 82.117582 -37.286918 
L 80.404424 -37.108718 
L 78.691266 -36.814565 
L 76.978109 -36.47537 
L 75.264951 -36.184814 
L 73.551793 -35.898857 
L 71.838635 -35.641649 
L 70.125477 -35.390062 
L 68.412319 -35.177022 
L 66.699161 -34.951469 
L 64.986003 -34.786288 
L 63.272845 -34.67987 
L 61.559688 -34.473668 
L 59.84653 -34.292927 
L 58.133372 -34.076557 
L 56.420214 -33.830714 
L 54.707056 -33.589258 
L 52.993898 -33.391986 
L 51.28074 -33.190051 
L 49.567582 -32.874524 
L 47.854424 -32.607418 
L 46.141266 -32.373735 
L 44.428109 -32.121683 
L 42.714951 -31.899489 
L 41.001793 -31.709105 
L 39.288635 -31.467502 
L 37.575477 -31.292094 
L 35.862319 -31.085352 
L 34.149161 -30.917214 
L 32.436003 -30.749952 
L 30.722845 -30.583798 
L 29.009688 -30.418388 
z
" id="m73b4037024"/>
    </defs>
    <g clip-path="url(#p027c315f4c)">
     <use style="fill:#cb6d51;" x="0" xlink:href="#m73b4037024" y="159.309562"/>
    </g>
   </g>
   <g id="PolyCollection_4">
    <defs>
     <path d="M 29.009688 -30.528307 
L 29.009688 -30.418388 
L 30.722845 -30.583798 
L 32.436003 -30.749952 
L 34.149161 -30.917214 
L 35.862319 -31.085352 
L 37.575477 -31.292094 
L 39.288635 -31.467502 
L 41.001793 -31.709105 
L 42.714951 -31.899489 
L 44.428109 -32.121683 
L 46.141266 -32.373735 
L 47.854424 -32.607418 
L 49.567582 -32.874524 
L 51.28074 -33.190051 
L 52.993898 -33.391986 
L 54.707056 -33.589258 
L 56.420214 -33.830714 
L 58.133372 -34.076557 
L 59.84653 -34.292927 
L 61.559688 -34.473668 
L 63.272845 -34.67987 
L 64.986003 -34.786288 
L 66.699161 -34.951469 
L 68.412319 -35.177022 
L 70.125477 -35.390062 
L 71.838635 -35.641649 
L 73.551793 -35.898857 
L 75.264951 -36.184814 
L 76.978109 -36.47537 
L 78.691266 -36.814565 
L 80.404424 -37.108718 
L 82.117582 -37.286918 
L 83.83074 -37.380699 
L 85.543898 -37.500389 
L 87.257056 -37.671941 
L 88.970214 -37.874743 
L 90.683372 -38.135539 
L 92.39653 -38.474002 
L 94.109688 -38.715179 
L 95.822845 -39.031193 
L 97.536003 -39.344009 
L 99.249161 -39.684086 
L 100.962319 -40.050713 
L 102.675477 -40.410645 
L 104.388635 -40.710375 
L 106.101793 -40.92778 
L 107.814951 -41.127874 
L 109.528109 -41.388689 
L 111.241266 -41.708369 
L 112.954424 -42.032816 
L 114.667582 -42.406804 
L 116.38074 -42.860174 
L 118.093898 -43.318325 
L 119.807056 -43.852302 
L 121.520214 -44.50835 
L 123.233372 -45.098924 
L 124.94653 -45.737793 
L 126.659688 -46.446777 
L 128.372845 -47.102606 
L 130.086003 -47.820956 
L 131.799161 -48.69133 
L 133.512319 -49.525056 
L 135.225477 -50.367797 
L 136.938635 -51.238674 
L 138.651793 -52.218866 
L 140.364951 -53.268991 
L 142.078109 -54.345893 
L 143.791266 -55.312919 
L 145.504424 -56.451758 
L 147.217582 -57.689089 
L 148.93074 -58.986803 
L 150.643898 -60.273435 
L 152.357056 -61.640096 
L 154.070214 -63.152691 
L 155.783372 -64.674156 
L 157.49653 -66.077463 
L 159.209688 -67.550965 
L 160.922845 -69.014479 
L 162.636003 -70.541878 
L 164.349161 -72.141839 
L 166.062319 -73.682863 
L 167.775477 -75.172022 
L 169.488635 -76.506883 
L 171.201793 -77.853568 
L 172.914951 -79.307408 
L 174.628109 -80.788547 
L 176.341266 -82.252732 
L 178.054424 -83.75316 
L 179.767582 -85.348579 
L 181.48074 -86.960278 
L 183.193898 -88.528115 
L 184.907056 -90.01623 
L 186.620214 -91.47256 
L 188.333372 -92.938806 
L 190.04653 -94.420671 
L 191.759688 -95.957904 
L 193.472845 -97.475072 
L 195.186003 -99.081003 
L 196.899161 -100.662086 
L 198.612319 -102.246752 
L 200.325477 -103.940034 
L 202.038635 -105.641937 
L 203.751793 -107.426943 
L 205.464951 -109.405414 
L 207.178109 -111.552738 
L 208.891266 -113.958937 
L 210.604424 -116.616985 
L 212.317582 -119.553965 
L 214.03074 -122.455442 
L 215.743898 -125.264838 
L 217.457056 -128.425378 
L 219.170214 -131.810217 
L 220.883372 -135.254955 
L 222.59653 -138.967916 
L 224.309688 -142.627793 
L 224.309688 -149.739084 
L 224.309688 -149.739084 
L 222.59653 -145.857759 
L 220.883372 -141.923233 
L 219.170214 -138.281788 
L 217.457056 -134.686814 
L 215.743898 -131.348602 
L 214.03074 -128.414447 
L 212.317582 -125.345908 
L 210.604424 -122.251036 
L 208.891266 -119.46584 
L 207.178109 -116.939754 
L 205.464951 -114.680028 
L 203.751793 -112.600719 
L 202.038635 -110.725132 
L 200.325477 -108.944904 
L 198.612319 -107.166855 
L 196.899161 -105.51575 
L 195.186003 -103.856646 
L 193.472845 -102.178603 
L 191.759688 -100.585889 
L 190.04653 -98.971672 
L 188.333372 -97.429429 
L 186.620214 -95.901316 
L 184.907056 -94.368454 
L 183.193898 -92.803501 
L 181.48074 -91.141546 
L 179.767582 -89.423544 
L 178.054424 -87.724722 
L 176.341266 -86.12211 
L 174.628109 -84.557138 
L 172.914951 -82.972988 
L 171.201793 -81.415523 
L 169.488635 -79.978241 
L 167.775477 -78.54429 
L 166.062319 -76.948272 
L 164.349161 -75.288961 
L 162.636003 -73.575601 
L 160.922845 -71.937283 
L 159.209688 -70.364936 
L 157.49653 -68.779625 
L 155.783372 -67.263302 
L 154.070214 -65.62671 
L 152.357056 -64.002927 
L 150.643898 -62.530578 
L 148.93074 -61.135076 
L 147.217582 -59.731101 
L 145.504424 -58.387982 
L 143.791266 -57.146477 
L 142.078109 -56.082233 
L 140.364951 -54.908596 
L 138.651793 -53.763971 
L 136.938635 -52.696436 
L 135.225477 -51.746101 
L 133.512319 -50.829977 
L 131.799161 -49.923508 
L 130.086003 -48.98333 
L 128.372845 -48.209532 
L 126.659688 -47.504811 
L 124.94653 -46.740758 
L 123.233372 -46.050467 
L 121.520214 -45.416561 
L 119.807056 -44.721611 
L 118.093898 -44.148347 
L 116.38074 -43.653921 
L 114.667582 -43.175366 
L 112.954424 -42.775308 
L 111.241266 -42.423843 
L 109.528109 -42.079692 
L 107.814951 -41.798404 
L 106.101793 -41.582799 
L 104.388635 -41.347673 
L 102.675477 -41.026873 
L 100.962319 -40.642289 
L 99.249161 -40.251283 
L 97.536003 -39.887108 
L 95.822845 -39.549449 
L 94.109688 -39.215222 
L 92.39653 -38.951651 
L 90.683372 -38.588544 
L 88.970214 -38.307641 
L 87.257056 -38.088574 
L 85.543898 -37.905151 
L 83.83074 -37.777978 
L 82.117582 -37.678644 
L 80.404424 -37.491528 
L 78.691266 -37.183006 
L 76.978109 -36.827645 
L 75.264951 -36.522461 
L 73.551793 -36.221538 
L 71.838635 -35.950188 
L 70.125477 -35.685988 
L 68.412319 -35.463378 
L 66.699161 -35.229594 
L 64.986003 -35.057741 
L 63.272845 -34.946728 
L 61.559688 -34.733121 
L 59.84653 -34.546694 
L 58.133372 -34.321784 
L 56.420214 -34.065689 
L 54.707056 -33.814203 
L 52.993898 -33.609033 
L 51.28074 -33.397715 
L 49.567582 -33.07078 
L 47.854424 -32.794651 
L 46.141266 -32.552953 
L 44.428109 -32.292562 
L 42.714951 -32.062506 
L 41.001793 -31.864225 
L 39.288635 -31.614043 
L 37.575477 -31.430582 
L 35.862319 -31.217412 
L 34.149161 -31.043368 
L 32.436003 -30.870534 
L 30.722845 -30.698908 
L 29.009688 -30.528307 
z
" id="m899fc0e221"/>
    </defs>
    <g clip-path="url(#p027c315f4c)">
     <use style="fill:#f1d0a6;" x="0" xlink:href="#m899fc0e221" y="159.309562"/>
    </g>
   </g>
   <g id="matplotlib.axis_1">
    <g id="xtick_1">
     <g id="line2d_1">
      <defs>
       <path d="M 0 0 
L 0 3.5 
" id="m6d327e67b5" style="stroke:#000000;stroke-width:0.8;"/>
      </defs>
      <g>
       <use style="stroke:#000000;stroke-width:0.8;" x="46.141266" xlink:href="#m6d327e67b5" y="132.128"/>
      </g>
     </g>
     <g id="text_1">
      <!-- 1910 -->
      <defs>
       <path d="M 12.40625 8.296875 
L 28.515625 8.296875 
L 28.515625 63.921875 
L 10.984375 60.40625 
L 10.984375 69.390625 
L 28.421875 72.90625 
L 38.28125 72.90625 
L 38.28125 8.296875 
L 54.390625 8.296875 
L 54.390625 0 
L 12.40625 0 
z
" id="DejaVuSans-31"/>
       <path d="M 10.984375 1.515625 
L 10.984375 10.5 
Q 14.703125 8.734375 18.5 7.8125 
Q 22.3125 6.890625 25.984375 6.890625 
Q 35.75 6.890625 40.890625 13.453125 
Q 46.046875 20.015625 46.78125 33.40625 
Q 43.953125 29.203125 39.59375 26.953125 
Q 35.25 24.703125 29.984375 24.703125 
Q 19.046875 24.703125 12.671875 31.3125 
Q 6.296875 37.9375 6.296875 49.421875 
Q 6.296875 60.640625 12.9375 67.421875 
Q 19.578125 74.21875 30.609375 74.21875 
Q 43.265625 74.21875 49.921875 64.515625 
Q 56.59375 54.828125 56.59375 36.375 
Q 56.59375 19.140625 48.40625 8.859375 
Q 40.234375 -1.421875 26.421875 -1.421875 
Q 22.703125 -1.421875 18.890625 -0.6875 
Q 15.09375 0.046875 10.984375 1.515625 
z
M 30.609375 32.421875 
Q 37.25 32.421875 41.125 36.953125 
Q 45.015625 41.5 45.015625 49.421875 
Q 45.015625 57.28125 41.125 61.84375 
Q 37.25 66.40625 30.609375 66.40625 
Q 23.96875 66.40625 20.09375 61.84375 
Q 16.21875 57.28125 16.21875 49.421875 
Q 16.21875 41.5 20.09375 36.953125 
Q 23.96875 32.421875 30.609375 32.421875 
z
" id="DejaVuSans-39"/>
       <path d="M 31.78125 66.40625 
Q 24.171875 66.40625 20.328125 58.90625 
Q 16.5 51.421875 16.5 36.375 
Q 16.5 21.390625 20.328125 13.890625 
Q 24.171875 6.390625 31.78125 6.390625 
Q 39.453125 6.390625 43.28125 13.890625 
Q 47.125 21.390625 47.125 36.375 
Q 47.125 51.421875 43.28125 58.90625 
Q 39.453125 66.40625 31.78125 66.40625 
z
M 31.78125 74.21875 
Q 44.046875 74.21875 50.515625 64.515625 
Q 56.984375 54.828125 56.984375 36.375 
Q 56.984375 17.96875 50.515625 8.265625 
Q 44.046875 -1.421875 31.78125 -1.421875 
Q 19.53125 -1.421875 13.0625 8.265625 
Q 6.59375 17.96875 6.59375 36.375 
Q 6.59375 54.828125 13.0625 64.515625 
Q 19.53125 74.21875 31.78125 74.21875 
z
" id="DejaVuSans-30"/>
      </defs>
      <g transform="translate(38.506266 143.687062)scale(0.06 -0.06)">
       <use xlink:href="#DejaVuSans-31"/>
       <use x="63.623047" xlink:href="#DejaVuSans-39"/>
       <use x="127.246094" xlink:href="#DejaVuSans-31"/>
       <use x="190.869141" xlink:href="#DejaVuSans-30"/>
      </g>
     </g>
    </g>
    <g id="xtick_2">
     <g id="line2d_2">
      <g>
       <use style="stroke:#000000;stroke-width:0.8;" x="80.404424" xlink:href="#m6d327e67b5" y="132.128"/>
      </g>
     </g>
     <g id="text_2">
      <!-- 1930 -->
      <defs>
       <path d="M 40.578125 39.3125 
Q 47.65625 37.796875 51.625 33 
Q 55.609375 28.21875 55.609375 21.1875 
Q 55.609375 10.40625 48.1875 4.484375 
Q 40.765625 -1.421875 27.09375 -1.421875 
Q 22.515625 -1.421875 17.65625 -0.515625 
Q 12.796875 0.390625 7.625 2.203125 
L 7.625 11.71875 
Q 11.71875 9.328125 16.59375 8.109375 
Q 21.484375 6.890625 26.8125 6.890625 
Q 36.078125 6.890625 40.9375 10.546875 
Q 45.796875 14.203125 45.796875 21.1875 
Q 45.796875 27.640625 41.28125 31.265625 
Q 36.765625 34.90625 28.71875 34.90625 
L 20.21875 34.90625 
L 20.21875 43.015625 
L 29.109375 43.015625 
Q 36.375 43.015625 40.234375 45.921875 
Q 44.09375 48.828125 44.09375 54.296875 
Q 44.09375 59.90625 40.109375 62.90625 
Q 36.140625 65.921875 28.71875 65.921875 
Q 24.65625 65.921875 20.015625 65.03125 
Q 15.375 64.15625 9.8125 62.3125 
L 9.8125 71.09375 
Q 15.4375 72.65625 20.34375 73.4375 
Q 25.25 74.21875 29.59375 74.21875 
Q 40.828125 74.21875 47.359375 69.109375 
Q 53.90625 64.015625 53.90625 55.328125 
Q 53.90625 49.265625 50.4375 45.09375 
Q 46.96875 40.921875 40.578125 39.3125 
z
" id="DejaVuSans-33"/>
      </defs>
      <g transform="translate(72.769424 143.687062)scale(0.06 -0.06)">
       <use xlink:href="#DejaVuSans-31"/>
       <use x="63.623047" xlink:href="#DejaVuSans-39"/>
       <use x="127.246094" xlink:href="#DejaVuSans-33"/>
       <use x="190.869141" xlink:href="#DejaVuSans-30"/>
      </g>
     </g>
    </g>
    <g id="xtick_3">
     <g id="line2d_3">
      <g>
       <use style="stroke:#000000;stroke-width:0.8;" x="114.667582" xlink:href="#m6d327e67b5" y="132.128"/>
      </g>
     </g>
     <g id="text_3">
      <!-- 1950 -->
      <defs>
       <path d="M 10.796875 72.90625 
L 49.515625 72.90625 
L 49.515625 64.59375 
L 19.828125 64.59375 
L 19.828125 46.734375 
Q 21.96875 47.46875 24.109375 47.828125 
Q 26.265625 48.1875 28.421875 48.1875 
Q 40.625 48.1875 47.75 41.5 
Q 54.890625 34.8125 54.890625 23.390625 
Q 54.890625 11.625 47.5625 5.09375 
Q 40.234375 -1.421875 26.90625 -1.421875 
Q 22.3125 -1.421875 17.546875 -0.640625 
Q 12.796875 0.140625 7.71875 1.703125 
L 7.71875 11.625 
Q 12.109375 9.234375 16.796875 8.0625 
Q 21.484375 6.890625 26.703125 6.890625 
Q 35.15625 6.890625 40.078125 11.328125 
Q 45.015625 15.765625 45.015625 23.390625 
Q 45.015625 31 40.078125 35.4375 
Q 35.15625 39.890625 26.703125 39.890625 
Q 22.75 39.890625 18.8125 39.015625 
Q 14.890625 38.140625 10.796875 36.28125 
z
" id="DejaVuSans-35"/>
      </defs>
      <g transform="translate(107.032582 143.687062)scale(0.06 -0.06)">
       <use xlink:href="#DejaVuSans-31"/>
       <use x="63.623047" xlink:href="#DejaVuSans-39"/>
       <use x="127.246094" xlink:href="#DejaVuSans-35"/>
       <use x="190.869141" xlink:href="#DejaVuSans-30"/>
      </g>
     </g>
    </g>
    <g id="xtick_4">
     <g id="line2d_4">
      <g>
       <use style="stroke:#000000;stroke-width:0.8;" x="148.93074" xlink:href="#m6d327e67b5" y="132.128"/>
      </g>
     </g>
     <g id="text_4">
      <!-- 1970 -->
      <defs>
       <path d="M 8.203125 72.90625 
L 55.078125 72.90625 
L 55.078125 68.703125 
L 28.609375 0 
L 18.3125 0 
L 43.21875 64.59375 
L 8.203125 64.59375 
z
" id="DejaVuSans-37"/>
      </defs>
      <g transform="translate(141.29574 143.687062)scale(0.06 -0.06)">
       <use xlink:href="#DejaVuSans-31"/>
       <use x="63.623047" xlink:href="#DejaVuSans-39"/>
       <use x="127.246094" xlink:href="#DejaVuSans-37"/>
       <use x="190.869141" xlink:href="#DejaVuSans-30"/>
      </g>
     </g>
    </g>
    <g id="xtick_5">
     <g id="line2d_5">
      <g>
       <use style="stroke:#000000;stroke-width:0.8;" x="183.193898" xlink:href="#m6d327e67b5" y="132.128"/>
      </g>
     </g>
     <g id="text_5">
      <!-- 1990 -->
      <g transform="translate(175.558898 143.687062)scale(0.06 -0.06)">
       <use xlink:href="#DejaVuSans-31"/>
       <use x="63.623047" xlink:href="#DejaVuSans-39"/>
       <use x="127.246094" xlink:href="#DejaVuSans-39"/>
       <use x="190.869141" xlink:href="#DejaVuSans-30"/>
      </g>
     </g>
    </g>
    <g id="xtick_6">
     <g id="line2d_6">
      <g>
       <use style="stroke:#000000;stroke-width:0.8;" x="217.457056" xlink:href="#m6d327e67b5" y="132.128"/>
      </g>
     </g>
     <g id="text_6">
      <!-- 2010 -->
      <defs>
       <path d="M 19.1875 8.296875 
L 53.609375 8.296875 
L 53.609375 0 
L 7.328125 0 
L 7.328125 8.296875 
Q 12.9375 14.109375 22.625 23.890625 
Q 32.328125 33.6875 34.8125 36.53125 
Q 39.546875 41.84375 41.421875 45.53125 
Q 43.3125 49.21875 43.3125 52.78125 
Q 43.3125 58.59375 39.234375 62.25 
Q 35.15625 65.921875 28.609375 65.921875 
Q 23.96875 65.921875 18.8125 64.3125 
Q 13.671875 62.703125 7.8125 59.421875 
L 7.8125 69.390625 
Q 13.765625 71.78125 18.9375 73 
Q 24.125 74.21875 28.421875 74.21875 
Q 39.75 74.21875 46.484375 68.546875 
Q 53.21875 62.890625 53.21875 53.421875 
Q 53.21875 48.921875 51.53125 44.890625 
Q 49.859375 40.875 45.40625 35.40625 
Q 44.1875 33.984375 37.640625 27.21875 
Q 31.109375 20.453125 19.1875 8.296875 
z
" id="DejaVuSans-32"/>
      </defs>
      <g transform="translate(209.822056 143.687062)scale(0.06 -0.06)">
       <use xlink:href="#DejaVuSans-32"/>
       <use x="63.623047" xlink:href="#DejaVuSans-30"/>
       <use x="127.246094" xlink:href="#DejaVuSans-31"/>
       <use x="190.869141" xlink:href="#DejaVuSans-30"/>
      </g>
     </g>
    </g>
    <g id="text_7">
     <!-- year -->
     <defs>
      <path d="M 32.171875 -5.078125 
Q 28.375 -14.84375 24.75 -17.8125 
Q 21.140625 -20.796875 15.09375 -20.796875 
L 7.90625 -20.796875 
L 7.90625 -13.28125 
L 13.1875 -13.28125 
Q 16.890625 -13.28125 18.9375 -11.515625 
Q 21 -9.765625 23.484375 -3.21875 
L 25.09375 0.875 
L 2.984375 54.6875 
L 12.5 54.6875 
L 29.59375 11.921875 
L 46.6875 54.6875 
L 56.203125 54.6875 
z
" id="DejaVuSans-79"/>
      <path d="M 56.203125 29.59375 
L 56.203125 25.203125 
L 14.890625 25.203125 
Q 15.484375 15.921875 20.484375 11.0625 
Q 25.484375 6.203125 34.421875 6.203125 
Q 39.59375 6.203125 44.453125 7.46875 
Q 49.3125 8.734375 54.109375 11.28125 
L 54.109375 2.78125 
Q 49.265625 0.734375 44.1875 -0.34375 
Q 39.109375 -1.421875 33.890625 -1.421875 
Q 20.796875 -1.421875 13.15625 6.1875 
Q 5.515625 13.8125 5.515625 26.8125 
Q 5.515625 40.234375 12.765625 48.109375 
Q 20.015625 56 32.328125 56 
Q 43.359375 56 49.78125 48.890625 
Q 56.203125 41.796875 56.203125 29.59375 
z
M 47.21875 32.234375 
Q 47.125 39.59375 43.09375 43.984375 
Q 39.0625 48.390625 32.421875 48.390625 
Q 24.90625 48.390625 20.390625 44.140625 
Q 15.875 39.890625 15.1875 32.171875 
z
" id="DejaVuSans-65"/>
      <path d="M 34.28125 27.484375 
Q 23.390625 27.484375 19.1875 25 
Q 14.984375 22.515625 14.984375 16.5 
Q 14.984375 11.71875 18.140625 8.90625 
Q 21.296875 6.109375 26.703125 6.109375 
Q 34.1875 6.109375 38.703125 11.40625 
Q 43.21875 16.703125 43.21875 25.484375 
L 43.21875 27.484375 
z
M 52.203125 31.203125 
L 52.203125 0 
L 43.21875 0 
L 43.21875 8.296875 
Q 40.140625 3.328125 35.546875 0.953125 
Q 30.953125 -1.421875 24.3125 -1.421875 
Q 15.921875 -1.421875 10.953125 3.296875 
Q 6 8.015625 6 15.921875 
Q 6 25.140625 12.171875 29.828125 
Q 18.359375 34.515625 30.609375 34.515625 
L 43.21875 34.515625 
L 43.21875 35.40625 
Q 43.21875 41.609375 39.140625 45 
Q 35.0625 48.390625 27.6875 48.390625 
Q 23 48.390625 18.546875 47.265625 
Q 14.109375 46.140625 10.015625 43.890625 
L 10.015625 52.203125 
Q 14.9375 54.109375 19.578125 55.046875 
Q 24.21875 56 28.609375 56 
Q 40.484375 56 46.34375 49.84375 
Q 52.203125 43.703125 52.203125 31.203125 
z
" id="DejaVuSans-61"/>
      <path d="M 41.109375 46.296875 
Q 39.59375 47.171875 37.8125 47.578125 
Q 36.03125 48 33.890625 48 
Q 26.265625 48 22.1875 43.046875 
Q 18.109375 38.09375 18.109375 28.8125 
L 18.109375 0 
L 9.078125 0 
L 9.078125 54.6875 
L 18.109375 54.6875 
L 18.109375 46.1875 
Q 20.953125 51.171875 25.484375 53.578125 
Q 30.03125 56 36.53125 56 
Q 37.453125 56 38.578125 55.875 
Q 39.703125 55.765625 41.0625 55.515625 
z
" id="DejaVuSans-72"/>
     </defs>
     <g transform="translate(118.850859 154.253781)scale(0.07 -0.07)">
      <use xlink:href="#DejaVuSans-79"/>
      <use x="59.179688" xlink:href="#DejaVuSans-65"/>
      <use x="120.703125" xlink:href="#DejaVuSans-61"/>
      <use x="181.982422" xlink:href="#DejaVuSans-72"/>
     </g>
    </g>
   </g>
   <g id="matplotlib.axis_2">
    <g id="ytick_1">
     <g id="line2d_7">
      <defs>
       <path d="M 0 0 
L -3.5 0 
" id="mdf7677f911" style="stroke:#000000;stroke-width:0.8;"/>
      </defs>
      <g>
       <use style="stroke:#000000;stroke-width:0.8;" x="29.009688" xlink:href="#mdf7677f911" y="132.128"/>
      </g>
     </g>
     <g id="text_8">
      <!-- 0 -->
      <g transform="translate(18.192188 134.407531)scale(0.06 -0.06)">
       <use xlink:href="#DejaVuSans-30"/>
      </g>
     </g>
    </g>
    <g id="ytick_2">
     <g id="line2d_8">
      <g>
       <use style="stroke:#000000;stroke-width:0.8;" x="29.009688" xlink:href="#mdf7677f911" y="113.184364"/>
      </g>
     </g>
     <g id="text_9">
      <!-- 5 -->
      <g transform="translate(18.192188 115.463895)scale(0.06 -0.06)">
       <use xlink:href="#DejaVuSans-35"/>
      </g>
     </g>
    </g>
    <g id="ytick_3">
     <g id="line2d_9">
      <g>
       <use style="stroke:#000000;stroke-width:0.8;" x="29.009688" xlink:href="#mdf7677f911" y="94.240727"/>
      </g>
     </g>
     <g id="text_10">
      <!-- 10 -->
      <g transform="translate(14.374688 96.520259)scale(0.06 -0.06)">
       <use xlink:href="#DejaVuSans-31"/>
       <use x="63.623047" xlink:href="#DejaVuSans-30"/>
      </g>
     </g>
    </g>
    <g id="ytick_4">
     <g id="line2d_10">
      <g>
       <use style="stroke:#000000;stroke-width:0.8;" x="29.009688" xlink:href="#mdf7677f911" y="75.297091"/>
      </g>
     </g>
     <g id="text_11">
      <!-- 15 -->
      <g transform="translate(14.374688 77.576622)scale(0.06 -0.06)">
       <use xlink:href="#DejaVuSans-31"/>
       <use x="63.623047" xlink:href="#DejaVuSans-35"/>
      </g>
     </g>
    </g>
    <g id="ytick_5">
     <g id="line2d_11">
      <g>
       <use style="stroke:#000000;stroke-width:0.8;" x="29.009688" xlink:href="#mdf7677f911" y="56.353455"/>
      </g>
     </g>
     <g id="text_12">
      <!-- 20 -->
      <g transform="translate(14.374688 58.632986)scale(0.06 -0.06)">
       <use xlink:href="#DejaVuSans-32"/>
       <use x="63.623047" xlink:href="#DejaVuSans-30"/>
      </g>
     </g>
    </g>
    <g id="ytick_6">
     <g id="line2d_12">
      <g>
       <use style="stroke:#000000;stroke-width:0.8;" x="29.009688" xlink:href="#mdf7677f911" y="37.409818"/>
      </g>
     </g>
     <g id="text_13">
      <!-- 25 -->
      <g transform="translate(14.374688 39.689349)scale(0.06 -0.06)">
       <use xlink:href="#DejaVuSans-32"/>
       <use x="63.623047" xlink:href="#DejaVuSans-35"/>
      </g>
     </g>
    </g>
    <g id="ytick_7">
     <g id="line2d_13">
      <g>
       <use style="stroke:#000000;stroke-width:0.8;" x="29.009688" xlink:href="#mdf7677f911" y="18.466182"/>
      </g>
     </g>
     <g id="text_14">
      <!-- 30 -->
      <g transform="translate(14.374688 20.745713)scale(0.06 -0.06)">
       <use xlink:href="#DejaVuSans-33"/>
       <use x="63.623047" xlink:href="#DejaVuSans-30"/>
      </g>
     </g>
    </g>
    <g id="text_15">
     <!-- dry weight (Gigatonnes) -->
     <defs>
      <path d="M 45.40625 46.390625 
L 45.40625 75.984375 
L 54.390625 75.984375 
L 54.390625 0 
L 45.40625 0 
L 45.40625 8.203125 
Q 42.578125 3.328125 38.25 0.953125 
Q 33.9375 -1.421875 27.875 -1.421875 
Q 17.96875 -1.421875 11.734375 6.484375 
Q 5.515625 14.40625 5.515625 27.296875 
Q 5.515625 40.1875 11.734375 48.09375 
Q 17.96875 56 27.875 56 
Q 33.9375 56 38.25 53.625 
Q 42.578125 51.265625 45.40625 46.390625 
z
M 14.796875 27.296875 
Q 14.796875 17.390625 18.875 11.75 
Q 22.953125 6.109375 30.078125 6.109375 
Q 37.203125 6.109375 41.296875 11.75 
Q 45.40625 17.390625 45.40625 27.296875 
Q 45.40625 37.203125 41.296875 42.84375 
Q 37.203125 48.484375 30.078125 48.484375 
Q 22.953125 48.484375 18.875 42.84375 
Q 14.796875 37.203125 14.796875 27.296875 
z
" id="DejaVuSans-64"/>
      <path id="DejaVuSans-20"/>
      <path d="M 4.203125 54.6875 
L 13.1875 54.6875 
L 24.421875 12.015625 
L 35.59375 54.6875 
L 46.1875 54.6875 
L 57.421875 12.015625 
L 68.609375 54.6875 
L 77.59375 54.6875 
L 63.28125 0 
L 52.6875 0 
L 40.921875 44.828125 
L 29.109375 0 
L 18.5 0 
z
" id="DejaVuSans-77"/>
      <path d="M 9.421875 54.6875 
L 18.40625 54.6875 
L 18.40625 0 
L 9.421875 0 
z
M 9.421875 75.984375 
L 18.40625 75.984375 
L 18.40625 64.59375 
L 9.421875 64.59375 
z
" id="DejaVuSans-69"/>
      <path d="M 45.40625 27.984375 
Q 45.40625 37.75 41.375 43.109375 
Q 37.359375 48.484375 30.078125 48.484375 
Q 22.859375 48.484375 18.828125 43.109375 
Q 14.796875 37.75 14.796875 27.984375 
Q 14.796875 18.265625 18.828125 12.890625 
Q 22.859375 7.515625 30.078125 7.515625 
Q 37.359375 7.515625 41.375 12.890625 
Q 45.40625 18.265625 45.40625 27.984375 
z
M 54.390625 6.78125 
Q 54.390625 -7.171875 48.1875 -13.984375 
Q 42 -20.796875 29.203125 -20.796875 
Q 24.46875 -20.796875 20.265625 -20.09375 
Q 16.0625 -19.390625 12.109375 -17.921875 
L 12.109375 -9.1875 
Q 16.0625 -11.328125 19.921875 -12.34375 
Q 23.78125 -13.375 27.78125 -13.375 
Q 36.625 -13.375 41.015625 -8.765625 
Q 45.40625 -4.15625 45.40625 5.171875 
L 45.40625 9.625 
Q 42.625 4.78125 38.28125 2.390625 
Q 33.9375 0 27.875 0 
Q 17.828125 0 11.671875 7.65625 
Q 5.515625 15.328125 5.515625 27.984375 
Q 5.515625 40.671875 11.671875 48.328125 
Q 17.828125 56 27.875 56 
Q 33.9375 56 38.28125 53.609375 
Q 42.625 51.21875 45.40625 46.390625 
L 45.40625 54.6875 
L 54.390625 54.6875 
z
" id="DejaVuSans-67"/>
      <path d="M 54.890625 33.015625 
L 54.890625 0 
L 45.90625 0 
L 45.90625 32.71875 
Q 45.90625 40.484375 42.875 44.328125 
Q 39.84375 48.1875 33.796875 48.1875 
Q 26.515625 48.1875 22.3125 43.546875 
Q 18.109375 38.921875 18.109375 30.90625 
L 18.109375 0 
L 9.078125 0 
L 9.078125 75.984375 
L 18.109375 75.984375 
L 18.109375 46.1875 
Q 21.34375 51.125 25.703125 53.5625 
Q 30.078125 56 35.796875 56 
Q 45.21875 56 50.046875 50.171875 
Q 54.890625 44.34375 54.890625 33.015625 
z
" id="DejaVuSans-68"/>
      <path d="M 18.3125 70.21875 
L 18.3125 54.6875 
L 36.8125 54.6875 
L 36.8125 47.703125 
L 18.3125 47.703125 
L 18.3125 18.015625 
Q 18.3125 11.328125 20.140625 9.421875 
Q 21.96875 7.515625 27.59375 7.515625 
L 36.8125 7.515625 
L 36.8125 0 
L 27.59375 0 
Q 17.1875 0 13.234375 3.875 
Q 9.28125 7.765625 9.28125 18.015625 
L 9.28125 47.703125 
L 2.6875 47.703125 
L 2.6875 54.6875 
L 9.28125 54.6875 
L 9.28125 70.21875 
z
" id="DejaVuSans-74"/>
      <path d="M 31 75.875 
Q 24.46875 64.65625 21.28125 53.65625 
Q 18.109375 42.671875 18.109375 31.390625 
Q 18.109375 20.125 21.3125 9.0625 
Q 24.515625 -2 31 -13.1875 
L 23.1875 -13.1875 
Q 15.875 -1.703125 12.234375 9.375 
Q 8.59375 20.453125 8.59375 31.390625 
Q 8.59375 42.28125 12.203125 53.3125 
Q 15.828125 64.359375 23.1875 75.875 
z
" id="DejaVuSans-28"/>
      <path d="M 59.515625 10.40625 
L 59.515625 29.984375 
L 43.40625 29.984375 
L 43.40625 38.09375 
L 69.28125 38.09375 
L 69.28125 6.78125 
Q 63.578125 2.734375 56.6875 0.65625 
Q 49.8125 -1.421875 42 -1.421875 
Q 24.90625 -1.421875 15.25 8.5625 
Q 5.609375 18.5625 5.609375 36.375 
Q 5.609375 54.25 15.25 64.234375 
Q 24.90625 74.21875 42 74.21875 
Q 49.125 74.21875 55.546875 72.453125 
Q 61.96875 70.703125 67.390625 67.28125 
L 67.390625 56.78125 
Q 61.921875 61.421875 55.765625 63.765625 
Q 49.609375 66.109375 42.828125 66.109375 
Q 29.4375 66.109375 22.71875 58.640625 
Q 16.015625 51.171875 16.015625 36.375 
Q 16.015625 21.625 22.71875 14.15625 
Q 29.4375 6.6875 42.828125 6.6875 
Q 48.046875 6.6875 52.140625 7.59375 
Q 56.25 8.5 59.515625 10.40625 
z
" id="DejaVuSans-47"/>
      <path d="M 30.609375 48.390625 
Q 23.390625 48.390625 19.1875 42.75 
Q 14.984375 37.109375 14.984375 27.296875 
Q 14.984375 17.484375 19.15625 11.84375 
Q 23.34375 6.203125 30.609375 6.203125 
Q 37.796875 6.203125 41.984375 11.859375 
Q 46.1875 17.53125 46.1875 27.296875 
Q 46.1875 37.015625 41.984375 42.703125 
Q 37.796875 48.390625 30.609375 48.390625 
z
M 30.609375 56 
Q 42.328125 56 49.015625 48.375 
Q 55.71875 40.765625 55.71875 27.296875 
Q 55.71875 13.875 49.015625 6.21875 
Q 42.328125 -1.421875 30.609375 -1.421875 
Q 18.84375 -1.421875 12.171875 6.21875 
Q 5.515625 13.875 5.515625 27.296875 
Q 5.515625 40.765625 12.171875 48.375 
Q 18.84375 56 30.609375 56 
z
" id="DejaVuSans-6f"/>
      <path d="M 54.890625 33.015625 
L 54.890625 0 
L 45.90625 0 
L 45.90625 32.71875 
Q 45.90625 40.484375 42.875 44.328125 
Q 39.84375 48.1875 33.796875 48.1875 
Q 26.515625 48.1875 22.3125 43.546875 
Q 18.109375 38.921875 18.109375 30.90625 
L 18.109375 0 
L 9.078125 0 
L 9.078125 54.6875 
L 18.109375 54.6875 
L 18.109375 46.1875 
Q 21.34375 51.125 25.703125 53.5625 
Q 30.078125 56 35.796875 56 
Q 45.21875 56 50.046875 50.171875 
Q 54.890625 44.34375 54.890625 33.015625 
z
" id="DejaVuSans-6e"/>
      <path d="M 44.28125 53.078125 
L 44.28125 44.578125 
Q 40.484375 46.53125 36.375 47.5 
Q 32.28125 48.484375 27.875 48.484375 
Q 21.1875 48.484375 17.84375 46.4375 
Q 14.5 44.390625 14.5 40.28125 
Q 14.5 37.15625 16.890625 35.375 
Q 19.28125 33.59375 26.515625 31.984375 
L 29.59375 31.296875 
Q 39.15625 29.25 43.1875 25.515625 
Q 47.21875 21.78125 47.21875 15.09375 
Q 47.21875 7.46875 41.1875 3.015625 
Q 35.15625 -1.421875 24.609375 -1.421875 
Q 20.21875 -1.421875 15.453125 -0.5625 
Q 10.6875 0.296875 5.421875 2 
L 5.421875 11.28125 
Q 10.40625 8.6875 15.234375 7.390625 
Q 20.0625 6.109375 24.8125 6.109375 
Q 31.15625 6.109375 34.5625 8.28125 
Q 37.984375 10.453125 37.984375 14.40625 
Q 37.984375 18.0625 35.515625 20.015625 
Q 33.0625 21.96875 24.703125 23.78125 
L 21.578125 24.515625 
Q 13.234375 26.265625 9.515625 29.90625 
Q 5.8125 33.546875 5.8125 39.890625 
Q 5.8125 47.609375 11.28125 51.796875 
Q 16.75 56 26.8125 56 
Q 31.78125 56 36.171875 55.265625 
Q 40.578125 54.546875 44.28125 53.078125 
z
" id="DejaVuSans-73"/>
      <path d="M 8.015625 75.875 
L 15.828125 75.875 
Q 23.140625 64.359375 26.78125 53.3125 
Q 30.421875 42.28125 30.421875 31.390625 
Q 30.421875 20.453125 26.78125 9.375 
Q 23.140625 -1.703125 15.828125 -13.1875 
L 8.015625 -13.1875 
Q 14.5 -2 17.703125 9.0625 
Q 20.90625 20.125 20.90625 31.390625 
Q 20.90625 42.671875 17.703125 53.65625 
Q 14.5 64.65625 8.015625 75.875 
z
" id="DejaVuSans-29"/>
     </defs>
     <g transform="translate(8.918906 112.080484)rotate(-90)scale(0.07 -0.07)">
      <use xlink:href="#DejaVuSans-64"/>
      <use x="63.476562" xlink:href="#DejaVuSans-72"/>
      <use x="104.589844" xlink:href="#DejaVuSans-79"/>
      <use x="163.769531" xlink:href="#DejaVuSans-20"/>
      <use x="195.556641" xlink:href="#DejaVuSans-77"/>
      <use x="277.34375" xlink:href="#DejaVuSans-65"/>
      <use x="338.867188" xlink:href="#DejaVuSans-69"/>
      <use x="366.650391" xlink:href="#DejaVuSans-67"/>
      <use x="430.126953" xlink:href="#DejaVuSans-68"/>
      <use x="493.505859" xlink:href="#DejaVuSans-74"/>
      <use x="532.714844" xlink:href="#DejaVuSans-20"/>
      <use x="564.501953" xlink:href="#DejaVuSans-28"/>
      <use x="603.515625" xlink:href="#DejaVuSans-47"/>
      <use x="681.005859" xlink:href="#DejaVuSans-69"/>
      <use x="708.789062" xlink:href="#DejaVuSans-67"/>
      <use x="772.265625" xlink:href="#DejaVuSans-61"/>
      <use x="833.544922" xlink:href="#DejaVuSans-74"/>
      <use x="872.753906" xlink:href="#DejaVuSans-6f"/>
      <use x="933.935547" xlink:href="#DejaVuSans-6e"/>
      <use x="997.314453" xlink:href="#DejaVuSans-6e"/>
      <use x="1060.693359" xlink:href="#DejaVuSans-65"/>
      <use x="1122.216797" xlink:href="#DejaVuSans-73"/>
      <use x="1174.316406" xlink:href="#DejaVuSans-29"/>
     </g>
    </g>
   </g>
   <g id="line2d_14">
    <path clip-path="url(#p027c315f4c)" d="M 29.009688 128.914083 
L 30.722845 128.750131 
L 32.436003 128.585522 
L 34.149161 128.419957 
L 35.862319 128.253674 
L 37.575477 128.048961 
L 39.288635 127.875617 
L 41.001793 127.636071 
L 42.714951 127.447773 
L 44.428109 127.227952 
L 46.141266 126.978387 
L 47.854424 126.747311 
L 49.567582 126.483171 
L 51.28074 126.170597 
L 52.993898 125.971078 
L 54.707056 125.776687 
L 56.420214 125.539694 
L 58.133372 125.298474 
L 59.84653 125.086501 
L 61.559688 124.908207 
L 63.272845 124.704398 
L 64.986003 124.598249 
L 66.699161 124.434809 
L 68.412319 124.21277 
L 70.125477 124.003438 
L 71.838635 123.756247 
L 73.551793 123.503283 
L 75.264951 123.22183 
L 76.978109 122.936549 
L 78.691266 122.603334 
L 80.404424 122.313332 
L 82.117582 122.137905 
L 83.83074 122.044591 
L 85.543898 121.925694 
L 87.257056 121.756249 
L 88.970214 121.55656 
L 90.683372 121.300511 
L 92.39653 120.969914 
L 94.109688 120.735367 
L 95.822845 120.426561 
L 97.536003 120.121698 
L 99.249161 119.790683 
L 100.962319 119.434817 
L 102.675477 119.08989 
L 104.388635 118.799607 
L 106.101793 118.587762 
L 107.814951 118.393253 
L 109.528109 118.140544 
L 111.241266 117.831366 
L 112.954424 117.516915 
L 114.667582 117.152647 
L 116.38074 116.710334 
L 118.093898 116.264527 
L 119.807056 115.744157 
L 121.520214 115.102411 
L 123.233372 114.527865 
L 124.94653 113.907177 
L 126.659688 113.216649 
L 128.372845 112.57894 
L 130.086003 111.881119 
L 131.799161 111.033856 
L 133.512319 110.222905 
L 135.225477 109.405049 
L 136.938635 108.560989 
L 138.651793 107.610335 
L 140.364951 106.592721 
L 142.078109 105.550027 
L 143.791266 104.62011 
L 145.504424 103.520917 
L 147.217582 102.326913 
L 148.93074 101.077539 
L 150.643898 99.841974 
L 152.357056 98.529756 
L 154.070214 97.071619 
L 155.783372 95.61039 
L 157.49653 94.261156 
L 159.209688 92.843214 
L 160.922845 91.439248 
L 162.636003 89.971032 
L 164.349161 88.431028 
L 166.062319 86.95269 
L 167.775477 85.52584 
L 169.488635 84.246163 
L 171.201793 82.953881 
L 172.914951 81.560391 
L 174.628109 80.137811 
L 176.341266 78.732129 
L 178.054424 77.291909 
L 179.767582 75.76504 
L 181.48074 74.222309 
L 183.193898 72.724284 
L 184.907056 71.306288 
L 186.620214 69.918144 
L 188.333372 68.520225 
L 190.04653 67.104226 
L 191.759688 65.635798 
L 193.472845 64.194271 
L 195.186003 62.66974 
L 196.899161 61.174466 
L 198.612319 59.679927 
L 200.325477 58.076704 
L 202.038635 56.465381 
L 203.751793 54.774677 
L 205.464951 52.89568 
L 207.178109 50.854958 
L 208.891266 48.564544 
L 210.604424 46.029589 
L 212.317582 43.230864 
L 214.03074 40.476323 
L 215.743898 37.801406 
L 217.457056 34.794187 
L 219.170214 31.576535 
L 220.883372 28.309083 
L 222.59653 24.788378 
L 224.309688 21.326747 
" style="fill:none;"/>
   </g>
   <g id="line2d_15">
    <path clip-path="url(#p027c315f4c)" d="M 29.009688 128.913289 
L 30.722845 128.749283 
L 32.436003 128.584599 
L 34.149161 128.418923 
L 35.862319 128.25257 
L 37.575477 128.04777 
L 39.288635 127.874309 
L 41.001793 127.634601 
L 42.714951 127.446159 
L 44.428109 127.226173 
L 46.141266 126.976386 
L 47.854424 126.745042 
L 49.567582 126.480628 
L 51.28074 126.167709 
L 52.993898 125.968061 
L 54.707056 125.773484 
L 56.420214 125.536039 
L 58.133372 125.294141 
L 59.84653 125.081643 
L 61.559688 124.903006 
L 63.272845 124.698628 
L 64.986003 124.59233 
L 66.699161 124.428481 
L 68.412319 124.205691 
L 70.125477 123.99565 
L 71.838635 123.747608 
L 73.551793 123.493808 
L 75.264951 123.211184 
L 76.978109 122.924643 
L 78.691266 122.590106 
L 80.404424 122.299168 
L 82.117582 122.123165 
L 83.83074 122.029405 
L 85.543898 121.910016 
L 87.257056 121.739944 
L 88.970214 121.539348 
L 90.683372 121.281676 
L 92.39653 120.948835 
L 94.109688 120.711992 
L 95.822845 120.400588 
L 97.536003 120.093132 
L 99.249161 119.758357 
L 100.962319 119.397205 
L 102.675477 119.043074 
L 104.388635 118.748627 
L 106.101793 118.535172 
L 107.814951 118.338458 
L 109.528109 118.082206 
L 111.241266 117.768081 
L 112.954424 117.448795 
L 114.667582 117.080124 
L 116.38074 116.63257 
L 118.093898 116.180742 
L 119.807056 115.652849 
L 121.520214 115.002423 
L 123.233372 114.41859 
L 124.94653 113.78795 
L 126.659688 113.087401 
L 128.372845 112.439417 
L 130.086003 111.729887 
L 131.799161 110.869527 
L 133.512319 110.045596 
L 135.225477 109.213459 
L 136.938635 108.353544 
L 138.651793 107.384819 
L 140.364951 106.34716 
L 142.078109 105.282249 
L 143.791266 104.32779 
L 145.504424 103.202451 
L 147.217582 101.979323 
L 148.93074 100.696928 
L 150.643898 99.426307 
L 152.357056 98.076923 
L 154.070214 96.582037 
L 155.783372 95.079253 
L 157.49653 93.693202 
L 159.209688 92.238024 
L 160.922845 90.793274 
L 162.636003 89.283627 
L 164.349161 87.701434 
L 166.062319 86.178367 
L 167.775477 84.708086 
L 169.488635 83.391662 
L 171.201793 82.062182 
L 172.914951 80.626014 
L 174.628109 79.163197 
L 176.341266 77.718265 
L 178.054424 76.236566 
L 179.767582 74.662008 
L 181.48074 73.070679 
L 183.193898 71.523372 
L 184.907056 70.056766 
L 186.620214 68.621371 
L 188.333372 67.176185 
L 190.04653 65.715541 
L 191.759688 64.20125 
L 193.472845 62.709957 
L 195.186003 61.13274 
L 196.899161 59.582185 
L 198.612319 58.029455 
L 200.325477 56.366854 
L 202.038635 54.69716 
L 203.751793 52.944178 
L 205.464951 50.997664 
L 207.178109 48.883876 
L 208.891266 46.513203 
L 210.604424 43.892228 
L 212.317582 40.992726 
L 214.03074 38.129912 
L 215.743898 35.358032 
L 217.457056 32.235704 
L 219.170214 28.888614 
L 220.883372 25.484071 
L 222.59653 21.815401 
L 224.309688 18.199828 
" style="fill:none;"/>
   </g>
   <g id="line2d_16">
    <path clip-path="url(#p027c315f4c)" d="M 29.009688 128.891174 
L 30.722845 128.725765 
L 32.436003 128.55961 
L 34.149161 128.392348 
L 35.862319 128.224211 
L 37.575477 128.017469 
L 39.288635 127.842061 
L 41.001793 127.600457 
L 42.714951 127.410073 
L 44.428109 127.187879 
L 46.141266 126.935828 
L 47.854424 126.702145 
L 49.567582 126.435039 
L 51.28074 126.119512 
L 52.993898 125.917577 
L 54.707056 125.720304 
L 56.420214 125.478848 
L 58.133372 125.233006 
L 59.84653 125.016636 
L 61.559688 124.835894 
L 63.272845 124.629692 
L 64.986003 124.523275 
L 66.699161 124.358093 
L 68.412319 124.13254 
L 70.125477 123.9195 
L 71.838635 123.667914 
L 73.551793 123.410705 
L 75.264951 123.124749 
L 76.978109 122.834192 
L 78.691266 122.494997 
L 80.404424 122.200845 
L 82.117582 122.022645 
L 83.83074 121.928864 
L 85.543898 121.809174 
L 87.257056 121.637621 
L 88.970214 121.43482 
L 90.683372 121.174023 
L 92.39653 120.835561 
L 94.109688 120.594384 
L 95.822845 120.278369 
L 97.536003 119.965553 
L 99.249161 119.625476 
L 100.962319 119.25885 
L 102.675477 118.898918 
L 104.388635 118.599187 
L 106.101793 118.381783 
L 107.814951 118.181689 
L 109.528109 117.920873 
L 111.241266 117.601194 
L 112.954424 117.276747 
L 114.667582 116.902758 
L 116.38074 116.449388 
L 118.093898 115.991237 
L 119.807056 115.45726 
L 121.520214 114.801212 
L 123.233372 114.210638 
L 124.94653 113.57177 
L 126.659688 112.862786 
L 128.372845 112.206957 
L 130.086003 111.488606 
L 131.799161 110.618233 
L 133.512319 109.784506 
L 135.225477 108.941765 
L 136.938635 108.070888 
L 138.651793 107.090696 
L 140.364951 106.040572 
L 142.078109 104.963669 
L 143.791266 103.996643 
L 145.504424 102.857805 
L 147.217582 101.620474 
L 148.93074 100.322759 
L 150.643898 99.036128 
L 152.357056 97.669467 
L 154.070214 96.156871 
L 155.783372 94.635407 
L 157.49653 93.232099 
L 159.209688 91.758598 
L 160.922845 90.295083 
L 162.636003 88.767684 
L 164.349161 87.167724 
L 166.062319 85.626699 
L 167.775477 84.13754 
L 169.488635 82.802679 
L 171.201793 81.455995 
L 172.914951 80.002155 
L 174.628109 78.521016 
L 176.341266 77.056831 
L 178.054424 75.556402 
L 179.767582 73.960983 
L 181.48074 72.349284 
L 183.193898 70.781448 
L 184.907056 69.293332 
L 186.620214 67.837003 
L 188.333372 66.370756 
L 190.04653 64.888891 
L 191.759688 63.351659 
L 193.472845 61.834491 
L 195.186003 60.228559 
L 196.899161 58.647476 
L 198.612319 57.062811 
L 200.325477 55.369529 
L 202.038635 53.667626 
L 203.751793 51.88262 
L 205.464951 49.904148 
L 207.178109 47.756825 
L 208.891266 45.350625 
L 210.604424 42.692577 
L 212.317582 39.755597 
L 214.03074 36.85412 
L 215.743898 34.044724 
L 217.457056 30.884184 
L 219.170214 27.499346 
L 220.883372 24.054607 
L 222.59653 20.341647 
L 224.309688 16.681769 
" style="fill:none;"/>
   </g>
   <g id="line2d_17">
    <path clip-path="url(#p027c315f4c)" d="M 29.009688 128.781255 
L 30.722845 128.610655 
L 32.436003 128.439029 
L 34.149161 128.266194 
L 35.862319 128.092151 
L 37.575477 127.878981 
L 39.288635 127.695519 
L 41.001793 127.445337 
L 42.714951 127.247057 
L 44.428109 127.017001 
L 46.141266 126.75661 
L 47.854424 126.514911 
L 49.567582 126.238782 
L 51.28074 125.911848 
L 52.993898 125.700529 
L 54.707056 125.49536 
L 56.420214 125.243874 
L 58.133372 124.987779 
L 59.84653 124.762869 
L 61.559688 124.576441 
L 63.272845 124.362835 
L 64.986003 124.251821 
L 66.699161 124.079968 
L 68.412319 123.846185 
L 70.125477 123.623575 
L 71.838635 123.359375 
L 73.551793 123.088024 
L 75.264951 122.787102 
L 76.978109 122.481918 
L 78.691266 122.126557 
L 80.404424 121.818034 
L 82.117582 121.630918 
L 83.83074 121.531584 
L 85.543898 121.404412 
L 87.257056 121.220989 
L 88.970214 121.001921 
L 90.683372 120.721018 
L 92.39653 120.357912 
L 94.109688 120.094341 
L 95.822845 119.760114 
L 97.536003 119.422455 
L 99.249161 119.058279 
L 100.962319 118.667274 
L 102.675477 118.28269 
L 104.388635 117.961889 
L 106.101793 117.726763 
L 107.814951 117.511159 
L 109.528109 117.22987 
L 111.241266 116.88572 
L 112.954424 116.534255 
L 114.667582 116.134197 
L 116.38074 115.655641 
L 118.093898 115.161215 
L 119.807056 114.587951 
L 121.520214 113.893002 
L 123.233372 113.259095 
L 124.94653 112.568804 
L 126.659688 111.804751 
L 128.372845 111.100031 
L 130.086003 110.326233 
L 131.799161 109.386055 
L 133.512319 108.479585 
L 135.225477 107.563461 
L 136.938635 106.613127 
L 138.651793 105.545591 
L 140.364951 104.400967 
L 142.078109 103.22733 
L 143.791266 102.163085 
L 145.504424 100.92158 
L 147.217582 99.578462 
L 148.93074 98.174487 
L 150.643898 96.778985 
L 152.357056 95.306635 
L 154.070214 93.682852 
L 155.783372 92.046261 
L 157.49653 90.529937 
L 159.209688 88.944626 
L 160.922845 87.372279 
L 162.636003 85.733962 
L 164.349161 84.020602 
L 166.062319 82.361291 
L 167.775477 80.765272 
L 169.488635 79.331321 
L 171.201793 77.894039 
L 172.914951 76.336575 
L 174.628109 74.752424 
L 176.341266 73.187452 
L 178.054424 71.584841 
L 179.767582 69.886019 
L 181.48074 68.168017 
L 183.193898 66.506062 
L 184.907056 64.941109 
L 186.620214 63.408247 
L 188.333372 61.880133 
L 190.04653 60.337891 
L 191.759688 58.723673 
L 193.472845 57.130959 
L 195.186003 55.452916 
L 196.899161 53.793812 
L 198.612319 52.142707 
L 200.325477 50.364658 
L 202.038635 48.584431 
L 203.751793 46.708844 
L 205.464951 44.629535 
L 207.178109 42.369809 
L 208.891266 39.843723 
L 210.604424 37.058526 
L 212.317582 33.963655 
L 214.03074 30.895116 
L 215.743898 27.960961 
L 217.457056 24.622749 
L 219.170214 21.027774 
L 220.883372 17.38633 
L 222.59653 13.451804 
L 224.309688 9.570478 
" style="fill:none;"/>
   </g>
   <g id="patch_3">
    <path d="M 29.009688 132.128 
L 29.009688 7.1 
" style="fill:none;stroke:#000000;stroke-linecap:square;stroke-linejoin:miter;stroke-width:0.8;"/>
   </g>
   <g id="patch_4">
    <path d="M 29.009688 132.128 
L 224.309688 132.128 
" style="fill:none;stroke:#000000;stroke-linecap:square;stroke-linejoin:miter;stroke-width:0.8;"/>
   </g>
   <g id="legend_1">
    <g id="patch_5">
     <path d="M 34.409687 22.060183 
L 46.409687 22.060183 
L 46.409687 17.860183 
L 34.409687 17.860183 
z
" style="fill:#f1d0a6;"/>
    </g>
    <g id="text_16">
     <!-- other metals/minerals -->
     <defs>
      <path d="M 52 44.1875 
Q 55.375 50.25 60.0625 53.125 
Q 64.75 56 71.09375 56 
Q 79.640625 56 84.28125 50.015625 
Q 88.921875 44.046875 88.921875 33.015625 
L 88.921875 0 
L 79.890625 0 
L 79.890625 32.71875 
Q 79.890625 40.578125 77.09375 44.375 
Q 74.3125 48.1875 68.609375 48.1875 
Q 61.625 48.1875 57.5625 43.546875 
Q 53.515625 38.921875 53.515625 30.90625 
L 53.515625 0 
L 44.484375 0 
L 44.484375 32.71875 
Q 44.484375 40.625 41.703125 44.40625 
Q 38.921875 48.1875 33.109375 48.1875 
Q 26.21875 48.1875 22.15625 43.53125 
Q 18.109375 38.875 18.109375 30.90625 
L 18.109375 0 
L 9.078125 0 
L 9.078125 54.6875 
L 18.109375 54.6875 
L 18.109375 46.1875 
Q 21.1875 51.21875 25.484375 53.609375 
Q 29.78125 56 35.6875 56 
Q 41.65625 56 45.828125 52.96875 
Q 50 49.953125 52 44.1875 
z
" id="DejaVuSans-6d"/>
      <path d="M 9.421875 75.984375 
L 18.40625 75.984375 
L 18.40625 0 
L 9.421875 0 
z
" id="DejaVuSans-6c"/>
      <path d="M 25.390625 72.90625 
L 33.6875 72.90625 
L 8.296875 -9.28125 
L 0 -9.28125 
z
" id="DejaVuSans-2f"/>
     </defs>
     <g transform="translate(51.209688 22.060183)scale(0.06 -0.06)">
      <use xlink:href="#DejaVuSans-6f"/>
      <use x="61.181641" xlink:href="#DejaVuSans-74"/>
      <use x="100.390625" xlink:href="#DejaVuSans-68"/>
      <use x="163.769531" xlink:href="#DejaVuSans-65"/>
      <use x="225.292969" xlink:href="#DejaVuSans-72"/>
      <use x="266.40625" xlink:href="#DejaVuSans-20"/>
      <use x="298.193359" xlink:href="#DejaVuSans-6d"/>
      <use x="395.605469" xlink:href="#DejaVuSans-65"/>
      <use x="457.128906" xlink:href="#DejaVuSans-74"/>
      <use x="496.337891" xlink:href="#DejaVuSans-61"/>
      <use x="557.617188" xlink:href="#DejaVuSans-6c"/>
      <use x="585.400391" xlink:href="#DejaVuSans-73"/>
      <use x="637.5" xlink:href="#DejaVuSans-2f"/>
      <use x="671.191406" xlink:href="#DejaVuSans-6d"/>
      <use x="768.603516" xlink:href="#DejaVuSans-69"/>
      <use x="796.386719" xlink:href="#DejaVuSans-6e"/>
      <use x="859.765625" xlink:href="#DejaVuSans-65"/>
      <use x="921.289062" xlink:href="#DejaVuSans-72"/>
      <use x="962.402344" xlink:href="#DejaVuSans-61"/>
      <use x="1023.681641" xlink:href="#DejaVuSans-6c"/>
      <use x="1051.464844" xlink:href="#DejaVuSans-73"/>
     </g>
    </g>
    <g id="patch_6">
     <path d="M 34.409687 30.867058 
L 46.409687 30.867058 
L 46.409687 26.667058 
L 34.409687 26.667058 
z
" style="fill:#cb6d51;"/>
    </g>
    <g id="text_17">
     <!-- copper -->
     <defs>
      <path d="M 48.78125 52.59375 
L 48.78125 44.1875 
Q 44.96875 46.296875 41.140625 47.34375 
Q 37.3125 48.390625 33.40625 48.390625 
Q 24.65625 48.390625 19.8125 42.84375 
Q 14.984375 37.3125 14.984375 27.296875 
Q 14.984375 17.28125 19.8125 11.734375 
Q 24.65625 6.203125 33.40625 6.203125 
Q 37.3125 6.203125 41.140625 7.25 
Q 44.96875 8.296875 48.78125 10.40625 
L 48.78125 2.09375 
Q 45.015625 0.34375 40.984375 -0.53125 
Q 36.96875 -1.421875 32.421875 -1.421875 
Q 20.0625 -1.421875 12.78125 6.34375 
Q 5.515625 14.109375 5.515625 27.296875 
Q 5.515625 40.671875 12.859375 48.328125 
Q 20.21875 56 33.015625 56 
Q 37.15625 56 41.109375 55.140625 
Q 45.0625 54.296875 48.78125 52.59375 
z
" id="DejaVuSans-63"/>
      <path d="M 18.109375 8.203125 
L 18.109375 -20.796875 
L 9.078125 -20.796875 
L 9.078125 54.6875 
L 18.109375 54.6875 
L 18.109375 46.390625 
Q 20.953125 51.265625 25.265625 53.625 
Q 29.59375 56 35.59375 56 
Q 45.5625 56 51.78125 48.09375 
Q 58.015625 40.1875 58.015625 27.296875 
Q 58.015625 14.40625 51.78125 6.484375 
Q 45.5625 -1.421875 35.59375 -1.421875 
Q 29.59375 -1.421875 25.265625 0.953125 
Q 20.953125 3.328125 18.109375 8.203125 
z
M 48.6875 27.296875 
Q 48.6875 37.203125 44.609375 42.84375 
Q 40.53125 48.484375 33.40625 48.484375 
Q 26.265625 48.484375 22.1875 42.84375 
Q 18.109375 37.203125 18.109375 27.296875 
Q 18.109375 17.390625 22.1875 11.75 
Q 26.265625 6.109375 33.40625 6.109375 
Q 40.53125 6.109375 44.609375 11.75 
Q 48.6875 17.390625 48.6875 27.296875 
z
" id="DejaVuSans-70"/>
     </defs>
     <g transform="translate(51.209688 30.867058)scale(0.06 -0.06)">
      <use xlink:href="#DejaVuSans-63"/>
      <use x="54.980469" xlink:href="#DejaVuSans-6f"/>
      <use x="116.162109" xlink:href="#DejaVuSans-70"/>
      <use x="179.638672" xlink:href="#DejaVuSans-70"/>
      <use x="243.115234" xlink:href="#DejaVuSans-65"/>
      <use x="304.638672" xlink:href="#DejaVuSans-72"/>
     </g>
    </g>
    <g id="patch_7">
     <path d="M 34.409687 39.673933 
L 46.409687 39.673933 
L 46.409687 35.473933 
L 34.409687 35.473933 
z
" style="fill:#1c4966;"/>
    </g>
    <g id="text_18">
     <!-- aluminum -->
     <defs>
      <path d="M 8.5 21.578125 
L 8.5 54.6875 
L 17.484375 54.6875 
L 17.484375 21.921875 
Q 17.484375 14.15625 20.5 10.265625 
Q 23.53125 6.390625 29.59375 6.390625 
Q 36.859375 6.390625 41.078125 11.03125 
Q 45.3125 15.671875 45.3125 23.6875 
L 45.3125 54.6875 
L 54.296875 54.6875 
L 54.296875 0 
L 45.3125 0 
L 45.3125 8.40625 
Q 42.046875 3.421875 37.71875 1 
Q 33.40625 -1.421875 27.6875 -1.421875 
Q 18.265625 -1.421875 13.375 4.4375 
Q 8.5 10.296875 8.5 21.578125 
z
M 31.109375 56 
z
" id="DejaVuSans-75"/>
     </defs>
     <g transform="translate(51.209688 39.673933)scale(0.06 -0.06)">
      <use xlink:href="#DejaVuSans-61"/>
      <use x="61.279297" xlink:href="#DejaVuSans-6c"/>
      <use x="89.0625" xlink:href="#DejaVuSans-75"/>
      <use x="152.441406" xlink:href="#DejaVuSans-6d"/>
      <use x="249.853516" xlink:href="#DejaVuSans-69"/>
      <use x="277.636719" xlink:href="#DejaVuSans-6e"/>
      <use x="341.015625" xlink:href="#DejaVuSans-75"/>
      <use x="404.394531" xlink:href="#DejaVuSans-6d"/>
     </g>
    </g>
    <g id="patch_8">
     <path d="M 34.409687 48.480808 
L 46.409687 48.480808 
L 46.409687 44.280808 
L 34.409687 44.280808 
z
" style="fill:#7a7f80;"/>
    </g>
    <g id="text_19">
     <!-- iron/steel -->
     <g transform="translate(51.209688 48.480808)scale(0.06 -0.06)">
      <use xlink:href="#DejaVuSans-69"/>
      <use x="27.783203" xlink:href="#DejaVuSans-72"/>
      <use x="68.865234" xlink:href="#DejaVuSans-6f"/>
      <use x="130.046875" xlink:href="#DejaVuSans-6e"/>
      <use x="193.425781" xlink:href="#DejaVuSans-2f"/>
      <use x="227.117188" xlink:href="#DejaVuSans-73"/>
      <use x="279.216797" xlink:href="#DejaVuSans-74"/>
      <use x="318.425781" xlink:href="#DejaVuSans-65"/>
      <use x="379.949219" xlink:href="#DejaVuSans-65"/>
      <use x="441.472656" xlink:href="#DejaVuSans-6c"/>
     </g>
    </g>
   </g>
  </g>
 </g>
 <defs>
  <clipPath id="p027c315f4c">
   <rect height="125.028" width="195.3" x="29.009688" y="7.1"/>
  </clipPath>
 </defs>
</svg>
