<?xml version="1.0" encoding="utf-8" standalone="no"?>
<!DOCTYPE svg PUBLIC "-//W3C//DTD SVG 1.1//EN"
  "http://www.w3.org/Graphics/SVG/1.1/DTD/svg11.dtd">
<!-- Created with matplotlib (http://matplotlib.org/) -->
<svg height="159.309562pt" version="1.1" viewBox="0 0 231.409687 159.309562" width="231.409687pt" xmlns="http://www.w3.org/2000/svg" xmlns:xlink="http://www.w3.org/1999/xlink">
 <defs>
  <style type="text/css">
*{stroke-linecap:butt;stroke-linejoin:round;}
  </style>
 </defs>
 <g id="figure_1">
  <g id="patch_1">
   <path d="M 0 159.309562 
L 231.409687 159.309562 
L 231.409687 0 
L 0 0 
z
" style="fill:#ffffff;"/>
  </g>
  <g id="axes_1">
   <g id="patch_2">
    <path d="M 29.009688 132.128 
L 224.309688 132.128 
L 224.309688 7.1 
L 29.009688 7.1 
z
" style="fill:#ffffff;"/>
   </g>
   <g id="PolyCollection_1">
    <defs>
     <path d="M 29.009688 -50.038293 
L 29.009688 -27.181562 
L 30.722845 -27.181562 
L 32.436003 -27.181562 
L 34.149161 -27.181562 
L 35.862319 -27.181562 
L 37.575477 -27.181562 
L 39.288635 -27.181562 
L 41.001793 -27.181562 
L 42.714951 -27.181562 
L 44.428109 -27.181562 
L 46.141266 -27.181562 
L 47.854424 -27.181562 
L 49.567582 -27.181562 
L 51.28074 -27.181562 
L 52.993898 -27.181562 
L 54.707056 -27.181562 
L 56.420214 -27.181562 
L 58.133372 -27.181562 
L 59.84653 -27.181562 
L 61.559688 -27.181562 
L 63.272845 -27.181562 
L 64.986003 -27.181562 
L 66.699161 -27.181562 
L 68.412319 -27.181562 
L 70.125477 -27.181562 
L 71.838635 -27.181562 
L 73.551793 -27.181562 
L 75.264951 -27.181562 
L 76.978109 -27.181562 
L 78.691266 -27.181562 
L 80.404424 -27.181562 
L 82.117582 -27.181562 
L 83.83074 -27.181562 
L 85.543898 -27.181562 
L 87.257056 -27.181562 
L 88.970214 -27.181562 
L 90.683372 -27.181562 
L 92.39653 -27.181562 
L 94.109688 -27.181562 
L 95.822845 -27.181562 
L 97.536003 -27.181562 
L 99.249161 -27.181562 
L 100.962319 -27.181562 
L 102.675477 -27.181562 
L 104.388635 -27.181562 
L 106.101793 -27.181562 
L 107.814951 -27.181562 
L 109.528109 -27.181562 
L 111.241266 -27.181562 
L 112.954424 -27.181562 
L 114.667582 -27.181562 
L 116.38074 -27.181562 
L 118.093898 -27.181562 
L 119.807056 -27.181562 
L 121.520214 -27.181562 
L 123.233372 -27.181562 
L 124.94653 -27.181562 
L 126.659688 -27.181562 
L 128.372845 -27.181562 
L 130.086003 -27.181562 
L 131.799161 -27.181562 
L 133.512319 -27.181562 
L 135.225477 -27.181562 
L 136.938635 -27.181562 
L 138.651793 -27.181562 
L 140.364951 -27.181562 
L 142.078109 -27.181562 
L 143.791266 -27.181562 
L 145.504424 -27.181562 
L 147.217582 -27.181562 
L 148.93074 -27.181562 
L 150.643898 -27.181562 
L 152.357056 -27.181562 
L 154.070214 -27.181562 
L 155.783372 -27.181562 
L 157.49653 -27.181562 
L 159.209688 -27.181562 
L 160.922845 -27.181562 
L 162.636003 -27.181562 
L 164.349161 -27.181562 
L 166.062319 -27.181562 
L 167.775477 -27.181562 
L 169.488635 -27.181562 
L 171.201793 -27.181562 
L 172.914951 -27.181562 
L 174.628109 -27.181562 
L 176.341266 -27.181562 
L 178.054424 -27.181562 
L 179.767582 -27.181562 
L 181.48074 -27.181562 
L 183.193898 -27.181562 
L 184.907056 -27.181562 
L 186.620214 -27.181562 
L 188.333372 -27.181562 
L 190.04653 -27.181562 
L 191.759688 -27.181562 
L 193.472845 -27.181562 
L 195.186003 -27.181562 
L 196.899161 -27.181562 
L 198.612319 -27.181562 
L 200.325477 -27.181562 
L 202.038635 -27.181562 
L 203.751793 -27.181562 
L 205.464951 -27.181562 
L 207.178109 -27.181562 
L 208.891266 -27.181562 
L 210.604424 -27.181562 
L 212.317582 -27.181562 
L 214.03074 -27.181562 
L 215.743898 -27.181562 
L 217.457056 -27.181562 
L 219.170214 -27.181562 
L 220.883372 -27.181562 
L 222.59653 -27.181562 
L 224.309688 -27.181562 
L 224.309688 -102.494798 
L 224.309688 -102.494798 
L 222.59653 -101.356339 
L 220.883372 -100.370726 
L 219.170214 -99.494081 
L 217.457056 -98.820095 
L 215.743898 -98.255991 
L 214.03074 -97.859732 
L 212.317582 -97.325993 
L 210.604424 -96.586981 
L 208.891266 -95.86379 
L 207.178109 -95.198869 
L 205.464951 -94.586806 
L 203.751793 -94.077049 
L 202.038635 -93.722226 
L 200.325477 -93.421937 
L 198.612319 -93.059469 
L 196.899161 -92.730356 
L 195.186003 -92.47614 
L 193.472845 -92.002045 
L 191.759688 -91.675489 
L 190.04653 -91.296631 
L 188.333372 -90.900463 
L 186.620214 -90.449993 
L 184.907056 -89.940947 
L 183.193898 -89.247735 
L 181.48074 -88.347278 
L 179.767582 -87.345729 
L 178.054424 -86.344511 
L 176.341266 -85.331926 
L 174.628109 -84.373837 
L 172.914951 -83.461774 
L 171.201793 -82.569779 
L 169.488635 -81.710018 
L 167.775477 -80.934748 
L 166.062319 -80.097447 
L 164.349161 -79.185271 
L 162.636003 -78.217094 
L 160.922845 -77.241012 
L 159.209688 -76.276194 
L 157.49653 -75.347201 
L 155.783372 -74.517447 
L 154.070214 -73.605823 
L 152.357056 -72.599461 
L 150.643898 -71.649328 
L 148.93074 -70.731591 
L 147.217582 -69.869702 
L 145.504424 -69.021748 
L 143.791266 -68.190792 
L 142.078109 -67.418449 
L 140.364951 -66.647424 
L 138.651793 -65.911375 
L 136.938635 -65.306581 
L 135.225477 -64.769992 
L 133.512319 -64.29195 
L 131.799161 -63.821245 
L 130.086003 -63.366638 
L 128.372845 -62.929972 
L 126.659688 -62.510057 
L 124.94653 -62.107572 
L 123.233372 -61.722133 
L 121.520214 -61.352076 
L 119.807056 -60.999551 
L 118.093898 -60.664206 
L 116.38074 -60.347956 
L 114.667582 -60.047093 
L 112.954424 -59.764359 
L 111.241266 -59.48139 
L 109.528109 -59.199898 
L 107.814951 -58.917806 
L 106.101793 -58.634851 
L 104.388635 -58.35291 
L 102.675477 -58.069559 
L 100.962319 -57.787635 
L 99.249161 -57.506644 
L 97.536003 -57.225115 
L 95.822845 -56.943367 
L 94.109688 -56.663793 
L 92.39653 -56.384441 
L 90.683372 -56.105782 
L 88.970214 -55.828367 
L 87.257056 -55.552638 
L 85.543898 -55.279551 
L 83.83074 -55.009084 
L 82.117582 -54.741678 
L 80.404424 -54.478542 
L 78.691266 -54.220356 
L 76.978109 -53.968351 
L 75.264951 -53.722387 
L 73.551793 -53.485416 
L 71.838635 -53.255439 
L 70.125477 -53.03533 
L 68.412319 -52.824592 
L 66.699161 -52.622305 
L 64.986003 -52.430646 
L 63.272845 -52.247977 
L 61.559688 -52.075149 
L 59.84653 -51.910882 
L 58.133372 -51.754568 
L 56.420214 -51.607496 
L 54.707056 -51.467831 
L 52.993898 -51.335907 
L 51.28074 -51.210094 
L 49.567582 -51.089411 
L 47.854424 -50.975144 
L 46.141266 -50.865855 
L 44.428109 -50.76142 
L 42.714951 -50.662648 
L 41.001793 -50.567931 
L 39.288635 -50.477837 
L 37.575477 -50.392805 
L 35.862319 -50.312336 
L 34.149161 -50.236537 
L 32.436003 -50.165535 
L 30.722845 -50.09936 
L 29.009688 -50.038293 
z
" id="md8d262ed66"/>
    </defs>
    <g clip-path="url(#pab012bb74a)">
     <use style="fill:#725843;" x="0" xlink:href="#md8d262ed66" y="159.309562"/>
    </g>
   </g>
   <g id="PolyCollection_2">
    <defs>
     <path d="M 29.009688 -50.588363 
L 29.009688 -50.038293 
L 30.722845 -50.09936 
L 32.436003 -50.165535 
L 34.149161 -50.236537 
L 35.862319 -50.312336 
L 37.575477 -50.392805 
L 39.288635 -50.477837 
L 41.001793 -50.567931 
L 42.714951 -50.662648 
L 44.428109 -50.76142 
L 46.141266 -50.865855 
L 47.854424 -50.975144 
L 49.567582 -51.089411 
L 51.28074 -51.210094 
L 52.993898 -51.335907 
L 54.707056 -51.467831 
L 56.420214 -51.607496 
L 58.133372 -51.754568 
L 59.84653 -51.910882 
L 61.559688 -52.075149 
L 63.272845 -52.247977 
L 64.986003 -52.430646 
L 66.699161 -52.622305 
L 68.412319 -52.824592 
L 70.125477 -53.03533 
L 71.838635 -53.255439 
L 73.551793 -53.485416 
L 75.264951 -53.722387 
L 76.978109 -53.968351 
L 78.691266 -54.220356 
L 80.404424 -54.478542 
L 82.117582 -54.741678 
L 83.83074 -55.009084 
L 85.543898 -55.279551 
L 87.257056 -55.552638 
L 88.970214 -55.828367 
L 90.683372 -56.105782 
L 92.39653 -56.384441 
L 94.109688 -56.663793 
L 95.822845 -56.943367 
L 97.536003 -57.225115 
L 99.249161 -57.506644 
L 100.962319 -57.787635 
L 102.675477 -58.069559 
L 104.388635 -58.35291 
L 106.101793 -58.634851 
L 107.814951 -58.917806 
L 109.528109 -59.199898 
L 111.241266 -59.48139 
L 112.954424 -59.764359 
L 114.667582 -60.047093 
L 116.38074 -60.347956 
L 118.093898 -60.664206 
L 119.807056 -60.999551 
L 121.520214 -61.352076 
L 123.233372 -61.722133 
L 124.94653 -62.107572 
L 126.659688 -62.510057 
L 128.372845 -62.929972 
L 130.086003 -63.366638 
L 131.799161 -63.821245 
L 133.512319 -64.29195 
L 135.225477 -64.769992 
L 136.938635 -65.306581 
L 138.651793 -65.911375 
L 140.364951 -66.647424 
L 142.078109 -67.418449 
L 143.791266 -68.190792 
L 145.504424 -69.021748 
L 147.217582 -69.869702 
L 148.93074 -70.731591 
L 150.643898 -71.649328 
L 152.357056 -72.599461 
L 154.070214 -73.605823 
L 155.783372 -74.517447 
L 157.49653 -75.347201 
L 159.209688 -76.276194 
L 160.922845 -77.241012 
L 162.636003 -78.217094 
L 164.349161 -79.185271 
L 166.062319 -80.097447 
L 167.775477 -80.934748 
L 169.488635 -81.710018 
L 171.201793 -82.569779 
L 172.914951 -83.461774 
L 174.628109 -84.373837 
L 176.341266 -85.331926 
L 178.054424 -86.344511 
L 179.767582 -87.345729 
L 181.48074 -88.347278 
L 183.193898 -89.247735 
L 184.907056 -89.940947 
L 186.620214 -90.449993 
L 188.333372 -90.900463 
L 190.04653 -91.296631 
L 191.759688 -91.675489 
L 193.472845 -92.002045 
L 195.186003 -92.47614 
L 196.899161 -92.730356 
L 198.612319 -93.059469 
L 200.325477 -93.421937 
L 202.038635 -93.722226 
L 203.751793 -94.077049 
L 205.464951 -94.586806 
L 207.178109 -95.198869 
L 208.891266 -95.86379 
L 210.604424 -96.586981 
L 212.317582 -97.325993 
L 214.03074 -97.859732 
L 215.743898 -98.255991 
L 217.457056 -98.820095 
L 219.170214 -99.494081 
L 220.883372 -100.370726 
L 222.59653 -101.356339 
L 224.309688 -102.494798 
L 224.309688 -109.3591 
L 224.309688 -109.3591 
L 222.59653 -108.168454 
L 220.883372 -107.17907 
L 219.170214 -106.250288 
L 217.457056 -105.460484 
L 215.743898 -104.74118 
L 214.03074 -104.392598 
L 212.317582 -103.725429 
L 210.604424 -102.740024 
L 208.891266 -101.744175 
L 207.178109 -100.880236 
L 205.464951 -100.058981 
L 203.751793 -99.394103 
L 202.038635 -98.907919 
L 200.325477 -98.525296 
L 198.612319 -97.957359 
L 196.899161 -97.410044 
L 195.186003 -97.055061 
L 193.472845 -96.385772 
L 191.759688 -95.913373 
L 190.04653 -95.335848 
L 188.333372 -94.74423 
L 186.620214 -94.188716 
L 184.907056 -93.581134 
L 183.193898 -92.779169 
L 181.48074 -91.748901 
L 179.767582 -90.58176 
L 178.054424 -89.399311 
L 176.341266 -88.229965 
L 174.628109 -87.137059 
L 172.914951 -86.132492 
L 171.201793 -85.101507 
L 169.488635 -84.161511 
L 167.775477 -83.370087 
L 166.062319 -82.489328 
L 164.349161 -81.499765 
L 162.636003 -80.424468 
L 160.922845 -79.346552 
L 159.209688 -78.296555 
L 157.49653 -77.28225 
L 155.783372 -76.559607 
L 154.070214 -75.564903 
L 152.357056 -74.424001 
L 150.643898 -73.369581 
L 148.93074 -72.3759 
L 147.217582 -71.399383 
L 145.504424 -70.453807 
L 143.791266 -69.543445 
L 142.078109 -68.718278 
L 140.364951 -67.860181 
L 138.651793 -67.053795 
L 136.938635 -66.371121 
L 135.225477 -65.793551 
L 133.512319 -65.287664 
L 131.799161 -64.801164 
L 130.086003 -64.330307 
L 128.372845 -63.877051 
L 126.659688 -63.441251 
L 124.94653 -63.023124 
L 123.233372 -62.622063 
L 121.520214 -62.236436 
L 119.807056 -61.868553 
L 118.093898 -61.518371 
L 116.38074 -61.188878 
L 114.667582 -60.877078 
L 112.954424 -60.58812 
L 111.241266 -60.299241 
L 109.528109 -60.011785 
L 107.814951 -59.723743 
L 106.101793 -59.434674 
L 104.388635 -59.147001 
L 102.675477 -58.858149 
L 100.962319 -58.569877 
L 99.249161 -58.282448 
L 97.536003 -57.995154 
L 95.822845 -57.707467 
L 94.109688 -57.421746 
L 92.39653 -57.13629 
L 90.683372 -56.852049 
L 88.970214 -56.568921 
L 87.257056 -56.287024 
L 85.543898 -56.007493 
L 83.83074 -55.730836 
L 82.117582 -55.457535 
L 80.404424 -55.188254 
L 78.691266 -54.923595 
L 76.978109 -54.664675 
L 75.264951 -54.412889 
L 73.551793 -54.169855 
L 71.838635 -53.933513 
L 70.125477 -53.70717 
L 68.412319 -53.489891 
L 66.699161 -53.281918 
L 64.986003 -53.084022 
L 63.272845 -52.89433 
L 61.559688 -52.714816 
L 59.84653 -52.544495 
L 58.133372 -52.381788 
L 56.420214 -52.228263 
L 54.707056 -52.082261 
L 52.993898 -51.943752 
L 51.28074 -51.811773 
L 49.567582 -51.684939 
L 47.854424 -51.563771 
L 46.141266 -51.448346 
L 44.428109 -51.337563 
L 42.714951 -51.232491 
L 41.001793 -51.131699 
L 39.288635 -51.035652 
L 37.575477 -50.94514 
L 35.862319 -50.859276 
L 34.149161 -50.778944 
L 32.436003 -50.705418 
L 30.722845 -50.640355 
L 29.009688 -50.588363 
z
" id="m714e17b272"/>
    </defs>
    <g clip-path="url(#pab012bb74a)">
     <use style="fill:#9f7f65;" x="0" xlink:href="#m714e17b272" y="159.309562"/>
    </g>
   </g>
   <g id="PolyCollection_3">
    <defs>
     <path d="M 29.009688 -51.012471 
L 29.009688 -50.588363 
L 30.722845 -50.640355 
L 32.436003 -50.705418 
L 34.149161 -50.778944 
L 35.862319 -50.859276 
L 37.575477 -50.94514 
L 39.288635 -51.035652 
L 41.001793 -51.131699 
L 42.714951 -51.232491 
L 44.428109 -51.337563 
L 46.141266 -51.448346 
L 47.854424 -51.563771 
L 49.567582 -51.684939 
L 51.28074 -51.811773 
L 52.993898 -51.943752 
L 54.707056 -52.082261 
L 56.420214 -52.228263 
L 58.133372 -52.381788 
L 59.84653 -52.544495 
L 61.559688 -52.714816 
L 63.272845 -52.89433 
L 64.986003 -53.084022 
L 66.699161 -53.281918 
L 68.412319 -53.489891 
L 70.125477 -53.70717 
L 71.838635 -53.933513 
L 73.551793 -54.169855 
L 75.264951 -54.412889 
L 76.978109 -54.664675 
L 78.691266 -54.923595 
L 80.404424 -55.188254 
L 82.117582 -55.457535 
L 83.83074 -55.730836 
L 85.543898 -56.007493 
L 87.257056 -56.287024 
L 88.970214 -56.568921 
L 90.683372 -56.852049 
L 92.39653 -57.13629 
L 94.109688 -57.421746 
L 95.822845 -57.707467 
L 97.536003 -57.995154 
L 99.249161 -58.282448 
L 100.962319 -58.569877 
L 102.675477 -58.858149 
L 104.388635 -59.147001 
L 106.101793 -59.434674 
L 107.814951 -59.723743 
L 109.528109 -60.011785 
L 111.241266 -60.299241 
L 112.954424 -60.58812 
L 114.667582 -60.877078 
L 116.38074 -61.188878 
L 118.093898 -61.518371 
L 119.807056 -61.868553 
L 121.520214 -62.236436 
L 123.233372 -62.622063 
L 124.94653 -63.023124 
L 126.659688 -63.441251 
L 128.372845 -63.877051 
L 130.086003 -64.330307 
L 131.799161 -64.801164 
L 133.512319 -65.287664 
L 135.225477 -65.793551 
L 136.938635 -66.371121 
L 138.651793 -67.053795 
L 140.364951 -67.860181 
L 142.078109 -68.718278 
L 143.791266 -69.543445 
L 145.504424 -70.453807 
L 147.217582 -71.399383 
L 148.93074 -72.3759 
L 150.643898 -73.369581 
L 152.357056 -74.424001 
L 154.070214 -75.564903 
L 155.783372 -76.559607 
L 157.49653 -77.28225 
L 159.209688 -78.296555 
L 160.922845 -79.346552 
L 162.636003 -80.424468 
L 164.349161 -81.499765 
L 166.062319 -82.489328 
L 167.775477 -83.370087 
L 169.488635 -84.161511 
L 171.201793 -85.101507 
L 172.914951 -86.132492 
L 174.628109 -87.137059 
L 176.341266 -88.229965 
L 178.054424 -89.399311 
L 179.767582 -90.58176 
L 181.48074 -91.748901 
L 183.193898 -92.779169 
L 184.907056 -93.581134 
L 186.620214 -94.188716 
L 188.333372 -94.74423 
L 190.04653 -95.335848 
L 191.759688 -95.913373 
L 193.472845 -96.385772 
L 195.186003 -97.055061 
L 196.899161 -97.410044 
L 198.612319 -97.957359 
L 200.325477 -98.525296 
L 202.038635 -98.907919 
L 203.751793 -99.394103 
L 205.464951 -100.058981 
L 207.178109 -100.880236 
L 208.891266 -101.744175 
L 210.604424 -102.740024 
L 212.317582 -103.725429 
L 214.03074 -104.392598 
L 215.743898 -104.74118 
L 217.457056 -105.460484 
L 219.170214 -106.250288 
L 220.883372 -107.17907 
L 222.59653 -108.168454 
L 224.309688 -109.3591 
L 224.309688 -117.594045 
L 224.309688 -117.594045 
L 222.59653 -116.107413 
L 220.883372 -114.834016 
L 219.170214 -113.63364 
L 217.457056 -112.584505 
L 215.743898 -111.620451 
L 214.03074 -111.066901 
L 212.317582 -110.167252 
L 210.604424 -108.967582 
L 208.891266 -107.765455 
L 207.178109 -106.709717 
L 205.464951 -105.707089 
L 203.751793 -104.882061 
L 202.038635 -104.240816 
L 200.325477 -103.712001 
L 198.612319 -103.002544 
L 196.899161 -102.315477 
L 195.186003 -101.823977 
L 193.472845 -101.018977 
L 191.759688 -100.415248 
L 190.04653 -99.706314 
L 188.333372 -98.986492 
L 186.620214 -98.307532 
L 184.907056 -97.579407 
L 183.193898 -96.662165 
L 181.48074 -95.516646 
L 179.767582 -94.238433 
L 178.054424 -92.946327 
L 176.341266 -91.672575 
L 174.628109 -90.477813 
L 172.914951 -89.372706 
L 171.201793 -88.242169 
L 169.488635 -87.204804 
L 167.775477 -86.317705 
L 166.062319 -85.339656 
L 164.349161 -84.252989 
L 162.636003 -83.086544 
L 160.922845 -81.922092 
L 159.209688 -80.785486 
L 157.49653 -79.68143 
L 155.783372 -78.875327 
L 154.070214 -77.794982 
L 152.357056 -76.568105 
L 150.643898 -75.431846 
L 148.93074 -74.358653 
L 147.217582 -73.304627 
L 145.504424 -72.285176 
L 143.791266 -71.304418 
L 142.078109 -70.412064 
L 140.364951 -69.490081 
L 138.651793 -68.622986 
L 136.938635 -67.882727 
L 135.225477 -67.250696 
L 133.512319 -66.693414 
L 131.799161 -66.158423 
L 130.086003 -65.64176 
L 128.372845 -65.14539 
L 126.659688 -64.669185 
L 124.94653 -64.213383 
L 123.233372 -63.77717 
L 121.520214 -63.35894 
L 119.807056 -62.96085 
L 118.093898 -62.582847 
L 116.38074 -62.227793 
L 114.667582 -61.892629 
L 112.954424 -61.582532 
L 111.241266 -61.273008 
L 109.528109 -60.9654 
L 107.814951 -60.657676 
L 106.101793 -60.34934 
L 104.388635 -60.042399 
L 102.675477 -59.734539 
L 100.962319 -59.427592 
L 99.249161 -59.121872 
L 97.536003 -58.816631 
L 95.822845 -58.511312 
L 94.109688 -58.208342 
L 92.39653 -57.906116 
L 90.683372 -57.60561 
L 88.970214 -57.30669 
L 87.257056 -57.009406 
L 85.543898 -56.714928 
L 83.83074 -56.423727 
L 82.117582 -56.136307 
L 80.404424 -55.853308 
L 78.691266 -55.57537 
L 76.978109 -55.303587 
L 75.264951 -55.039368 
L 73.551793 -54.784335 
L 71.838635 -54.536443 
L 70.125477 -54.298988 
L 68.412319 -54.071027 
L 66.699161 -53.852807 
L 64.986003 -53.645042 
L 63.272845 -53.445842 
L 61.559688 -53.257156 
L 59.84653 -53.077964 
L 58.133372 -52.906568 
L 56.420214 -52.744587 
L 54.707056 -52.590385 
L 52.993898 -52.443971 
L 51.28074 -52.304338 
L 49.567582 -52.170178 
L 47.854424 -52.042044 
L 46.141266 -51.920017 
L 44.428109 -51.802963 
L 42.714951 -51.691977 
L 41.001793 -51.58562 
L 39.288635 -51.484346 
L 37.575477 -51.388928 
L 35.862319 -51.298504 
L 34.149161 -51.213926 
L 32.436003 -51.136472 
L 30.722845 -51.067783 
L 29.009688 -51.012471 
z
" id="m527ebebf9f"/>
    </defs>
    <g clip-path="url(#pab012bb74a)">
     <use style="fill:#7c7b78;" x="0" xlink:href="#m527ebebf9f" y="159.309562"/>
    </g>
   </g>
   <g id="PolyCollection_4">
    <defs>
     <path d="M 29.009688 -51.505207 
L 29.009688 -51.012471 
L 30.722845 -51.067783 
L 32.436003 -51.136472 
L 34.149161 -51.213926 
L 35.862319 -51.298504 
L 37.575477 -51.388928 
L 39.288635 -51.484346 
L 41.001793 -51.58562 
L 42.714951 -51.691977 
L 44.428109 -51.802963 
L 46.141266 -51.920017 
L 47.854424 -52.042044 
L 49.567582 -52.170178 
L 51.28074 -52.304338 
L 52.993898 -52.443971 
L 54.707056 -52.590385 
L 56.420214 -52.744587 
L 58.133372 -52.906568 
L 59.84653 -53.077964 
L 61.559688 -53.257156 
L 63.272845 -53.445842 
L 64.986003 -53.645042 
L 66.699161 -53.852807 
L 68.412319 -54.071027 
L 70.125477 -54.298988 
L 71.838635 -54.536443 
L 73.551793 -54.784335 
L 75.264951 -55.039368 
L 76.978109 -55.303587 
L 78.691266 -55.57537 
L 80.404424 -55.853308 
L 82.117582 -56.136307 
L 83.83074 -56.423727 
L 85.543898 -56.714928 
L 87.257056 -57.009406 
L 88.970214 -57.30669 
L 90.683372 -57.60561 
L 92.39653 -57.906116 
L 94.109688 -58.208342 
L 95.822845 -58.511312 
L 97.536003 -58.816631 
L 99.249161 -59.121872 
L 100.962319 -59.427592 
L 102.675477 -59.734539 
L 104.388635 -60.042399 
L 106.101793 -60.34934 
L 107.814951 -60.657676 
L 109.528109 -60.9654 
L 111.241266 -61.273008 
L 112.954424 -61.582532 
L 114.667582 -61.892629 
L 116.38074 -62.227793 
L 118.093898 -62.582847 
L 119.807056 -62.96085 
L 121.520214 -63.35894 
L 123.233372 -63.77717 
L 124.94653 -64.213383 
L 126.659688 -64.669185 
L 128.372845 -65.14539 
L 130.086003 -65.64176 
L 131.799161 -66.158423 
L 133.512319 -66.693414 
L 135.225477 -67.250696 
L 136.938635 -67.882727 
L 138.651793 -68.622986 
L 140.364951 -69.490081 
L 142.078109 -70.412064 
L 143.791266 -71.304418 
L 145.504424 -72.285176 
L 147.217582 -73.304627 
L 148.93074 -74.358653 
L 150.643898 -75.431846 
L 152.357056 -76.568105 
L 154.070214 -77.794982 
L 155.783372 -78.875327 
L 157.49653 -79.68143 
L 159.209688 -80.785486 
L 160.922845 -81.922092 
L 162.636003 -83.086544 
L 164.349161 -84.252989 
L 166.062319 -85.339656 
L 167.775477 -86.317705 
L 169.488635 -87.204804 
L 171.201793 -88.242169 
L 172.914951 -89.372706 
L 174.628109 -90.477813 
L 176.341266 -91.672575 
L 178.054424 -92.946327 
L 179.767582 -94.238433 
L 181.48074 -95.516646 
L 183.193898 -96.662165 
L 184.907056 -97.579407 
L 186.620214 -98.307532 
L 188.333372 -98.986492 
L 190.04653 -99.706314 
L 191.759688 -100.415248 
L 193.472845 -101.018977 
L 195.186003 -101.823977 
L 196.899161 -102.315477 
L 198.612319 -103.002544 
L 200.325477 -103.712001 
L 202.038635 -104.240816 
L 203.751793 -104.882061 
L 205.464951 -105.707089 
L 207.178109 -106.709717 
L 208.891266 -107.765455 
L 210.604424 -108.967582 
L 212.317582 -110.167252 
L 214.03074 -111.066901 
L 215.743898 -111.620451 
L 217.457056 -112.584505 
L 219.170214 -113.63364 
L 220.883372 -114.834016 
L 222.59653 -116.107413 
L 224.309688 -117.594045 
L 224.309688 -126.458296 
L 224.309688 -126.458296 
L 222.59653 -124.732489 
L 220.883372 -123.232404 
L 219.170214 -121.815086 
L 217.457056 -120.54656 
L 215.743898 -119.372759 
L 214.03074 -118.61969 
L 212.317582 -117.506603 
L 210.604424 -116.094256 
L 208.891266 -114.692525 
L 207.178109 -113.445334 
L 205.464951 -112.260011 
L 203.751793 -111.269561 
L 202.038635 -110.468595 
L 200.325477 -109.790456 
L 198.612319 -108.937699 
L 196.899161 -108.109539 
L 195.186003 -107.47295 
L 193.472845 -106.525708 
L 191.759688 -105.776924 
L 190.04653 -104.925541 
L 188.333372 -104.072753 
L 186.620214 -103.265893 
L 184.907056 -102.427931 
L 183.193898 -101.399597 
L 181.48074 -100.145154 
L 179.767582 -98.769982 
L 178.054424 -97.389997 
L 176.341266 -96.030443 
L 174.628109 -94.746264 
L 172.914951 -93.5295 
L 171.201793 -92.285501 
L 169.488635 -91.133922 
L 167.775477 -90.134212 
L 166.062319 -89.038952 
L 164.349161 -87.827478 
L 162.636003 -86.544015 
L 160.922845 -85.270146 
L 159.209688 -84.031054 
L 157.49653 -82.814496 
L 155.783372 -81.904044 
L 154.070214 -80.709311 
L 152.357056 -79.37287 
L 150.643898 -78.139079 
L 148.93074 -76.976612 
L 147.217582 -75.84144 
L 145.504424 -74.743884 
L 143.791266 -73.68737 
L 142.078109 -72.722259 
L 140.364951 -71.730072 
L 138.651793 -70.795732 
L 136.938635 -69.992286 
L 135.225477 -69.305122 
L 133.512319 -68.694722 
L 131.799161 -68.107708 
L 130.086003 -67.539774 
L 128.372845 -66.994411 
L 126.659688 -66.471318 
L 124.94653 -65.970773 
L 123.233372 -65.491786 
L 121.520214 -65.030171 
L 119.807056 -64.5881 
L 118.093898 -64.168334 
L 116.38074 -63.773678 
L 114.667582 -63.40096 
L 112.954424 -63.055753 
L 111.241266 -62.712629 
L 109.528109 -62.372656 
L 107.814951 -62.033559 
L 106.101793 -61.694912 
L 104.388635 -61.357444 
L 102.675477 -61.019478 
L 100.962319 -60.683261 
L 99.249161 -60.348983 
L 97.536003 -60.015801 
L 95.822845 -59.683046 
L 94.109688 -59.353124 
L 92.39653 -59.024426 
L 90.683372 -58.698089 
L 88.970214 -58.37386 
L 87.257056 -58.051809 
L 85.543898 -57.733119 
L 83.83074 -57.418144 
L 82.117582 -57.107291 
L 80.404424 -56.801359 
L 78.691266 -56.501172 
L 76.978109 -56.207476 
L 75.264951 -55.921889 
L 73.551793 -55.646119 
L 71.838635 -55.377911 
L 70.125477 -55.120715 
L 68.412319 -54.873669 
L 66.699161 -54.637226 
L 64.986003 -54.411957 
L 63.272845 -54.195861 
L 61.559688 -53.990952 
L 59.84653 -53.796001 
L 58.133372 -53.60884 
L 56.420214 -53.431235 
L 54.707056 -53.261748 
L 52.993898 -53.100229 
L 51.28074 -52.945908 
L 49.567582 -52.797423 
L 47.854424 -52.655485 
L 46.141266 -52.520048 
L 44.428109 -52.390014 
L 42.714951 -52.266536 
L 41.001793 -52.148092 
L 39.288635 -52.035091 
L 37.575477 -51.928374 
L 35.862319 -51.827109 
L 34.149161 -51.732411 
L 32.436003 -51.645626 
L 30.722845 -51.568357 
L 29.009688 -51.505207 
z
" id="mf727b2e655"/>
    </defs>
    <g clip-path="url(#pab012bb74a)">
     <use style="fill:#bbbbbb;" x="0" xlink:href="#mf727b2e655" y="159.309562"/>
    </g>
   </g>
   <g id="PolyCollection_5">
    <defs>
     <path d="M 29.009688 -51.505207 
L 29.009688 -51.505207 
L 30.722845 -51.568357 
L 32.436003 -51.645626 
L 34.149161 -51.732411 
L 35.862319 -51.827109 
L 37.575477 -51.928374 
L 39.288635 -52.035091 
L 41.001793 -52.148092 
L 42.714951 -52.266536 
L 44.428109 -52.390014 
L 46.141266 -52.520048 
L 47.854424 -52.655485 
L 49.567582 -52.797423 
L 51.28074 -52.945908 
L 52.993898 -53.100229 
L 54.707056 -53.261748 
L 56.420214 -53.431235 
L 58.133372 -53.60884 
L 59.84653 -53.796001 
L 61.559688 -53.990952 
L 63.272845 -54.195861 
L 64.986003 -54.411957 
L 66.699161 -54.637226 
L 68.412319 -54.873669 
L 70.125477 -55.120715 
L 71.838635 -55.377911 
L 73.551793 -55.646119 
L 75.264951 -55.921889 
L 76.978109 -56.207476 
L 78.691266 -56.501172 
L 80.404424 -56.801359 
L 82.117582 -57.107291 
L 83.83074 -57.418144 
L 85.543898 -57.733119 
L 87.257056 -58.051809 
L 88.970214 -58.37386 
L 90.683372 -58.698089 
L 92.39653 -59.024426 
L 94.109688 -59.353124 
L 95.822845 -59.683046 
L 97.536003 -60.015801 
L 99.249161 -60.348983 
L 100.962319 -60.683261 
L 102.675477 -61.019478 
L 104.388635 -61.357444 
L 106.101793 -61.694912 
L 107.814951 -62.033559 
L 109.528109 -62.372656 
L 111.241266 -62.712629 
L 112.954424 -63.055753 
L 114.667582 -63.40096 
L 116.38074 -63.773678 
L 118.093898 -64.168334 
L 119.807056 -64.5881 
L 121.520214 -65.030171 
L 123.233372 -65.491786 
L 124.94653 -65.970773 
L 126.659688 -66.471318 
L 128.372845 -66.994411 
L 130.086003 -67.539774 
L 131.799161 -68.107708 
L 133.512319 -68.694722 
L 135.225477 -69.305122 
L 136.938635 -69.992286 
L 138.651793 -70.795732 
L 140.364951 -71.730072 
L 142.078109 -72.722259 
L 143.791266 -73.68737 
L 145.504424 -74.743884 
L 147.217582 -75.84144 
L 148.93074 -76.976612 
L 150.643898 -78.139079 
L 152.357056 -79.37287 
L 154.070214 -80.709311 
L 155.783372 -81.904044 
L 157.49653 -82.814496 
L 159.209688 -84.031054 
L 160.922845 -85.270146 
L 162.636003 -86.544015 
L 164.349161 -87.827478 
L 166.062319 -89.038952 
L 167.775477 -90.134212 
L 169.488635 -91.133922 
L 171.201793 -92.285501 
L 172.914951 -93.5295 
L 174.628109 -94.746264 
L 176.341266 -96.030443 
L 178.054424 -97.389997 
L 179.767582 -98.769982 
L 181.48074 -100.145154 
L 183.193898 -101.399597 
L 184.907056 -102.427931 
L 186.620214 -103.265893 
L 188.333372 -104.072753 
L 190.04653 -104.925541 
L 191.759688 -105.776924 
L 193.472845 -106.525708 
L 195.186003 -107.47295 
L 196.899161 -108.109539 
L 198.612319 -108.937699 
L 200.325477 -109.790456 
L 202.038635 -110.468595 
L 203.751793 -111.269561 
L 205.464951 -112.260011 
L 207.178109 -113.445334 
L 208.891266 -114.692525 
L 210.604424 -116.094256 
L 212.317582 -117.506603 
L 214.03074 -118.61969 
L 215.743898 -119.372759 
L 217.457056 -120.54656 
L 219.170214 -121.815086 
L 220.883372 -123.232404 
L 222.59653 -124.732489 
L 224.309688 -126.458296 
L 224.309688 -144.645984 
L 224.309688 -144.645984 
L 222.59653 -142.096284 
L 220.883372 -139.833912 
L 219.170214 -137.674216 
L 217.457056 -135.674603 
L 215.743898 -133.826267 
L 214.03074 -132.44064 
L 212.317582 -130.58887 
L 210.604424 -128.44956 
L 208.891266 -126.398464 
L 207.178109 -124.511477 
L 205.464951 -122.683346 
L 203.751793 -121.095076 
L 202.038635 -119.705118 
L 200.325477 -118.470061 
L 198.612319 -117.074997 
L 196.899161 -115.740766 
L 195.186003 -114.63144 
L 193.472845 -113.232747 
L 191.759688 -112.066744 
L 190.04653 -110.817504 
L 188.333372 -109.598917 
L 186.620214 -108.459356 
L 184.907056 -107.301607 
L 183.193898 -105.965422 
L 181.48074 -104.413862 
L 179.767582 -102.755098 
L 178.054424 -101.097135 
L 176.341266 -99.483463 
L 174.628109 -97.973211 
L 172.914951 -96.54934 
L 171.201793 -95.110011 
L 169.488635 -93.778839 
L 167.775477 -92.610024 
L 166.062319 -91.339004 
L 164.349161 -89.952088 
L 162.636003 -88.490923 
L 160.922845 -87.067062 
L 159.209688 -85.682092 
L 157.49653 -84.332196 
L 155.783372 -83.311603 
L 154.070214 -81.969699 
L 152.357056 -80.477368 
L 150.643898 -79.106948 
L 148.93074 -77.821767 
L 147.217582 -76.574349 
L 145.504424 -75.367314 
L 143.791266 -74.223312 
L 142.078109 -73.18117 
L 140.364951 -72.125476 
L 138.651793 -71.137528 
L 136.938635 -70.287297 
L 135.225477 -69.558913 
L 133.512319 -68.911266 
L 131.799161 -68.292497 
L 130.086003 -67.696866 
L 128.372845 -67.126908 
L 126.659688 -66.584235 
L 124.94653 -66.066595 
L 123.233372 -65.571598 
L 121.520214 -65.091948 
L 119.807056 -64.633766 
L 118.093898 -64.199785 
L 116.38074 -63.791652 
L 114.667582 -63.408632 
L 112.954424 -63.055753 
L 111.241266 -62.712629 
L 109.528109 -62.372656 
L 107.814951 -62.033559 
L 106.101793 -61.694912 
L 104.388635 -61.357444 
L 102.675477 -61.019478 
L 100.962319 -60.683261 
L 99.249161 -60.348983 
L 97.536003 -60.015801 
L 95.822845 -59.683046 
L 94.109688 -59.353124 
L 92.39653 -59.024426 
L 90.683372 -58.698089 
L 88.970214 -58.37386 
L 87.257056 -58.051809 
L 85.543898 -57.733119 
L 83.83074 -57.418144 
L 82.117582 -57.107291 
L 80.404424 -56.801359 
L 78.691266 -56.501172 
L 76.978109 -56.207476 
L 75.264951 -55.921889 
L 73.551793 -55.646119 
L 71.838635 -55.377911 
L 70.125477 -55.120715 
L 68.412319 -54.873669 
L 66.699161 -54.637226 
L 64.986003 -54.411957 
L 63.272845 -54.195861 
L 61.559688 -53.990952 
L 59.84653 -53.796001 
L 58.133372 -53.60884 
L 56.420214 -53.431235 
L 54.707056 -53.261748 
L 52.993898 -53.100229 
L 51.28074 -52.945908 
L 49.567582 -52.797423 
L 47.854424 -52.655485 
L 46.141266 -52.520048 
L 44.428109 -52.390014 
L 42.714951 -52.266536 
L 41.001793 -52.148092 
L 39.288635 -52.035091 
L 37.575477 -51.928374 
L 35.862319 -51.827109 
L 34.149161 -51.732411 
L 32.436003 -51.645626 
L 30.722845 -51.568357 
L 29.009688 -51.505207 
z
" id="m8ff14ba1cc"/>
    </defs>
    <g clip-path="url(#pab012bb74a)">
     <use style="fill:#90b493;" x="0" xlink:href="#m8ff14ba1cc" y="159.309562"/>
    </g>
   </g>
   <g id="matplotlib.axis_1">
    <g id="xtick_1">
     <g id="line2d_1">
      <defs>
       <path d="M 0 0 
L 0 3.5 
" id="m990ed24ce4" style="stroke:#000000;stroke-width:0.8;"/>
      </defs>
      <g>
       <use style="stroke:#000000;stroke-width:0.8;" x="46.141266" xlink:href="#m990ed24ce4" y="132.128"/>
      </g>
     </g>
     <g id="text_1">
      <!-- 1910 -->
      <defs>
       <path d="M 12.40625 8.296875 
L 28.515625 8.296875 
L 28.515625 63.921875 
L 10.984375 60.40625 
L 10.984375 69.390625 
L 28.421875 72.90625 
L 38.28125 72.90625 
L 38.28125 8.296875 
L 54.390625 8.296875 
L 54.390625 0 
L 12.40625 0 
z
" id="DejaVuSans-31"/>
       <path d="M 10.984375 1.515625 
L 10.984375 10.5 
Q 14.703125 8.734375 18.5 7.8125 
Q 22.3125 6.890625 25.984375 6.890625 
Q 35.75 6.890625 40.890625 13.453125 
Q 46.046875 20.015625 46.78125 33.40625 
Q 43.953125 29.203125 39.59375 26.953125 
Q 35.25 24.703125 29.984375 24.703125 
Q 19.046875 24.703125 12.671875 31.3125 
Q 6.296875 37.9375 6.296875 49.421875 
Q 6.296875 60.640625 12.9375 67.421875 
Q 19.578125 74.21875 30.609375 74.21875 
Q 43.265625 74.21875 49.921875 64.515625 
Q 56.59375 54.828125 56.59375 36.375 
Q 56.59375 19.140625 48.40625 8.859375 
Q 40.234375 -1.421875 26.421875 -1.421875 
Q 22.703125 -1.421875 18.890625 -0.6875 
Q 15.09375 0.046875 10.984375 1.515625 
z
M 30.609375 32.421875 
Q 37.25 32.421875 41.125 36.953125 
Q 45.015625 41.5 45.015625 49.421875 
Q 45.015625 57.28125 41.125 61.84375 
Q 37.25 66.40625 30.609375 66.40625 
Q 23.96875 66.40625 20.09375 61.84375 
Q 16.21875 57.28125 16.21875 49.421875 
Q 16.21875 41.5 20.09375 36.953125 
Q 23.96875 32.421875 30.609375 32.421875 
z
" id="DejaVuSans-39"/>
       <path d="M 31.78125 66.40625 
Q 24.171875 66.40625 20.328125 58.90625 
Q 16.5 51.421875 16.5 36.375 
Q 16.5 21.390625 20.328125 13.890625 
Q 24.171875 6.390625 31.78125 6.390625 
Q 39.453125 6.390625 43.28125 13.890625 
Q 47.125 21.390625 47.125 36.375 
Q 47.125 51.421875 43.28125 58.90625 
Q 39.453125 66.40625 31.78125 66.40625 
z
M 31.78125 74.21875 
Q 44.046875 74.21875 50.515625 64.515625 
Q 56.984375 54.828125 56.984375 36.375 
Q 56.984375 17.96875 50.515625 8.265625 
Q 44.046875 -1.421875 31.78125 -1.421875 
Q 19.53125 -1.421875 13.0625 8.265625 
Q 6.59375 17.96875 6.59375 36.375 
Q 6.59375 54.828125 13.0625 64.515625 
Q 19.53125 74.21875 31.78125 74.21875 
z
" id="DejaVuSans-30"/>
      </defs>
      <g transform="translate(38.506266 143.687062)scale(0.06 -0.06)">
       <use xlink:href="#DejaVuSans-31"/>
       <use x="63.623047" xlink:href="#DejaVuSans-39"/>
       <use x="127.246094" xlink:href="#DejaVuSans-31"/>
       <use x="190.869141" xlink:href="#DejaVuSans-30"/>
      </g>
     </g>
    </g>
    <g id="xtick_2">
     <g id="line2d_2">
      <g>
       <use style="stroke:#000000;stroke-width:0.8;" x="80.404424" xlink:href="#m990ed24ce4" y="132.128"/>
      </g>
     </g>
     <g id="text_2">
      <!-- 1930 -->
      <defs>
       <path d="M 40.578125 39.3125 
Q 47.65625 37.796875 51.625 33 
Q 55.609375 28.21875 55.609375 21.1875 
Q 55.609375 10.40625 48.1875 4.484375 
Q 40.765625 -1.421875 27.09375 -1.421875 
Q 22.515625 -1.421875 17.65625 -0.515625 
Q 12.796875 0.390625 7.625 2.203125 
L 7.625 11.71875 
Q 11.71875 9.328125 16.59375 8.109375 
Q 21.484375 6.890625 26.8125 6.890625 
Q 36.078125 6.890625 40.9375 10.546875 
Q 45.796875 14.203125 45.796875 21.1875 
Q 45.796875 27.640625 41.28125 31.265625 
Q 36.765625 34.90625 28.71875 34.90625 
L 20.21875 34.90625 
L 20.21875 43.015625 
L 29.109375 43.015625 
Q 36.375 43.015625 40.234375 45.921875 
Q 44.09375 48.828125 44.09375 54.296875 
Q 44.09375 59.90625 40.109375 62.90625 
Q 36.140625 65.921875 28.71875 65.921875 
Q 24.65625 65.921875 20.015625 65.03125 
Q 15.375 64.15625 9.8125 62.3125 
L 9.8125 71.09375 
Q 15.4375 72.65625 20.34375 73.4375 
Q 25.25 74.21875 29.59375 74.21875 
Q 40.828125 74.21875 47.359375 69.109375 
Q 53.90625 64.015625 53.90625 55.328125 
Q 53.90625 49.265625 50.4375 45.09375 
Q 46.96875 40.921875 40.578125 39.3125 
z
" id="DejaVuSans-33"/>
      </defs>
      <g transform="translate(72.769424 143.687062)scale(0.06 -0.06)">
       <use xlink:href="#DejaVuSans-31"/>
       <use x="63.623047" xlink:href="#DejaVuSans-39"/>
       <use x="127.246094" xlink:href="#DejaVuSans-33"/>
       <use x="190.869141" xlink:href="#DejaVuSans-30"/>
      </g>
     </g>
    </g>
    <g id="xtick_3">
     <g id="line2d_3">
      <g>
       <use style="stroke:#000000;stroke-width:0.8;" x="114.667582" xlink:href="#m990ed24ce4" y="132.128"/>
      </g>
     </g>
     <g id="text_3">
      <!-- 1950 -->
      <defs>
       <path d="M 10.796875 72.90625 
L 49.515625 72.90625 
L 49.515625 64.59375 
L 19.828125 64.59375 
L 19.828125 46.734375 
Q 21.96875 47.46875 24.109375 47.828125 
Q 26.265625 48.1875 28.421875 48.1875 
Q 40.625 48.1875 47.75 41.5 
Q 54.890625 34.8125 54.890625 23.390625 
Q 54.890625 11.625 47.5625 5.09375 
Q 40.234375 -1.421875 26.90625 -1.421875 
Q 22.3125 -1.421875 17.546875 -0.640625 
Q 12.796875 0.140625 7.71875 1.703125 
L 7.71875 11.625 
Q 12.109375 9.234375 16.796875 8.0625 
Q 21.484375 6.890625 26.703125 6.890625 
Q 35.15625 6.890625 40.078125 11.328125 
Q 45.015625 15.765625 45.015625 23.390625 
Q 45.015625 31 40.078125 35.4375 
Q 35.15625 39.890625 26.703125 39.890625 
Q 22.75 39.890625 18.8125 39.015625 
Q 14.890625 38.140625 10.796875 36.28125 
z
" id="DejaVuSans-35"/>
      </defs>
      <g transform="translate(107.032582 143.687062)scale(0.06 -0.06)">
       <use xlink:href="#DejaVuSans-31"/>
       <use x="63.623047" xlink:href="#DejaVuSans-39"/>
       <use x="127.246094" xlink:href="#DejaVuSans-35"/>
       <use x="190.869141" xlink:href="#DejaVuSans-30"/>
      </g>
     </g>
    </g>
    <g id="xtick_4">
     <g id="line2d_4">
      <g>
       <use style="stroke:#000000;stroke-width:0.8;" x="148.93074" xlink:href="#m990ed24ce4" y="132.128"/>
      </g>
     </g>
     <g id="text_4">
      <!-- 1970 -->
      <defs>
       <path d="M 8.203125 72.90625 
L 55.078125 72.90625 
L 55.078125 68.703125 
L 28.609375 0 
L 18.3125 0 
L 43.21875 64.59375 
L 8.203125 64.59375 
z
" id="DejaVuSans-37"/>
      </defs>
      <g transform="translate(141.29574 143.687062)scale(0.06 -0.06)">
       <use xlink:href="#DejaVuSans-31"/>
       <use x="63.623047" xlink:href="#DejaVuSans-39"/>
       <use x="127.246094" xlink:href="#DejaVuSans-37"/>
       <use x="190.869141" xlink:href="#DejaVuSans-30"/>
      </g>
     </g>
    </g>
    <g id="xtick_5">
     <g id="line2d_5">
      <g>
       <use style="stroke:#000000;stroke-width:0.8;" x="183.193898" xlink:href="#m990ed24ce4" y="132.128"/>
      </g>
     </g>
     <g id="text_5">
      <!-- 1990 -->
      <g transform="translate(175.558898 143.687062)scale(0.06 -0.06)">
       <use xlink:href="#DejaVuSans-31"/>
       <use x="63.623047" xlink:href="#DejaVuSans-39"/>
       <use x="127.246094" xlink:href="#DejaVuSans-39"/>
       <use x="190.869141" xlink:href="#DejaVuSans-30"/>
      </g>
     </g>
    </g>
    <g id="xtick_6">
     <g id="line2d_6">
      <g>
       <use style="stroke:#000000;stroke-width:0.8;" x="217.457056" xlink:href="#m990ed24ce4" y="132.128"/>
      </g>
     </g>
     <g id="text_6">
      <!-- 2010 -->
      <defs>
       <path d="M 19.1875 8.296875 
L 53.609375 8.296875 
L 53.609375 0 
L 7.328125 0 
L 7.328125 8.296875 
Q 12.9375 14.109375 22.625 23.890625 
Q 32.328125 33.6875 34.8125 36.53125 
Q 39.546875 41.84375 41.421875 45.53125 
Q 43.3125 49.21875 43.3125 52.78125 
Q 43.3125 58.59375 39.234375 62.25 
Q 35.15625 65.921875 28.609375 65.921875 
Q 23.96875 65.921875 18.8125 64.3125 
Q 13.671875 62.703125 7.8125 59.421875 
L 7.8125 69.390625 
Q 13.765625 71.78125 18.9375 73 
Q 24.125 74.21875 28.421875 74.21875 
Q 39.75 74.21875 46.484375 68.546875 
Q 53.21875 62.890625 53.21875 53.421875 
Q 53.21875 48.921875 51.53125 44.890625 
Q 49.859375 40.875 45.40625 35.40625 
Q 44.1875 33.984375 37.640625 27.21875 
Q 31.109375 20.453125 19.1875 8.296875 
z
" id="DejaVuSans-32"/>
      </defs>
      <g transform="translate(209.822056 143.687062)scale(0.06 -0.06)">
       <use xlink:href="#DejaVuSans-32"/>
       <use x="63.623047" xlink:href="#DejaVuSans-30"/>
       <use x="127.246094" xlink:href="#DejaVuSans-31"/>
       <use x="190.869141" xlink:href="#DejaVuSans-30"/>
      </g>
     </g>
    </g>
    <g id="text_7">
     <!-- year -->
     <defs>
      <path d="M 32.171875 -5.078125 
Q 28.375 -14.84375 24.75 -17.8125 
Q 21.140625 -20.796875 15.09375 -20.796875 
L 7.90625 -20.796875 
L 7.90625 -13.28125 
L 13.1875 -13.28125 
Q 16.890625 -13.28125 18.9375 -11.515625 
Q 21 -9.765625 23.484375 -3.21875 
L 25.09375 0.875 
L 2.984375 54.6875 
L 12.5 54.6875 
L 29.59375 11.921875 
L 46.6875 54.6875 
L 56.203125 54.6875 
z
" id="DejaVuSans-79"/>
      <path d="M 56.203125 29.59375 
L 56.203125 25.203125 
L 14.890625 25.203125 
Q 15.484375 15.921875 20.484375 11.0625 
Q 25.484375 6.203125 34.421875 6.203125 
Q 39.59375 6.203125 44.453125 7.46875 
Q 49.3125 8.734375 54.109375 11.28125 
L 54.109375 2.78125 
Q 49.265625 0.734375 44.1875 -0.34375 
Q 39.109375 -1.421875 33.890625 -1.421875 
Q 20.796875 -1.421875 13.15625 6.1875 
Q 5.515625 13.8125 5.515625 26.8125 
Q 5.515625 40.234375 12.765625 48.109375 
Q 20.015625 56 32.328125 56 
Q 43.359375 56 49.78125 48.890625 
Q 56.203125 41.796875 56.203125 29.59375 
z
M 47.21875 32.234375 
Q 47.125 39.59375 43.09375 43.984375 
Q 39.0625 48.390625 32.421875 48.390625 
Q 24.90625 48.390625 20.390625 44.140625 
Q 15.875 39.890625 15.1875 32.171875 
z
" id="DejaVuSans-65"/>
      <path d="M 34.28125 27.484375 
Q 23.390625 27.484375 19.1875 25 
Q 14.984375 22.515625 14.984375 16.5 
Q 14.984375 11.71875 18.140625 8.90625 
Q 21.296875 6.109375 26.703125 6.109375 
Q 34.1875 6.109375 38.703125 11.40625 
Q 43.21875 16.703125 43.21875 25.484375 
L 43.21875 27.484375 
z
M 52.203125 31.203125 
L 52.203125 0 
L 43.21875 0 
L 43.21875 8.296875 
Q 40.140625 3.328125 35.546875 0.953125 
Q 30.953125 -1.421875 24.3125 -1.421875 
Q 15.921875 -1.421875 10.953125 3.296875 
Q 6 8.015625 6 15.921875 
Q 6 25.140625 12.171875 29.828125 
Q 18.359375 34.515625 30.609375 34.515625 
L 43.21875 34.515625 
L 43.21875 35.40625 
Q 43.21875 41.609375 39.140625 45 
Q 35.0625 48.390625 27.6875 48.390625 
Q 23 48.390625 18.546875 47.265625 
Q 14.109375 46.140625 10.015625 43.890625 
L 10.015625 52.203125 
Q 14.9375 54.109375 19.578125 55.046875 
Q 24.21875 56 28.609375 56 
Q 40.484375 56 46.34375 49.84375 
Q 52.203125 43.703125 52.203125 31.203125 
z
" id="DejaVuSans-61"/>
      <path d="M 41.109375 46.296875 
Q 39.59375 47.171875 37.8125 47.578125 
Q 36.03125 48 33.890625 48 
Q 26.265625 48 22.1875 43.046875 
Q 18.109375 38.09375 18.109375 28.8125 
L 18.109375 0 
L 9.078125 0 
L 9.078125 54.6875 
L 18.109375 54.6875 
L 18.109375 46.1875 
Q 20.953125 51.171875 25.484375 53.578125 
Q 30.03125 56 36.53125 56 
Q 37.453125 56 38.578125 55.875 
Q 39.703125 55.765625 41.0625 55.515625 
z
" id="DejaVuSans-72"/>
     </defs>
     <g transform="translate(118.850859 154.253781)scale(0.07 -0.07)">
      <use xlink:href="#DejaVuSans-79"/>
      <use x="59.179688" xlink:href="#DejaVuSans-65"/>
      <use x="120.703125" xlink:href="#DejaVuSans-61"/>
      <use x="181.982422" xlink:href="#DejaVuSans-72"/>
     </g>
    </g>
   </g>
   <g id="matplotlib.axis_2">
    <g id="ytick_1">
     <g id="line2d_7">
      <defs>
       <path d="M 0 0 
L -3.5 0 
" id="m67fc53a889" style="stroke:#000000;stroke-width:0.8;"/>
      </defs>
      <g>
       <use style="stroke:#000000;stroke-width:0.8;" x="29.009688" xlink:href="#m67fc53a889" y="132.128"/>
      </g>
     </g>
     <g id="text_8">
      <!-- 0 -->
      <g transform="translate(18.192188 134.407531)scale(0.06 -0.06)">
       <use xlink:href="#DejaVuSans-30"/>
      </g>
     </g>
    </g>
    <g id="ytick_2">
     <g id="line2d_8">
      <g>
       <use style="stroke:#000000;stroke-width:0.8;" x="29.009688" xlink:href="#m67fc53a889" y="109.395636"/>
      </g>
     </g>
     <g id="text_9">
      <!-- 4 -->
      <defs>
       <path d="M 37.796875 64.3125 
L 12.890625 25.390625 
L 37.796875 25.390625 
z
M 35.203125 72.90625 
L 47.609375 72.90625 
L 47.609375 25.390625 
L 58.015625 25.390625 
L 58.015625 17.1875 
L 47.609375 17.1875 
L 47.609375 0 
L 37.796875 0 
L 37.796875 17.1875 
L 4.890625 17.1875 
L 4.890625 26.703125 
z
" id="DejaVuSans-34"/>
      </defs>
      <g transform="translate(18.192188 111.675168)scale(0.06 -0.06)">
       <use xlink:href="#DejaVuSans-34"/>
      </g>
     </g>
    </g>
    <g id="ytick_3">
     <g id="line2d_9">
      <g>
       <use style="stroke:#000000;stroke-width:0.8;" x="29.009688" xlink:href="#m67fc53a889" y="86.663273"/>
      </g>
     </g>
     <g id="text_10">
      <!-- 8 -->
      <defs>
       <path d="M 31.78125 34.625 
Q 24.75 34.625 20.71875 30.859375 
Q 16.703125 27.09375 16.703125 20.515625 
Q 16.703125 13.921875 20.71875 10.15625 
Q 24.75 6.390625 31.78125 6.390625 
Q 38.8125 6.390625 42.859375 10.171875 
Q 46.921875 13.96875 46.921875 20.515625 
Q 46.921875 27.09375 42.890625 30.859375 
Q 38.875 34.625 31.78125 34.625 
z
M 21.921875 38.8125 
Q 15.578125 40.375 12.03125 44.71875 
Q 8.5 49.078125 8.5 55.328125 
Q 8.5 64.0625 14.71875 69.140625 
Q 20.953125 74.21875 31.78125 74.21875 
Q 42.671875 74.21875 48.875 69.140625 
Q 55.078125 64.0625 55.078125 55.328125 
Q 55.078125 49.078125 51.53125 44.71875 
Q 48 40.375 41.703125 38.8125 
Q 48.828125 37.15625 52.796875 32.3125 
Q 56.78125 27.484375 56.78125 20.515625 
Q 56.78125 9.90625 50.3125 4.234375 
Q 43.84375 -1.421875 31.78125 -1.421875 
Q 19.734375 -1.421875 13.25 4.234375 
Q 6.78125 9.90625 6.78125 20.515625 
Q 6.78125 27.484375 10.78125 32.3125 
Q 14.796875 37.15625 21.921875 38.8125 
z
M 18.3125 54.390625 
Q 18.3125 48.734375 21.84375 45.5625 
Q 25.390625 42.390625 31.78125 42.390625 
Q 38.140625 42.390625 41.71875 45.5625 
Q 45.3125 48.734375 45.3125 54.390625 
Q 45.3125 60.0625 41.71875 63.234375 
Q 38.140625 66.40625 31.78125 66.40625 
Q 25.390625 66.40625 21.84375 63.234375 
Q 18.3125 60.0625 18.3125 54.390625 
z
" id="DejaVuSans-38"/>
      </defs>
      <g transform="translate(18.192188 88.942804)scale(0.06 -0.06)">
       <use xlink:href="#DejaVuSans-38"/>
      </g>
     </g>
    </g>
    <g id="ytick_4">
     <g id="line2d_10">
      <g>
       <use style="stroke:#000000;stroke-width:0.8;" x="29.009688" xlink:href="#m67fc53a889" y="63.930909"/>
      </g>
     </g>
     <g id="text_11">
      <!-- 12 -->
      <g transform="translate(14.374688 66.21044)scale(0.06 -0.06)">
       <use xlink:href="#DejaVuSans-31"/>
       <use x="63.623047" xlink:href="#DejaVuSans-32"/>
      </g>
     </g>
    </g>
    <g id="ytick_5">
     <g id="line2d_11">
      <g>
       <use style="stroke:#000000;stroke-width:0.8;" x="29.009688" xlink:href="#m67fc53a889" y="41.198545"/>
      </g>
     </g>
     <g id="text_12">
      <!-- 16 -->
      <defs>
       <path d="M 33.015625 40.375 
Q 26.375 40.375 22.484375 35.828125 
Q 18.609375 31.296875 18.609375 23.390625 
Q 18.609375 15.53125 22.484375 10.953125 
Q 26.375 6.390625 33.015625 6.390625 
Q 39.65625 6.390625 43.53125 10.953125 
Q 47.40625 15.53125 47.40625 23.390625 
Q 47.40625 31.296875 43.53125 35.828125 
Q 39.65625 40.375 33.015625 40.375 
z
M 52.59375 71.296875 
L 52.59375 62.3125 
Q 48.875 64.0625 45.09375 64.984375 
Q 41.3125 65.921875 37.59375 65.921875 
Q 27.828125 65.921875 22.671875 59.328125 
Q 17.53125 52.734375 16.796875 39.40625 
Q 19.671875 43.65625 24.015625 45.921875 
Q 28.375 48.1875 33.59375 48.1875 
Q 44.578125 48.1875 50.953125 41.515625 
Q 57.328125 34.859375 57.328125 23.390625 
Q 57.328125 12.15625 50.6875 5.359375 
Q 44.046875 -1.421875 33.015625 -1.421875 
Q 20.359375 -1.421875 13.671875 8.265625 
Q 6.984375 17.96875 6.984375 36.375 
Q 6.984375 53.65625 15.1875 63.9375 
Q 23.390625 74.21875 37.203125 74.21875 
Q 40.921875 74.21875 44.703125 73.484375 
Q 48.484375 72.75 52.59375 71.296875 
z
" id="DejaVuSans-36"/>
      </defs>
      <g transform="translate(14.374688 43.478077)scale(0.06 -0.06)">
       <use xlink:href="#DejaVuSans-31"/>
       <use x="63.623047" xlink:href="#DejaVuSans-36"/>
      </g>
     </g>
    </g>
    <g id="ytick_6">
     <g id="line2d_12">
      <g>
       <use style="stroke:#000000;stroke-width:0.8;" x="29.009688" xlink:href="#m67fc53a889" y="18.466182"/>
      </g>
     </g>
     <g id="text_13">
      <!-- 20 -->
      <g transform="translate(14.374688 20.745713)scale(0.06 -0.06)">
       <use xlink:href="#DejaVuSans-32"/>
       <use x="63.623047" xlink:href="#DejaVuSans-30"/>
      </g>
     </g>
    </g>
    <g id="text_14">
     <!-- dry weight (Gigatonnes) -->
     <defs>
      <path d="M 45.40625 46.390625 
L 45.40625 75.984375 
L 54.390625 75.984375 
L 54.390625 0 
L 45.40625 0 
L 45.40625 8.203125 
Q 42.578125 3.328125 38.25 0.953125 
Q 33.9375 -1.421875 27.875 -1.421875 
Q 17.96875 -1.421875 11.734375 6.484375 
Q 5.515625 14.40625 5.515625 27.296875 
Q 5.515625 40.1875 11.734375 48.09375 
Q 17.96875 56 27.875 56 
Q 33.9375 56 38.25 53.625 
Q 42.578125 51.265625 45.40625 46.390625 
z
M 14.796875 27.296875 
Q 14.796875 17.390625 18.875 11.75 
Q 22.953125 6.109375 30.078125 6.109375 
Q 37.203125 6.109375 41.296875 11.75 
Q 45.40625 17.390625 45.40625 27.296875 
Q 45.40625 37.203125 41.296875 42.84375 
Q 37.203125 48.484375 30.078125 48.484375 
Q 22.953125 48.484375 18.875 42.84375 
Q 14.796875 37.203125 14.796875 27.296875 
z
" id="DejaVuSans-64"/>
      <path id="DejaVuSans-20"/>
      <path d="M 4.203125 54.6875 
L 13.1875 54.6875 
L 24.421875 12.015625 
L 35.59375 54.6875 
L 46.1875 54.6875 
L 57.421875 12.015625 
L 68.609375 54.6875 
L 77.59375 54.6875 
L 63.28125 0 
L 52.6875 0 
L 40.921875 44.828125 
L 29.109375 0 
L 18.5 0 
z
" id="DejaVuSans-77"/>
      <path d="M 9.421875 54.6875 
L 18.40625 54.6875 
L 18.40625 0 
L 9.421875 0 
z
M 9.421875 75.984375 
L 18.40625 75.984375 
L 18.40625 64.59375 
L 9.421875 64.59375 
z
" id="DejaVuSans-69"/>
      <path d="M 45.40625 27.984375 
Q 45.40625 37.75 41.375 43.109375 
Q 37.359375 48.484375 30.078125 48.484375 
Q 22.859375 48.484375 18.828125 43.109375 
Q 14.796875 37.75 14.796875 27.984375 
Q 14.796875 18.265625 18.828125 12.890625 
Q 22.859375 7.515625 30.078125 7.515625 
Q 37.359375 7.515625 41.375 12.890625 
Q 45.40625 18.265625 45.40625 27.984375 
z
M 54.390625 6.78125 
Q 54.390625 -7.171875 48.1875 -13.984375 
Q 42 -20.796875 29.203125 -20.796875 
Q 24.46875 -20.796875 20.265625 -20.09375 
Q 16.0625 -19.390625 12.109375 -17.921875 
L 12.109375 -9.1875 
Q 16.0625 -11.328125 19.921875 -12.34375 
Q 23.78125 -13.375 27.78125 -13.375 
Q 36.625 -13.375 41.015625 -8.765625 
Q 45.40625 -4.15625 45.40625 5.171875 
L 45.40625 9.625 
Q 42.625 4.78125 38.28125 2.390625 
Q 33.9375 0 27.875 0 
Q 17.828125 0 11.671875 7.65625 
Q 5.515625 15.328125 5.515625 27.984375 
Q 5.515625 40.671875 11.671875 48.328125 
Q 17.828125 56 27.875 56 
Q 33.9375 56 38.28125 53.609375 
Q 42.625 51.21875 45.40625 46.390625 
L 45.40625 54.6875 
L 54.390625 54.6875 
z
" id="DejaVuSans-67"/>
      <path d="M 54.890625 33.015625 
L 54.890625 0 
L 45.90625 0 
L 45.90625 32.71875 
Q 45.90625 40.484375 42.875 44.328125 
Q 39.84375 48.1875 33.796875 48.1875 
Q 26.515625 48.1875 22.3125 43.546875 
Q 18.109375 38.921875 18.109375 30.90625 
L 18.109375 0 
L 9.078125 0 
L 9.078125 75.984375 
L 18.109375 75.984375 
L 18.109375 46.1875 
Q 21.34375 51.125 25.703125 53.5625 
Q 30.078125 56 35.796875 56 
Q 45.21875 56 50.046875 50.171875 
Q 54.890625 44.34375 54.890625 33.015625 
z
" id="DejaVuSans-68"/>
      <path d="M 18.3125 70.21875 
L 18.3125 54.6875 
L 36.8125 54.6875 
L 36.8125 47.703125 
L 18.3125 47.703125 
L 18.3125 18.015625 
Q 18.3125 11.328125 20.140625 9.421875 
Q 21.96875 7.515625 27.59375 7.515625 
L 36.8125 7.515625 
L 36.8125 0 
L 27.59375 0 
Q 17.1875 0 13.234375 3.875 
Q 9.28125 7.765625 9.28125 18.015625 
L 9.28125 47.703125 
L 2.6875 47.703125 
L 2.6875 54.6875 
L 9.28125 54.6875 
L 9.28125 70.21875 
z
" id="DejaVuSans-74"/>
      <path d="M 31 75.875 
Q 24.46875 64.65625 21.28125 53.65625 
Q 18.109375 42.671875 18.109375 31.390625 
Q 18.109375 20.125 21.3125 9.0625 
Q 24.515625 -2 31 -13.1875 
L 23.1875 -13.1875 
Q 15.875 -1.703125 12.234375 9.375 
Q 8.59375 20.453125 8.59375 31.390625 
Q 8.59375 42.28125 12.203125 53.3125 
Q 15.828125 64.359375 23.1875 75.875 
z
" id="DejaVuSans-28"/>
      <path d="M 59.515625 10.40625 
L 59.515625 29.984375 
L 43.40625 29.984375 
L 43.40625 38.09375 
L 69.28125 38.09375 
L 69.28125 6.78125 
Q 63.578125 2.734375 56.6875 0.65625 
Q 49.8125 -1.421875 42 -1.421875 
Q 24.90625 -1.421875 15.25 8.5625 
Q 5.609375 18.5625 5.609375 36.375 
Q 5.609375 54.25 15.25 64.234375 
Q 24.90625 74.21875 42 74.21875 
Q 49.125 74.21875 55.546875 72.453125 
Q 61.96875 70.703125 67.390625 67.28125 
L 67.390625 56.78125 
Q 61.921875 61.421875 55.765625 63.765625 
Q 49.609375 66.109375 42.828125 66.109375 
Q 29.4375 66.109375 22.71875 58.640625 
Q 16.015625 51.171875 16.015625 36.375 
Q 16.015625 21.625 22.71875 14.15625 
Q 29.4375 6.6875 42.828125 6.6875 
Q 48.046875 6.6875 52.140625 7.59375 
Q 56.25 8.5 59.515625 10.40625 
z
" id="DejaVuSans-47"/>
      <path d="M 30.609375 48.390625 
Q 23.390625 48.390625 19.1875 42.75 
Q 14.984375 37.109375 14.984375 27.296875 
Q 14.984375 17.484375 19.15625 11.84375 
Q 23.34375 6.203125 30.609375 6.203125 
Q 37.796875 6.203125 41.984375 11.859375 
Q 46.1875 17.53125 46.1875 27.296875 
Q 46.1875 37.015625 41.984375 42.703125 
Q 37.796875 48.390625 30.609375 48.390625 
z
M 30.609375 56 
Q 42.328125 56 49.015625 48.375 
Q 55.71875 40.765625 55.71875 27.296875 
Q 55.71875 13.875 49.015625 6.21875 
Q 42.328125 -1.421875 30.609375 -1.421875 
Q 18.84375 -1.421875 12.171875 6.21875 
Q 5.515625 13.875 5.515625 27.296875 
Q 5.515625 40.765625 12.171875 48.375 
Q 18.84375 56 30.609375 56 
z
" id="DejaVuSans-6f"/>
      <path d="M 54.890625 33.015625 
L 54.890625 0 
L 45.90625 0 
L 45.90625 32.71875 
Q 45.90625 40.484375 42.875 44.328125 
Q 39.84375 48.1875 33.796875 48.1875 
Q 26.515625 48.1875 22.3125 43.546875 
Q 18.109375 38.921875 18.109375 30.90625 
L 18.109375 0 
L 9.078125 0 
L 9.078125 54.6875 
L 18.109375 54.6875 
L 18.109375 46.1875 
Q 21.34375 51.125 25.703125 53.5625 
Q 30.078125 56 35.796875 56 
Q 45.21875 56 50.046875 50.171875 
Q 54.890625 44.34375 54.890625 33.015625 
z
" id="DejaVuSans-6e"/>
      <path d="M 44.28125 53.078125 
L 44.28125 44.578125 
Q 40.484375 46.53125 36.375 47.5 
Q 32.28125 48.484375 27.875 48.484375 
Q 21.1875 48.484375 17.84375 46.4375 
Q 14.5 44.390625 14.5 40.28125 
Q 14.5 37.15625 16.890625 35.375 
Q 19.28125 33.59375 26.515625 31.984375 
L 29.59375 31.296875 
Q 39.15625 29.25 43.1875 25.515625 
Q 47.21875 21.78125 47.21875 15.09375 
Q 47.21875 7.46875 41.1875 3.015625 
Q 35.15625 -1.421875 24.609375 -1.421875 
Q 20.21875 -1.421875 15.453125 -0.5625 
Q 10.6875 0.296875 5.421875 2 
L 5.421875 11.28125 
Q 10.40625 8.6875 15.234375 7.390625 
Q 20.0625 6.109375 24.8125 6.109375 
Q 31.15625 6.109375 34.5625 8.28125 
Q 37.984375 10.453125 37.984375 14.40625 
Q 37.984375 18.0625 35.515625 20.015625 
Q 33.0625 21.96875 24.703125 23.78125 
L 21.578125 24.515625 
Q 13.234375 26.265625 9.515625 29.90625 
Q 5.8125 33.546875 5.8125 39.890625 
Q 5.8125 47.609375 11.28125 51.796875 
Q 16.75 56 26.8125 56 
Q 31.78125 56 36.171875 55.265625 
Q 40.578125 54.546875 44.28125 53.078125 
z
" id="DejaVuSans-73"/>
      <path d="M 8.015625 75.875 
L 15.828125 75.875 
Q 23.140625 64.359375 26.78125 53.3125 
Q 30.421875 42.28125 30.421875 31.390625 
Q 30.421875 20.453125 26.78125 9.375 
Q 23.140625 -1.703125 15.828125 -13.1875 
L 8.015625 -13.1875 
Q 14.5 -2 17.703125 9.0625 
Q 20.90625 20.125 20.90625 31.390625 
Q 20.90625 42.671875 17.703125 53.65625 
Q 14.5 64.65625 8.015625 75.875 
z
" id="DejaVuSans-29"/>
     </defs>
     <g transform="translate(8.918906 112.080484)rotate(-90)scale(0.07 -0.07)">
      <use xlink:href="#DejaVuSans-64"/>
      <use x="63.476562" xlink:href="#DejaVuSans-72"/>
      <use x="104.589844" xlink:href="#DejaVuSans-79"/>
      <use x="163.769531" xlink:href="#DejaVuSans-20"/>
      <use x="195.556641" xlink:href="#DejaVuSans-77"/>
      <use x="277.34375" xlink:href="#DejaVuSans-65"/>
      <use x="338.867188" xlink:href="#DejaVuSans-69"/>
      <use x="366.650391" xlink:href="#DejaVuSans-67"/>
      <use x="430.126953" xlink:href="#DejaVuSans-68"/>
      <use x="493.505859" xlink:href="#DejaVuSans-74"/>
      <use x="532.714844" xlink:href="#DejaVuSans-20"/>
      <use x="564.501953" xlink:href="#DejaVuSans-28"/>
      <use x="603.515625" xlink:href="#DejaVuSans-47"/>
      <use x="681.005859" xlink:href="#DejaVuSans-69"/>
      <use x="708.789062" xlink:href="#DejaVuSans-67"/>
      <use x="772.265625" xlink:href="#DejaVuSans-61"/>
      <use x="833.544922" xlink:href="#DejaVuSans-74"/>
      <use x="872.753906" xlink:href="#DejaVuSans-6f"/>
      <use x="933.935547" xlink:href="#DejaVuSans-6e"/>
      <use x="997.314453" xlink:href="#DejaVuSans-6e"/>
      <use x="1060.693359" xlink:href="#DejaVuSans-65"/>
      <use x="1122.216797" xlink:href="#DejaVuSans-73"/>
      <use x="1174.316406" xlink:href="#DejaVuSans-29"/>
     </g>
    </g>
   </g>
   <g id="line2d_13">
    <path clip-path="url(#pab012bb74a)" d="M 29.009688 109.271269 
L 30.722845 109.210203 
L 32.436003 109.144027 
L 34.149161 109.073026 
L 35.862319 108.997226 
L 37.575477 108.916758 
L 39.288635 108.831726 
L 41.001793 108.741632 
L 42.714951 108.646915 
L 44.428109 108.548143 
L 46.141266 108.443707 
L 47.854424 108.334419 
L 49.567582 108.220152 
L 51.28074 108.099468 
L 52.993898 107.973656 
L 54.707056 107.841732 
L 56.420214 107.702067 
L 58.133372 107.554994 
L 59.84653 107.398681 
L 61.559688 107.234414 
L 63.272845 107.061585 
L 64.986003 106.878916 
L 66.699161 106.687257 
L 68.412319 106.48497 
L 70.125477 106.274233 
L 71.838635 106.054124 
L 73.551793 105.824146 
L 75.264951 105.587176 
L 76.978109 105.341211 
L 78.691266 105.089206 
L 80.404424 104.83102 
L 82.117582 104.567885 
L 83.83074 104.300478 
L 85.543898 104.030011 
L 87.257056 103.756925 
L 88.970214 103.481195 
L 90.683372 103.203781 
L 92.39653 102.925122 
L 94.109688 102.64577 
L 95.822845 102.366196 
L 97.536003 102.084448 
L 99.249161 101.802919 
L 100.962319 101.521927 
L 102.675477 101.240003 
L 104.388635 100.956653 
L 106.101793 100.674712 
L 107.814951 100.391756 
L 109.528109 100.109665 
L 111.241266 99.828173 
L 112.954424 99.545203 
L 114.667582 99.262469 
L 116.38074 98.961606 
L 118.093898 98.645357 
L 119.807056 98.310012 
L 121.520214 97.957487 
L 123.233372 97.587429 
L 124.94653 97.201991 
L 126.659688 96.799506 
L 128.372845 96.379591 
L 130.086003 95.942925 
L 131.799161 95.488317 
L 133.512319 95.017612 
L 135.225477 94.539571 
L 136.938635 94.002982 
L 138.651793 93.398187 
L 140.364951 92.662139 
L 142.078109 91.891114 
L 143.791266 91.118771 
L 145.504424 90.287815 
L 147.217582 89.43986 
L 148.93074 88.577971 
L 150.643898 87.660235 
L 152.357056 86.710101 
L 154.070214 85.70374 
L 155.783372 84.792115 
L 157.49653 83.962361 
L 159.209688 83.033369 
L 160.922845 82.068551 
L 162.636003 81.092468 
L 164.349161 80.124291 
L 166.062319 79.212115 
L 167.775477 78.374814 
L 169.488635 77.599544 
L 171.201793 76.739783 
L 172.914951 75.847788 
L 174.628109 74.935726 
L 176.341266 73.977636 
L 178.054424 72.965052 
L 179.767582 71.963833 
L 181.48074 70.962285 
L 183.193898 70.061828 
L 184.907056 69.368616 
L 186.620214 68.85957 
L 188.333372 68.409099 
L 190.04653 68.012931 
L 191.759688 67.634074 
L 193.472845 67.307518 
L 195.186003 66.833423 
L 196.899161 66.579207 
L 198.612319 66.250093 
L 200.325477 65.887626 
L 202.038635 65.587337 
L 203.751793 65.232513 
L 205.464951 64.722757 
L 207.178109 64.110694 
L 208.891266 63.445772 
L 210.604424 62.722582 
L 212.317582 61.98357 
L 214.03074 61.449831 
L 215.743898 61.053572 
L 217.457056 60.489468 
L 219.170214 59.815482 
L 220.883372 58.938837 
L 222.59653 57.953224 
L 224.309688 56.814764 
" style="fill:none;"/>
   </g>
   <g id="line2d_14">
    <path clip-path="url(#pab012bb74a)" d="M 29.009688 108.7212 
L 30.722845 108.669207 
L 32.436003 108.604145 
L 34.149161 108.530619 
L 35.862319 108.450286 
L 37.575477 108.364422 
L 39.288635 108.273911 
L 41.001793 108.177863 
L 42.714951 108.077072 
L 44.428109 107.972 
L 46.141266 107.861217 
L 47.854424 107.745791 
L 49.567582 107.624623 
L 51.28074 107.49779 
L 52.993898 107.365811 
L 54.707056 107.227301 
L 56.420214 107.0813 
L 58.133372 106.927774 
L 59.84653 106.765067 
L 61.559688 106.594747 
L 63.272845 106.415232 
L 64.986003 106.22554 
L 66.699161 106.027645 
L 68.412319 105.819671 
L 70.125477 105.602393 
L 71.838635 105.376049 
L 73.551793 105.139707 
L 75.264951 104.896673 
L 76.978109 104.644888 
L 78.691266 104.385968 
L 80.404424 104.121309 
L 82.117582 103.852028 
L 83.83074 103.578726 
L 85.543898 103.302069 
L 87.257056 103.022539 
L 88.970214 102.740641 
L 90.683372 102.457513 
L 92.39653 102.173273 
L 94.109688 101.887817 
L 95.822845 101.602095 
L 97.536003 101.314409 
L 99.249161 101.027115 
L 100.962319 100.739685 
L 102.675477 100.451414 
L 104.388635 100.162562 
L 106.101793 99.874888 
L 107.814951 99.585819 
L 109.528109 99.297777 
L 111.241266 99.010321 
L 112.954424 98.721442 
L 114.667582 98.432484 
L 116.38074 98.120685 
L 118.093898 97.791191 
L 119.807056 97.44101 
L 121.520214 97.073126 
L 123.233372 96.687499 
L 124.94653 96.286438 
L 126.659688 95.868311 
L 128.372845 95.432511 
L 130.086003 94.979255 
L 131.799161 94.508398 
L 133.512319 94.021898 
L 135.225477 93.516012 
L 136.938635 92.938442 
L 138.651793 92.255767 
L 140.364951 91.449382 
L 142.078109 90.591284 
L 143.791266 89.766117 
L 145.504424 88.855756 
L 147.217582 87.910179 
L 148.93074 86.933663 
L 150.643898 85.939982 
L 152.357056 84.885561 
L 154.070214 83.74466 
L 155.783372 82.749956 
L 157.49653 82.027312 
L 159.209688 81.013008 
L 160.922845 79.96301 
L 162.636003 78.885094 
L 164.349161 77.809798 
L 166.062319 76.820234 
L 167.775477 75.939476 
L 169.488635 75.148051 
L 171.201793 74.208055 
L 172.914951 73.177071 
L 174.628109 72.172504 
L 176.341266 71.079598 
L 178.054424 69.910251 
L 179.767582 68.727803 
L 181.48074 67.560662 
L 183.193898 66.530393 
L 184.907056 65.728428 
L 186.620214 65.120846 
L 188.333372 64.565332 
L 190.04653 63.973714 
L 191.759688 63.396189 
L 193.472845 62.92379 
L 195.186003 62.254502 
L 196.899161 61.899518 
L 198.612319 61.352204 
L 200.325477 60.784267 
L 202.038635 60.401643 
L 203.751793 59.915459 
L 205.464951 59.250581 
L 207.178109 58.429327 
L 208.891266 57.565387 
L 210.604424 56.569538 
L 212.317582 55.584134 
L 214.03074 54.916964 
L 215.743898 54.568383 
L 217.457056 53.849078 
L 219.170214 53.059274 
L 220.883372 52.130492 
L 222.59653 51.141109 
L 224.309688 49.950463 
" style="fill:none;"/>
   </g>
   <g id="line2d_15">
    <path clip-path="url(#pab012bb74a)" d="M 29.009688 108.297092 
L 30.722845 108.24178 
L 32.436003 108.173091 
L 34.149161 108.095636 
L 35.862319 108.011058 
L 37.575477 107.920634 
L 39.288635 107.825216 
L 41.001793 107.723942 
L 42.714951 107.617586 
L 44.428109 107.5066 
L 46.141266 107.389546 
L 47.854424 107.267519 
L 49.567582 107.139384 
L 51.28074 107.005225 
L 52.993898 106.865592 
L 54.707056 106.719177 
L 56.420214 106.564975 
L 58.133372 106.402994 
L 59.84653 106.231599 
L 61.559688 106.052406 
L 63.272845 105.863721 
L 64.986003 105.664521 
L 66.699161 105.456756 
L 68.412319 105.238535 
L 70.125477 105.010575 
L 71.838635 104.773119 
L 73.551793 104.525227 
L 75.264951 104.270195 
L 76.978109 104.005976 
L 78.691266 103.734192 
L 80.404424 103.456254 
L 82.117582 103.173255 
L 83.83074 102.885835 
L 85.543898 102.594635 
L 87.257056 102.300157 
L 88.970214 102.002873 
L 90.683372 101.703952 
L 92.39653 101.403447 
L 94.109688 101.101221 
L 95.822845 100.79825 
L 97.536003 100.492931 
L 99.249161 100.187691 
L 100.962319 99.88197 
L 102.675477 99.575023 
L 104.388635 99.267163 
L 106.101793 98.960223 
L 107.814951 98.651887 
L 109.528109 98.344163 
L 111.241266 98.036555 
L 112.954424 97.727031 
L 114.667582 97.416934 
L 116.38074 97.081769 
L 118.093898 96.726715 
L 119.807056 96.348713 
L 121.520214 95.950622 
L 123.233372 95.532393 
L 124.94653 95.09618 
L 126.659688 94.640378 
L 128.372845 94.164173 
L 130.086003 93.667803 
L 131.799161 93.151139 
L 133.512319 92.616148 
L 135.225477 92.058866 
L 136.938635 91.426835 
L 138.651793 90.686576 
L 140.364951 89.819481 
L 142.078109 88.897499 
L 143.791266 88.005145 
L 145.504424 87.024387 
L 147.217582 86.004935 
L 148.93074 84.95091 
L 150.643898 83.877716 
L 152.357056 82.741457 
L 154.070214 81.514581 
L 155.783372 80.434236 
L 157.49653 79.628132 
L 159.209688 78.524076 
L 160.922845 77.38747 
L 162.636003 76.223019 
L 164.349161 75.056574 
L 166.062319 73.969906 
L 167.775477 72.991858 
L 169.488635 72.104758 
L 171.201793 71.067393 
L 172.914951 69.936857 
L 174.628109 68.83175 
L 176.341266 67.636987 
L 178.054424 66.363236 
L 179.767582 65.07113 
L 181.48074 63.792916 
L 183.193898 62.647398 
L 184.907056 61.730156 
L 186.620214 61.002031 
L 188.333372 60.323071 
L 190.04653 59.603249 
L 191.759688 58.894314 
L 193.472845 58.290585 
L 195.186003 57.485586 
L 196.899161 56.994086 
L 198.612319 56.307018 
L 200.325477 55.597561 
L 202.038635 55.068747 
L 203.751793 54.427502 
L 205.464951 53.602473 
L 207.178109 52.599845 
L 208.891266 51.544107 
L 210.604424 50.34198 
L 212.317582 49.142311 
L 214.03074 48.242661 
L 215.743898 47.689112 
L 217.457056 46.725058 
L 219.170214 45.675922 
L 220.883372 44.475546 
L 222.59653 43.20215 
L 224.309688 41.715518 
" style="fill:none;"/>
   </g>
   <g id="line2d_16">
    <path clip-path="url(#pab012bb74a)" d="M 29.009688 107.804356 
L 30.722845 107.741206 
L 32.436003 107.663937 
L 34.149161 107.577152 
L 35.862319 107.482453 
L 37.575477 107.381189 
L 39.288635 107.274471 
L 41.001793 107.16147 
L 42.714951 107.043027 
L 44.428109 106.919549 
L 46.141266 106.789515 
L 47.854424 106.654077 
L 49.567582 106.512139 
L 51.28074 106.363654 
L 52.993898 106.209333 
L 54.707056 106.047815 
L 56.420214 105.878327 
L 58.133372 105.700722 
L 59.84653 105.513561 
L 61.559688 105.31861 
L 63.272845 105.113702 
L 64.986003 104.897606 
L 66.699161 104.672336 
L 68.412319 104.435894 
L 70.125477 104.188848 
L 71.838635 103.931652 
L 73.551793 103.663443 
L 75.264951 103.387674 
L 76.978109 103.102087 
L 78.691266 102.808391 
L 80.404424 102.508204 
L 82.117582 102.202272 
L 83.83074 101.891418 
L 85.543898 101.576444 
L 87.257056 101.257754 
L 88.970214 100.935702 
L 90.683372 100.611473 
L 92.39653 100.285137 
L 94.109688 99.956439 
L 95.822845 99.626516 
L 97.536003 99.293762 
L 99.249161 98.960579 
L 100.962319 98.626302 
L 102.675477 98.290085 
L 104.388635 97.952119 
L 106.101793 97.61465 
L 107.814951 97.276003 
L 109.528109 96.936906 
L 111.241266 96.596933 
L 112.954424 96.253809 
L 114.667582 95.908603 
L 116.38074 95.535885 
L 118.093898 95.141228 
L 119.807056 94.721462 
L 121.520214 94.279392 
L 123.233372 93.817776 
L 124.94653 93.33879 
L 126.659688 92.838245 
L 128.372845 92.315152 
L 130.086003 91.769788 
L 131.799161 91.201855 
L 133.512319 90.614841 
L 135.225477 90.004441 
L 136.938635 89.317276 
L 138.651793 88.51383 
L 140.364951 87.57949 
L 142.078109 86.587303 
L 143.791266 85.622193 
L 145.504424 84.565679 
L 147.217582 83.468123 
L 148.93074 82.33295 
L 150.643898 81.170483 
L 152.357056 79.936692 
L 154.070214 78.600252 
L 155.783372 77.405519 
L 157.49653 76.495067 
L 159.209688 75.278508 
L 160.922845 74.039416 
L 162.636003 72.765547 
L 164.349161 71.482084 
L 166.062319 70.27061 
L 167.775477 69.17535 
L 169.488635 68.175641 
L 171.201793 67.024061 
L 172.914951 65.780062 
L 174.628109 64.563299 
L 176.341266 63.279119 
L 178.054424 61.919565 
L 179.767582 60.539581 
L 181.48074 59.164408 
L 183.193898 57.909966 
L 184.907056 56.881632 
L 186.620214 56.043669 
L 188.333372 55.236809 
L 190.04653 54.384021 
L 191.759688 53.532639 
L 193.472845 52.783854 
L 195.186003 51.836612 
L 196.899161 51.200024 
L 198.612319 50.371864 
L 200.325477 49.519107 
L 202.038635 48.840968 
L 203.751793 48.040002 
L 205.464951 47.049551 
L 207.178109 45.864228 
L 208.891266 44.617037 
L 210.604424 43.215306 
L 212.317582 41.80296 
L 214.03074 40.689873 
L 215.743898 39.936803 
L 217.457056 38.763002 
L 219.170214 37.494477 
L 220.883372 36.077158 
L 222.59653 34.577073 
L 224.309688 32.851266 
" style="fill:none;"/>
   </g>
   <g id="line2d_17">
    <path clip-path="url(#pab012bb74a)" d="M 29.009688 107.804356 
L 30.722845 107.741206 
L 32.436003 107.663937 
L 34.149161 107.577152 
L 35.862319 107.482453 
L 37.575477 107.381189 
L 39.288635 107.274471 
L 41.001793 107.16147 
L 42.714951 107.043027 
L 44.428109 106.919549 
L 46.141266 106.789515 
L 47.854424 106.654077 
L 49.567582 106.512139 
L 51.28074 106.363654 
L 52.993898 106.209333 
L 54.707056 106.047815 
L 56.420214 105.878327 
L 58.133372 105.700722 
L 59.84653 105.513561 
L 61.559688 105.31861 
L 63.272845 105.113702 
L 64.986003 104.897606 
L 66.699161 104.672336 
L 68.412319 104.435894 
L 70.125477 104.188848 
L 71.838635 103.931652 
L 73.551793 103.663443 
L 75.264951 103.387674 
L 76.978109 103.102087 
L 78.691266 102.808391 
L 80.404424 102.508204 
L 82.117582 102.202272 
L 83.83074 101.891418 
L 85.543898 101.576444 
L 87.257056 101.257754 
L 88.970214 100.935702 
L 90.683372 100.611473 
L 92.39653 100.285137 
L 94.109688 99.956439 
L 95.822845 99.626516 
L 97.536003 99.293762 
L 99.249161 98.960579 
L 100.962319 98.626302 
L 102.675477 98.290085 
L 104.388635 97.952119 
L 106.101793 97.61465 
L 107.814951 97.276003 
L 109.528109 96.936906 
L 111.241266 96.596933 
L 112.954424 96.253809 
L 114.667582 95.900931 
L 116.38074 95.51791 
L 118.093898 95.109778 
L 119.807056 94.675797 
L 121.520214 94.217615 
L 123.233372 93.737964 
L 124.94653 93.242968 
L 126.659688 92.725327 
L 128.372845 92.182654 
L 130.086003 91.612697 
L 131.799161 91.017066 
L 133.512319 90.398297 
L 135.225477 89.75065 
L 136.938635 89.022265 
L 138.651793 88.172035 
L 140.364951 87.184086 
L 142.078109 86.128392 
L 143.791266 85.086251 
L 145.504424 83.942248 
L 147.217582 82.735214 
L 148.93074 81.487795 
L 150.643898 80.202615 
L 152.357056 78.832194 
L 154.070214 77.339864 
L 155.783372 75.997959 
L 157.49653 74.977367 
L 159.209688 73.627471 
L 160.922845 72.2425 
L 162.636003 70.818639 
L 164.349161 69.357474 
L 166.062319 67.970559 
L 167.775477 66.699539 
L 169.488635 65.530724 
L 171.201793 64.199551 
L 172.914951 62.760223 
L 174.628109 61.336351 
L 176.341266 59.826099 
L 178.054424 58.212428 
L 179.767582 56.554464 
L 181.48074 54.895701 
L 183.193898 53.34414 
L 184.907056 52.007956 
L 186.620214 50.850207 
L 188.333372 49.710646 
L 190.04653 48.492058 
L 191.759688 47.242818 
L 193.472845 46.076816 
L 195.186003 44.678123 
L 196.899161 43.568797 
L 198.612319 42.234565 
L 200.325477 40.839502 
L 202.038635 39.604444 
L 203.751793 38.214487 
L 205.464951 36.626217 
L 207.178109 34.798086 
L 208.891266 32.911098 
L 210.604424 30.860002 
L 212.317582 28.720692 
L 214.03074 26.868922 
L 215.743898 25.483295 
L 217.457056 23.634959 
L 219.170214 21.635347 
L 220.883372 19.475651 
L 222.59653 17.213278 
L 224.309688 14.663578 
" style="fill:none;"/>
   </g>
   <g id="patch_3">
    <path d="M 29.009688 132.128 
L 29.009688 7.1 
" style="fill:none;stroke:#000000;stroke-linecap:square;stroke-linejoin:miter;stroke-width:0.8;"/>
   </g>
   <g id="patch_4">
    <path d="M 29.009688 132.128 
L 224.309688 132.128 
" style="fill:none;stroke:#000000;stroke-linecap:square;stroke-linejoin:miter;stroke-width:0.8;"/>
   </g>
   <g id="legend_1">
    <g id="patch_5">
     <path d="M 34.409687 22.060182 
L 46.409687 22.060182 
L 46.409687 17.860182 
L 34.409687 17.860182 
z
" style="fill:#90b493;"/>
    </g>
    <g id="text_15">
     <!-- plastic -->
     <defs>
      <path d="M 18.109375 8.203125 
L 18.109375 -20.796875 
L 9.078125 -20.796875 
L 9.078125 54.6875 
L 18.109375 54.6875 
L 18.109375 46.390625 
Q 20.953125 51.265625 25.265625 53.625 
Q 29.59375 56 35.59375 56 
Q 45.5625 56 51.78125 48.09375 
Q 58.015625 40.1875 58.015625 27.296875 
Q 58.015625 14.40625 51.78125 6.484375 
Q 45.5625 -1.421875 35.59375 -1.421875 
Q 29.59375 -1.421875 25.265625 0.953125 
Q 20.953125 3.328125 18.109375 8.203125 
z
M 48.6875 27.296875 
Q 48.6875 37.203125 44.609375 42.84375 
Q 40.53125 48.484375 33.40625 48.484375 
Q 26.265625 48.484375 22.1875 42.84375 
Q 18.109375 37.203125 18.109375 27.296875 
Q 18.109375 17.390625 22.1875 11.75 
Q 26.265625 6.109375 33.40625 6.109375 
Q 40.53125 6.109375 44.609375 11.75 
Q 48.6875 17.390625 48.6875 27.296875 
z
" id="DejaVuSans-70"/>
      <path d="M 9.421875 75.984375 
L 18.40625 75.984375 
L 18.40625 0 
L 9.421875 0 
z
" id="DejaVuSans-6c"/>
      <path d="M 48.78125 52.59375 
L 48.78125 44.1875 
Q 44.96875 46.296875 41.140625 47.34375 
Q 37.3125 48.390625 33.40625 48.390625 
Q 24.65625 48.390625 19.8125 42.84375 
Q 14.984375 37.3125 14.984375 27.296875 
Q 14.984375 17.28125 19.8125 11.734375 
Q 24.65625 6.203125 33.40625 6.203125 
Q 37.3125 6.203125 41.140625 7.25 
Q 44.96875 8.296875 48.78125 10.40625 
L 48.78125 2.09375 
Q 45.015625 0.34375 40.984375 -0.53125 
Q 36.96875 -1.421875 32.421875 -1.421875 
Q 20.0625 -1.421875 12.78125 6.34375 
Q 5.515625 14.109375 5.515625 27.296875 
Q 5.515625 40.671875 12.859375 48.328125 
Q 20.21875 56 33.015625 56 
Q 37.15625 56 41.109375 55.140625 
Q 45.0625 54.296875 48.78125 52.59375 
z
" id="DejaVuSans-63"/>
     </defs>
     <g transform="translate(51.209688 22.060182)scale(0.06 -0.06)">
      <use xlink:href="#DejaVuSans-70"/>
      <use x="63.476562" xlink:href="#DejaVuSans-6c"/>
      <use x="91.259766" xlink:href="#DejaVuSans-61"/>
      <use x="152.539062" xlink:href="#DejaVuSans-73"/>
      <use x="204.638672" xlink:href="#DejaVuSans-74"/>
      <use x="243.847656" xlink:href="#DejaVuSans-69"/>
      <use x="271.630859" xlink:href="#DejaVuSans-63"/>
     </g>
    </g>
    <g id="patch_6">
     <path d="M 34.409687 30.867058 
L 46.409687 30.867058 
L 46.409687 26.667058 
L 34.409687 26.667058 
z
" style="fill:#bbbbbb;"/>
    </g>
    <g id="text_16">
     <!-- container glass -->
     <g transform="translate(51.209688 30.867058)scale(0.06 -0.06)">
      <use xlink:href="#DejaVuSans-63"/>
      <use x="54.980469" xlink:href="#DejaVuSans-6f"/>
      <use x="116.162109" xlink:href="#DejaVuSans-6e"/>
      <use x="179.541016" xlink:href="#DejaVuSans-74"/>
      <use x="218.75" xlink:href="#DejaVuSans-61"/>
      <use x="280.029297" xlink:href="#DejaVuSans-69"/>
      <use x="307.8125" xlink:href="#DejaVuSans-6e"/>
      <use x="371.191406" xlink:href="#DejaVuSans-65"/>
      <use x="432.714844" xlink:href="#DejaVuSans-72"/>
      <use x="473.828125" xlink:href="#DejaVuSans-20"/>
      <use x="505.615234" xlink:href="#DejaVuSans-67"/>
      <use x="569.091797" xlink:href="#DejaVuSans-6c"/>
      <use x="596.875" xlink:href="#DejaVuSans-61"/>
      <use x="658.154297" xlink:href="#DejaVuSans-73"/>
      <use x="710.253906" xlink:href="#DejaVuSans-73"/>
     </g>
    </g>
    <g id="patch_7">
     <path d="M 34.409687 39.673933 
L 46.409687 39.673933 
L 46.409687 35.473933 
L 34.409687 35.473933 
z
" style="fill:#7c7b78;"/>
    </g>
    <g id="text_17">
     <!-- flat glass  -->
     <defs>
      <path d="M 37.109375 75.984375 
L 37.109375 68.5 
L 28.515625 68.5 
Q 23.6875 68.5 21.796875 66.546875 
Q 19.921875 64.59375 19.921875 59.515625 
L 19.921875 54.6875 
L 34.71875 54.6875 
L 34.71875 47.703125 
L 19.921875 47.703125 
L 19.921875 0 
L 10.890625 0 
L 10.890625 47.703125 
L 2.296875 47.703125 
L 2.296875 54.6875 
L 10.890625 54.6875 
L 10.890625 58.5 
Q 10.890625 67.625 15.140625 71.796875 
Q 19.390625 75.984375 28.609375 75.984375 
z
" id="DejaVuSans-66"/>
     </defs>
     <g transform="translate(51.209688 39.673933)scale(0.06 -0.06)">
      <use xlink:href="#DejaVuSans-66"/>
      <use x="35.205078" xlink:href="#DejaVuSans-6c"/>
      <use x="62.988281" xlink:href="#DejaVuSans-61"/>
      <use x="124.267578" xlink:href="#DejaVuSans-74"/>
      <use x="163.476562" xlink:href="#DejaVuSans-20"/>
      <use x="195.263672" xlink:href="#DejaVuSans-67"/>
      <use x="258.740234" xlink:href="#DejaVuSans-6c"/>
      <use x="286.523438" xlink:href="#DejaVuSans-61"/>
      <use x="347.802734" xlink:href="#DejaVuSans-73"/>
      <use x="399.902344" xlink:href="#DejaVuSans-73"/>
      <use x="452.001953" xlink:href="#DejaVuSans-20"/>
     </g>
    </g>
    <g id="patch_8">
     <path d="M 34.409687 48.480807 
L 46.409687 48.480807 
L 46.409687 44.280807 
L 34.409687 44.280807 
z
" style="fill:#9f7f65;"/>
    </g>
    <g id="text_18">
     <!-- paper -->
     <g transform="translate(51.209688 48.480807)scale(0.06 -0.06)">
      <use xlink:href="#DejaVuSans-70"/>
      <use x="63.476562" xlink:href="#DejaVuSans-61"/>
      <use x="124.755859" xlink:href="#DejaVuSans-70"/>
      <use x="188.232422" xlink:href="#DejaVuSans-65"/>
      <use x="249.755859" xlink:href="#DejaVuSans-72"/>
     </g>
    </g>
    <g id="patch_9">
     <path d="M 34.409687 57.287683 
L 46.409687 57.287683 
L 46.409687 53.087682 
L 34.409687 53.087682 
z
" style="fill:#725843;"/>
    </g>
    <g id="text_19">
     <!-- solidwood -->
     <g transform="translate(51.209688 57.287683)scale(0.06 -0.06)">
      <use xlink:href="#DejaVuSans-73"/>
      <use x="52.099609" xlink:href="#DejaVuSans-6f"/>
      <use x="113.28125" xlink:href="#DejaVuSans-6c"/>
      <use x="141.064453" xlink:href="#DejaVuSans-69"/>
      <use x="168.847656" xlink:href="#DejaVuSans-64"/>
      <use x="232.324219" xlink:href="#DejaVuSans-77"/>
      <use x="314.111328" xlink:href="#DejaVuSans-6f"/>
      <use x="375.292969" xlink:href="#DejaVuSans-6f"/>
      <use x="436.474609" xlink:href="#DejaVuSans-64"/>
     </g>
    </g>
   </g>
  </g>
 </g>
 <defs>
  <clipPath id="pab012bb74a">
   <rect height="125.028" width="195.3" x="29.009688" y="7.1"/>
  </clipPath>
 </defs>
</svg>
