<?xml version="1.0" encoding="utf-8" standalone="no"?>
<!DOCTYPE svg PUBLIC "-//W3C//DTD SVG 1.1//EN"
  "http://www.w3.org/Graphics/SVG/1.1/DTD/svg11.dtd">
<!-- Created with matplotlib (http://matplotlib.org/) -->
<svg height="159.309562pt" version="1.1" viewBox="0 0 327.131875 159.309562" width="327.131875pt" xmlns="http://www.w3.org/2000/svg" xmlns:xlink="http://www.w3.org/1999/xlink">
 <defs>
  <style type="text/css">
*{stroke-linecap:butt;stroke-linejoin:round;}
  </style>
 </defs>
 <g id="figure_1">
  <g id="patch_1">
   <path d="M 0 159.309562 
L 327.131875 159.309562 
L 327.131875 0 
L 0 0 
z
" style="fill:#ffffff;"/>
  </g>
  <g id="axes_1">
   <g id="patch_2">
    <path d="M 30.916563 132.128 
L 226.216563 132.128 
L 226.216563 7.1 
L 30.916563 7.1 
z
" style="fill:#ffffff;"/>
   </g>
   <g id="PolyCollection_1">
    <defs>
     <path d="M 30.916563 -35.283671 
L 30.916563 -27.181562 
L 32.614823 -27.181562 
L 34.313084 -27.181562 
L 36.011345 -27.181562 
L 37.709606 -27.181562 
L 39.407867 -27.181562 
L 41.106128 -27.181562 
L 42.804389 -27.181562 
L 44.502649 -27.181562 
L 46.20091 -27.181562 
L 47.899171 -27.181562 
L 49.597432 -27.181562 
L 51.295693 -27.181562 
L 52.993954 -27.181562 
L 54.692215 -27.181562 
L 56.390476 -27.181562 
L 58.088736 -27.181562 
L 59.786997 -27.181562 
L 61.485258 -27.181562 
L 63.183519 -27.181562 
L 64.88178 -27.181562 
L 66.580041 -27.181562 
L 68.278302 -27.181562 
L 69.976563 -27.181562 
L 71.674823 -27.181562 
L 73.373084 -27.181562 
L 75.071345 -27.181562 
L 76.769606 -27.181562 
L 78.467867 -27.181562 
L 80.166128 -27.181562 
L 81.864389 -27.181562 
L 83.562649 -27.181562 
L 85.26091 -27.181562 
L 86.959171 -27.181562 
L 88.657432 -27.181562 
L 90.355693 -27.181562 
L 92.053954 -27.181562 
L 93.752215 -27.181562 
L 95.450476 -27.181562 
L 97.148736 -27.181562 
L 98.846997 -27.181562 
L 100.545258 -27.181562 
L 102.243519 -27.181562 
L 103.94178 -27.181562 
L 105.640041 -27.181562 
L 107.338302 -27.181562 
L 109.036563 -27.181562 
L 110.734823 -27.181562 
L 112.433084 -27.181562 
L 114.131345 -27.181562 
L 115.829606 -27.181562 
L 117.527867 -27.181562 
L 119.226128 -27.181562 
L 120.924389 -27.181562 
L 122.622649 -27.181562 
L 124.32091 -27.181562 
L 126.019171 -27.181562 
L 127.717432 -27.181562 
L 129.415693 -27.181562 
L 131.113954 -27.181562 
L 132.812215 -27.181562 
L 134.510476 -27.181562 
L 136.208736 -27.181562 
L 137.906997 -27.181562 
L 139.605258 -27.181562 
L 141.303519 -27.181562 
L 143.00178 -27.181562 
L 144.700041 -27.181562 
L 146.398302 -27.181562 
L 148.096563 -27.181562 
L 149.794823 -27.181562 
L 151.493084 -27.181562 
L 153.191345 -27.181562 
L 154.889606 -27.181562 
L 156.587867 -27.181562 
L 158.286128 -27.181562 
L 159.984389 -27.181562 
L 161.682649 -27.181562 
L 163.38091 -27.181562 
L 165.079171 -27.181562 
L 166.777432 -27.181562 
L 168.475693 -27.181562 
L 170.173954 -27.181562 
L 171.872215 -27.181562 
L 173.570476 -27.181562 
L 175.268736 -27.181562 
L 176.966997 -27.181562 
L 178.665258 -27.181562 
L 180.363519 -27.181562 
L 182.06178 -27.181562 
L 183.760041 -27.181562 
L 185.458302 -27.181562 
L 187.156563 -27.181562 
L 188.854823 -27.181562 
L 190.553084 -27.181562 
L 192.251345 -27.181562 
L 193.949606 -27.181562 
L 195.647867 -27.181562 
L 197.346128 -27.181562 
L 199.044389 -27.181562 
L 200.742649 -27.181562 
L 202.44091 -27.181562 
L 204.139171 -27.181562 
L 205.837432 -27.181562 
L 207.535693 -27.181562 
L 209.233954 -27.181562 
L 210.932215 -27.181562 
L 212.630476 -27.181562 
L 214.328736 -27.181562 
L 216.026997 -27.181562 
L 217.725258 -27.181562 
L 219.423519 -27.181562 
L 221.12178 -27.181562 
L 222.820041 -27.181562 
L 224.518302 -27.181562 
L 226.216563 -27.181562 
L 226.216563 -81.538344 
L 226.216563 -81.538344 
L 224.518302 -80.614338 
L 222.820041 -79.614725 
L 221.12178 -78.562923 
L 219.423519 -77.561611 
L 217.725258 -76.560694 
L 216.026997 -75.681497 
L 214.328736 -74.843271 
L 212.630476 -74.091211 
L 210.932215 -73.316857 
L 209.233954 -72.600885 
L 207.535693 -72.002319 
L 205.837432 -71.446426 
L 204.139171 -70.958669 
L 202.44091 -70.542773 
L 200.742649 -70.203061 
L 199.044389 -69.961726 
L 197.346128 -69.745561 
L 195.647867 -69.55008 
L 193.949606 -69.222862 
L 192.251345 -68.904647 
L 190.553084 -68.634039 
L 188.854823 -68.278587 
L 187.156563 -67.960242 
L 185.458302 -67.793582 
L 183.760041 -67.459433 
L 182.06178 -67.263481 
L 180.363519 -67.039249 
L 178.665258 -66.650873 
L 176.966997 -66.250072 
L 175.268736 -65.851105 
L 173.570476 -65.463072 
L 171.872215 -65.052402 
L 170.173954 -64.595714 
L 168.475693 -64.145197 
L 166.777432 -63.674269 
L 165.079171 -63.23458 
L 163.38091 -62.760499 
L 161.682649 -62.238691 
L 159.984389 -61.749103 
L 158.286128 -61.362948 
L 156.587867 -61.023722 
L 154.889606 -60.682396 
L 153.191345 -60.235007 
L 151.493084 -59.820538 
L 149.794823 -59.422865 
L 148.096563 -59.007218 
L 146.398302 -58.50778 
L 144.700041 -58.000839 
L 143.00178 -57.465939 
L 141.303519 -56.925278 
L 139.605258 -56.345427 
L 137.906997 -55.700924 
L 136.208736 -55.084854 
L 134.510476 -54.429008 
L 132.812215 -53.781852 
L 131.113954 -53.094958 
L 129.415693 -52.41113 
L 127.717432 -51.806105 
L 126.019171 -51.20064 
L 124.32091 -50.562464 
L 122.622649 -49.927504 
L 120.924389 -49.37728 
L 119.226128 -48.855155 
L 117.527867 -48.399257 
L 115.829606 -47.962766 
L 114.131345 -47.576773 
L 112.433084 -47.275056 
L 110.734823 -47.037349 
L 109.036563 -46.904714 
L 107.338302 -46.853321 
L 105.640041 -47.00878 
L 103.94178 -47.109622 
L 102.243519 -47.021162 
L 100.545258 -46.802391 
L 98.846997 -46.485347 
L 97.148736 -46.2107 
L 95.450476 -45.7471 
L 93.752215 -45.324956 
L 92.053954 -44.908797 
L 90.355693 -44.691031 
L 88.657432 -44.398239 
L 86.959171 -44.173104 
L 85.26091 -44.052795 
L 83.562649 -43.902951 
L 81.864389 -43.569723 
L 80.166128 -43.071889 
L 78.467867 -42.508413 
L 76.769606 -41.936705 
L 75.071345 -41.39194 
L 73.373084 -40.879683 
L 71.674823 -40.415048 
L 69.976563 -40.067254 
L 68.278302 -39.844526 
L 66.580041 -39.607677 
L 64.88178 -39.540752 
L 63.183519 -39.467074 
L 61.485258 -39.499055 
L 59.786997 -39.490415 
L 58.088736 -39.408562 
L 56.390476 -39.262625 
L 54.692215 -39.033958 
L 52.993954 -38.730837 
L 51.295693 -38.35414 
L 49.597432 -37.987556 
L 47.899171 -37.631641 
L 46.20091 -37.297019 
L 44.502649 -36.982953 
L 42.804389 -36.683924 
L 41.106128 -36.405386 
L 39.407867 -36.1459 
L 37.709606 -35.917184 
L 36.011345 -35.709083 
L 34.313084 -35.532178 
L 32.614823 -35.389627 
L 30.916563 -35.283671 
z
" id="m5d50d7f73c"/>
    </defs>
    <g clip-path="url(#pdca1ba913e)">
     <use style="fill:#352a86;" x="0" xlink:href="#m5d50d7f73c" y="159.309562"/>
    </g>
   </g>
   <g id="PolyCollection_2">
    <defs>
     <path d="M 30.916563 -94.599185 
L 30.916563 -35.283671 
L 32.614823 -35.389627 
L 34.313084 -35.532178 
L 36.011345 -35.709083 
L 37.709606 -35.917184 
L 39.407867 -36.1459 
L 41.106128 -36.405386 
L 42.804389 -36.683924 
L 44.502649 -36.982953 
L 46.20091 -37.297019 
L 47.899171 -37.631641 
L 49.597432 -37.987556 
L 51.295693 -38.35414 
L 52.993954 -38.730837 
L 54.692215 -39.033958 
L 56.390476 -39.262625 
L 58.088736 -39.408562 
L 59.786997 -39.490415 
L 61.485258 -39.499055 
L 63.183519 -39.467074 
L 64.88178 -39.540752 
L 66.580041 -39.607677 
L 68.278302 -39.844526 
L 69.976563 -40.067254 
L 71.674823 -40.415048 
L 73.373084 -40.879683 
L 75.071345 -41.39194 
L 76.769606 -41.936705 
L 78.467867 -42.508413 
L 80.166128 -43.071889 
L 81.864389 -43.569723 
L 83.562649 -43.902951 
L 85.26091 -44.052795 
L 86.959171 -44.173104 
L 88.657432 -44.398239 
L 90.355693 -44.691031 
L 92.053954 -44.908797 
L 93.752215 -45.324956 
L 95.450476 -45.7471 
L 97.148736 -46.2107 
L 98.846997 -46.485347 
L 100.545258 -46.802391 
L 102.243519 -47.021162 
L 103.94178 -47.109622 
L 105.640041 -47.00878 
L 107.338302 -46.853321 
L 109.036563 -46.904714 
L 110.734823 -47.037349 
L 112.433084 -47.275056 
L 114.131345 -47.576773 
L 115.829606 -47.962766 
L 117.527867 -48.399257 
L 119.226128 -48.855155 
L 120.924389 -49.37728 
L 122.622649 -49.927504 
L 124.32091 -50.562464 
L 126.019171 -51.20064 
L 127.717432 -51.806105 
L 129.415693 -52.41113 
L 131.113954 -53.094958 
L 132.812215 -53.781852 
L 134.510476 -54.429008 
L 136.208736 -55.084854 
L 137.906997 -55.700924 
L 139.605258 -56.345427 
L 141.303519 -56.925278 
L 143.00178 -57.465939 
L 144.700041 -58.000839 
L 146.398302 -58.50778 
L 148.096563 -59.007218 
L 149.794823 -59.422865 
L 151.493084 -59.820538 
L 153.191345 -60.235007 
L 154.889606 -60.682396 
L 156.587867 -61.023722 
L 158.286128 -61.362948 
L 159.984389 -61.749103 
L 161.682649 -62.238691 
L 163.38091 -62.760499 
L 165.079171 -63.23458 
L 166.777432 -63.674269 
L 168.475693 -64.145197 
L 170.173954 -64.595714 
L 171.872215 -65.052402 
L 173.570476 -65.463072 
L 175.268736 -65.851105 
L 176.966997 -66.250072 
L 178.665258 -66.650873 
L 180.363519 -67.039249 
L 182.06178 -67.263481 
L 183.760041 -67.459433 
L 185.458302 -67.793582 
L 187.156563 -67.960242 
L 188.854823 -68.278587 
L 190.553084 -68.634039 
L 192.251345 -68.904647 
L 193.949606 -69.222862 
L 195.647867 -69.55008 
L 197.346128 -69.745561 
L 199.044389 -69.961726 
L 200.742649 -70.203061 
L 202.44091 -70.542773 
L 204.139171 -70.958669 
L 205.837432 -71.446426 
L 207.535693 -72.002319 
L 209.233954 -72.600885 
L 210.932215 -73.316857 
L 212.630476 -74.091211 
L 214.328736 -74.843271 
L 216.026997 -75.681497 
L 217.725258 -76.560694 
L 219.423519 -77.561611 
L 221.12178 -78.562923 
L 222.820041 -79.614725 
L 224.518302 -80.614338 
L 226.216563 -81.538344 
L 226.216563 -126.418078 
L 226.216563 -126.418078 
L 224.518302 -126.047951 
L 222.820041 -125.627783 
L 221.12178 -125.19589 
L 219.423519 -124.77818 
L 217.725258 -124.356084 
L 216.026997 -123.992087 
L 214.328736 -123.638567 
L 212.630476 -123.325468 
L 210.932215 -123.006788 
L 209.233954 -122.705378 
L 207.535693 -122.450431 
L 205.837432 -122.207264 
L 204.139171 -122.016191 
L 202.44091 -121.846121 
L 200.742649 -121.740598 
L 199.044389 -121.704653 
L 197.346128 -121.678836 
L 195.647867 -121.674479 
L 193.949606 -121.617291 
L 192.251345 -121.601803 
L 190.553084 -121.626448 
L 188.854823 -121.512903 
L 187.156563 -121.415782 
L 185.458302 -121.366732 
L 183.760041 -121.268478 
L 182.06178 -121.312986 
L 180.363519 -121.342673 
L 178.665258 -121.319391 
L 176.966997 -121.288368 
L 175.268736 -121.251941 
L 173.570476 -121.233363 
L 171.872215 -121.208385 
L 170.173954 -121.120614 
L 168.475693 -121.004373 
L 166.777432 -120.835559 
L 165.079171 -120.657054 
L 163.38091 -120.442878 
L 161.682649 -120.214521 
L 159.984389 -119.982363 
L 158.286128 -119.793988 
L 156.587867 -119.537038 
L 154.889606 -119.232339 
L 153.191345 -118.894981 
L 151.493084 -118.523198 
L 149.794823 -118.163464 
L 148.096563 -117.744611 
L 146.398302 -117.335417 
L 144.700041 -116.879909 
L 143.00178 -116.399959 
L 141.303519 -115.867011 
L 139.605258 -115.339181 
L 137.906997 -114.754694 
L 136.208736 -114.15658 
L 134.510476 -113.528811 
L 132.812215 -112.888721 
L 131.113954 -112.244899 
L 129.415693 -111.578039 
L 127.717432 -110.927422 
L 126.019171 -110.302495 
L 124.32091 -109.64222 
L 122.622649 -108.992867 
L 120.924389 -108.366807 
L 119.226128 -107.76047 
L 117.527867 -107.147764 
L 115.829606 -106.552645 
L 114.131345 -105.991849 
L 112.433084 -105.508 
L 110.734823 -105.077144 
L 109.036563 -104.689167 
L 107.338302 -104.376671 
L 105.640041 -104.19112 
L 103.94178 -104.002118 
L 102.243519 -103.781224 
L 100.545258 -103.521375 
L 98.846997 -103.186866 
L 97.148736 -102.882312 
L 95.450476 -102.53669 
L 93.752215 -102.187304 
L 92.053954 -101.873903 
L 90.355693 -101.656066 
L 88.657432 -101.427024 
L 86.959171 -101.210536 
L 85.26091 -101.044033 
L 83.562649 -100.843445 
L 81.864389 -100.595316 
L 80.166128 -100.338293 
L 78.467867 -100.053845 
L 76.769606 -99.748106 
L 75.071345 -99.440256 
L 73.373084 -99.172672 
L 71.674823 -98.945388 
L 69.976563 -98.727224 
L 68.278302 -98.587136 
L 66.580041 -98.414268 
L 64.88178 -98.31737 
L 63.183519 -98.228248 
L 61.485258 -98.206807 
L 59.786997 -98.104222 
L 58.088736 -98.019306 
L 56.390476 -97.896439 
L 54.692215 -97.736651 
L 52.993954 -97.54071 
L 51.295693 -97.356724 
L 49.597432 -97.141211 
L 47.899171 -96.906684 
L 46.20091 -96.666368 
L 44.502649 -96.401533 
L 42.804389 -96.137794 
L 41.106128 -95.907924 
L 39.407867 -95.664623 
L 37.709606 -95.431531 
L 36.011345 -95.224178 
L 34.313084 -95.011981 
L 32.614823 -94.810065 
L 30.916563 -94.599185 
z
" id="m3e690d7eef"/>
    </defs>
    <g clip-path="url(#pdca1ba913e)">
     <use style="fill:#0870de;" x="0" xlink:href="#m3e690d7eef" y="159.309562"/>
    </g>
   </g>
   <g id="PolyCollection_3">
    <defs>
     <path d="M 30.916563 -134.07099 
L 30.916563 -94.599185 
L 32.614823 -94.810065 
L 34.313084 -95.011981 
L 36.011345 -95.224178 
L 37.709606 -95.431531 
L 39.407867 -95.664623 
L 41.106128 -95.907924 
L 42.804389 -96.137794 
L 44.502649 -96.401533 
L 46.20091 -96.666368 
L 47.899171 -96.906684 
L 49.597432 -97.141211 
L 51.295693 -97.356724 
L 52.993954 -97.54071 
L 54.692215 -97.736651 
L 56.390476 -97.896439 
L 58.088736 -98.019306 
L 59.786997 -98.104222 
L 61.485258 -98.206807 
L 63.183519 -98.228248 
L 64.88178 -98.31737 
L 66.580041 -98.414268 
L 68.278302 -98.587136 
L 69.976563 -98.727224 
L 71.674823 -98.945388 
L 73.373084 -99.172672 
L 75.071345 -99.440256 
L 76.769606 -99.748106 
L 78.467867 -100.053845 
L 80.166128 -100.338293 
L 81.864389 -100.595316 
L 83.562649 -100.843445 
L 85.26091 -101.044033 
L 86.959171 -101.210536 
L 88.657432 -101.427024 
L 90.355693 -101.656066 
L 92.053954 -101.873903 
L 93.752215 -102.187304 
L 95.450476 -102.53669 
L 97.148736 -102.882312 
L 98.846997 -103.186866 
L 100.545258 -103.521375 
L 102.243519 -103.781224 
L 103.94178 -104.002118 
L 105.640041 -104.19112 
L 107.338302 -104.376671 
L 109.036563 -104.689167 
L 110.734823 -105.077144 
L 112.433084 -105.508 
L 114.131345 -105.991849 
L 115.829606 -106.552645 
L 117.527867 -107.147764 
L 119.226128 -107.76047 
L 120.924389 -108.366807 
L 122.622649 -108.992867 
L 124.32091 -109.64222 
L 126.019171 -110.302495 
L 127.717432 -110.927422 
L 129.415693 -111.578039 
L 131.113954 -112.244899 
L 132.812215 -112.888721 
L 134.510476 -113.528811 
L 136.208736 -114.15658 
L 137.906997 -114.754694 
L 139.605258 -115.339181 
L 141.303519 -115.867011 
L 143.00178 -116.399959 
L 144.700041 -116.879909 
L 146.398302 -117.335417 
L 148.096563 -117.744611 
L 149.794823 -118.163464 
L 151.493084 -118.523198 
L 153.191345 -118.894981 
L 154.889606 -119.232339 
L 156.587867 -119.537038 
L 158.286128 -119.793988 
L 159.984389 -119.982363 
L 161.682649 -120.214521 
L 163.38091 -120.442878 
L 165.079171 -120.657054 
L 166.777432 -120.835559 
L 168.475693 -121.004373 
L 170.173954 -121.120614 
L 171.872215 -121.208385 
L 173.570476 -121.233363 
L 175.268736 -121.251941 
L 176.966997 -121.288368 
L 178.665258 -121.319391 
L 180.363519 -121.342673 
L 182.06178 -121.312986 
L 183.760041 -121.268478 
L 185.458302 -121.366732 
L 187.156563 -121.415782 
L 188.854823 -121.512903 
L 190.553084 -121.626448 
L 192.251345 -121.601803 
L 193.949606 -121.617291 
L 195.647867 -121.674479 
L 197.346128 -121.678836 
L 199.044389 -121.704653 
L 200.742649 -121.740598 
L 202.44091 -121.846121 
L 204.139171 -122.016191 
L 205.837432 -122.207264 
L 207.535693 -122.450431 
L 209.233954 -122.705378 
L 210.932215 -123.006788 
L 212.630476 -123.325468 
L 214.328736 -123.638567 
L 216.026997 -123.992087 
L 217.725258 -124.356084 
L 219.423519 -124.77818 
L 221.12178 -125.19589 
L 222.820041 -125.627783 
L 224.518302 -126.047951 
L 226.216563 -126.418078 
L 226.216563 -137.418705 
L 226.216563 -137.418705 
L 224.518302 -137.246403 
L 222.820041 -137.047714 
L 221.12178 -136.843233 
L 219.423519 -136.640525 
L 217.725258 -136.441021 
L 216.026997 -136.267225 
L 214.328736 -136.087499 
L 212.630476 -135.951332 
L 210.932215 -135.819088 
L 209.233954 -135.688702 
L 207.535693 -135.572643 
L 205.837432 -135.451762 
L 204.139171 -135.303032 
L 202.44091 -135.16373 
L 200.742649 -135.008701 
L 199.044389 -134.855827 
L 197.346128 -134.68172 
L 195.647867 -134.497767 
L 193.949606 -134.317511 
L 192.251345 -134.102737 
L 190.553084 -133.878097 
L 188.854823 -133.708838 
L 187.156563 -133.557621 
L 185.458302 -133.460513 
L 183.760041 -133.360057 
L 182.06178 -133.273235 
L 180.363519 -133.209638 
L 178.665258 -133.104261 
L 176.966997 -133.022504 
L 175.268736 -132.953157 
L 173.570476 -132.884604 
L 171.872215 -132.816911 
L 170.173954 -132.735491 
L 168.475693 -132.650791 
L 166.777432 -132.601852 
L 165.079171 -132.574322 
L 163.38091 -132.556797 
L 161.682649 -132.512177 
L 159.984389 -132.458763 
L 158.286128 -132.434522 
L 156.587867 -132.421719 
L 154.889606 -132.44552 
L 153.191345 -132.471768 
L 151.493084 -132.480597 
L 149.794823 -132.497247 
L 148.096563 -132.526946 
L 146.398302 -132.55729 
L 144.700041 -132.582809 
L 143.00178 -132.58421 
L 141.303519 -132.60513 
L 139.605258 -132.643147 
L 137.906997 -132.653708 
L 136.208736 -132.651236 
L 134.510476 -132.645105 
L 132.812215 -132.652805 
L 131.113954 -132.68257 
L 129.415693 -132.689553 
L 127.717432 -132.703474 
L 126.019171 -132.755961 
L 124.32091 -132.789208 
L 122.622649 -132.815888 
L 120.924389 -132.878585 
L 119.226128 -132.932669 
L 117.527867 -132.97176 
L 115.829606 -133.013488 
L 114.131345 -133.056688 
L 112.433084 -133.102598 
L 110.734823 -133.164084 
L 109.036563 -133.223076 
L 107.338302 -133.286861 
L 105.640041 -133.393987 
L 103.94178 -133.515388 
L 102.243519 -133.633892 
L 100.545258 -133.735634 
L 98.846997 -133.79976 
L 97.148736 -133.855071 
L 95.450476 -133.894168 
L 93.752215 -133.901724 
L 92.053954 -133.954022 
L 90.355693 -134.009875 
L 88.657432 -134.036735 
L 86.959171 -134.049364 
L 85.26091 -134.054664 
L 83.562649 -134.034989 
L 81.864389 -134.02453 
L 80.166128 -134.056405 
L 78.467867 -134.097434 
L 76.769606 -134.114454 
L 75.071345 -134.12939 
L 73.373084 -134.143074 
L 71.674823 -134.16535 
L 69.976563 -134.173248 
L 68.278302 -134.20875 
L 66.580041 -134.200695 
L 64.88178 -134.182555 
L 63.183519 -134.215036 
L 61.485258 -134.253098 
L 59.786997 -134.277212 
L 58.088736 -134.323672 
L 56.390476 -134.348457 
L 54.692215 -134.340396 
L 52.993954 -134.320505 
L 51.295693 -134.362983 
L 49.597432 -134.371123 
L 47.899171 -134.356689 
L 46.20091 -134.352562 
L 44.502649 -134.324006 
L 42.804389 -134.281646 
L 41.106128 -134.284166 
L 39.407867 -134.242229 
L 37.709606 -134.22354 
L 36.011345 -134.189228 
L 34.313084 -134.149762 
L 32.614823 -134.114712 
L 30.916563 -134.07099 
z
" id="md40defa9b9"/>
    </defs>
    <g clip-path="url(#pdca1ba913e)">
     <use style="fill:#93552f;" x="0" xlink:href="#md40defa9b9" y="159.309562"/>
    </g>
   </g>
   <g id="PolyCollection_4">
    <defs>
     <path d="M 30.916563 -134.07099 
L 30.916563 -134.07099 
L 32.614823 -134.114712 
L 34.313084 -134.149762 
L 36.011345 -134.189228 
L 37.709606 -134.22354 
L 39.407867 -134.242229 
L 41.106128 -134.284166 
L 42.804389 -134.281646 
L 44.502649 -134.324006 
L 46.20091 -134.352562 
L 47.899171 -134.356689 
L 49.597432 -134.371123 
L 51.295693 -134.362983 
L 52.993954 -134.320505 
L 54.692215 -134.340396 
L 56.390476 -134.348457 
L 58.088736 -134.323672 
L 59.786997 -134.277212 
L 61.485258 -134.253098 
L 63.183519 -134.215036 
L 64.88178 -134.182555 
L 66.580041 -134.200695 
L 68.278302 -134.20875 
L 69.976563 -134.173248 
L 71.674823 -134.16535 
L 73.373084 -134.143074 
L 75.071345 -134.12939 
L 76.769606 -134.114454 
L 78.467867 -134.097434 
L 80.166128 -134.056405 
L 81.864389 -134.02453 
L 83.562649 -134.034989 
L 85.26091 -134.054664 
L 86.959171 -134.049364 
L 88.657432 -134.036735 
L 90.355693 -134.009875 
L 92.053954 -133.954022 
L 93.752215 -133.901724 
L 95.450476 -133.894168 
L 97.148736 -133.855071 
L 98.846997 -133.79976 
L 100.545258 -133.735634 
L 102.243519 -133.633892 
L 103.94178 -133.515388 
L 105.640041 -133.393987 
L 107.338302 -133.286861 
L 109.036563 -133.223076 
L 110.734823 -133.164084 
L 112.433084 -133.102598 
L 114.131345 -133.056688 
L 115.829606 -133.013488 
L 117.527867 -132.97176 
L 119.226128 -132.932669 
L 120.924389 -132.878585 
L 122.622649 -132.815888 
L 124.32091 -132.789208 
L 126.019171 -132.755961 
L 127.717432 -132.703474 
L 129.415693 -132.689553 
L 131.113954 -132.68257 
L 132.812215 -132.652805 
L 134.510476 -132.645105 
L 136.208736 -132.651236 
L 137.906997 -132.653708 
L 139.605258 -132.643147 
L 141.303519 -132.60513 
L 143.00178 -132.58421 
L 144.700041 -132.582809 
L 146.398302 -132.55729 
L 148.096563 -132.526946 
L 149.794823 -132.497247 
L 151.493084 -132.480597 
L 153.191345 -132.471768 
L 154.889606 -132.44552 
L 156.587867 -132.421719 
L 158.286128 -132.434522 
L 159.984389 -132.458763 
L 161.682649 -132.512177 
L 163.38091 -132.556797 
L 165.079171 -132.574322 
L 166.777432 -132.601852 
L 168.475693 -132.650791 
L 170.173954 -132.735491 
L 171.872215 -132.816911 
L 173.570476 -132.884604 
L 175.268736 -132.953157 
L 176.966997 -133.022504 
L 178.665258 -133.104261 
L 180.363519 -133.209638 
L 182.06178 -133.273235 
L 183.760041 -133.360057 
L 185.458302 -133.460513 
L 187.156563 -133.557621 
L 188.854823 -133.708838 
L 190.553084 -133.878097 
L 192.251345 -134.102737 
L 193.949606 -134.317511 
L 195.647867 -134.497767 
L 197.346128 -134.68172 
L 199.044389 -134.855827 
L 200.742649 -135.008701 
L 202.44091 -135.16373 
L 204.139171 -135.303032 
L 205.837432 -135.451762 
L 207.535693 -135.572643 
L 209.233954 -135.688702 
L 210.932215 -135.819088 
L 212.630476 -135.951332 
L 214.328736 -136.087499 
L 216.026997 -136.267225 
L 217.725258 -136.441021 
L 219.423519 -136.640525 
L 221.12178 -136.843233 
L 222.820041 -137.047714 
L 224.518302 -137.246403 
L 226.216563 -137.418705 
L 226.216563 -145.10752 
L 226.216563 -145.10752 
L 224.518302 -145.067924 
L 222.820041 -145.015646 
L 221.12178 -144.957814 
L 219.423519 -144.891783 
L 217.725258 -144.820875 
L 216.026997 -144.751026 
L 214.328736 -144.661434 
L 212.630476 -144.594661 
L 210.932215 -144.528256 
L 209.233954 -144.451254 
L 207.535693 -144.374663 
L 205.837432 -144.290194 
L 204.139171 -144.198442 
L 202.44091 -144.101909 
L 200.742649 -143.988236 
L 199.044389 -143.86973 
L 197.346128 -143.73852 
L 195.647867 -143.594466 
L 193.949606 -143.466523 
L 192.251345 -143.319303 
L 190.553084 -143.163704 
L 188.854823 -143.027431 
L 187.156563 -142.890189 
L 185.458302 -142.776457 
L 183.760041 -142.665857 
L 182.06178 -142.595546 
L 180.363519 -142.529285 
L 178.665258 -142.442305 
L 176.966997 -142.364034 
L 175.268736 -142.286118 
L 173.570476 -142.211598 
L 171.872215 -142.133723 
L 170.173954 -142.04614 
L 168.475693 -141.942195 
L 166.777432 -141.843784 
L 165.079171 -141.730331 
L 163.38091 -141.615285 
L 161.682649 -141.490339 
L 159.984389 -141.362201 
L 158.286128 -141.232394 
L 156.587867 -141.04832 
L 154.889606 -140.87161 
L 153.191345 -140.700123 
L 151.493084 -140.490288 
L 149.794823 -140.312733 
L 148.096563 -140.122041 
L 146.398302 -139.950379 
L 144.700041 -139.756838 
L 143.00178 -139.540347 
L 141.303519 -139.332637 
L 139.605258 -139.14005 
L 137.906997 -138.922806 
L 136.208736 -138.689266 
L 134.510476 -138.451781 
L 132.812215 -138.220866 
L 131.113954 -138.011807 
L 129.415693 -137.775717 
L 127.717432 -137.53686 
L 126.019171 -137.324039 
L 124.32091 -137.094931 
L 122.622649 -136.875428 
L 120.924389 -136.687882 
L 119.226128 -136.483484 
L 117.527867 -136.261731 
L 115.829606 -136.052554 
L 114.131345 -135.83981 
L 112.433084 -135.654015 
L 110.734823 -135.496063 
L 109.036563 -135.34695 
L 107.338302 -135.212535 
L 105.640041 -135.132664 
L 103.94178 -135.08265 
L 102.243519 -135.045377 
L 100.545258 -135.004573 
L 98.846997 -134.939011 
L 97.148736 -134.874245 
L 95.450476 -134.803016 
L 93.752215 -134.709023 
L 92.053954 -134.66806 
L 90.355693 -134.63642 
L 88.657432 -134.582659 
L 86.959171 -134.521175 
L 85.26091 -134.458155 
L 83.562649 -134.375758 
L 81.864389 -134.308597 
L 80.166128 -134.288566 
L 78.467867 -134.282304 
L 76.769606 -134.256404 
L 75.071345 -134.23373 
L 73.373084 -134.215034 
L 71.674823 -134.210631 
L 69.976563 -134.197972 
L 68.278302 -134.219488 
L 66.580041 -134.204323 
L 64.88178 -134.182555 
L 63.183519 -134.215036 
L 61.485258 -134.253098 
L 59.786997 -134.277212 
L 58.088736 -134.323672 
L 56.390476 -134.348457 
L 54.692215 -134.340396 
L 52.993954 -134.320505 
L 51.295693 -134.362983 
L 49.597432 -134.371123 
L 47.899171 -134.356689 
L 46.20091 -134.352562 
L 44.502649 -134.324006 
L 42.804389 -134.281646 
L 41.106128 -134.284166 
L 39.407867 -134.242229 
L 37.709606 -134.22354 
L 36.011345 -134.189228 
L 34.313084 -134.149762 
L 32.614823 -134.114712 
L 30.916563 -134.07099 
z
" id="m78313b6d6e"/>
    </defs>
    <g clip-path="url(#pdca1ba913e)">
     <use style="fill:#333333;" x="0" xlink:href="#m78313b6d6e" y="159.309562"/>
    </g>
   </g>
   <g id="PolyCollection_5">
    <defs>
     <path d="M 30.916563 -137.17293 
L 30.916563 -134.07099 
L 32.614823 -134.114712 
L 34.313084 -134.149762 
L 36.011345 -134.189228 
L 37.709606 -134.22354 
L 39.407867 -134.242229 
L 41.106128 -134.284166 
L 42.804389 -134.281646 
L 44.502649 -134.324006 
L 46.20091 -134.352562 
L 47.899171 -134.356689 
L 49.597432 -134.371123 
L 51.295693 -134.362983 
L 52.993954 -134.320505 
L 54.692215 -134.340396 
L 56.390476 -134.348457 
L 58.088736 -134.323672 
L 59.786997 -134.277212 
L 61.485258 -134.253098 
L 63.183519 -134.215036 
L 64.88178 -134.182555 
L 66.580041 -134.204323 
L 68.278302 -134.219488 
L 69.976563 -134.197972 
L 71.674823 -134.210631 
L 73.373084 -134.215034 
L 75.071345 -134.23373 
L 76.769606 -134.256404 
L 78.467867 -134.282304 
L 80.166128 -134.288566 
L 81.864389 -134.308597 
L 83.562649 -134.375758 
L 85.26091 -134.458155 
L 86.959171 -134.521175 
L 88.657432 -134.582659 
L 90.355693 -134.63642 
L 92.053954 -134.66806 
L 93.752215 -134.709023 
L 95.450476 -134.803016 
L 97.148736 -134.874245 
L 98.846997 -134.939011 
L 100.545258 -135.004573 
L 102.243519 -135.045377 
L 103.94178 -135.08265 
L 105.640041 -135.132664 
L 107.338302 -135.212535 
L 109.036563 -135.34695 
L 110.734823 -135.496063 
L 112.433084 -135.654015 
L 114.131345 -135.83981 
L 115.829606 -136.052554 
L 117.527867 -136.261731 
L 119.226128 -136.483484 
L 120.924389 -136.687882 
L 122.622649 -136.875428 
L 124.32091 -137.094931 
L 126.019171 -137.324039 
L 127.717432 -137.53686 
L 129.415693 -137.775717 
L 131.113954 -138.011807 
L 132.812215 -138.220866 
L 134.510476 -138.451781 
L 136.208736 -138.689266 
L 137.906997 -138.922806 
L 139.605258 -139.14005 
L 141.303519 -139.332637 
L 143.00178 -139.540347 
L 144.700041 -139.756838 
L 146.398302 -139.950379 
L 148.096563 -140.122041 
L 149.794823 -140.312733 
L 151.493084 -140.490288 
L 153.191345 -140.700123 
L 154.889606 -140.87161 
L 156.587867 -141.04832 
L 158.286128 -141.232394 
L 159.984389 -141.362201 
L 161.682649 -141.490339 
L 163.38091 -141.615285 
L 165.079171 -141.730331 
L 166.777432 -141.843784 
L 168.475693 -141.942195 
L 170.173954 -142.04614 
L 171.872215 -142.133723 
L 173.570476 -142.211598 
L 175.268736 -142.286118 
L 176.966997 -142.364034 
L 178.665258 -142.442305 
L 180.363519 -142.529285 
L 182.06178 -142.595546 
L 183.760041 -142.665857 
L 185.458302 -142.776457 
L 187.156563 -142.890189 
L 188.854823 -143.027431 
L 190.553084 -143.163704 
L 192.251345 -143.319303 
L 193.949606 -143.466523 
L 195.647867 -143.594466 
L 197.346128 -143.73852 
L 199.044389 -143.86973 
L 200.742649 -143.988236 
L 202.44091 -144.101909 
L 204.139171 -144.198442 
L 205.837432 -144.290194 
L 207.535693 -144.374663 
L 209.233954 -144.451254 
L 210.932215 -144.528256 
L 212.630476 -144.594661 
L 214.328736 -144.661434 
L 216.026997 -144.751026 
L 217.725258 -144.820875 
L 219.423519 -144.891783 
L 221.12178 -144.957814 
L 222.820041 -145.015646 
L 224.518302 -145.067924 
L 226.216563 -145.10752 
L 226.216563 -149.452191 
L 226.216563 -149.452191 
L 224.518302 -149.424163 
L 222.820041 -149.386195 
L 221.12178 -149.339628 
L 219.423519 -149.290676 
L 217.725258 -149.236223 
L 216.026997 -149.182143 
L 214.328736 -149.117301 
L 212.630476 -149.066093 
L 210.932215 -149.01791 
L 209.233954 -148.968507 
L 207.535693 -148.920105 
L 205.837432 -148.872153 
L 204.139171 -148.81986 
L 202.44091 -148.76494 
L 200.742649 -148.700308 
L 199.044389 -148.63639 
L 197.346128 -148.568136 
L 195.647867 -148.48852 
L 193.949606 -148.420866 
L 192.251345 -148.340027 
L 190.553084 -148.255708 
L 188.854823 -148.180482 
L 187.156563 -148.102182 
L 185.458302 -148.032928 
L 183.760041 -147.968102 
L 182.06178 -147.923222 
L 180.363519 -147.880607 
L 178.665258 -147.828396 
L 176.966997 -147.781724 
L 175.268736 -147.732584 
L 173.570476 -147.680042 
L 171.872215 -147.626175 
L 170.173954 -147.56856 
L 168.475693 -147.495931 
L 166.777432 -147.420056 
L 165.079171 -147.335931 
L 163.38091 -147.24932 
L 161.682649 -147.157372 
L 159.984389 -147.063706 
L 158.286128 -146.963336 
L 156.587867 -146.821985 
L 154.889606 -146.686822 
L 153.191345 -146.558709 
L 151.493084 -146.411906 
L 149.794823 -146.278543 
L 148.096563 -146.130792 
L 146.398302 -145.991521 
L 144.700041 -145.842473 
L 143.00178 -145.687908 
L 141.303519 -145.522762 
L 139.605258 -145.358031 
L 137.906997 -145.173343 
L 136.208736 -144.978754 
L 134.510476 -144.774234 
L 132.812215 -144.565847 
L 131.113954 -144.354116 
L 129.415693 -144.144853 
L 127.717432 -143.93756 
L 126.019171 -143.725408 
L 124.32091 -143.508711 
L 122.622649 -143.300526 
L 120.924389 -143.09028 
L 119.226128 -142.887431 
L 117.527867 -142.684636 
L 115.829606 -142.485744 
L 114.131345 -142.296353 
L 112.433084 -142.131354 
L 110.734823 -141.982887 
L 109.036563 -141.854425 
L 107.338302 -141.750956 
L 105.640041 -141.675593 
L 103.94178 -141.592903 
L 102.243519 -141.496528 
L 100.545258 -141.393486 
L 98.846997 -141.279465 
L 97.148736 -141.171525 
L 95.450476 -141.057977 
L 93.752215 -140.950819 
L 92.053954 -140.840083 
L 90.355693 -140.761532 
L 88.657432 -140.68805 
L 86.959171 -140.621831 
L 85.26091 -140.574547 
L 83.562649 -140.523721 
L 81.864389 -140.448767 
L 80.166128 -140.35417 
L 78.467867 -140.245911 
L 76.769606 -140.14037 
L 75.071345 -140.034153 
L 73.373084 -139.93935 
L 71.674823 -139.853506 
L 69.976563 -139.776609 
L 68.278302 -139.714385 
L 66.580041 -139.65296 
L 64.88178 -139.613957 
L 63.183519 -139.56006 
L 61.485258 -139.520257 
L 59.786997 -139.448552 
L 58.088736 -139.373358 
L 56.390476 -139.280594 
L 54.692215 -139.18547 
L 52.993954 -139.075107 
L 51.295693 -138.939591 
L 49.597432 -138.80283 
L 47.899171 -138.66419 
L 46.20091 -138.517095 
L 44.502649 -138.364922 
L 42.804389 -138.217654 
L 41.106128 -138.067059 
L 39.407867 -137.921314 
L 37.709606 -137.769433 
L 36.011345 -137.628225 
L 34.313084 -137.479772 
L 32.614823 -137.331764 
L 30.916563 -137.17293 
z
" id="m38bfd0614d"/>
    </defs>
    <g clip-path="url(#pdca1ba913e)">
     <use style="fill:#9b111e;" x="0" xlink:href="#m38bfd0614d" y="159.309562"/>
    </g>
   </g>
   <g id="PolyCollection_6">
    <defs>
     <path d="M 30.916563 -152.209563 
L 30.916563 -137.17293 
L 32.614823 -137.331764 
L 34.313084 -137.479772 
L 36.011345 -137.628225 
L 37.709606 -137.769433 
L 39.407867 -137.921314 
L 41.106128 -138.067059 
L 42.804389 -138.217654 
L 44.502649 -138.364922 
L 46.20091 -138.517095 
L 47.899171 -138.66419 
L 49.597432 -138.80283 
L 51.295693 -138.939591 
L 52.993954 -139.075107 
L 54.692215 -139.18547 
L 56.390476 -139.280594 
L 58.088736 -139.373358 
L 59.786997 -139.448552 
L 61.485258 -139.520257 
L 63.183519 -139.56006 
L 64.88178 -139.613957 
L 66.580041 -139.65296 
L 68.278302 -139.714385 
L 69.976563 -139.776609 
L 71.674823 -139.853506 
L 73.373084 -139.93935 
L 75.071345 -140.034153 
L 76.769606 -140.14037 
L 78.467867 -140.245911 
L 80.166128 -140.35417 
L 81.864389 -140.448767 
L 83.562649 -140.523721 
L 85.26091 -140.574547 
L 86.959171 -140.621831 
L 88.657432 -140.68805 
L 90.355693 -140.761532 
L 92.053954 -140.840083 
L 93.752215 -140.950819 
L 95.450476 -141.057977 
L 97.148736 -141.171525 
L 98.846997 -141.279465 
L 100.545258 -141.393486 
L 102.243519 -141.496528 
L 103.94178 -141.592903 
L 105.640041 -141.675593 
L 107.338302 -141.750956 
L 109.036563 -141.854425 
L 110.734823 -141.982887 
L 112.433084 -142.131354 
L 114.131345 -142.296353 
L 115.829606 -142.485744 
L 117.527867 -142.684636 
L 119.226128 -142.887431 
L 120.924389 -143.09028 
L 122.622649 -143.300526 
L 124.32091 -143.508711 
L 126.019171 -143.725408 
L 127.717432 -143.93756 
L 129.415693 -144.144853 
L 131.113954 -144.354116 
L 132.812215 -144.565847 
L 134.510476 -144.774234 
L 136.208736 -144.978754 
L 137.906997 -145.173343 
L 139.605258 -145.358031 
L 141.303519 -145.522762 
L 143.00178 -145.687908 
L 144.700041 -145.842473 
L 146.398302 -145.991521 
L 148.096563 -146.130792 
L 149.794823 -146.278543 
L 151.493084 -146.411906 
L 153.191345 -146.558709 
L 154.889606 -146.686822 
L 156.587867 -146.821985 
L 158.286128 -146.963336 
L 159.984389 -147.063706 
L 161.682649 -147.157372 
L 163.38091 -147.24932 
L 165.079171 -147.335931 
L 166.777432 -147.420056 
L 168.475693 -147.495931 
L 170.173954 -147.56856 
L 171.872215 -147.626175 
L 173.570476 -147.680042 
L 175.268736 -147.732584 
L 176.966997 -147.781724 
L 178.665258 -147.828396 
L 180.363519 -147.880607 
L 182.06178 -147.923222 
L 183.760041 -147.968102 
L 185.458302 -148.032928 
L 187.156563 -148.102182 
L 188.854823 -148.180482 
L 190.553084 -148.255708 
L 192.251345 -148.340027 
L 193.949606 -148.420866 
L 195.647867 -148.48852 
L 197.346128 -148.568136 
L 199.044389 -148.63639 
L 200.742649 -148.700308 
L 202.44091 -148.76494 
L 204.139171 -148.81986 
L 205.837432 -148.872153 
L 207.535693 -148.920105 
L 209.233954 -148.968507 
L 210.932215 -149.01791 
L 212.630476 -149.066093 
L 214.328736 -149.117301 
L 216.026997 -149.182143 
L 217.725258 -149.236223 
L 219.423519 -149.290676 
L 221.12178 -149.339628 
L 222.820041 -149.386195 
L 224.518302 -149.424163 
L 226.216563 -149.452191 
L 226.216563 -152.209563 
L 226.216563 -152.209563 
L 224.518302 -152.209563 
L 222.820041 -152.209563 
L 221.12178 -152.209563 
L 219.423519 -152.209563 
L 217.725258 -152.209563 
L 216.026997 -152.209563 
L 214.328736 -152.209563 
L 212.630476 -152.209563 
L 210.932215 -152.209563 
L 209.233954 -152.209563 
L 207.535693 -152.209562 
L 205.837432 -152.209563 
L 204.139171 -152.209563 
L 202.44091 -152.209563 
L 200.742649 -152.209562 
L 199.044389 -152.209563 
L 197.346128 -152.209563 
L 195.647867 -152.209562 
L 193.949606 -152.209563 
L 192.251345 -152.209563 
L 190.553084 -152.209563 
L 188.854823 -152.209563 
L 187.156563 -152.209563 
L 185.458302 -152.209563 
L 183.760041 -152.209563 
L 182.06178 -152.209563 
L 180.363519 -152.209563 
L 178.665258 -152.209563 
L 176.966997 -152.209563 
L 175.268736 -152.209563 
L 173.570476 -152.209563 
L 171.872215 -152.209563 
L 170.173954 -152.209563 
L 168.475693 -152.209563 
L 166.777432 -152.209563 
L 165.079171 -152.209563 
L 163.38091 -152.209563 
L 161.682649 -152.209563 
L 159.984389 -152.209563 
L 158.286128 -152.209563 
L 156.587867 -152.209563 
L 154.889606 -152.209563 
L 153.191345 -152.209563 
L 151.493084 -152.209563 
L 149.794823 -152.209563 
L 148.096563 -152.209562 
L 146.398302 -152.209563 
L 144.700041 -152.209562 
L 143.00178 -152.209563 
L 141.303519 -152.209562 
L 139.605258 -152.209563 
L 137.906997 -152.209563 
L 136.208736 -152.209563 
L 134.510476 -152.209563 
L 132.812215 -152.209563 
L 131.113954 -152.209563 
L 129.415693 -152.209563 
L 127.717432 -152.209563 
L 126.019171 -152.209563 
L 124.32091 -152.209563 
L 122.622649 -152.209563 
L 120.924389 -152.209563 
L 119.226128 -152.209563 
L 117.527867 -152.209563 
L 115.829606 -152.209562 
L 114.131345 -152.209563 
L 112.433084 -152.209563 
L 110.734823 -152.209563 
L 109.036563 -152.209563 
L 107.338302 -152.209563 
L 105.640041 -152.209563 
L 103.94178 -152.209563 
L 102.243519 -152.209563 
L 100.545258 -152.209563 
L 98.846997 -152.209563 
L 97.148736 -152.209563 
L 95.450476 -152.209563 
L 93.752215 -152.209563 
L 92.053954 -152.209563 
L 90.355693 -152.209563 
L 88.657432 -152.209563 
L 86.959171 -152.209563 
L 85.26091 -152.209563 
L 83.562649 -152.209563 
L 81.864389 -152.209563 
L 80.166128 -152.209562 
L 78.467867 -152.209563 
L 76.769606 -152.209563 
L 75.071345 -152.209563 
L 73.373084 -152.209563 
L 71.674823 -152.209563 
L 69.976563 -152.209563 
L 68.278302 -152.209563 
L 66.580041 -152.209562 
L 64.88178 -152.209563 
L 63.183519 -152.209563 
L 61.485258 -152.209563 
L 59.786997 -152.209563 
L 58.088736 -152.209563 
L 56.390476 -152.209563 
L 54.692215 -152.209563 
L 52.993954 -152.209563 
L 51.295693 -152.209563 
L 49.597432 -152.209563 
L 47.899171 -152.209563 
L 46.20091 -152.209563 
L 44.502649 -152.209563 
L 42.804389 -152.209563 
L 41.106128 -152.209563 
L 39.407867 -152.209563 
L 37.709606 -152.209563 
L 36.011345 -152.209563 
L 34.313084 -152.209563 
L 32.614823 -152.209563 
L 30.916563 -152.209563 
z
" id="me2e7fbc7e3"/>
    </defs>
    <g clip-path="url(#pdca1ba913e)">
     <use style="fill:#fdc832;" x="0" xlink:href="#me2e7fbc7e3" y="159.309562"/>
    </g>
   </g>
   <g id="matplotlib.axis_1">
    <g id="xtick_1">
     <g id="line2d_1">
      <defs>
       <path d="M 0 0 
L 0 3.5 
" id="m41a67af346" style="stroke:#000000;stroke-width:0.8;"/>
      </defs>
      <g>
       <use style="stroke:#000000;stroke-width:0.8;" x="47.899171" xlink:href="#m41a67af346" y="132.128"/>
      </g>
     </g>
     <g id="text_1">
      <!-- 1910 -->
      <defs>
       <path d="M 12.40625 8.296875 
L 28.515625 8.296875 
L 28.515625 63.921875 
L 10.984375 60.40625 
L 10.984375 69.390625 
L 28.421875 72.90625 
L 38.28125 72.90625 
L 38.28125 8.296875 
L 54.390625 8.296875 
L 54.390625 0 
L 12.40625 0 
z
" id="DejaVuSans-31"/>
       <path d="M 10.984375 1.515625 
L 10.984375 10.5 
Q 14.703125 8.734375 18.5 7.8125 
Q 22.3125 6.890625 25.984375 6.890625 
Q 35.75 6.890625 40.890625 13.453125 
Q 46.046875 20.015625 46.78125 33.40625 
Q 43.953125 29.203125 39.59375 26.953125 
Q 35.25 24.703125 29.984375 24.703125 
Q 19.046875 24.703125 12.671875 31.3125 
Q 6.296875 37.9375 6.296875 49.421875 
Q 6.296875 60.640625 12.9375 67.421875 
Q 19.578125 74.21875 30.609375 74.21875 
Q 43.265625 74.21875 49.921875 64.515625 
Q 56.59375 54.828125 56.59375 36.375 
Q 56.59375 19.140625 48.40625 8.859375 
Q 40.234375 -1.421875 26.421875 -1.421875 
Q 22.703125 -1.421875 18.890625 -0.6875 
Q 15.09375 0.046875 10.984375 1.515625 
z
M 30.609375 32.421875 
Q 37.25 32.421875 41.125 36.953125 
Q 45.015625 41.5 45.015625 49.421875 
Q 45.015625 57.28125 41.125 61.84375 
Q 37.25 66.40625 30.609375 66.40625 
Q 23.96875 66.40625 20.09375 61.84375 
Q 16.21875 57.28125 16.21875 49.421875 
Q 16.21875 41.5 20.09375 36.953125 
Q 23.96875 32.421875 30.609375 32.421875 
z
" id="DejaVuSans-39"/>
       <path d="M 31.78125 66.40625 
Q 24.171875 66.40625 20.328125 58.90625 
Q 16.5 51.421875 16.5 36.375 
Q 16.5 21.390625 20.328125 13.890625 
Q 24.171875 6.390625 31.78125 6.390625 
Q 39.453125 6.390625 43.28125 13.890625 
Q 47.125 21.390625 47.125 36.375 
Q 47.125 51.421875 43.28125 58.90625 
Q 39.453125 66.40625 31.78125 66.40625 
z
M 31.78125 74.21875 
Q 44.046875 74.21875 50.515625 64.515625 
Q 56.984375 54.828125 56.984375 36.375 
Q 56.984375 17.96875 50.515625 8.265625 
Q 44.046875 -1.421875 31.78125 -1.421875 
Q 19.53125 -1.421875 13.0625 8.265625 
Q 6.59375 17.96875 6.59375 36.375 
Q 6.59375 54.828125 13.0625 64.515625 
Q 19.53125 74.21875 31.78125 74.21875 
z
" id="DejaVuSans-30"/>
      </defs>
      <g transform="translate(40.264171 143.687062)scale(0.06 -0.06)">
       <use xlink:href="#DejaVuSans-31"/>
       <use x="63.623047" xlink:href="#DejaVuSans-39"/>
       <use x="127.246094" xlink:href="#DejaVuSans-31"/>
       <use x="190.869141" xlink:href="#DejaVuSans-30"/>
      </g>
     </g>
    </g>
    <g id="xtick_2">
     <g id="line2d_2">
      <g>
       <use style="stroke:#000000;stroke-width:0.8;" x="81.864389" xlink:href="#m41a67af346" y="132.128"/>
      </g>
     </g>
     <g id="text_2">
      <!-- 1930 -->
      <defs>
       <path d="M 40.578125 39.3125 
Q 47.65625 37.796875 51.625 33 
Q 55.609375 28.21875 55.609375 21.1875 
Q 55.609375 10.40625 48.1875 4.484375 
Q 40.765625 -1.421875 27.09375 -1.421875 
Q 22.515625 -1.421875 17.65625 -0.515625 
Q 12.796875 0.390625 7.625 2.203125 
L 7.625 11.71875 
Q 11.71875 9.328125 16.59375 8.109375 
Q 21.484375 6.890625 26.8125 6.890625 
Q 36.078125 6.890625 40.9375 10.546875 
Q 45.796875 14.203125 45.796875 21.1875 
Q 45.796875 27.640625 41.28125 31.265625 
Q 36.765625 34.90625 28.71875 34.90625 
L 20.21875 34.90625 
L 20.21875 43.015625 
L 29.109375 43.015625 
Q 36.375 43.015625 40.234375 45.921875 
Q 44.09375 48.828125 44.09375 54.296875 
Q 44.09375 59.90625 40.109375 62.90625 
Q 36.140625 65.921875 28.71875 65.921875 
Q 24.65625 65.921875 20.015625 65.03125 
Q 15.375 64.15625 9.8125 62.3125 
L 9.8125 71.09375 
Q 15.4375 72.65625 20.34375 73.4375 
Q 25.25 74.21875 29.59375 74.21875 
Q 40.828125 74.21875 47.359375 69.109375 
Q 53.90625 64.015625 53.90625 55.328125 
Q 53.90625 49.265625 50.4375 45.09375 
Q 46.96875 40.921875 40.578125 39.3125 
z
" id="DejaVuSans-33"/>
      </defs>
      <g transform="translate(74.229389 143.687062)scale(0.06 -0.06)">
       <use xlink:href="#DejaVuSans-31"/>
       <use x="63.623047" xlink:href="#DejaVuSans-39"/>
       <use x="127.246094" xlink:href="#DejaVuSans-33"/>
       <use x="190.869141" xlink:href="#DejaVuSans-30"/>
      </g>
     </g>
    </g>
    <g id="xtick_3">
     <g id="line2d_3">
      <g>
       <use style="stroke:#000000;stroke-width:0.8;" x="115.829606" xlink:href="#m41a67af346" y="132.128"/>
      </g>
     </g>
     <g id="text_3">
      <!-- 1950 -->
      <defs>
       <path d="M 10.796875 72.90625 
L 49.515625 72.90625 
L 49.515625 64.59375 
L 19.828125 64.59375 
L 19.828125 46.734375 
Q 21.96875 47.46875 24.109375 47.828125 
Q 26.265625 48.1875 28.421875 48.1875 
Q 40.625 48.1875 47.75 41.5 
Q 54.890625 34.8125 54.890625 23.390625 
Q 54.890625 11.625 47.5625 5.09375 
Q 40.234375 -1.421875 26.90625 -1.421875 
Q 22.3125 -1.421875 17.546875 -0.640625 
Q 12.796875 0.140625 7.71875 1.703125 
L 7.71875 11.625 
Q 12.109375 9.234375 16.796875 8.0625 
Q 21.484375 6.890625 26.703125 6.890625 
Q 35.15625 6.890625 40.078125 11.328125 
Q 45.015625 15.765625 45.015625 23.390625 
Q 45.015625 31 40.078125 35.4375 
Q 35.15625 39.890625 26.703125 39.890625 
Q 22.75 39.890625 18.8125 39.015625 
Q 14.890625 38.140625 10.796875 36.28125 
z
" id="DejaVuSans-35"/>
      </defs>
      <g transform="translate(108.194606 143.687062)scale(0.06 -0.06)">
       <use xlink:href="#DejaVuSans-31"/>
       <use x="63.623047" xlink:href="#DejaVuSans-39"/>
       <use x="127.246094" xlink:href="#DejaVuSans-35"/>
       <use x="190.869141" xlink:href="#DejaVuSans-30"/>
      </g>
     </g>
    </g>
    <g id="xtick_4">
     <g id="line2d_4">
      <g>
       <use style="stroke:#000000;stroke-width:0.8;" x="149.794823" xlink:href="#m41a67af346" y="132.128"/>
      </g>
     </g>
     <g id="text_4">
      <!-- 1970 -->
      <defs>
       <path d="M 8.203125 72.90625 
L 55.078125 72.90625 
L 55.078125 68.703125 
L 28.609375 0 
L 18.3125 0 
L 43.21875 64.59375 
L 8.203125 64.59375 
z
" id="DejaVuSans-37"/>
      </defs>
      <g transform="translate(142.159823 143.687062)scale(0.06 -0.06)">
       <use xlink:href="#DejaVuSans-31"/>
       <use x="63.623047" xlink:href="#DejaVuSans-39"/>
       <use x="127.246094" xlink:href="#DejaVuSans-37"/>
       <use x="190.869141" xlink:href="#DejaVuSans-30"/>
      </g>
     </g>
    </g>
    <g id="xtick_5">
     <g id="line2d_5">
      <g>
       <use style="stroke:#000000;stroke-width:0.8;" x="183.760041" xlink:href="#m41a67af346" y="132.128"/>
      </g>
     </g>
     <g id="text_5">
      <!-- 1990 -->
      <g transform="translate(176.125041 143.687062)scale(0.06 -0.06)">
       <use xlink:href="#DejaVuSans-31"/>
       <use x="63.623047" xlink:href="#DejaVuSans-39"/>
       <use x="127.246094" xlink:href="#DejaVuSans-39"/>
       <use x="190.869141" xlink:href="#DejaVuSans-30"/>
      </g>
     </g>
    </g>
    <g id="xtick_6">
     <g id="line2d_6">
      <g>
       <use style="stroke:#000000;stroke-width:0.8;" x="217.725258" xlink:href="#m41a67af346" y="132.128"/>
      </g>
     </g>
     <g id="text_6">
      <!-- 2010 -->
      <defs>
       <path d="M 19.1875 8.296875 
L 53.609375 8.296875 
L 53.609375 0 
L 7.328125 0 
L 7.328125 8.296875 
Q 12.9375 14.109375 22.625 23.890625 
Q 32.328125 33.6875 34.8125 36.53125 
Q 39.546875 41.84375 41.421875 45.53125 
Q 43.3125 49.21875 43.3125 52.78125 
Q 43.3125 58.59375 39.234375 62.25 
Q 35.15625 65.921875 28.609375 65.921875 
Q 23.96875 65.921875 18.8125 64.3125 
Q 13.671875 62.703125 7.8125 59.421875 
L 7.8125 69.390625 
Q 13.765625 71.78125 18.9375 73 
Q 24.125 74.21875 28.421875 74.21875 
Q 39.75 74.21875 46.484375 68.546875 
Q 53.21875 62.890625 53.21875 53.421875 
Q 53.21875 48.921875 51.53125 44.890625 
Q 49.859375 40.875 45.40625 35.40625 
Q 44.1875 33.984375 37.640625 27.21875 
Q 31.109375 20.453125 19.1875 8.296875 
z
" id="DejaVuSans-32"/>
      </defs>
      <g transform="translate(210.090258 143.687062)scale(0.06 -0.06)">
       <use xlink:href="#DejaVuSans-32"/>
       <use x="63.623047" xlink:href="#DejaVuSans-30"/>
       <use x="127.246094" xlink:href="#DejaVuSans-31"/>
       <use x="190.869141" xlink:href="#DejaVuSans-30"/>
      </g>
     </g>
    </g>
    <g id="text_7">
     <!-- year -->
     <defs>
      <path d="M 32.171875 -5.078125 
Q 28.375 -14.84375 24.75 -17.8125 
Q 21.140625 -20.796875 15.09375 -20.796875 
L 7.90625 -20.796875 
L 7.90625 -13.28125 
L 13.1875 -13.28125 
Q 16.890625 -13.28125 18.9375 -11.515625 
Q 21 -9.765625 23.484375 -3.21875 
L 25.09375 0.875 
L 2.984375 54.6875 
L 12.5 54.6875 
L 29.59375 11.921875 
L 46.6875 54.6875 
L 56.203125 54.6875 
z
" id="DejaVuSans-79"/>
      <path d="M 56.203125 29.59375 
L 56.203125 25.203125 
L 14.890625 25.203125 
Q 15.484375 15.921875 20.484375 11.0625 
Q 25.484375 6.203125 34.421875 6.203125 
Q 39.59375 6.203125 44.453125 7.46875 
Q 49.3125 8.734375 54.109375 11.28125 
L 54.109375 2.78125 
Q 49.265625 0.734375 44.1875 -0.34375 
Q 39.109375 -1.421875 33.890625 -1.421875 
Q 20.796875 -1.421875 13.15625 6.1875 
Q 5.515625 13.8125 5.515625 26.8125 
Q 5.515625 40.234375 12.765625 48.109375 
Q 20.015625 56 32.328125 56 
Q 43.359375 56 49.78125 48.890625 
Q 56.203125 41.796875 56.203125 29.59375 
z
M 47.21875 32.234375 
Q 47.125 39.59375 43.09375 43.984375 
Q 39.0625 48.390625 32.421875 48.390625 
Q 24.90625 48.390625 20.390625 44.140625 
Q 15.875 39.890625 15.1875 32.171875 
z
" id="DejaVuSans-65"/>
      <path d="M 34.28125 27.484375 
Q 23.390625 27.484375 19.1875 25 
Q 14.984375 22.515625 14.984375 16.5 
Q 14.984375 11.71875 18.140625 8.90625 
Q 21.296875 6.109375 26.703125 6.109375 
Q 34.1875 6.109375 38.703125 11.40625 
Q 43.21875 16.703125 43.21875 25.484375 
L 43.21875 27.484375 
z
M 52.203125 31.203125 
L 52.203125 0 
L 43.21875 0 
L 43.21875 8.296875 
Q 40.140625 3.328125 35.546875 0.953125 
Q 30.953125 -1.421875 24.3125 -1.421875 
Q 15.921875 -1.421875 10.953125 3.296875 
Q 6 8.015625 6 15.921875 
Q 6 25.140625 12.171875 29.828125 
Q 18.359375 34.515625 30.609375 34.515625 
L 43.21875 34.515625 
L 43.21875 35.40625 
Q 43.21875 41.609375 39.140625 45 
Q 35.0625 48.390625 27.6875 48.390625 
Q 23 48.390625 18.546875 47.265625 
Q 14.109375 46.140625 10.015625 43.890625 
L 10.015625 52.203125 
Q 14.9375 54.109375 19.578125 55.046875 
Q 24.21875 56 28.609375 56 
Q 40.484375 56 46.34375 49.84375 
Q 52.203125 43.703125 52.203125 31.203125 
z
" id="DejaVuSans-61"/>
      <path d="M 41.109375 46.296875 
Q 39.59375 47.171875 37.8125 47.578125 
Q 36.03125 48 33.890625 48 
Q 26.265625 48 22.1875 43.046875 
Q 18.109375 38.09375 18.109375 28.8125 
L 18.109375 0 
L 9.078125 0 
L 9.078125 54.6875 
L 18.109375 54.6875 
L 18.109375 46.1875 
Q 20.953125 51.171875 25.484375 53.578125 
Q 30.03125 56 36.53125 56 
Q 37.453125 56 38.578125 55.875 
Q 39.703125 55.765625 41.0625 55.515625 
z
" id="DejaVuSans-72"/>
     </defs>
     <g transform="translate(120.757734 154.253781)scale(0.07 -0.07)">
      <use xlink:href="#DejaVuSans-79"/>
      <use x="59.179688" xlink:href="#DejaVuSans-65"/>
      <use x="120.703125" xlink:href="#DejaVuSans-61"/>
      <use x="181.982422" xlink:href="#DejaVuSans-72"/>
     </g>
    </g>
   </g>
   <g id="matplotlib.axis_2">
    <g id="ytick_1">
     <g id="line2d_7">
      <defs>
       <path d="M 0 0 
L -3.5 0 
" id="m0b0342521b" style="stroke:#000000;stroke-width:0.8;"/>
      </defs>
      <g>
       <use style="stroke:#000000;stroke-width:0.8;" x="30.916563" xlink:href="#m0b0342521b" y="132.128"/>
      </g>
     </g>
     <g id="text_8">
      <!-- 0 -->
      <g transform="translate(20.099063 134.407531)scale(0.06 -0.06)">
       <use xlink:href="#DejaVuSans-30"/>
      </g>
     </g>
    </g>
    <g id="ytick_2">
     <g id="line2d_8">
      <g>
       <use style="stroke:#000000;stroke-width:0.8;" x="30.916563" xlink:href="#m0b0342521b" y="107.1224"/>
      </g>
     </g>
     <g id="text_9">
      <!-- 0.2 -->
      <defs>
       <path d="M 10.6875 12.40625 
L 21 12.40625 
L 21 0 
L 10.6875 0 
z
" id="DejaVuSans-2e"/>
      </defs>
      <g transform="translate(14.374688 109.401931)scale(0.06 -0.06)">
       <use xlink:href="#DejaVuSans-30"/>
       <use x="63.623047" xlink:href="#DejaVuSans-2e"/>
       <use x="95.410156" xlink:href="#DejaVuSans-32"/>
      </g>
     </g>
    </g>
    <g id="ytick_3">
     <g id="line2d_9">
      <g>
       <use style="stroke:#000000;stroke-width:0.8;" x="30.916563" xlink:href="#m0b0342521b" y="82.1168"/>
      </g>
     </g>
     <g id="text_10">
      <!-- 0.4 -->
      <defs>
       <path d="M 37.796875 64.3125 
L 12.890625 25.390625 
L 37.796875 25.390625 
z
M 35.203125 72.90625 
L 47.609375 72.90625 
L 47.609375 25.390625 
L 58.015625 25.390625 
L 58.015625 17.1875 
L 47.609375 17.1875 
L 47.609375 0 
L 37.796875 0 
L 37.796875 17.1875 
L 4.890625 17.1875 
L 4.890625 26.703125 
z
" id="DejaVuSans-34"/>
      </defs>
      <g transform="translate(14.374688 84.396331)scale(0.06 -0.06)">
       <use xlink:href="#DejaVuSans-30"/>
       <use x="63.623047" xlink:href="#DejaVuSans-2e"/>
       <use x="95.410156" xlink:href="#DejaVuSans-34"/>
      </g>
     </g>
    </g>
    <g id="ytick_4">
     <g id="line2d_10">
      <g>
       <use style="stroke:#000000;stroke-width:0.8;" x="30.916563" xlink:href="#m0b0342521b" y="57.1112"/>
      </g>
     </g>
     <g id="text_11">
      <!-- 0.6 -->
      <defs>
       <path d="M 33.015625 40.375 
Q 26.375 40.375 22.484375 35.828125 
Q 18.609375 31.296875 18.609375 23.390625 
Q 18.609375 15.53125 22.484375 10.953125 
Q 26.375 6.390625 33.015625 6.390625 
Q 39.65625 6.390625 43.53125 10.953125 
Q 47.40625 15.53125 47.40625 23.390625 
Q 47.40625 31.296875 43.53125 35.828125 
Q 39.65625 40.375 33.015625 40.375 
z
M 52.59375 71.296875 
L 52.59375 62.3125 
Q 48.875 64.0625 45.09375 64.984375 
Q 41.3125 65.921875 37.59375 65.921875 
Q 27.828125 65.921875 22.671875 59.328125 
Q 17.53125 52.734375 16.796875 39.40625 
Q 19.671875 43.65625 24.015625 45.921875 
Q 28.375 48.1875 33.59375 48.1875 
Q 44.578125 48.1875 50.953125 41.515625 
Q 57.328125 34.859375 57.328125 23.390625 
Q 57.328125 12.15625 50.6875 5.359375 
Q 44.046875 -1.421875 33.015625 -1.421875 
Q 20.359375 -1.421875 13.671875 8.265625 
Q 6.984375 17.96875 6.984375 36.375 
Q 6.984375 53.65625 15.1875 63.9375 
Q 23.390625 74.21875 37.203125 74.21875 
Q 40.921875 74.21875 44.703125 73.484375 
Q 48.484375 72.75 52.59375 71.296875 
z
" id="DejaVuSans-36"/>
      </defs>
      <g transform="translate(14.374688 59.390731)scale(0.06 -0.06)">
       <use xlink:href="#DejaVuSans-30"/>
       <use x="63.623047" xlink:href="#DejaVuSans-2e"/>
       <use x="95.410156" xlink:href="#DejaVuSans-36"/>
      </g>
     </g>
    </g>
    <g id="ytick_5">
     <g id="line2d_11">
      <g>
       <use style="stroke:#000000;stroke-width:0.8;" x="30.916563" xlink:href="#m0b0342521b" y="32.1056"/>
      </g>
     </g>
     <g id="text_12">
      <!-- 0.8 -->
      <defs>
       <path d="M 31.78125 34.625 
Q 24.75 34.625 20.71875 30.859375 
Q 16.703125 27.09375 16.703125 20.515625 
Q 16.703125 13.921875 20.71875 10.15625 
Q 24.75 6.390625 31.78125 6.390625 
Q 38.8125 6.390625 42.859375 10.171875 
Q 46.921875 13.96875 46.921875 20.515625 
Q 46.921875 27.09375 42.890625 30.859375 
Q 38.875 34.625 31.78125 34.625 
z
M 21.921875 38.8125 
Q 15.578125 40.375 12.03125 44.71875 
Q 8.5 49.078125 8.5 55.328125 
Q 8.5 64.0625 14.71875 69.140625 
Q 20.953125 74.21875 31.78125 74.21875 
Q 42.671875 74.21875 48.875 69.140625 
Q 55.078125 64.0625 55.078125 55.328125 
Q 55.078125 49.078125 51.53125 44.71875 
Q 48 40.375 41.703125 38.8125 
Q 48.828125 37.15625 52.796875 32.3125 
Q 56.78125 27.484375 56.78125 20.515625 
Q 56.78125 9.90625 50.3125 4.234375 
Q 43.84375 -1.421875 31.78125 -1.421875 
Q 19.734375 -1.421875 13.25 4.234375 
Q 6.78125 9.90625 6.78125 20.515625 
Q 6.78125 27.484375 10.78125 32.3125 
Q 14.796875 37.15625 21.921875 38.8125 
z
M 18.3125 54.390625 
Q 18.3125 48.734375 21.84375 45.5625 
Q 25.390625 42.390625 31.78125 42.390625 
Q 38.140625 42.390625 41.71875 45.5625 
Q 45.3125 48.734375 45.3125 54.390625 
Q 45.3125 60.0625 41.71875 63.234375 
Q 38.140625 66.40625 31.78125 66.40625 
Q 25.390625 66.40625 21.84375 63.234375 
Q 18.3125 60.0625 18.3125 54.390625 
z
" id="DejaVuSans-38"/>
      </defs>
      <g transform="translate(14.374688 34.385131)scale(0.06 -0.06)">
       <use xlink:href="#DejaVuSans-30"/>
       <use x="63.623047" xlink:href="#DejaVuSans-2e"/>
       <use x="95.410156" xlink:href="#DejaVuSans-38"/>
      </g>
     </g>
    </g>
    <g id="ytick_6">
     <g id="line2d_12">
      <g>
       <use style="stroke:#000000;stroke-width:0.8;" x="30.916563" xlink:href="#m0b0342521b" y="7.1"/>
      </g>
     </g>
     <g id="text_13">
      <!-- 1 -->
      <g transform="translate(20.099063 9.379531)scale(0.06 -0.06)">
       <use xlink:href="#DejaVuSans-31"/>
      </g>
     </g>
    </g>
    <g id="text_14">
     <!-- fraction -->
     <defs>
      <path d="M 37.109375 75.984375 
L 37.109375 68.5 
L 28.515625 68.5 
Q 23.6875 68.5 21.796875 66.546875 
Q 19.921875 64.59375 19.921875 59.515625 
L 19.921875 54.6875 
L 34.71875 54.6875 
L 34.71875 47.703125 
L 19.921875 47.703125 
L 19.921875 0 
L 10.890625 0 
L 10.890625 47.703125 
L 2.296875 47.703125 
L 2.296875 54.6875 
L 10.890625 54.6875 
L 10.890625 58.5 
Q 10.890625 67.625 15.140625 71.796875 
Q 19.390625 75.984375 28.609375 75.984375 
z
" id="DejaVuSans-66"/>
      <path d="M 48.78125 52.59375 
L 48.78125 44.1875 
Q 44.96875 46.296875 41.140625 47.34375 
Q 37.3125 48.390625 33.40625 48.390625 
Q 24.65625 48.390625 19.8125 42.84375 
Q 14.984375 37.3125 14.984375 27.296875 
Q 14.984375 17.28125 19.8125 11.734375 
Q 24.65625 6.203125 33.40625 6.203125 
Q 37.3125 6.203125 41.140625 7.25 
Q 44.96875 8.296875 48.78125 10.40625 
L 48.78125 2.09375 
Q 45.015625 0.34375 40.984375 -0.53125 
Q 36.96875 -1.421875 32.421875 -1.421875 
Q 20.0625 -1.421875 12.78125 6.34375 
Q 5.515625 14.109375 5.515625 27.296875 
Q 5.515625 40.671875 12.859375 48.328125 
Q 20.21875 56 33.015625 56 
Q 37.15625 56 41.109375 55.140625 
Q 45.0625 54.296875 48.78125 52.59375 
z
" id="DejaVuSans-63"/>
      <path d="M 18.3125 70.21875 
L 18.3125 54.6875 
L 36.8125 54.6875 
L 36.8125 47.703125 
L 18.3125 47.703125 
L 18.3125 18.015625 
Q 18.3125 11.328125 20.140625 9.421875 
Q 21.96875 7.515625 27.59375 7.515625 
L 36.8125 7.515625 
L 36.8125 0 
L 27.59375 0 
Q 17.1875 0 13.234375 3.875 
Q 9.28125 7.765625 9.28125 18.015625 
L 9.28125 47.703125 
L 2.6875 47.703125 
L 2.6875 54.6875 
L 9.28125 54.6875 
L 9.28125 70.21875 
z
" id="DejaVuSans-74"/>
      <path d="M 9.421875 54.6875 
L 18.40625 54.6875 
L 18.40625 0 
L 9.421875 0 
z
M 9.421875 75.984375 
L 18.40625 75.984375 
L 18.40625 64.59375 
L 9.421875 64.59375 
z
" id="DejaVuSans-69"/>
      <path d="M 30.609375 48.390625 
Q 23.390625 48.390625 19.1875 42.75 
Q 14.984375 37.109375 14.984375 27.296875 
Q 14.984375 17.484375 19.15625 11.84375 
Q 23.34375 6.203125 30.609375 6.203125 
Q 37.796875 6.203125 41.984375 11.859375 
Q 46.1875 17.53125 46.1875 27.296875 
Q 46.1875 37.015625 41.984375 42.703125 
Q 37.796875 48.390625 30.609375 48.390625 
z
M 30.609375 56 
Q 42.328125 56 49.015625 48.375 
Q 55.71875 40.765625 55.71875 27.296875 
Q 55.71875 13.875 49.015625 6.21875 
Q 42.328125 -1.421875 30.609375 -1.421875 
Q 18.84375 -1.421875 12.171875 6.21875 
Q 5.515625 13.875 5.515625 27.296875 
Q 5.515625 40.765625 12.171875 48.375 
Q 18.84375 56 30.609375 56 
z
" id="DejaVuSans-6f"/>
      <path d="M 54.890625 33.015625 
L 54.890625 0 
L 45.90625 0 
L 45.90625 32.71875 
Q 45.90625 40.484375 42.875 44.328125 
Q 39.84375 48.1875 33.796875 48.1875 
Q 26.515625 48.1875 22.3125 43.546875 
Q 18.109375 38.921875 18.109375 30.90625 
L 18.109375 0 
L 9.078125 0 
L 9.078125 54.6875 
L 18.109375 54.6875 
L 18.109375 46.1875 
Q 21.34375 51.125 25.703125 53.5625 
Q 30.078125 56 35.796875 56 
Q 45.21875 56 50.046875 50.171875 
Q 54.890625 44.34375 54.890625 33.015625 
z
" id="DejaVuSans-6e"/>
     </defs>
     <g transform="translate(8.918906 83.058375)rotate(-90)scale(0.07 -0.07)">
      <use xlink:href="#DejaVuSans-66"/>
      <use x="35.205078" xlink:href="#DejaVuSans-72"/>
      <use x="76.318359" xlink:href="#DejaVuSans-61"/>
      <use x="137.597656" xlink:href="#DejaVuSans-63"/>
      <use x="192.578125" xlink:href="#DejaVuSans-74"/>
      <use x="231.787109" xlink:href="#DejaVuSans-69"/>
      <use x="259.570312" xlink:href="#DejaVuSans-6f"/>
      <use x="320.751953" xlink:href="#DejaVuSans-6e"/>
     </g>
    </g>
   </g>
   <g id="line2d_13">
    <path clip-path="url(#pdca1ba913e)" d="M 30.916563 124.025892 
L 32.614823 123.919936 
L 34.313084 123.777385 
L 36.011345 123.600479 
L 37.709606 123.392378 
L 39.407867 123.163663 
L 41.106128 122.904177 
L 42.804389 122.625638 
L 44.502649 122.326609 
L 46.20091 122.012544 
L 47.899171 121.677922 
L 49.597432 121.322007 
L 51.295693 120.955422 
L 52.993954 120.578725 
L 54.692215 120.275605 
L 56.390476 120.046937 
L 58.088736 119.901 
L 59.786997 119.819147 
L 61.485258 119.810508 
L 63.183519 119.842489 
L 64.88178 119.768811 
L 66.580041 119.701886 
L 68.278302 119.465036 
L 69.976563 119.242308 
L 71.674823 118.894515 
L 73.373084 118.42988 
L 75.071345 117.917622 
L 76.769606 117.372857 
L 78.467867 116.80115 
L 80.166128 116.237674 
L 81.864389 115.739839 
L 83.562649 115.406612 
L 85.26091 115.256768 
L 86.959171 115.136458 
L 88.657432 114.911324 
L 90.355693 114.618532 
L 92.053954 114.400766 
L 93.752215 113.984606 
L 95.450476 113.562462 
L 97.148736 113.098863 
L 98.846997 112.824216 
L 100.545258 112.507171 
L 102.243519 112.2884 
L 103.94178 112.199941 
L 105.640041 112.300782 
L 107.338302 112.456241 
L 109.036563 112.404849 
L 110.734823 112.272213 
L 112.433084 112.034506 
L 114.131345 111.73279 
L 115.829606 111.346797 
L 117.527867 110.910305 
L 119.226128 110.454407 
L 120.924389 109.932283 
L 122.622649 109.382059 
L 124.32091 108.747099 
L 126.019171 108.108923 
L 127.717432 107.503457 
L 129.415693 106.898432 
L 131.113954 106.214604 
L 132.812215 105.52771 
L 134.510476 104.880554 
L 136.208736 104.224708 
L 137.906997 103.608638 
L 139.605258 102.964135 
L 141.303519 102.384285 
L 143.00178 101.843623 
L 144.700041 101.308723 
L 146.398302 100.801783 
L 148.096563 100.302345 
L 149.794823 99.886698 
L 151.493084 99.489025 
L 153.191345 99.074556 
L 154.889606 98.627166 
L 156.587867 98.28584 
L 158.286128 97.946614 
L 159.984389 97.560459 
L 161.682649 97.070872 
L 163.38091 96.549064 
L 165.079171 96.074982 
L 166.777432 95.635294 
L 168.475693 95.164366 
L 170.173954 94.713849 
L 171.872215 94.25716 
L 173.570476 93.846491 
L 175.268736 93.458457 
L 176.966997 93.059491 
L 178.665258 92.658689 
L 180.363519 92.270313 
L 182.06178 92.046081 
L 183.760041 91.850129 
L 185.458302 91.51598 
L 187.156563 91.34932 
L 188.854823 91.030975 
L 190.553084 90.675523 
L 192.251345 90.404916 
L 193.949606 90.0867 
L 195.647867 89.759483 
L 197.346128 89.564001 
L 199.044389 89.347836 
L 200.742649 89.106502 
L 202.44091 88.76679 
L 204.139171 88.350893 
L 205.837432 87.863137 
L 207.535693 87.307244 
L 209.233954 86.708677 
L 210.932215 85.992705 
L 212.630476 85.218352 
L 214.328736 84.466291 
L 216.026997 83.628066 
L 217.725258 82.748869 
L 219.423519 81.747952 
L 221.12178 80.74664 
L 222.820041 79.694838 
L 224.518302 78.695225 
L 226.216563 77.771219 
" style="fill:none;"/>
   </g>
   <g id="line2d_14">
    <path clip-path="url(#pdca1ba913e)" d="M 30.916563 64.710377 
L 32.614823 64.499497 
L 34.313084 64.297582 
L 36.011345 64.085384 
L 37.709606 63.878031 
L 39.407867 63.64494 
L 41.106128 63.401638 
L 42.804389 63.171769 
L 44.502649 62.90803 
L 46.20091 62.643195 
L 47.899171 62.402878 
L 49.597432 62.168351 
L 51.295693 61.952839 
L 52.993954 61.768852 
L 54.692215 61.572912 
L 56.390476 61.413124 
L 58.088736 61.290257 
L 59.786997 61.205341 
L 61.485258 61.102755 
L 63.183519 61.081315 
L 64.88178 60.992193 
L 66.580041 60.895295 
L 68.278302 60.722426 
L 69.976563 60.582339 
L 71.674823 60.364174 
L 73.373084 60.13689 
L 75.071345 59.869307 
L 76.769606 59.561456 
L 78.467867 59.255718 
L 80.166128 58.971269 
L 81.864389 58.714247 
L 83.562649 58.466118 
L 85.26091 58.265529 
L 86.959171 58.099026 
L 88.657432 57.882538 
L 90.355693 57.653496 
L 92.053954 57.43566 
L 93.752215 57.122258 
L 95.450476 56.772873 
L 97.148736 56.42725 
L 98.846997 56.122696 
L 100.545258 55.788188 
L 102.243519 55.528339 
L 103.94178 55.307444 
L 105.640041 55.118443 
L 107.338302 54.932891 
L 109.036563 54.620396 
L 110.734823 54.232418 
L 112.433084 53.801563 
L 114.131345 53.317713 
L 115.829606 52.756917 
L 117.527867 52.161799 
L 119.226128 51.549092 
L 120.924389 50.942756 
L 122.622649 50.316695 
L 124.32091 49.667342 
L 126.019171 49.007068 
L 127.717432 48.38214 
L 129.415693 47.731524 
L 131.113954 47.064663 
L 132.812215 46.420842 
L 134.510476 45.780751 
L 136.208736 45.152983 
L 137.906997 44.554868 
L 139.605258 43.970382 
L 141.303519 43.442551 
L 143.00178 42.909604 
L 144.700041 42.429653 
L 146.398302 41.974145 
L 148.096563 41.564951 
L 149.794823 41.146098 
L 151.493084 40.786364 
L 153.191345 40.414581 
L 154.889606 40.077223 
L 156.587867 39.772525 
L 158.286128 39.515574 
L 159.984389 39.327199 
L 161.682649 39.095042 
L 163.38091 38.866684 
L 165.079171 38.652508 
L 166.777432 38.474003 
L 168.475693 38.30519 
L 170.173954 38.188949 
L 171.872215 38.101177 
L 173.570476 38.0762 
L 175.268736 38.057622 
L 176.966997 38.021194 
L 178.665258 37.990171 
L 180.363519 37.966889 
L 182.06178 37.996576 
L 183.760041 38.041085 
L 185.458302 37.94283 
L 187.156563 37.893781 
L 188.854823 37.79666 
L 190.553084 37.683114 
L 192.251345 37.70776 
L 193.949606 37.692271 
L 195.647867 37.635083 
L 197.346128 37.630727 
L 199.044389 37.60491 
L 200.742649 37.568964 
L 202.44091 37.463441 
L 204.139171 37.293371 
L 205.837432 37.102299 
L 207.535693 36.859132 
L 209.233954 36.604184 
L 210.932215 36.302775 
L 212.630476 35.984095 
L 214.328736 35.670996 
L 216.026997 35.317475 
L 217.725258 34.953479 
L 219.423519 34.531383 
L 221.12178 34.113673 
L 222.820041 33.681779 
L 224.518302 33.261612 
L 226.216563 32.891485 
" style="fill:none;"/>
   </g>
   <g id="line2d_15">
    <path clip-path="url(#pdca1ba913e)" d="M 30.916563 25.238573 
L 32.614823 25.19485 
L 34.313084 25.1598 
L 36.011345 25.120334 
L 37.709606 25.086023 
L 39.407867 25.067334 
L 41.106128 25.025397 
L 42.804389 25.027917 
L 44.502649 24.985556 
L 46.20091 24.957001 
L 47.899171 24.952874 
L 49.597432 24.93844 
L 51.295693 24.94658 
L 52.993954 24.989057 
L 54.692215 24.969167 
L 56.390476 24.961106 
L 58.088736 24.98589 
L 59.786997 25.03235 
L 61.485258 25.056465 
L 63.183519 25.094526 
L 64.88178 25.127008 
L 66.580041 25.108868 
L 68.278302 25.100813 
L 69.976563 25.136315 
L 71.674823 25.144212 
L 73.373084 25.166489 
L 75.071345 25.180173 
L 76.769606 25.195109 
L 78.467867 25.212129 
L 80.166128 25.253157 
L 81.864389 25.285032 
L 83.562649 25.274573 
L 85.26091 25.254899 
L 86.959171 25.260199 
L 88.657432 25.272828 
L 90.355693 25.299688 
L 92.053954 25.35554 
L 93.752215 25.407838 
L 95.450476 25.415395 
L 97.148736 25.454492 
L 98.846997 25.509803 
L 100.545258 25.573928 
L 102.243519 25.67567 
L 103.94178 25.794175 
L 105.640041 25.915575 
L 107.338302 26.022702 
L 109.036563 26.086486 
L 110.734823 26.145478 
L 112.433084 26.206964 
L 114.131345 26.252875 
L 115.829606 26.296074 
L 117.527867 26.337803 
L 119.226128 26.376894 
L 120.924389 26.430977 
L 122.622649 26.493674 
L 124.32091 26.520354 
L 126.019171 26.553602 
L 127.717432 26.606089 
L 129.415693 26.620009 
L 131.113954 26.626993 
L 132.812215 26.656757 
L 134.510476 26.664457 
L 136.208736 26.658327 
L 137.906997 26.655854 
L 139.605258 26.666415 
L 141.303519 26.704432 
L 143.00178 26.725352 
L 144.700041 26.726754 
L 146.398302 26.752273 
L 148.096563 26.782617 
L 149.794823 26.812316 
L 151.493084 26.828966 
L 153.191345 26.837795 
L 154.889606 26.864043 
L 156.587867 26.887844 
L 158.286128 26.875041 
L 159.984389 26.8508 
L 161.682649 26.797385 
L 163.38091 26.752765 
L 165.079171 26.735241 
L 166.777432 26.707711 
L 168.475693 26.658771 
L 170.173954 26.574072 
L 171.872215 26.492652 
L 173.570476 26.424959 
L 175.268736 26.356406 
L 176.966997 26.287058 
L 178.665258 26.205301 
L 180.363519 26.099924 
L 182.06178 26.036328 
L 183.760041 25.949505 
L 185.458302 25.84905 
L 187.156563 25.751941 
L 188.854823 25.600724 
L 190.553084 25.431465 
L 192.251345 25.206825 
L 193.949606 24.992051 
L 195.647867 24.811796 
L 197.346128 24.627842 
L 199.044389 24.453735 
L 200.742649 24.300862 
L 202.44091 24.145833 
L 204.139171 24.00653 
L 205.837432 23.8578 
L 207.535693 23.736919 
L 209.233954 23.62086 
L 210.932215 23.490475 
L 212.630476 23.358231 
L 214.328736 23.222064 
L 216.026997 23.042337 
L 217.725258 22.868542 
L 219.423519 22.669037 
L 221.12178 22.46633 
L 222.820041 22.261849 
L 224.518302 22.06316 
L 226.216563 21.890857 
" style="fill:none;"/>
   </g>
   <g id="line2d_16">
    <path clip-path="url(#pdca1ba913e)" d="M 30.916563 25.238573 
L 32.614823 25.19485 
L 34.313084 25.1598 
L 36.011345 25.120334 
L 37.709606 25.086023 
L 39.407867 25.067334 
L 41.106128 25.025397 
L 42.804389 25.027917 
L 44.502649 24.985556 
L 46.20091 24.957001 
L 47.899171 24.952874 
L 49.597432 24.93844 
L 51.295693 24.94658 
L 52.993954 24.989057 
L 54.692215 24.969167 
L 56.390476 24.961106 
L 58.088736 24.98589 
L 59.786997 25.03235 
L 61.485258 25.056465 
L 63.183519 25.094526 
L 64.88178 25.127008 
L 66.580041 25.105239 
L 68.278302 25.090074 
L 69.976563 25.111591 
L 71.674823 25.098931 
L 73.373084 25.094528 
L 75.071345 25.075832 
L 76.769606 25.053159 
L 78.467867 25.027259 
L 80.166128 25.020996 
L 81.864389 25.000965 
L 83.562649 24.933805 
L 85.26091 24.851408 
L 86.959171 24.788387 
L 88.657432 24.726904 
L 90.355693 24.673142 
L 92.053954 24.641503 
L 93.752215 24.600539 
L 95.450476 24.506547 
L 97.148736 24.435317 
L 98.846997 24.370551 
L 100.545258 24.304989 
L 102.243519 24.264185 
L 103.94178 24.226912 
L 105.640041 24.176898 
L 107.338302 24.097028 
L 109.036563 23.962613 
L 110.734823 23.813499 
L 112.433084 23.655547 
L 114.131345 23.469752 
L 115.829606 23.257009 
L 117.527867 23.047831 
L 119.226128 22.826078 
L 120.924389 22.62168 
L 122.622649 22.434135 
L 124.32091 22.214631 
L 126.019171 21.985524 
L 127.717432 21.772702 
L 129.415693 21.533846 
L 131.113954 21.297756 
L 132.812215 21.088696 
L 134.510476 20.857782 
L 136.208736 20.620296 
L 137.906997 20.386757 
L 139.605258 20.169512 
L 141.303519 19.976925 
L 143.00178 19.769216 
L 144.700041 19.552725 
L 146.398302 19.359184 
L 148.096563 19.187522 
L 149.794823 18.99683 
L 151.493084 18.819275 
L 153.191345 18.609439 
L 154.889606 18.437953 
L 156.587867 18.261242 
L 158.286128 18.077169 
L 159.984389 17.947361 
L 161.682649 17.819224 
L 163.38091 17.694277 
L 165.079171 17.579232 
L 166.777432 17.465779 
L 168.475693 17.367367 
L 170.173954 17.263423 
L 171.872215 17.175839 
L 173.570476 17.097964 
L 175.268736 17.023444 
L 176.966997 16.945529 
L 178.665258 16.867258 
L 180.363519 16.780278 
L 182.06178 16.714017 
L 183.760041 16.643706 
L 185.458302 16.533105 
L 187.156563 16.419373 
L 188.854823 16.282132 
L 190.553084 16.145859 
L 192.251345 15.99026 
L 193.949606 15.843039 
L 195.647867 15.715097 
L 197.346128 15.571043 
L 199.044389 15.439833 
L 200.742649 15.321326 
L 202.44091 15.207653 
L 204.139171 15.111121 
L 205.837432 15.019369 
L 207.535693 14.934899 
L 209.233954 14.858308 
L 210.932215 14.781306 
L 212.630476 14.714902 
L 214.328736 14.648129 
L 216.026997 14.558536 
L 217.725258 14.488687 
L 219.423519 14.417779 
L 221.12178 14.351748 
L 222.820041 14.293917 
L 224.518302 14.241638 
L 226.216563 14.202042 
" style="fill:none;"/>
   </g>
   <g id="line2d_17">
    <path clip-path="url(#pdca1ba913e)" d="M 30.916563 22.136632 
L 32.614823 21.977799 
L 34.313084 21.82979 
L 36.011345 21.681337 
L 37.709606 21.540129 
L 39.407867 21.388248 
L 41.106128 21.242504 
L 42.804389 21.091909 
L 44.502649 20.94464 
L 46.20091 20.792467 
L 47.899171 20.645372 
L 49.597432 20.506733 
L 51.295693 20.369972 
L 52.993954 20.234455 
L 54.692215 20.124092 
L 56.390476 20.028968 
L 58.088736 19.936204 
L 59.786997 19.861011 
L 61.485258 19.789306 
L 63.183519 19.749503 
L 64.88178 19.695606 
L 66.580041 19.656603 
L 68.278302 19.595177 
L 69.976563 19.532953 
L 71.674823 19.456056 
L 73.373084 19.370213 
L 75.071345 19.27541 
L 76.769606 19.169193 
L 78.467867 19.063652 
L 80.166128 18.955392 
L 81.864389 18.860796 
L 83.562649 18.785842 
L 85.26091 18.735015 
L 86.959171 18.687732 
L 88.657432 18.621512 
L 90.355693 18.54803 
L 92.053954 18.46948 
L 93.752215 18.358743 
L 95.450476 18.251585 
L 97.148736 18.138037 
L 98.846997 18.030097 
L 100.545258 17.916076 
L 102.243519 17.813035 
L 103.94178 17.71666 
L 105.640041 17.633969 
L 107.338302 17.558606 
L 109.036563 17.455137 
L 110.734823 17.326676 
L 112.433084 17.178209 
L 114.131345 17.01321 
L 115.829606 16.823819 
L 117.527867 16.624926 
L 119.226128 16.422131 
L 120.924389 16.219282 
L 122.622649 16.009036 
L 124.32091 15.800851 
L 126.019171 15.584155 
L 127.717432 15.372003 
L 129.415693 15.164709 
L 131.113954 14.955447 
L 132.812215 14.743715 
L 134.510476 14.535328 
L 136.208736 14.330808 
L 137.906997 14.136219 
L 139.605258 13.951531 
L 141.303519 13.7868 
L 143.00178 13.621655 
L 144.700041 13.467089 
L 146.398302 13.318041 
L 148.096563 13.178771 
L 149.794823 13.031019 
L 151.493084 12.897657 
L 153.191345 12.750854 
L 154.889606 12.622741 
L 156.587867 12.487578 
L 158.286128 12.346226 
L 159.984389 12.245857 
L 161.682649 12.15219 
L 163.38091 12.060243 
L 165.079171 11.973632 
L 166.777432 11.889506 
L 168.475693 11.813631 
L 170.173954 11.741002 
L 171.872215 11.683388 
L 173.570476 11.629521 
L 175.268736 11.576979 
L 176.966997 11.527838 
L 178.665258 11.481166 
L 180.363519 11.428956 
L 182.06178 11.38634 
L 183.760041 11.34146 
L 185.458302 11.276635 
L 187.156563 11.20738 
L 188.854823 11.129081 
L 190.553084 11.053855 
L 192.251345 10.969536 
L 193.949606 10.888696 
L 195.647867 10.821043 
L 197.346128 10.741426 
L 199.044389 10.673173 
L 200.742649 10.609254 
L 202.44091 10.544623 
L 204.139171 10.489703 
L 205.837432 10.437409 
L 207.535693 10.389458 
L 209.233954 10.341055 
L 210.932215 10.291653 
L 212.630476 10.243469 
L 214.328736 10.192261 
L 216.026997 10.12742 
L 217.725258 10.073339 
L 219.423519 10.018887 
L 221.12178 9.969934 
L 222.820041 9.923367 
L 224.518302 9.885399 
L 226.216563 9.857371 
" style="fill:none;"/>
   </g>
   <g id="line2d_18">
    <path clip-path="url(#pdca1ba913e)" d="M 30.916563 7.1 
L 32.614823 7.1 
L 34.313084 7.1 
L 36.011345 7.1 
L 37.709606 7.1 
L 39.407867 7.1 
L 41.106128 7.1 
L 42.804389 7.1 
L 44.502649 7.1 
L 46.20091 7.1 
L 47.899171 7.1 
L 49.597432 7.1 
L 51.295693 7.1 
L 52.993954 7.1 
L 54.692215 7.1 
L 56.390476 7.1 
L 58.088736 7.1 
L 59.786997 7.1 
L 61.485258 7.1 
L 63.183519 7.1 
L 64.88178 7.1 
L 66.580041 7.1 
L 68.278302 7.1 
L 69.976563 7.1 
L 71.674823 7.1 
L 73.373084 7.1 
L 75.071345 7.1 
L 76.769606 7.1 
L 78.467867 7.1 
L 80.166128 7.1 
L 81.864389 7.1 
L 83.562649 7.1 
L 85.26091 7.1 
L 86.959171 7.1 
L 88.657432 7.1 
L 90.355693 7.1 
L 92.053954 7.1 
L 93.752215 7.1 
L 95.450476 7.1 
L 97.148736 7.1 
L 98.846997 7.1 
L 100.545258 7.1 
L 102.243519 7.1 
L 103.94178 7.1 
L 105.640041 7.1 
L 107.338302 7.1 
L 109.036563 7.1 
L 110.734823 7.1 
L 112.433084 7.1 
L 114.131345 7.1 
L 115.829606 7.1 
L 117.527867 7.1 
L 119.226128 7.1 
L 120.924389 7.1 
L 122.622649 7.1 
L 124.32091 7.1 
L 126.019171 7.1 
L 127.717432 7.1 
L 129.415693 7.1 
L 131.113954 7.1 
L 132.812215 7.1 
L 134.510476 7.1 
L 136.208736 7.1 
L 137.906997 7.1 
L 139.605258 7.1 
L 141.303519 7.1 
L 143.00178 7.1 
L 144.700041 7.1 
L 146.398302 7.1 
L 148.096563 7.1 
L 149.794823 7.1 
L 151.493084 7.1 
L 153.191345 7.1 
L 154.889606 7.1 
L 156.587867 7.1 
L 158.286128 7.1 
L 159.984389 7.1 
L 161.682649 7.1 
L 163.38091 7.1 
L 165.079171 7.1 
L 166.777432 7.1 
L 168.475693 7.1 
L 170.173954 7.1 
L 171.872215 7.1 
L 173.570476 7.1 
L 175.268736 7.1 
L 176.966997 7.1 
L 178.665258 7.1 
L 180.363519 7.1 
L 182.06178 7.1 
L 183.760041 7.1 
L 185.458302 7.1 
L 187.156563 7.1 
L 188.854823 7.1 
L 190.553084 7.1 
L 192.251345 7.1 
L 193.949606 7.1 
L 195.647867 7.1 
L 197.346128 7.1 
L 199.044389 7.1 
L 200.742649 7.1 
L 202.44091 7.1 
L 204.139171 7.1 
L 205.837432 7.1 
L 207.535693 7.1 
L 209.233954 7.1 
L 210.932215 7.1 
L 212.630476 7.1 
L 214.328736 7.1 
L 216.026997 7.1 
L 217.725258 7.1 
L 219.423519 7.1 
L 221.12178 7.1 
L 222.820041 7.1 
L 224.518302 7.1 
L 226.216563 7.1 
" style="fill:none;"/>
   </g>
   <g id="patch_3">
    <path d="M 30.916563 132.128 
L 30.916563 7.1 
" style="fill:none;stroke:#000000;stroke-linecap:square;stroke-linejoin:miter;stroke-width:0.8;"/>
   </g>
   <g id="patch_4">
    <path d="M 30.916563 132.128 
L 226.216563 132.128 
" style="fill:none;stroke:#000000;stroke-linecap:square;stroke-linejoin:miter;stroke-width:0.8;"/>
   </g>
   <g id="legend_1">
    <g id="patch_5">
     <path d="M 230.416562 96.934625 
L 322.331875 96.934625 
Q 323.531875 96.934625 323.531875 95.734625 
L 323.531875 43.493375 
Q 323.531875 42.293375 322.331875 42.293375 
L 230.416562 42.293375 
Q 229.216563 42.293375 229.216563 43.493375 
L 229.216563 95.734625 
Q 229.216563 96.934625 230.416562 96.934625 
z
" style="fill:#ffffff;opacity:0.8;stroke:#cccccc;stroke-linejoin:miter;"/>
    </g>
    <g id="patch_6">
     <path d="M 231.616563 49.252438 
L 243.616563 49.252438 
L 243.616563 45.052438 
L 231.616563 45.052438 
z
" style="fill:#fdc832;"/>
    </g>
    <g id="text_15">
     <!-- wood, glass and plastic -->
     <defs>
      <path d="M 4.203125 54.6875 
L 13.1875 54.6875 
L 24.421875 12.015625 
L 35.59375 54.6875 
L 46.1875 54.6875 
L 57.421875 12.015625 
L 68.609375 54.6875 
L 77.59375 54.6875 
L 63.28125 0 
L 52.6875 0 
L 40.921875 44.828125 
L 29.109375 0 
L 18.5 0 
z
" id="DejaVuSans-77"/>
      <path d="M 45.40625 46.390625 
L 45.40625 75.984375 
L 54.390625 75.984375 
L 54.390625 0 
L 45.40625 0 
L 45.40625 8.203125 
Q 42.578125 3.328125 38.25 0.953125 
Q 33.9375 -1.421875 27.875 -1.421875 
Q 17.96875 -1.421875 11.734375 6.484375 
Q 5.515625 14.40625 5.515625 27.296875 
Q 5.515625 40.1875 11.734375 48.09375 
Q 17.96875 56 27.875 56 
Q 33.9375 56 38.25 53.625 
Q 42.578125 51.265625 45.40625 46.390625 
z
M 14.796875 27.296875 
Q 14.796875 17.390625 18.875 11.75 
Q 22.953125 6.109375 30.078125 6.109375 
Q 37.203125 6.109375 41.296875 11.75 
Q 45.40625 17.390625 45.40625 27.296875 
Q 45.40625 37.203125 41.296875 42.84375 
Q 37.203125 48.484375 30.078125 48.484375 
Q 22.953125 48.484375 18.875 42.84375 
Q 14.796875 37.203125 14.796875 27.296875 
z
" id="DejaVuSans-64"/>
      <path d="M 11.71875 12.40625 
L 22.015625 12.40625 
L 22.015625 4 
L 14.015625 -11.625 
L 7.71875 -11.625 
L 11.71875 4 
z
" id="DejaVuSans-2c"/>
      <path id="DejaVuSans-20"/>
      <path d="M 45.40625 27.984375 
Q 45.40625 37.75 41.375 43.109375 
Q 37.359375 48.484375 30.078125 48.484375 
Q 22.859375 48.484375 18.828125 43.109375 
Q 14.796875 37.75 14.796875 27.984375 
Q 14.796875 18.265625 18.828125 12.890625 
Q 22.859375 7.515625 30.078125 7.515625 
Q 37.359375 7.515625 41.375 12.890625 
Q 45.40625 18.265625 45.40625 27.984375 
z
M 54.390625 6.78125 
Q 54.390625 -7.171875 48.1875 -13.984375 
Q 42 -20.796875 29.203125 -20.796875 
Q 24.46875 -20.796875 20.265625 -20.09375 
Q 16.0625 -19.390625 12.109375 -17.921875 
L 12.109375 -9.1875 
Q 16.0625 -11.328125 19.921875 -12.34375 
Q 23.78125 -13.375 27.78125 -13.375 
Q 36.625 -13.375 41.015625 -8.765625 
Q 45.40625 -4.15625 45.40625 5.171875 
L 45.40625 9.625 
Q 42.625 4.78125 38.28125 2.390625 
Q 33.9375 0 27.875 0 
Q 17.828125 0 11.671875 7.65625 
Q 5.515625 15.328125 5.515625 27.984375 
Q 5.515625 40.671875 11.671875 48.328125 
Q 17.828125 56 27.875 56 
Q 33.9375 56 38.28125 53.609375 
Q 42.625 51.21875 45.40625 46.390625 
L 45.40625 54.6875 
L 54.390625 54.6875 
z
" id="DejaVuSans-67"/>
      <path d="M 9.421875 75.984375 
L 18.40625 75.984375 
L 18.40625 0 
L 9.421875 0 
z
" id="DejaVuSans-6c"/>
      <path d="M 44.28125 53.078125 
L 44.28125 44.578125 
Q 40.484375 46.53125 36.375 47.5 
Q 32.28125 48.484375 27.875 48.484375 
Q 21.1875 48.484375 17.84375 46.4375 
Q 14.5 44.390625 14.5 40.28125 
Q 14.5 37.15625 16.890625 35.375 
Q 19.28125 33.59375 26.515625 31.984375 
L 29.59375 31.296875 
Q 39.15625 29.25 43.1875 25.515625 
Q 47.21875 21.78125 47.21875 15.09375 
Q 47.21875 7.46875 41.1875 3.015625 
Q 35.15625 -1.421875 24.609375 -1.421875 
Q 20.21875 -1.421875 15.453125 -0.5625 
Q 10.6875 0.296875 5.421875 2 
L 5.421875 11.28125 
Q 10.40625 8.6875 15.234375 7.390625 
Q 20.0625 6.109375 24.8125 6.109375 
Q 31.15625 6.109375 34.5625 8.28125 
Q 37.984375 10.453125 37.984375 14.40625 
Q 37.984375 18.0625 35.515625 20.015625 
Q 33.0625 21.96875 24.703125 23.78125 
L 21.578125 24.515625 
Q 13.234375 26.265625 9.515625 29.90625 
Q 5.8125 33.546875 5.8125 39.890625 
Q 5.8125 47.609375 11.28125 51.796875 
Q 16.75 56 26.8125 56 
Q 31.78125 56 36.171875 55.265625 
Q 40.578125 54.546875 44.28125 53.078125 
z
" id="DejaVuSans-73"/>
      <path d="M 18.109375 8.203125 
L 18.109375 -20.796875 
L 9.078125 -20.796875 
L 9.078125 54.6875 
L 18.109375 54.6875 
L 18.109375 46.390625 
Q 20.953125 51.265625 25.265625 53.625 
Q 29.59375 56 35.59375 56 
Q 45.5625 56 51.78125 48.09375 
Q 58.015625 40.1875 58.015625 27.296875 
Q 58.015625 14.40625 51.78125 6.484375 
Q 45.5625 -1.421875 35.59375 -1.421875 
Q 29.59375 -1.421875 25.265625 0.953125 
Q 20.953125 3.328125 18.109375 8.203125 
z
M 48.6875 27.296875 
Q 48.6875 37.203125 44.609375 42.84375 
Q 40.53125 48.484375 33.40625 48.484375 
Q 26.265625 48.484375 22.1875 42.84375 
Q 18.109375 37.203125 18.109375 27.296875 
Q 18.109375 17.390625 22.1875 11.75 
Q 26.265625 6.109375 33.40625 6.109375 
Q 40.53125 6.109375 44.609375 11.75 
Q 48.6875 17.390625 48.6875 27.296875 
z
" id="DejaVuSans-70"/>
     </defs>
     <g transform="translate(248.416563 49.252438)scale(0.06 -0.06)">
      <use xlink:href="#DejaVuSans-77"/>
      <use x="81.787109" xlink:href="#DejaVuSans-6f"/>
      <use x="142.96875" xlink:href="#DejaVuSans-6f"/>
      <use x="204.150391" xlink:href="#DejaVuSans-64"/>
      <use x="267.626953" xlink:href="#DejaVuSans-2c"/>
      <use x="299.414062" xlink:href="#DejaVuSans-20"/>
      <use x="331.201172" xlink:href="#DejaVuSans-67"/>
      <use x="394.677734" xlink:href="#DejaVuSans-6c"/>
      <use x="422.460938" xlink:href="#DejaVuSans-61"/>
      <use x="483.740234" xlink:href="#DejaVuSans-73"/>
      <use x="535.839844" xlink:href="#DejaVuSans-73"/>
      <use x="587.939453" xlink:href="#DejaVuSans-20"/>
      <use x="619.726562" xlink:href="#DejaVuSans-61"/>
      <use x="681.005859" xlink:href="#DejaVuSans-6e"/>
      <use x="744.384766" xlink:href="#DejaVuSans-64"/>
      <use x="807.861328" xlink:href="#DejaVuSans-20"/>
      <use x="839.648438" xlink:href="#DejaVuSans-70"/>
      <use x="903.125" xlink:href="#DejaVuSans-6c"/>
      <use x="930.908203" xlink:href="#DejaVuSans-61"/>
      <use x="992.1875" xlink:href="#DejaVuSans-73"/>
      <use x="1044.287109" xlink:href="#DejaVuSans-74"/>
      <use x="1083.496094" xlink:href="#DejaVuSans-69"/>
      <use x="1111.279297" xlink:href="#DejaVuSans-63"/>
     </g>
    </g>
    <g id="patch_7">
     <path d="M 231.616563 58.059313 
L 243.616563 58.059313 
L 243.616563 53.859313 
L 231.616563 53.859313 
z
" style="fill:#9b111e;"/>
    </g>
    <g id="text_16">
     <!-- metals -->
     <defs>
      <path d="M 52 44.1875 
Q 55.375 50.25 60.0625 53.125 
Q 64.75 56 71.09375 56 
Q 79.640625 56 84.28125 50.015625 
Q 88.921875 44.046875 88.921875 33.015625 
L 88.921875 0 
L 79.890625 0 
L 79.890625 32.71875 
Q 79.890625 40.578125 77.09375 44.375 
Q 74.3125 48.1875 68.609375 48.1875 
Q 61.625 48.1875 57.5625 43.546875 
Q 53.515625 38.921875 53.515625 30.90625 
L 53.515625 0 
L 44.484375 0 
L 44.484375 32.71875 
Q 44.484375 40.625 41.703125 44.40625 
Q 38.921875 48.1875 33.109375 48.1875 
Q 26.21875 48.1875 22.15625 43.53125 
Q 18.109375 38.875 18.109375 30.90625 
L 18.109375 0 
L 9.078125 0 
L 9.078125 54.6875 
L 18.109375 54.6875 
L 18.109375 46.1875 
Q 21.1875 51.21875 25.484375 53.609375 
Q 29.78125 56 35.6875 56 
Q 41.65625 56 45.828125 52.96875 
Q 50 49.953125 52 44.1875 
z
" id="DejaVuSans-6d"/>
     </defs>
     <g transform="translate(248.416563 58.059313)scale(0.06 -0.06)">
      <use xlink:href="#DejaVuSans-6d"/>
      <use x="97.412109" xlink:href="#DejaVuSans-65"/>
      <use x="158.935547" xlink:href="#DejaVuSans-74"/>
      <use x="198.144531" xlink:href="#DejaVuSans-61"/>
      <use x="259.423828" xlink:href="#DejaVuSans-6c"/>
      <use x="287.207031" xlink:href="#DejaVuSans-73"/>
     </g>
    </g>
    <g id="patch_8">
     <path d="M 231.616563 66.866188 
L 243.616563 66.866188 
L 243.616563 62.666188 
L 231.616563 62.666188 
z
" style="fill:#333333;"/>
    </g>
    <g id="text_17">
     <!-- asphalt -->
     <defs>
      <path d="M 54.890625 33.015625 
L 54.890625 0 
L 45.90625 0 
L 45.90625 32.71875 
Q 45.90625 40.484375 42.875 44.328125 
Q 39.84375 48.1875 33.796875 48.1875 
Q 26.515625 48.1875 22.3125 43.546875 
Q 18.109375 38.921875 18.109375 30.90625 
L 18.109375 0 
L 9.078125 0 
L 9.078125 75.984375 
L 18.109375 75.984375 
L 18.109375 46.1875 
Q 21.34375 51.125 25.703125 53.5625 
Q 30.078125 56 35.796875 56 
Q 45.21875 56 50.046875 50.171875 
Q 54.890625 44.34375 54.890625 33.015625 
z
" id="DejaVuSans-68"/>
     </defs>
     <g transform="translate(248.416563 66.866188)scale(0.06 -0.06)">
      <use xlink:href="#DejaVuSans-61"/>
      <use x="61.279297" xlink:href="#DejaVuSans-73"/>
      <use x="113.378906" xlink:href="#DejaVuSans-70"/>
      <use x="176.855469" xlink:href="#DejaVuSans-68"/>
      <use x="240.234375" xlink:href="#DejaVuSans-61"/>
      <use x="301.513672" xlink:href="#DejaVuSans-6c"/>
      <use x="329.296875" xlink:href="#DejaVuSans-74"/>
     </g>
    </g>
    <g id="patch_9">
     <path d="M 231.616563 75.673063 
L 243.616563 75.673063 
L 243.616563 71.473063 
L 231.616563 71.473063 
z
" style="fill:#93552f;"/>
    </g>
    <g id="text_18">
     <!-- bricks -->
     <defs>
      <path d="M 48.6875 27.296875 
Q 48.6875 37.203125 44.609375 42.84375 
Q 40.53125 48.484375 33.40625 48.484375 
Q 26.265625 48.484375 22.1875 42.84375 
Q 18.109375 37.203125 18.109375 27.296875 
Q 18.109375 17.390625 22.1875 11.75 
Q 26.265625 6.109375 33.40625 6.109375 
Q 40.53125 6.109375 44.609375 11.75 
Q 48.6875 17.390625 48.6875 27.296875 
z
M 18.109375 46.390625 
Q 20.953125 51.265625 25.265625 53.625 
Q 29.59375 56 35.59375 56 
Q 45.5625 56 51.78125 48.09375 
Q 58.015625 40.1875 58.015625 27.296875 
Q 58.015625 14.40625 51.78125 6.484375 
Q 45.5625 -1.421875 35.59375 -1.421875 
Q 29.59375 -1.421875 25.265625 0.953125 
Q 20.953125 3.328125 18.109375 8.203125 
L 18.109375 0 
L 9.078125 0 
L 9.078125 75.984375 
L 18.109375 75.984375 
z
" id="DejaVuSans-62"/>
      <path d="M 9.078125 75.984375 
L 18.109375 75.984375 
L 18.109375 31.109375 
L 44.921875 54.6875 
L 56.390625 54.6875 
L 27.390625 29.109375 
L 57.625 0 
L 45.90625 0 
L 18.109375 26.703125 
L 18.109375 0 
L 9.078125 0 
z
" id="DejaVuSans-6b"/>
     </defs>
     <g transform="translate(248.416563 75.673063)scale(0.06 -0.06)">
      <use xlink:href="#DejaVuSans-62"/>
      <use x="63.476562" xlink:href="#DejaVuSans-72"/>
      <use x="104.589844" xlink:href="#DejaVuSans-69"/>
      <use x="132.373047" xlink:href="#DejaVuSans-63"/>
      <use x="187.353516" xlink:href="#DejaVuSans-6b"/>
      <use x="245.263672" xlink:href="#DejaVuSans-73"/>
     </g>
    </g>
    <g id="patch_10">
     <path d="M 231.616563 84.479938 
L 243.616563 84.479938 
L 243.616563 80.279938 
L 231.616563 80.279938 
z
" style="fill:#0870de;"/>
    </g>
    <g id="text_19">
     <!-- aggregates (gravel etc.) -->
     <defs>
      <path d="M 31 75.875 
Q 24.46875 64.65625 21.28125 53.65625 
Q 18.109375 42.671875 18.109375 31.390625 
Q 18.109375 20.125 21.3125 9.0625 
Q 24.515625 -2 31 -13.1875 
L 23.1875 -13.1875 
Q 15.875 -1.703125 12.234375 9.375 
Q 8.59375 20.453125 8.59375 31.390625 
Q 8.59375 42.28125 12.203125 53.3125 
Q 15.828125 64.359375 23.1875 75.875 
z
" id="DejaVuSans-28"/>
      <path d="M 2.984375 54.6875 
L 12.5 54.6875 
L 29.59375 8.796875 
L 46.6875 54.6875 
L 56.203125 54.6875 
L 35.6875 0 
L 23.484375 0 
z
" id="DejaVuSans-76"/>
      <path d="M 8.015625 75.875 
L 15.828125 75.875 
Q 23.140625 64.359375 26.78125 53.3125 
Q 30.421875 42.28125 30.421875 31.390625 
Q 30.421875 20.453125 26.78125 9.375 
Q 23.140625 -1.703125 15.828125 -13.1875 
L 8.015625 -13.1875 
Q 14.5 -2 17.703125 9.0625 
Q 20.90625 20.125 20.90625 31.390625 
Q 20.90625 42.671875 17.703125 53.65625 
Q 14.5 64.65625 8.015625 75.875 
z
" id="DejaVuSans-29"/>
     </defs>
     <g transform="translate(248.416563 84.479938)scale(0.06 -0.06)">
      <use xlink:href="#DejaVuSans-61"/>
      <use x="61.279297" xlink:href="#DejaVuSans-67"/>
      <use x="124.755859" xlink:href="#DejaVuSans-67"/>
      <use x="188.232422" xlink:href="#DejaVuSans-72"/>
      <use x="229.314453" xlink:href="#DejaVuSans-65"/>
      <use x="290.837891" xlink:href="#DejaVuSans-67"/>
      <use x="354.314453" xlink:href="#DejaVuSans-61"/>
      <use x="415.59375" xlink:href="#DejaVuSans-74"/>
      <use x="454.802734" xlink:href="#DejaVuSans-65"/>
      <use x="516.326172" xlink:href="#DejaVuSans-73"/>
      <use x="568.425781" xlink:href="#DejaVuSans-20"/>
      <use x="600.212891" xlink:href="#DejaVuSans-28"/>
      <use x="639.226562" xlink:href="#DejaVuSans-67"/>
      <use x="702.703125" xlink:href="#DejaVuSans-72"/>
      <use x="743.816406" xlink:href="#DejaVuSans-61"/>
      <use x="805.095703" xlink:href="#DejaVuSans-76"/>
      <use x="864.275391" xlink:href="#DejaVuSans-65"/>
      <use x="925.798828" xlink:href="#DejaVuSans-6c"/>
      <use x="953.582031" xlink:href="#DejaVuSans-20"/>
      <use x="985.369141" xlink:href="#DejaVuSans-65"/>
      <use x="1046.892578" xlink:href="#DejaVuSans-74"/>
      <use x="1086.101562" xlink:href="#DejaVuSans-63"/>
      <use x="1141.082031" xlink:href="#DejaVuSans-2e"/>
      <use x="1172.869141" xlink:href="#DejaVuSans-29"/>
     </g>
    </g>
    <g id="patch_11">
     <path d="M 231.616563 93.286812 
L 243.616563 93.286812 
L 243.616563 89.086812 
L 231.616563 89.086812 
z
" style="fill:#352a86;"/>
    </g>
    <g id="text_20">
     <!-- concrete -->
     <g transform="translate(248.416563 93.286812)scale(0.06 -0.06)">
      <use xlink:href="#DejaVuSans-63"/>
      <use x="54.980469" xlink:href="#DejaVuSans-6f"/>
      <use x="116.162109" xlink:href="#DejaVuSans-6e"/>
      <use x="179.541016" xlink:href="#DejaVuSans-63"/>
      <use x="234.521484" xlink:href="#DejaVuSans-72"/>
      <use x="275.603516" xlink:href="#DejaVuSans-65"/>
      <use x="337.126953" xlink:href="#DejaVuSans-74"/>
      <use x="376.335938" xlink:href="#DejaVuSans-65"/>
     </g>
    </g>
   </g>
  </g>
 </g>
 <defs>
  <clipPath id="pdca1ba913e">
   <rect height="125.028" width="195.3" x="30.916563" y="7.1"/>
  </clipPath>
 </defs>
</svg>
