<?xml version="1.0" encoding="utf-8" standalone="no"?>
<!DOCTYPE svg PUBLIC "-//W3C//DTD SVG 1.1//EN"
  "http://www.w3.org/Graphics/SVG/1.1/DTD/svg11.dtd">
<!-- Created with matplotlib (http://matplotlib.org/) -->
<svg height="186.489562pt" version="1.1" viewBox="0 0 227.592187 186.489562" width="227.592187pt" xmlns="http://www.w3.org/2000/svg" xmlns:xlink="http://www.w3.org/1999/xlink">
 <defs>
  <style type="text/css">
*{stroke-linecap:butt;stroke-linejoin:round;}
  </style>
 </defs>
 <g id="figure_1">
  <g id="patch_1">
   <path d="M 0 186.489562 
L 227.592187 186.489562 
L 227.592187 0 
L 0 0 
z
" style="fill:#ffffff;"/>
  </g>
  <g id="axes_1">
   <g id="patch_2">
    <path d="M 25.192188 159.308 
L 220.492188 159.308 
L 220.492188 7.1 
L 25.192188 7.1 
z
" style="fill:#ffffff;"/>
   </g>
   <g id="PolyCollection_1">
    <defs>
     <path d="M 25.192187 -28.802998 
L 25.192187 -27.181563 
L 26.617735 -27.181563 
L 28.043282 -27.181563 
L 29.46883 -27.181563 
L 30.894377 -27.181563 
L 32.319925 -27.181563 
L 33.745472 -27.181563 
L 35.17102 -27.181563 
L 36.596567 -27.181563 
L 38.022115 -27.181563 
L 39.447662 -27.181563 
L 40.873209 -27.181563 
L 42.298757 -27.181563 
L 43.724304 -27.181563 
L 45.149852 -27.181563 
L 46.575399 -27.181563 
L 48.000947 -27.181563 
L 49.426494 -27.181563 
L 50.852042 -27.181563 
L 52.277589 -27.181563 
L 53.703136 -27.181563 
L 55.128684 -27.181563 
L 56.554231 -27.181563 
L 57.979779 -27.181563 
L 59.405326 -27.181563 
L 60.830874 -27.181563 
L 62.256421 -27.181563 
L 63.681969 -27.181563 
L 65.107516 -27.181563 
L 66.533063 -27.181563 
L 67.958611 -27.181563 
L 69.384158 -27.181563 
L 70.809706 -27.181563 
L 72.235253 -27.181563 
L 73.660801 -27.181563 
L 75.086348 -27.181563 
L 76.511896 -27.181563 
L 77.937443 -27.181563 
L 79.36299 -27.181563 
L 80.788538 -27.181563 
L 82.214085 -27.181563 
L 83.639633 -27.181563 
L 85.06518 -27.181563 
L 86.490728 -27.181563 
L 87.916275 -27.181563 
L 89.341823 -27.181563 
L 90.76737 -27.181563 
L 92.192917 -27.181563 
L 93.618465 -27.181563 
L 95.044012 -27.181563 
L 96.46956 -27.181563 
L 97.895107 -27.181563 
L 99.320655 -27.181563 
L 100.746202 -27.181563 
L 102.17175 -27.181563 
L 103.597297 -27.181563 
L 105.022844 -27.181563 
L 106.448392 -27.181563 
L 107.873939 -27.181563 
L 109.299487 -27.181563 
L 110.725034 -27.181563 
L 112.150582 -27.181563 
L 113.576129 -27.181563 
L 115.001677 -27.181563 
L 116.427224 -27.181563 
L 117.852771 -27.181563 
L 119.278319 -27.181563 
L 120.703866 -27.181563 
L 122.129414 -27.181563 
L 123.554961 -27.181563 
L 124.980509 -27.181563 
L 126.406056 -27.181563 
L 127.831604 -27.181563 
L 129.257151 -27.181563 
L 130.682698 -27.181563 
L 132.108246 -27.181563 
L 133.533793 -27.181563 
L 134.959341 -27.181563 
L 136.384888 -27.181563 
L 137.810436 -27.181563 
L 139.235983 -27.181563 
L 140.661531 -27.181563 
L 142.087078 -27.181563 
L 143.512625 -27.181563 
L 144.938173 -27.181563 
L 146.36372 -27.181563 
L 147.789268 -27.181563 
L 149.214815 -27.181563 
L 150.640363 -27.181563 
L 152.06591 -27.181563 
L 153.491458 -27.181563 
L 154.917005 -27.181563 
L 156.342552 -27.181563 
L 157.7681 -27.181563 
L 159.193647 -27.181563 
L 160.619195 -27.181563 
L 162.044742 -27.181563 
L 163.47029 -27.181563 
L 164.895837 -27.181563 
L 166.321385 -27.181563 
L 167.746932 -27.181563 
L 169.172479 -27.181563 
L 170.598027 -27.181563 
L 172.023574 -27.181563 
L 173.449122 -27.181563 
L 174.874669 -27.181563 
L 176.300217 -27.181563 
L 177.725764 -27.181563 
L 179.151312 -27.181563 
L 180.576859 -27.181563 
L 182.002406 -27.181563 
L 183.427954 -27.181563 
L 184.853501 -27.181563 
L 186.279049 -27.181563 
L 187.704596 -27.181563 
L 189.130144 -27.181563 
L 190.555691 -27.181563 
L 190.555691 -71.442347 
L 190.555691 -71.442347 
L 189.130144 -69.999901 
L 187.704596 -68.509037 
L 186.279049 -67.03586 
L 184.853501 -65.621146 
L 183.427954 -64.236711 
L 182.002406 -62.960023 
L 180.576859 -61.758388 
L 179.151312 -60.592184 
L 177.725764 -59.406936 
L 176.300217 -58.273009 
L 174.874669 -57.233714 
L 173.449122 -56.243345 
L 172.023574 -55.311864 
L 170.598027 -54.449539 
L 169.172479 -53.590729 
L 167.746932 -52.722765 
L 166.321385 -51.869828 
L 164.895837 -51.031174 
L 163.47029 -50.225621 
L 162.044742 -49.437774 
L 160.619195 -48.642615 
L 159.193647 -47.931104 
L 157.7681 -47.251563 
L 156.342552 -46.636197 
L 154.917005 -46.018291 
L 153.491458 -45.45365 
L 152.06591 -44.884084 
L 150.640363 -44.289237 
L 149.214815 -43.739608 
L 147.789268 -43.214797 
L 146.36372 -42.710901 
L 144.938173 -42.210548 
L 143.512625 -41.733179 
L 142.087078 -41.257462 
L 140.661531 -40.765299 
L 139.235983 -40.243298 
L 137.810436 -39.715425 
L 136.384888 -39.201821 
L 134.959341 -38.71019 
L 133.533793 -38.229391 
L 132.108246 -37.747395 
L 130.682698 -37.243478 
L 129.257151 -36.747792 
L 127.831604 -36.26756 
L 126.406056 -35.844466 
L 124.980509 -35.426016 
L 123.554961 -35.043951 
L 122.129414 -34.676407 
L 120.703866 -34.336985 
L 119.278319 -33.999342 
L 117.852771 -33.689001 
L 116.427224 -33.395031 
L 115.001677 -33.126484 
L 113.576129 -32.874442 
L 112.150582 -32.63742 
L 110.725034 -32.414069 
L 109.299487 -32.206877 
L 107.873939 -32.014805 
L 106.448392 -31.832238 
L 105.022844 -31.659058 
L 103.597297 -31.50069 
L 102.17175 -31.350775 
L 100.746202 -31.213536 
L 99.320655 -31.084379 
L 97.895107 -30.964887 
L 96.46956 -30.857049 
L 95.044012 -30.762582 
L 93.618465 -30.676721 
L 92.192917 -30.599912 
L 90.76737 -30.533614 
L 89.341823 -30.476831 
L 87.916275 -30.418332 
L 86.490728 -30.357433 
L 85.06518 -30.295546 
L 83.639633 -30.231721 
L 82.214085 -30.171154 
L 80.788538 -30.110112 
L 79.36299 -30.052272 
L 77.937443 -29.994926 
L 76.511896 -29.946678 
L 75.086348 -29.90104 
L 73.660801 -29.857627 
L 72.235253 -29.819281 
L 70.809706 -29.781178 
L 69.384158 -29.738035 
L 67.958611 -29.692041 
L 66.533063 -29.644362 
L 65.107516 -29.598811 
L 63.681969 -29.554493 
L 62.256421 -29.513855 
L 60.830874 -29.476428 
L 59.405326 -29.441897 
L 57.979779 -29.411338 
L 56.554231 -29.382293 
L 55.128684 -29.358042 
L 53.703136 -29.332521 
L 52.277589 -29.310255 
L 50.852042 -29.283433 
L 49.426494 -29.25698 
L 48.000947 -29.228663 
L 46.575399 -29.200953 
L 45.149852 -29.171759 
L 43.724304 -29.139984 
L 42.298757 -29.109364 
L 40.873209 -29.079656 
L 39.447662 -29.049756 
L 38.022115 -29.020279 
L 36.596567 -28.992443 
L 35.17102 -28.965231 
L 33.745472 -28.939524 
L 32.319925 -28.914098 
L 30.894377 -28.890775 
L 29.46883 -28.86776 
L 28.043282 -28.845667 
L 26.617735 -28.823806 
L 25.192187 -28.802998 
z
" id="m3d6d0d25ce"/>
    </defs>
    <g clip-path="url(#pdb94ab0270)">
     <use style="fill:#352a86;" x="0" xlink:href="#m3d6d0d25ce" y="186.489562"/>
    </g>
   </g>
   <g id="PolyCollection_2">
    <defs>
     <path d="M 25.192187 -28.802998 
L 25.192187 -28.802998 
L 26.617735 -28.823806 
L 28.043282 -28.845667 
L 29.46883 -28.86776 
L 30.894377 -28.890775 
L 32.319925 -28.914098 
L 33.745472 -28.939524 
L 35.17102 -28.965231 
L 36.596567 -28.992443 
L 38.022115 -29.020279 
L 39.447662 -29.049756 
L 40.873209 -29.079656 
L 42.298757 -29.109364 
L 43.724304 -29.139984 
L 45.149852 -29.171759 
L 46.575399 -29.200953 
L 48.000947 -29.228663 
L 49.426494 -29.25698 
L 50.852042 -29.283433 
L 52.277589 -29.310255 
L 53.703136 -29.332521 
L 55.128684 -29.358042 
L 56.554231 -29.382293 
L 57.979779 -29.411338 
L 59.405326 -29.441897 
L 60.830874 -29.476428 
L 62.256421 -29.513855 
L 63.681969 -29.554493 
L 65.107516 -29.598811 
L 66.533063 -29.644362 
L 67.958611 -29.692041 
L 69.384158 -29.738035 
L 70.809706 -29.781178 
L 72.235253 -29.819281 
L 73.660801 -29.857627 
L 75.086348 -29.90104 
L 76.511896 -29.946678 
L 77.937443 -29.994926 
L 79.36299 -30.052272 
L 80.788538 -30.110112 
L 82.214085 -30.171154 
L 83.639633 -30.231721 
L 85.06518 -30.295546 
L 86.490728 -30.357433 
L 87.916275 -30.418332 
L 89.341823 -30.476831 
L 90.76737 -30.533614 
L 92.192917 -30.599912 
L 93.618465 -30.676721 
L 95.044012 -30.762582 
L 96.46956 -30.857049 
L 97.895107 -30.964887 
L 99.320655 -31.084379 
L 100.746202 -31.213536 
L 102.17175 -31.350775 
L 103.597297 -31.50069 
L 105.022844 -31.659058 
L 106.448392 -31.832238 
L 107.873939 -32.014805 
L 109.299487 -32.206877 
L 110.725034 -32.414069 
L 112.150582 -32.63742 
L 113.576129 -32.874442 
L 115.001677 -33.126484 
L 116.427224 -33.395031 
L 117.852771 -33.689001 
L 119.278319 -33.999342 
L 120.703866 -34.336985 
L 122.129414 -34.676407 
L 123.554961 -35.043951 
L 124.980509 -35.426016 
L 126.406056 -35.844466 
L 127.831604 -36.26756 
L 129.257151 -36.747792 
L 130.682698 -37.243478 
L 132.108246 -37.747395 
L 133.533793 -38.229391 
L 134.959341 -38.71019 
L 136.384888 -39.201821 
L 137.810436 -39.715425 
L 139.235983 -40.243298 
L 140.661531 -40.765299 
L 142.087078 -41.257462 
L 143.512625 -41.733179 
L 144.938173 -42.210548 
L 146.36372 -42.710901 
L 147.789268 -43.214797 
L 149.214815 -43.739608 
L 150.640363 -44.289237 
L 152.06591 -44.884084 
L 153.491458 -45.45365 
L 154.917005 -46.018291 
L 156.342552 -46.636197 
L 157.7681 -47.251563 
L 159.193647 -47.931104 
L 160.619195 -48.642615 
L 162.044742 -49.437774 
L 163.47029 -50.225621 
L 164.895837 -51.031174 
L 166.321385 -51.869828 
L 167.746932 -52.722765 
L 169.172479 -53.590729 
L 170.598027 -54.449539 
L 172.023574 -55.311864 
L 173.449122 -56.243345 
L 174.874669 -57.233714 
L 176.300217 -58.273009 
L 177.725764 -59.406936 
L 179.151312 -60.592184 
L 180.576859 -61.758388 
L 182.002406 -62.960023 
L 183.427954 -64.236711 
L 184.853501 -65.621146 
L 186.279049 -67.03586 
L 187.704596 -68.509037 
L 189.130144 -69.999901 
L 190.555691 -71.442347 
L 190.555691 -83.948941 
L 190.555691 -83.948941 
L 189.130144 -82.060142 
L 187.704596 -80.138975 
L 186.279049 -78.253185 
L 184.853501 -76.443001 
L 183.427954 -74.679855 
L 182.002406 -73.040398 
L 180.576859 -71.490756 
L 179.151312 -69.989916 
L 177.725764 -68.482227 
L 176.300217 -67.039136 
L 174.874669 -65.702298 
L 173.449122 -64.424165 
L 172.023574 -63.214922 
L 170.598027 -62.08345 
L 169.172479 -60.964816 
L 167.746932 -59.84434 
L 166.321385 -58.746691 
L 164.895837 -57.671074 
L 163.47029 -56.635955 
L 162.044742 -55.626286 
L 160.619195 -54.616244 
L 159.193647 -53.698058 
L 157.7681 -52.818928 
L 156.342552 -52.009842 
L 154.917005 -51.203453 
L 153.491458 -50.455562 
L 152.06591 -49.708336 
L 150.640363 -48.9418 
L 149.214815 -48.226088 
L 147.789268 -47.540363 
L 146.36372 -46.880546 
L 144.938173 -46.228946 
L 143.512625 -45.605452 
L 142.087078 -44.98795 
L 140.661531 -44.358534 
L 139.235983 -43.703691 
L 137.810436 -43.047302 
L 136.384888 -42.41043 
L 134.959341 -41.800361 
L 133.533793 -41.205316 
L 132.108246 -40.613765 
L 130.682698 -40.004353 
L 129.257151 -39.407236 
L 127.831604 -38.83018 
L 126.406056 -38.314103 
L 124.980509 -37.806022 
L 123.554961 -37.338348 
L 122.129414 -36.889358 
L 120.703866 -36.472233 
L 119.278319 -36.0596 
L 117.852771 -35.677421 
L 116.427224 -35.314711 
L 115.001677 -34.980138 
L 113.576129 -34.664818 
L 112.150582 -34.367027 
L 110.725034 -34.085056 
L 109.299487 -33.821644 
L 107.873939 -33.575663 
L 106.448392 -33.341004 
L 105.022844 -33.117766 
L 103.597297 -32.911316 
L 102.17175 -32.714665 
L 100.746202 -32.53256 
L 99.320655 -32.35997 
L 97.895107 -32.198452 
L 96.46956 -32.050103 
L 95.044012 -31.916287 
L 93.618465 -31.792103 
L 92.192917 -31.677899 
L 90.76737 -31.575199 
L 89.341823 -31.482679 
L 87.916275 -31.38886 
L 86.490728 -31.293338 
L 85.06518 -31.197638 
L 83.639633 -31.100971 
L 82.214085 -31.008332 
L 80.788538 -30.916188 
L 79.36299 -30.828178 
L 77.937443 -30.741257 
L 76.511896 -30.664283 
L 75.086348 -30.5908 
L 73.660801 -30.520201 
L 72.235253 -30.455441 
L 70.809706 -30.391448 
L 69.384158 -30.322826 
L 67.958611 -30.251918 
L 66.533063 -30.179828 
L 65.107516 -30.110516 
L 63.681969 -30.043149 
L 62.256421 -29.980064 
L 60.830874 -29.920623 
L 59.405326 -29.864698 
L 57.979779 -29.813065 
L 56.554231 -29.763398 
L 55.128684 -29.719048 
L 53.703136 -29.673677 
L 52.277589 -29.631704 
L 50.852042 -29.585372 
L 49.426494 -29.539576 
L 48.000947 -29.492183 
L 46.575399 -29.445698 
L 45.149852 -29.398077 
L 43.724304 -29.3481 
L 42.298757 -29.299676 
L 40.873209 -29.252478 
L 39.447662 -29.205441 
L 38.022115 -29.159193 
L 36.596567 -29.115002 
L 35.17102 -29.071434 
L 33.745472 -29.029877 
L 32.319925 -28.988824 
L 30.894377 -28.95015 
L 29.46883 -28.911964 
L 28.043282 -28.874971 
L 26.617735 -28.838363 
L 25.192187 -28.802998 
z
" id="m95ece9689d"/>
    </defs>
    <g clip-path="url(#pdb94ab0270)">
     <use style="fill:#969696;" x="0" xlink:href="#m95ece9689d" y="186.489562"/>
    </g>
   </g>
   <g id="PolyCollection_3">
    <defs>
     <path d="M 190.555691 -71.442347 
L 190.555691 -27.181563 
L 191.981239 -27.181563 
L 193.406786 -27.181563 
L 194.832333 -27.181563 
L 196.257881 -27.181563 
L 197.683428 -27.181563 
L 199.108976 -27.181563 
L 200.534523 -27.181563 
L 201.960071 -27.181563 
L 203.385618 -27.181563 
L 204.811166 -27.181563 
L 206.236713 -27.181563 
L 207.66226 -27.181563 
L 209.087808 -27.181563 
L 210.513355 -27.181563 
L 211.938903 -27.181563 
L 213.36445 -27.181563 
L 214.789998 -27.181563 
L 216.215545 -27.181563 
L 217.641093 -27.181563 
L 219.06664 -27.181563 
L 220.492187 -27.181563 
L 220.492187 -127.729612 
L 220.492187 -127.729612 
L 219.06664 -123.617691 
L 217.641093 -119.697995 
L 216.215545 -115.960876 
L 214.789998 -112.397187 
L 213.36445 -108.998255 
L 211.938903 -105.755857 
L 210.513355 -102.662193 
L 209.087808 -99.709869 
L 207.66226 -96.891872 
L 206.236713 -94.20155 
L 204.811166 -91.632597 
L 203.385618 -89.179028 
L 201.960071 -86.835168 
L 200.534523 -84.595634 
L 199.108976 -82.455318 
L 197.683428 -80.409376 
L 196.257881 -78.45321 
L 194.832333 -76.582458 
L 193.406786 -74.792982 
L 191.981239 -73.080854 
L 190.555691 -71.442347 
z
" id="m3e0994d8f6"/>
    </defs>
    <g clip-path="url(#pdb94ab0270)">
     <use style="fill:#352a86;fill-opacity:0.5;" x="0" xlink:href="#m3e0994d8f6" y="186.489562"/>
    </g>
   </g>
   <g id="PolyCollection_4">
    <defs>
     <path d="M 190.555691 -83.948941 
L 190.555691 -71.442347 
L 191.981239 -73.080854 
L 193.406786 -74.792982 
L 194.832333 -76.582458 
L 196.257881 -78.45321 
L 197.683428 -80.409376 
L 199.108976 -82.455318 
L 200.534523 -84.595634 
L 201.960071 -86.835168 
L 203.385618 -89.179028 
L 204.811166 -91.632597 
L 206.236713 -94.20155 
L 207.66226 -96.891872 
L 209.087808 -99.709869 
L 210.513355 -102.662193 
L 211.938903 -105.755857 
L 213.36445 -108.998255 
L 214.789998 -112.397187 
L 216.215545 -115.960876 
L 217.641093 -119.697995 
L 219.06664 -123.617691 
L 220.492187 -127.729612 
L 220.492187 -154.241266 
L 220.492187 -154.241266 
L 219.06664 -149.203375 
L 217.641093 -144.389496 
L 216.215545 -139.788908 
L 214.789998 -135.391429 
L 213.36445 -131.187383 
L 211.938903 -127.167577 
L 210.513355 -123.323274 
L 209.087808 -119.646173 
L 207.66226 -116.128386 
L 206.236713 -112.76242 
L 204.811166 -109.541142 
L 203.385618 -106.45778 
L 201.960071 -103.505898 
L 200.534523 -100.679372 
L 199.108976 -97.972381 
L 197.683428 -95.379389 
L 196.257881 -92.895134 
L 194.832333 -90.514605 
L 193.406786 -88.233048 
L 191.981239 -86.04593 
L 190.555691 -83.948941 
z
" id="m632afc3f0e"/>
    </defs>
    <g clip-path="url(#pdb94ab0270)">
     <use style="fill:#969696;fill-opacity:0.5;" x="0" xlink:href="#m632afc3f0e" y="186.489562"/>
    </g>
   </g>
   <g id="matplotlib.axis_1">
    <g id="xtick_1">
     <g id="line2d_1">
      <defs>
       <path d="M 0 0 
L 0 3.5 
" id="maab529037a" style="stroke:#000000;stroke-width:0.8;"/>
      </defs>
      <g>
       <use style="stroke:#000000;stroke-width:0.8;" x="25.192187" xlink:href="#maab529037a" y="159.308"/>
      </g>
     </g>
     <g id="text_1">
      <!-- 1900 -->
      <defs>
       <path d="M 12.40625 8.296875 
L 28.515625 8.296875 
L 28.515625 63.921875 
L 10.984375 60.40625 
L 10.984375 69.390625 
L 28.421875 72.90625 
L 38.28125 72.90625 
L 38.28125 8.296875 
L 54.390625 8.296875 
L 54.390625 0 
L 12.40625 0 
z
" id="DejaVuSans-31"/>
       <path d="M 10.984375 1.515625 
L 10.984375 10.5 
Q 14.703125 8.734375 18.5 7.8125 
Q 22.3125 6.890625 25.984375 6.890625 
Q 35.75 6.890625 40.890625 13.453125 
Q 46.046875 20.015625 46.78125 33.40625 
Q 43.953125 29.203125 39.59375 26.953125 
Q 35.25 24.703125 29.984375 24.703125 
Q 19.046875 24.703125 12.671875 31.3125 
Q 6.296875 37.9375 6.296875 49.421875 
Q 6.296875 60.640625 12.9375 67.421875 
Q 19.578125 74.21875 30.609375 74.21875 
Q 43.265625 74.21875 49.921875 64.515625 
Q 56.59375 54.828125 56.59375 36.375 
Q 56.59375 19.140625 48.40625 8.859375 
Q 40.234375 -1.421875 26.421875 -1.421875 
Q 22.703125 -1.421875 18.890625 -0.6875 
Q 15.09375 0.046875 10.984375 1.515625 
z
M 30.609375 32.421875 
Q 37.25 32.421875 41.125 36.953125 
Q 45.015625 41.5 45.015625 49.421875 
Q 45.015625 57.28125 41.125 61.84375 
Q 37.25 66.40625 30.609375 66.40625 
Q 23.96875 66.40625 20.09375 61.84375 
Q 16.21875 57.28125 16.21875 49.421875 
Q 16.21875 41.5 20.09375 36.953125 
Q 23.96875 32.421875 30.609375 32.421875 
z
" id="DejaVuSans-39"/>
       <path d="M 31.78125 66.40625 
Q 24.171875 66.40625 20.328125 58.90625 
Q 16.5 51.421875 16.5 36.375 
Q 16.5 21.390625 20.328125 13.890625 
Q 24.171875 6.390625 31.78125 6.390625 
Q 39.453125 6.390625 43.28125 13.890625 
Q 47.125 21.390625 47.125 36.375 
Q 47.125 51.421875 43.28125 58.90625 
Q 39.453125 66.40625 31.78125 66.40625 
z
M 31.78125 74.21875 
Q 44.046875 74.21875 50.515625 64.515625 
Q 56.984375 54.828125 56.984375 36.375 
Q 56.984375 17.96875 50.515625 8.265625 
Q 44.046875 -1.421875 31.78125 -1.421875 
Q 19.53125 -1.421875 13.0625 8.265625 
Q 6.59375 17.96875 6.59375 36.375 
Q 6.59375 54.828125 13.0625 64.515625 
Q 19.53125 74.21875 31.78125 74.21875 
z
" id="DejaVuSans-30"/>
      </defs>
      <g transform="translate(17.557187 170.867062)scale(0.06 -0.06)">
       <use xlink:href="#DejaVuSans-31"/>
       <use x="63.623047" xlink:href="#DejaVuSans-39"/>
       <use x="127.246094" xlink:href="#DejaVuSans-30"/>
       <use x="190.869141" xlink:href="#DejaVuSans-30"/>
      </g>
     </g>
    </g>
    <g id="xtick_2">
     <g id="line2d_2">
      <g>
       <use style="stroke:#000000;stroke-width:0.8;" x="53.703136" xlink:href="#maab529037a" y="159.308"/>
      </g>
     </g>
     <g id="text_2">
      <!-- 1920 -->
      <defs>
       <path d="M 19.1875 8.296875 
L 53.609375 8.296875 
L 53.609375 0 
L 7.328125 0 
L 7.328125 8.296875 
Q 12.9375 14.109375 22.625 23.890625 
Q 32.328125 33.6875 34.8125 36.53125 
Q 39.546875 41.84375 41.421875 45.53125 
Q 43.3125 49.21875 43.3125 52.78125 
Q 43.3125 58.59375 39.234375 62.25 
Q 35.15625 65.921875 28.609375 65.921875 
Q 23.96875 65.921875 18.8125 64.3125 
Q 13.671875 62.703125 7.8125 59.421875 
L 7.8125 69.390625 
Q 13.765625 71.78125 18.9375 73 
Q 24.125 74.21875 28.421875 74.21875 
Q 39.75 74.21875 46.484375 68.546875 
Q 53.21875 62.890625 53.21875 53.421875 
Q 53.21875 48.921875 51.53125 44.890625 
Q 49.859375 40.875 45.40625 35.40625 
Q 44.1875 33.984375 37.640625 27.21875 
Q 31.109375 20.453125 19.1875 8.296875 
z
" id="DejaVuSans-32"/>
      </defs>
      <g transform="translate(46.068136 170.867062)scale(0.06 -0.06)">
       <use xlink:href="#DejaVuSans-31"/>
       <use x="63.623047" xlink:href="#DejaVuSans-39"/>
       <use x="127.246094" xlink:href="#DejaVuSans-32"/>
       <use x="190.869141" xlink:href="#DejaVuSans-30"/>
      </g>
     </g>
    </g>
    <g id="xtick_3">
     <g id="line2d_3">
      <g>
       <use style="stroke:#000000;stroke-width:0.8;" x="82.214085" xlink:href="#maab529037a" y="159.308"/>
      </g>
     </g>
     <g id="text_3">
      <!-- 1940 -->
      <defs>
       <path d="M 37.796875 64.3125 
L 12.890625 25.390625 
L 37.796875 25.390625 
z
M 35.203125 72.90625 
L 47.609375 72.90625 
L 47.609375 25.390625 
L 58.015625 25.390625 
L 58.015625 17.1875 
L 47.609375 17.1875 
L 47.609375 0 
L 37.796875 0 
L 37.796875 17.1875 
L 4.890625 17.1875 
L 4.890625 26.703125 
z
" id="DejaVuSans-34"/>
      </defs>
      <g transform="translate(74.579085 170.867062)scale(0.06 -0.06)">
       <use xlink:href="#DejaVuSans-31"/>
       <use x="63.623047" xlink:href="#DejaVuSans-39"/>
       <use x="127.246094" xlink:href="#DejaVuSans-34"/>
       <use x="190.869141" xlink:href="#DejaVuSans-30"/>
      </g>
     </g>
    </g>
    <g id="xtick_4">
     <g id="line2d_4">
      <g>
       <use style="stroke:#000000;stroke-width:0.8;" x="110.725034" xlink:href="#maab529037a" y="159.308"/>
      </g>
     </g>
     <g id="text_4">
      <!-- 1960 -->
      <defs>
       <path d="M 33.015625 40.375 
Q 26.375 40.375 22.484375 35.828125 
Q 18.609375 31.296875 18.609375 23.390625 
Q 18.609375 15.53125 22.484375 10.953125 
Q 26.375 6.390625 33.015625 6.390625 
Q 39.65625 6.390625 43.53125 10.953125 
Q 47.40625 15.53125 47.40625 23.390625 
Q 47.40625 31.296875 43.53125 35.828125 
Q 39.65625 40.375 33.015625 40.375 
z
M 52.59375 71.296875 
L 52.59375 62.3125 
Q 48.875 64.0625 45.09375 64.984375 
Q 41.3125 65.921875 37.59375 65.921875 
Q 27.828125 65.921875 22.671875 59.328125 
Q 17.53125 52.734375 16.796875 39.40625 
Q 19.671875 43.65625 24.015625 45.921875 
Q 28.375 48.1875 33.59375 48.1875 
Q 44.578125 48.1875 50.953125 41.515625 
Q 57.328125 34.859375 57.328125 23.390625 
Q 57.328125 12.15625 50.6875 5.359375 
Q 44.046875 -1.421875 33.015625 -1.421875 
Q 20.359375 -1.421875 13.671875 8.265625 
Q 6.984375 17.96875 6.984375 36.375 
Q 6.984375 53.65625 15.1875 63.9375 
Q 23.390625 74.21875 37.203125 74.21875 
Q 40.921875 74.21875 44.703125 73.484375 
Q 48.484375 72.75 52.59375 71.296875 
z
" id="DejaVuSans-36"/>
      </defs>
      <g transform="translate(103.090034 170.867062)scale(0.06 -0.06)">
       <use xlink:href="#DejaVuSans-31"/>
       <use x="63.623047" xlink:href="#DejaVuSans-39"/>
       <use x="127.246094" xlink:href="#DejaVuSans-36"/>
       <use x="190.869141" xlink:href="#DejaVuSans-30"/>
      </g>
     </g>
    </g>
    <g id="xtick_5">
     <g id="line2d_5">
      <g>
       <use style="stroke:#000000;stroke-width:0.8;" x="139.235983" xlink:href="#maab529037a" y="159.308"/>
      </g>
     </g>
     <g id="text_5">
      <!-- 1980 -->
      <defs>
       <path d="M 31.78125 34.625 
Q 24.75 34.625 20.71875 30.859375 
Q 16.703125 27.09375 16.703125 20.515625 
Q 16.703125 13.921875 20.71875 10.15625 
Q 24.75 6.390625 31.78125 6.390625 
Q 38.8125 6.390625 42.859375 10.171875 
Q 46.921875 13.96875 46.921875 20.515625 
Q 46.921875 27.09375 42.890625 30.859375 
Q 38.875 34.625 31.78125 34.625 
z
M 21.921875 38.8125 
Q 15.578125 40.375 12.03125 44.71875 
Q 8.5 49.078125 8.5 55.328125 
Q 8.5 64.0625 14.71875 69.140625 
Q 20.953125 74.21875 31.78125 74.21875 
Q 42.671875 74.21875 48.875 69.140625 
Q 55.078125 64.0625 55.078125 55.328125 
Q 55.078125 49.078125 51.53125 44.71875 
Q 48 40.375 41.703125 38.8125 
Q 48.828125 37.15625 52.796875 32.3125 
Q 56.78125 27.484375 56.78125 20.515625 
Q 56.78125 9.90625 50.3125 4.234375 
Q 43.84375 -1.421875 31.78125 -1.421875 
Q 19.734375 -1.421875 13.25 4.234375 
Q 6.78125 9.90625 6.78125 20.515625 
Q 6.78125 27.484375 10.78125 32.3125 
Q 14.796875 37.15625 21.921875 38.8125 
z
M 18.3125 54.390625 
Q 18.3125 48.734375 21.84375 45.5625 
Q 25.390625 42.390625 31.78125 42.390625 
Q 38.140625 42.390625 41.71875 45.5625 
Q 45.3125 48.734375 45.3125 54.390625 
Q 45.3125 60.0625 41.71875 63.234375 
Q 38.140625 66.40625 31.78125 66.40625 
Q 25.390625 66.40625 21.84375 63.234375 
Q 18.3125 60.0625 18.3125 54.390625 
z
" id="DejaVuSans-38"/>
      </defs>
      <g transform="translate(131.600983 170.867062)scale(0.06 -0.06)">
       <use xlink:href="#DejaVuSans-31"/>
       <use x="63.623047" xlink:href="#DejaVuSans-39"/>
       <use x="127.246094" xlink:href="#DejaVuSans-38"/>
       <use x="190.869141" xlink:href="#DejaVuSans-30"/>
      </g>
     </g>
    </g>
    <g id="xtick_6">
     <g id="line2d_6">
      <g>
       <use style="stroke:#000000;stroke-width:0.8;" x="167.746932" xlink:href="#maab529037a" y="159.308"/>
      </g>
     </g>
     <g id="text_6">
      <!-- 2000 -->
      <g transform="translate(160.111932 170.867062)scale(0.06 -0.06)">
       <use xlink:href="#DejaVuSans-32"/>
       <use x="63.623047" xlink:href="#DejaVuSans-30"/>
       <use x="127.246094" xlink:href="#DejaVuSans-30"/>
       <use x="190.869141" xlink:href="#DejaVuSans-30"/>
      </g>
     </g>
    </g>
    <g id="xtick_7">
     <g id="line2d_7">
      <g>
       <use style="stroke:#000000;stroke-width:0.8;" x="196.257881" xlink:href="#maab529037a" y="159.308"/>
      </g>
     </g>
     <g id="text_7">
      <!-- 2020 -->
      <g transform="translate(188.622881 170.867062)scale(0.06 -0.06)">
       <use xlink:href="#DejaVuSans-32"/>
       <use x="63.623047" xlink:href="#DejaVuSans-30"/>
       <use x="127.246094" xlink:href="#DejaVuSans-32"/>
       <use x="190.869141" xlink:href="#DejaVuSans-30"/>
      </g>
     </g>
    </g>
    <g id="text_8">
     <!-- year -->
     <defs>
      <path d="M 32.171875 -5.078125 
Q 28.375 -14.84375 24.75 -17.8125 
Q 21.140625 -20.796875 15.09375 -20.796875 
L 7.90625 -20.796875 
L 7.90625 -13.28125 
L 13.1875 -13.28125 
Q 16.890625 -13.28125 18.9375 -11.515625 
Q 21 -9.765625 23.484375 -3.21875 
L 25.09375 0.875 
L 2.984375 54.6875 
L 12.5 54.6875 
L 29.59375 11.921875 
L 46.6875 54.6875 
L 56.203125 54.6875 
z
" id="DejaVuSans-79"/>
      <path d="M 56.203125 29.59375 
L 56.203125 25.203125 
L 14.890625 25.203125 
Q 15.484375 15.921875 20.484375 11.0625 
Q 25.484375 6.203125 34.421875 6.203125 
Q 39.59375 6.203125 44.453125 7.46875 
Q 49.3125 8.734375 54.109375 11.28125 
L 54.109375 2.78125 
Q 49.265625 0.734375 44.1875 -0.34375 
Q 39.109375 -1.421875 33.890625 -1.421875 
Q 20.796875 -1.421875 13.15625 6.1875 
Q 5.515625 13.8125 5.515625 26.8125 
Q 5.515625 40.234375 12.765625 48.109375 
Q 20.015625 56 32.328125 56 
Q 43.359375 56 49.78125 48.890625 
Q 56.203125 41.796875 56.203125 29.59375 
z
M 47.21875 32.234375 
Q 47.125 39.59375 43.09375 43.984375 
Q 39.0625 48.390625 32.421875 48.390625 
Q 24.90625 48.390625 20.390625 44.140625 
Q 15.875 39.890625 15.1875 32.171875 
z
" id="DejaVuSans-65"/>
      <path d="M 34.28125 27.484375 
Q 23.390625 27.484375 19.1875 25 
Q 14.984375 22.515625 14.984375 16.5 
Q 14.984375 11.71875 18.140625 8.90625 
Q 21.296875 6.109375 26.703125 6.109375 
Q 34.1875 6.109375 38.703125 11.40625 
Q 43.21875 16.703125 43.21875 25.484375 
L 43.21875 27.484375 
z
M 52.203125 31.203125 
L 52.203125 0 
L 43.21875 0 
L 43.21875 8.296875 
Q 40.140625 3.328125 35.546875 0.953125 
Q 30.953125 -1.421875 24.3125 -1.421875 
Q 15.921875 -1.421875 10.953125 3.296875 
Q 6 8.015625 6 15.921875 
Q 6 25.140625 12.171875 29.828125 
Q 18.359375 34.515625 30.609375 34.515625 
L 43.21875 34.515625 
L 43.21875 35.40625 
Q 43.21875 41.609375 39.140625 45 
Q 35.0625 48.390625 27.6875 48.390625 
Q 23 48.390625 18.546875 47.265625 
Q 14.109375 46.140625 10.015625 43.890625 
L 10.015625 52.203125 
Q 14.9375 54.109375 19.578125 55.046875 
Q 24.21875 56 28.609375 56 
Q 40.484375 56 46.34375 49.84375 
Q 52.203125 43.703125 52.203125 31.203125 
z
" id="DejaVuSans-61"/>
      <path d="M 41.109375 46.296875 
Q 39.59375 47.171875 37.8125 47.578125 
Q 36.03125 48 33.890625 48 
Q 26.265625 48 22.1875 43.046875 
Q 18.109375 38.09375 18.109375 28.8125 
L 18.109375 0 
L 9.078125 0 
L 9.078125 54.6875 
L 18.109375 54.6875 
L 18.109375 46.1875 
Q 20.953125 51.171875 25.484375 53.578125 
Q 30.03125 56 36.53125 56 
Q 37.453125 56 38.578125 55.875 
Q 39.703125 55.765625 41.0625 55.515625 
z
" id="DejaVuSans-72"/>
     </defs>
     <g transform="translate(115.033359 181.433781)scale(0.07 -0.07)">
      <use xlink:href="#DejaVuSans-79"/>
      <use x="59.179688" xlink:href="#DejaVuSans-65"/>
      <use x="120.703125" xlink:href="#DejaVuSans-61"/>
      <use x="181.982422" xlink:href="#DejaVuSans-72"/>
     </g>
    </g>
   </g>
   <g id="matplotlib.axis_2">
    <g id="ytick_1">
     <g id="line2d_8">
      <defs>
       <path d="M 0 0 
L -3.5 0 
" id="m2949ddd7c5" style="stroke:#000000;stroke-width:0.8;"/>
      </defs>
      <g>
       <use style="stroke:#000000;stroke-width:0.8;" x="25.192188" xlink:href="#m2949ddd7c5" y="159.308"/>
      </g>
     </g>
     <g id="text_9">
      <!-- 0 -->
      <g transform="translate(14.374688 161.587531)scale(0.06 -0.06)">
       <use xlink:href="#DejaVuSans-30"/>
      </g>
     </g>
    </g>
    <g id="ytick_2">
     <g id="line2d_9">
      <g>
       <use style="stroke:#000000;stroke-width:0.8;" x="25.192188" xlink:href="#m2949ddd7c5" y="113.184364"/>
      </g>
     </g>
     <g id="text_10">
      <!-- 1 -->
      <g transform="translate(14.374688 115.463895)scale(0.06 -0.06)">
       <use xlink:href="#DejaVuSans-31"/>
      </g>
     </g>
    </g>
    <g id="ytick_3">
     <g id="line2d_10">
      <g>
       <use style="stroke:#000000;stroke-width:0.8;" x="25.192188" xlink:href="#m2949ddd7c5" y="67.060727"/>
      </g>
     </g>
     <g id="text_11">
      <!-- 2 -->
      <g transform="translate(14.374688 69.340259)scale(0.06 -0.06)">
       <use xlink:href="#DejaVuSans-32"/>
      </g>
     </g>
    </g>
    <g id="ytick_4">
     <g id="line2d_11">
      <g>
       <use style="stroke:#000000;stroke-width:0.8;" x="25.192188" xlink:href="#m2949ddd7c5" y="20.937091"/>
      </g>
     </g>
     <g id="text_12">
      <!-- 3 -->
      <defs>
       <path d="M 40.578125 39.3125 
Q 47.65625 37.796875 51.625 33 
Q 55.609375 28.21875 55.609375 21.1875 
Q 55.609375 10.40625 48.1875 4.484375 
Q 40.765625 -1.421875 27.09375 -1.421875 
Q 22.515625 -1.421875 17.65625 -0.515625 
Q 12.796875 0.390625 7.625 2.203125 
L 7.625 11.71875 
Q 11.71875 9.328125 16.59375 8.109375 
Q 21.484375 6.890625 26.8125 6.890625 
Q 36.078125 6.890625 40.9375 10.546875 
Q 45.796875 14.203125 45.796875 21.1875 
Q 45.796875 27.640625 41.28125 31.265625 
Q 36.765625 34.90625 28.71875 34.90625 
L 20.21875 34.90625 
L 20.21875 43.015625 
L 29.109375 43.015625 
Q 36.375 43.015625 40.234375 45.921875 
Q 44.09375 48.828125 44.09375 54.296875 
Q 44.09375 59.90625 40.109375 62.90625 
Q 36.140625 65.921875 28.71875 65.921875 
Q 24.65625 65.921875 20.015625 65.03125 
Q 15.375 64.15625 9.8125 62.3125 
L 9.8125 71.09375 
Q 15.4375 72.65625 20.34375 73.4375 
Q 25.25 74.21875 29.59375 74.21875 
Q 40.828125 74.21875 47.359375 69.109375 
Q 53.90625 64.015625 53.90625 55.328125 
Q 53.90625 49.265625 50.4375 45.09375 
Q 46.96875 40.921875 40.578125 39.3125 
z
" id="DejaVuSans-33"/>
      </defs>
      <g transform="translate(14.374688 23.216622)scale(0.06 -0.06)">
       <use xlink:href="#DejaVuSans-33"/>
      </g>
     </g>
    </g>
    <g id="text_13">
     <!-- weight (Teratonnes) -->
     <defs>
      <path d="M 4.203125 54.6875 
L 13.1875 54.6875 
L 24.421875 12.015625 
L 35.59375 54.6875 
L 46.1875 54.6875 
L 57.421875 12.015625 
L 68.609375 54.6875 
L 77.59375 54.6875 
L 63.28125 0 
L 52.6875 0 
L 40.921875 44.828125 
L 29.109375 0 
L 18.5 0 
z
" id="DejaVuSans-77"/>
      <path d="M 9.421875 54.6875 
L 18.40625 54.6875 
L 18.40625 0 
L 9.421875 0 
z
M 9.421875 75.984375 
L 18.40625 75.984375 
L 18.40625 64.59375 
L 9.421875 64.59375 
z
" id="DejaVuSans-69"/>
      <path d="M 45.40625 27.984375 
Q 45.40625 37.75 41.375 43.109375 
Q 37.359375 48.484375 30.078125 48.484375 
Q 22.859375 48.484375 18.828125 43.109375 
Q 14.796875 37.75 14.796875 27.984375 
Q 14.796875 18.265625 18.828125 12.890625 
Q 22.859375 7.515625 30.078125 7.515625 
Q 37.359375 7.515625 41.375 12.890625 
Q 45.40625 18.265625 45.40625 27.984375 
z
M 54.390625 6.78125 
Q 54.390625 -7.171875 48.1875 -13.984375 
Q 42 -20.796875 29.203125 -20.796875 
Q 24.46875 -20.796875 20.265625 -20.09375 
Q 16.0625 -19.390625 12.109375 -17.921875 
L 12.109375 -9.1875 
Q 16.0625 -11.328125 19.921875 -12.34375 
Q 23.78125 -13.375 27.78125 -13.375 
Q 36.625 -13.375 41.015625 -8.765625 
Q 45.40625 -4.15625 45.40625 5.171875 
L 45.40625 9.625 
Q 42.625 4.78125 38.28125 2.390625 
Q 33.9375 0 27.875 0 
Q 17.828125 0 11.671875 7.65625 
Q 5.515625 15.328125 5.515625 27.984375 
Q 5.515625 40.671875 11.671875 48.328125 
Q 17.828125 56 27.875 56 
Q 33.9375 56 38.28125 53.609375 
Q 42.625 51.21875 45.40625 46.390625 
L 45.40625 54.6875 
L 54.390625 54.6875 
z
" id="DejaVuSans-67"/>
      <path d="M 54.890625 33.015625 
L 54.890625 0 
L 45.90625 0 
L 45.90625 32.71875 
Q 45.90625 40.484375 42.875 44.328125 
Q 39.84375 48.1875 33.796875 48.1875 
Q 26.515625 48.1875 22.3125 43.546875 
Q 18.109375 38.921875 18.109375 30.90625 
L 18.109375 0 
L 9.078125 0 
L 9.078125 75.984375 
L 18.109375 75.984375 
L 18.109375 46.1875 
Q 21.34375 51.125 25.703125 53.5625 
Q 30.078125 56 35.796875 56 
Q 45.21875 56 50.046875 50.171875 
Q 54.890625 44.34375 54.890625 33.015625 
z
" id="DejaVuSans-68"/>
      <path d="M 18.3125 70.21875 
L 18.3125 54.6875 
L 36.8125 54.6875 
L 36.8125 47.703125 
L 18.3125 47.703125 
L 18.3125 18.015625 
Q 18.3125 11.328125 20.140625 9.421875 
Q 21.96875 7.515625 27.59375 7.515625 
L 36.8125 7.515625 
L 36.8125 0 
L 27.59375 0 
Q 17.1875 0 13.234375 3.875 
Q 9.28125 7.765625 9.28125 18.015625 
L 9.28125 47.703125 
L 2.6875 47.703125 
L 2.6875 54.6875 
L 9.28125 54.6875 
L 9.28125 70.21875 
z
" id="DejaVuSans-74"/>
      <path id="DejaVuSans-20"/>
      <path d="M 31 75.875 
Q 24.46875 64.65625 21.28125 53.65625 
Q 18.109375 42.671875 18.109375 31.390625 
Q 18.109375 20.125 21.3125 9.0625 
Q 24.515625 -2 31 -13.1875 
L 23.1875 -13.1875 
Q 15.875 -1.703125 12.234375 9.375 
Q 8.59375 20.453125 8.59375 31.390625 
Q 8.59375 42.28125 12.203125 53.3125 
Q 15.828125 64.359375 23.1875 75.875 
z
" id="DejaVuSans-28"/>
      <path d="M -0.296875 72.90625 
L 61.375 72.90625 
L 61.375 64.59375 
L 35.5 64.59375 
L 35.5 0 
L 25.59375 0 
L 25.59375 64.59375 
L -0.296875 64.59375 
z
" id="DejaVuSans-54"/>
      <path d="M 30.609375 48.390625 
Q 23.390625 48.390625 19.1875 42.75 
Q 14.984375 37.109375 14.984375 27.296875 
Q 14.984375 17.484375 19.15625 11.84375 
Q 23.34375 6.203125 30.609375 6.203125 
Q 37.796875 6.203125 41.984375 11.859375 
Q 46.1875 17.53125 46.1875 27.296875 
Q 46.1875 37.015625 41.984375 42.703125 
Q 37.796875 48.390625 30.609375 48.390625 
z
M 30.609375 56 
Q 42.328125 56 49.015625 48.375 
Q 55.71875 40.765625 55.71875 27.296875 
Q 55.71875 13.875 49.015625 6.21875 
Q 42.328125 -1.421875 30.609375 -1.421875 
Q 18.84375 -1.421875 12.171875 6.21875 
Q 5.515625 13.875 5.515625 27.296875 
Q 5.515625 40.765625 12.171875 48.375 
Q 18.84375 56 30.609375 56 
z
" id="DejaVuSans-6f"/>
      <path d="M 54.890625 33.015625 
L 54.890625 0 
L 45.90625 0 
L 45.90625 32.71875 
Q 45.90625 40.484375 42.875 44.328125 
Q 39.84375 48.1875 33.796875 48.1875 
Q 26.515625 48.1875 22.3125 43.546875 
Q 18.109375 38.921875 18.109375 30.90625 
L 18.109375 0 
L 9.078125 0 
L 9.078125 54.6875 
L 18.109375 54.6875 
L 18.109375 46.1875 
Q 21.34375 51.125 25.703125 53.5625 
Q 30.078125 56 35.796875 56 
Q 45.21875 56 50.046875 50.171875 
Q 54.890625 44.34375 54.890625 33.015625 
z
" id="DejaVuSans-6e"/>
      <path d="M 44.28125 53.078125 
L 44.28125 44.578125 
Q 40.484375 46.53125 36.375 47.5 
Q 32.28125 48.484375 27.875 48.484375 
Q 21.1875 48.484375 17.84375 46.4375 
Q 14.5 44.390625 14.5 40.28125 
Q 14.5 37.15625 16.890625 35.375 
Q 19.28125 33.59375 26.515625 31.984375 
L 29.59375 31.296875 
Q 39.15625 29.25 43.1875 25.515625 
Q 47.21875 21.78125 47.21875 15.09375 
Q 47.21875 7.46875 41.1875 3.015625 
Q 35.15625 -1.421875 24.609375 -1.421875 
Q 20.21875 -1.421875 15.453125 -0.5625 
Q 10.6875 0.296875 5.421875 2 
L 5.421875 11.28125 
Q 10.40625 8.6875 15.234375 7.390625 
Q 20.0625 6.109375 24.8125 6.109375 
Q 31.15625 6.109375 34.5625 8.28125 
Q 37.984375 10.453125 37.984375 14.40625 
Q 37.984375 18.0625 35.515625 20.015625 
Q 33.0625 21.96875 24.703125 23.78125 
L 21.578125 24.515625 
Q 13.234375 26.265625 9.515625 29.90625 
Q 5.8125 33.546875 5.8125 39.890625 
Q 5.8125 47.609375 11.28125 51.796875 
Q 16.75 56 26.8125 56 
Q 31.78125 56 36.171875 55.265625 
Q 40.578125 54.546875 44.28125 53.078125 
z
" id="DejaVuSans-73"/>
      <path d="M 8.015625 75.875 
L 15.828125 75.875 
Q 23.140625 64.359375 26.78125 53.3125 
Q 30.421875 42.28125 30.421875 31.390625 
Q 30.421875 20.453125 26.78125 9.375 
Q 23.140625 -1.703125 15.828125 -13.1875 
L 8.015625 -13.1875 
Q 14.5 -2 17.703125 9.0625 
Q 20.90625 20.125 20.90625 31.390625 
Q 20.90625 42.671875 17.703125 53.65625 
Q 14.5 64.65625 8.015625 75.875 
z
" id="DejaVuSans-29"/>
     </defs>
     <g transform="translate(8.918906 118.640406)rotate(-90)scale(0.07 -0.07)">
      <use xlink:href="#DejaVuSans-77"/>
      <use x="81.787109" xlink:href="#DejaVuSans-65"/>
      <use x="143.310547" xlink:href="#DejaVuSans-69"/>
      <use x="171.09375" xlink:href="#DejaVuSans-67"/>
      <use x="234.570312" xlink:href="#DejaVuSans-68"/>
      <use x="297.949219" xlink:href="#DejaVuSans-74"/>
      <use x="337.158203" xlink:href="#DejaVuSans-20"/>
      <use x="368.945312" xlink:href="#DejaVuSans-28"/>
      <use x="407.958984" xlink:href="#DejaVuSans-54"/>
      <use x="468.777344" xlink:href="#DejaVuSans-65"/>
      <use x="530.300781" xlink:href="#DejaVuSans-72"/>
      <use x="571.414062" xlink:href="#DejaVuSans-61"/>
      <use x="632.693359" xlink:href="#DejaVuSans-74"/>
      <use x="671.902344" xlink:href="#DejaVuSans-6f"/>
      <use x="733.083984" xlink:href="#DejaVuSans-6e"/>
      <use x="796.462891" xlink:href="#DejaVuSans-6e"/>
      <use x="859.841797" xlink:href="#DejaVuSans-65"/>
      <use x="921.365234" xlink:href="#DejaVuSans-73"/>
      <use x="973.464844" xlink:href="#DejaVuSans-29"/>
     </g>
    </g>
   </g>
   <g id="line2d_12">
    <path clip-path="url(#pdb94ab0270)" d="M 25.192187 157.686564 
L 26.617735 157.665757 
L 28.043282 157.643895 
L 29.46883 157.621802 
L 30.894377 157.598788 
L 32.319925 157.575464 
L 33.745472 157.550039 
L 35.17102 157.524332 
L 36.596567 157.497119 
L 38.022115 157.469284 
L 39.447662 157.439806 
L 40.873209 157.409906 
L 42.298757 157.380199 
L 43.724304 157.349579 
L 45.149852 157.317803 
L 46.575399 157.28861 
L 48.000947 157.260899 
L 49.426494 157.232582 
L 50.852042 157.20613 
L 52.277589 157.179307 
L 53.703136 157.157042 
L 55.128684 157.13152 
L 56.554231 157.10727 
L 57.979779 157.078225 
L 59.405326 157.047665 
L 60.830874 157.013135 
L 62.256421 156.975707 
L 63.681969 156.935069 
L 65.107516 156.890752 
L 66.533063 156.8452 
L 67.958611 156.797522 
L 69.384158 156.751528 
L 70.809706 156.708385 
L 72.235253 156.670281 
L 73.660801 156.631935 
L 75.086348 156.588523 
L 76.511896 156.542884 
L 77.937443 156.494636 
L 79.36299 156.43729 
L 80.788538 156.37945 
L 82.214085 156.318408 
L 83.639633 156.257842 
L 85.06518 156.194016 
L 86.490728 156.132129 
L 87.916275 156.07123 
L 89.341823 156.012731 
L 90.76737 155.955948 
L 92.192917 155.889651 
L 93.618465 155.812842 
L 95.044012 155.726981 
L 96.46956 155.632514 
L 97.895107 155.524675 
L 99.320655 155.405183 
L 100.746202 155.276027 
L 102.17175 155.138788 
L 103.597297 154.988873 
L 105.022844 154.830504 
L 106.448392 154.657325 
L 107.873939 154.474758 
L 109.299487 154.282686 
L 110.725034 154.075493 
L 112.150582 153.852142 
L 113.576129 153.61512 
L 115.001677 153.363078 
L 116.427224 153.094531 
L 117.852771 152.800561 
L 119.278319 152.49022 
L 120.703866 152.152578 
L 122.129414 151.813156 
L 123.554961 151.445611 
L 124.980509 151.063547 
L 126.406056 150.645096 
L 127.831604 150.222002 
L 129.257151 149.741771 
L 130.682698 149.246085 
L 132.108246 148.742168 
L 133.533793 148.260171 
L 134.959341 147.779373 
L 136.384888 147.287742 
L 137.810436 146.774137 
L 139.235983 146.246265 
L 140.661531 145.724263 
L 142.087078 145.232101 
L 143.512625 144.756384 
L 144.938173 144.279015 
L 146.36372 143.778662 
L 147.789268 143.274765 
L 149.214815 142.749954 
L 150.640363 142.200326 
L 152.06591 141.605479 
L 153.491458 141.035912 
L 154.917005 140.471271 
L 156.342552 139.853365 
L 157.7681 139.237999 
L 159.193647 138.558459 
L 160.619195 137.846948 
L 162.044742 137.051788 
L 163.47029 136.263942 
L 164.895837 135.458389 
L 166.321385 134.619734 
L 167.746932 133.766797 
L 169.172479 132.898834 
L 170.598027 132.040024 
L 172.023574 131.177698 
L 173.449122 130.246218 
L 174.874669 129.255848 
L 176.300217 128.216553 
L 177.725764 127.082627 
L 179.151312 125.897378 
L 180.576859 124.731174 
L 182.002406 123.529539 
L 183.427954 122.252851 
L 184.853501 120.868416 
L 186.279049 119.453703 
L 187.704596 117.980525 
L 189.130144 116.489661 
L 190.555691 115.047215 
" style="fill:none;"/>
   </g>
   <g id="line2d_13">
    <path clip-path="url(#pdb94ab0270)" d="M 25.192187 157.686564 
L 26.617735 157.651199 
L 28.043282 157.614591 
L 29.46883 157.577599 
L 30.894377 157.539412 
L 32.319925 157.500739 
L 33.745472 157.459685 
L 35.17102 157.418129 
L 36.596567 157.374561 
L 38.022115 157.33037 
L 39.447662 157.284122 
L 40.873209 157.237084 
L 42.298757 157.189886 
L 43.724304 157.141462 
L 45.149852 157.091486 
L 46.575399 157.043864 
L 48.000947 156.99738 
L 49.426494 156.949987 
L 50.852042 156.904191 
L 52.277589 156.857859 
L 53.703136 156.815886 
L 55.128684 156.770514 
L 56.554231 156.726164 
L 57.979779 156.676497 
L 59.405326 156.624865 
L 60.830874 156.568939 
L 62.256421 156.509499 
L 63.681969 156.446413 
L 65.107516 156.379047 
L 66.533063 156.309735 
L 67.958611 156.237645 
L 69.384158 156.166737 
L 70.809706 156.098114 
L 72.235253 156.034122 
L 73.660801 155.969362 
L 75.086348 155.898762 
L 76.511896 155.825279 
L 77.937443 155.748306 
L 79.36299 155.661384 
L 80.788538 155.573374 
L 82.214085 155.481231 
L 83.639633 155.388591 
L 85.06518 155.291924 
L 86.490728 155.196225 
L 87.916275 155.100702 
L 89.341823 155.006883 
L 90.76737 154.914364 
L 92.192917 154.811664 
L 93.618465 154.697459 
L 95.044012 154.573275 
L 96.46956 154.439459 
L 97.895107 154.291111 
L 99.320655 154.129593 
L 100.746202 153.957003 
L 102.17175 153.774897 
L 103.597297 153.578247 
L 105.022844 153.371796 
L 106.448392 153.148559 
L 107.873939 152.913899 
L 109.299487 152.667919 
L 110.725034 152.404506 
L 112.150582 152.122535 
L 113.576129 151.824745 
L 115.001677 151.509424 
L 116.427224 151.174851 
L 117.852771 150.812141 
L 119.278319 150.429962 
L 120.703866 150.01733 
L 122.129414 149.600204 
L 123.554961 149.151215 
L 124.980509 148.68354 
L 126.406056 148.17546 
L 127.831604 147.659383 
L 129.257151 147.082326 
L 130.682698 146.48521 
L 132.108246 145.875797 
L 133.533793 145.284246 
L 134.959341 144.689202 
L 136.384888 144.079133 
L 137.810436 143.442261 
L 139.235983 142.785871 
L 140.661531 142.131029 
L 142.087078 141.501612 
L 143.512625 140.88411 
L 144.938173 140.260616 
L 146.36372 139.609017 
L 147.789268 138.9492 
L 149.214815 138.263475 
L 150.640363 137.547763 
L 152.06591 136.781226 
L 153.491458 136.034 
L 154.917005 135.286109 
L 156.342552 134.479721 
L 157.7681 133.670634 
L 159.193647 132.791505 
L 160.619195 131.873318 
L 162.044742 130.863277 
L 163.47029 129.853607 
L 164.895837 128.818488 
L 166.321385 127.742871 
L 167.746932 126.645223 
L 169.172479 125.524747 
L 170.598027 124.406112 
L 172.023574 123.274641 
L 173.449122 122.065398 
L 174.874669 120.787264 
L 176.300217 119.450426 
L 177.725764 118.007336 
L 179.151312 116.499646 
L 180.576859 114.998806 
L 182.002406 113.449164 
L 183.427954 111.809708 
L 184.853501 110.046562 
L 186.279049 108.236377 
L 187.704596 106.350587 
L 189.130144 104.429421 
L 190.555691 102.540622 
" style="fill:none;"/>
   </g>
   <g id="line2d_14">
    <path clip-path="url(#pdb94ab0270)" d="M 25.192187 52.405972 
L 26.617735 52.438822 
L 28.043282 52.520499 
L 29.46883 52.555154 
L 30.894377 52.566012 
L 32.319925 52.617778 
L 33.745472 52.649701 
L 35.17102 52.645098 
L 36.596567 52.653187 
L 38.022115 52.676596 
L 39.447662 52.691759 
L 40.873209 52.732335 
L 42.298757 52.788817 
L 43.724304 52.847613 
L 45.149852 52.906515 
L 46.575399 52.973409 
L 48.000947 53.026834 
L 49.426494 53.057567 
L 50.852042 53.087121 
L 52.277589 53.12478 
L 53.703136 53.147408 
L 55.128684 53.156939 
L 56.554231 53.189027 
L 57.979779 53.212176 
L 59.405326 53.245452 
L 60.830874 53.288819 
L 62.256421 53.365581 
L 63.681969 53.424424 
L 65.107516 53.505429 
L 66.533063 53.586847 
L 67.958611 53.668139 
L 69.384158 53.750882 
L 70.809706 53.848742 
L 72.235253 53.942783 
L 73.660801 54.023852 
L 75.086348 54.118197 
L 76.511896 54.208309 
L 77.937443 54.293256 
L 79.36299 54.370855 
L 80.788538 54.435782 
L 82.214085 54.501059 
L 83.639633 54.571361 
L 85.06518 54.650448 
L 86.490728 54.734337 
L 87.916275 54.853224 
L 89.341823 54.984702 
L 90.76737 55.114548 
L 92.192917 55.234008 
L 93.618465 55.341683 
L 95.044012 55.442022 
L 96.46956 55.510309 
L 97.895107 55.584298 
L 99.320655 55.694356 
L 100.746202 55.816724 
L 102.17175 55.934949 
L 103.597297 56.066595 
L 105.022844 56.17454 
L 106.448392 56.263486 
L 107.873939 56.383313 
L 109.299487 56.520196 
L 110.725034 56.663264 
L 112.150582 56.807643 
L 113.576129 56.92822 
L 115.001677 57.010158 
L 116.427224 57.067572 
L 117.852771 57.137597 
L 119.278319 57.19015 
L 120.703866 57.231167 
L 122.129414 57.252664 
L 123.554961 57.284899 
L 124.980509 57.30899 
L 126.406056 57.320599 
L 127.831604 57.345169 
L 129.257151 57.367926 
L 130.682698 57.310642 
L 132.108246 57.202499 
L 133.533793 57.100113 
L 134.959341 56.981874 
L 136.384888 56.857627 
L 137.810436 56.7901 
L 139.235983 56.774586 
L 140.661531 56.754002 
L 142.087078 56.749204 
L 143.512625 56.794403 
L 144.938173 56.8182 
L 146.36372 56.798291 
L 147.789268 56.79017 
L 149.214815 56.7997 
L 150.640363 56.769678 
L 152.06591 56.720813 
L 153.491458 56.661441 
L 167.746932 56.568991 
L 182.002406 56.386346 
L 184.853501 56.188004 
L 191.981239 56.058038 
" style="fill:none;stroke:#006400;stroke-linecap:square;"/>
   </g>
   <g id="line2d_15">
    <path clip-path="url(#pdb94ab0270)" d="M 191.981239 56.058038 
L 193.406786 55.958996 
L 194.832333 55.902897 
L 196.257881 55.914452 
L 197.683428 55.951947 
L 199.108976 55.961198 
L 200.534523 55.97045 
L 201.960071 55.979701 
L 203.385618 55.988953 
L 204.811166 55.998204 
L 206.236713 56.007456 
L 207.66226 56.016707 
L 209.087808 56.025958 
L 210.513355 56.03521 
L 211.938903 56.044461 
L 213.36445 56.053713 
L 214.789998 56.062964 
L 216.215545 56.072216 
L 217.641093 56.081467 
L 219.06664 56.090719 
L 220.492187 56.09997 
" style="fill:none;stroke:#006400;stroke-dasharray:0.5,0.5;stroke-dashoffset:0;stroke-opacity:0.5;"/>
   </g>
   <g id="line2d_16">
    <path clip-path="url(#pdb94ab0270)" d="M 25.192187 105.856986 
L 26.617735 105.873411 
L 28.043282 105.914249 
L 29.46883 105.931577 
L 30.894377 105.937006 
L 32.319925 105.962889 
L 33.745472 105.97885 
L 35.17102 105.976549 
L 36.596567 105.980594 
L 38.022115 105.992298 
L 39.447662 105.999879 
L 40.873209 106.020168 
L 42.298757 106.048409 
L 43.724304 106.077806 
L 45.149852 106.107257 
L 46.575399 106.140704 
L 48.000947 106.167417 
L 49.426494 106.182783 
L 50.852042 106.197561 
L 52.277589 106.21639 
L 53.703136 106.227704 
L 55.128684 106.232469 
L 56.554231 106.248513 
L 57.979779 106.260088 
L 59.405326 106.276726 
L 60.830874 106.298409 
L 62.256421 106.33679 
L 63.681969 106.366212 
L 65.107516 106.406714 
L 66.533063 106.447424 
L 67.958611 106.488069 
L 69.384158 106.529441 
L 70.809706 106.578371 
L 72.235253 106.625391 
L 73.660801 106.665926 
L 75.086348 106.713098 
L 76.511896 106.758155 
L 77.937443 106.800628 
L 79.36299 106.839427 
L 80.788538 106.871891 
L 82.214085 106.90453 
L 83.639633 106.93968 
L 85.06518 106.979224 
L 86.490728 107.021168 
L 87.916275 107.080612 
L 89.341823 107.146351 
L 90.76737 107.211274 
L 92.192917 107.271004 
L 93.618465 107.324842 
L 95.044012 107.375011 
L 96.46956 107.409155 
L 97.895107 107.446149 
L 99.320655 107.501178 
L 100.746202 107.562362 
L 102.17175 107.621475 
L 103.597297 107.687297 
L 105.022844 107.74127 
L 106.448392 107.785743 
L 107.873939 107.845656 
L 109.299487 107.914098 
L 110.725034 107.985632 
L 112.150582 108.057822 
L 113.576129 108.11811 
L 115.001677 108.159079 
L 116.427224 108.187786 
L 117.852771 108.222798 
L 119.278319 108.249075 
L 120.703866 108.269584 
L 122.129414 108.280332 
L 123.554961 108.29645 
L 124.980509 108.308495 
L 126.406056 108.314299 
L 127.831604 108.326585 
L 129.257151 108.337963 
L 130.682698 108.309321 
L 132.108246 108.25525 
L 133.533793 108.204057 
L 134.959341 108.144937 
L 136.384888 108.082813 
L 137.810436 108.04905 
L 139.235983 108.041293 
L 140.661531 108.031001 
L 142.087078 108.028602 
L 143.512625 108.051201 
L 144.938173 108.0631 
L 146.36372 108.053145 
L 147.789268 108.049085 
L 149.214815 108.05385 
L 150.640363 108.038839 
L 152.06591 108.014407 
L 153.491458 107.984721 
L 167.746932 107.938496 
L 182.002406 107.847173 
L 184.853501 107.748002 
L 191.981239 107.683019 
" style="fill:none;stroke:#006400;stroke-linecap:square;"/>
   </g>
   <g id="line2d_17">
    <path clip-path="url(#pdb94ab0270)" d="M 191.981239 107.683019 
L 193.406786 107.633498 
L 194.832333 107.605448 
L 196.257881 107.611226 
" style="fill:none;stroke:#006400;stroke-dasharray:0.5,0.5;stroke-dashoffset:0;stroke-opacity:0.5;"/>
   </g>
   <g id="line2d_18">
    <path clip-path="url(#pdb94ab0270)" d="M 25.192187 90.150447 
L 26.617735 90.164498 
L 28.043282 90.208139 
L 29.46883 90.229347 
L 30.894377 90.237377 
L 32.319925 90.266613 
L 33.745472 90.287999 
L 35.17102 90.289176 
L 36.596567 90.294962 
L 38.022115 90.306276 
L 39.447662 90.315498 
L 40.873209 90.338871 
L 42.298757 90.370801 
L 43.724304 90.404253 
L 45.149852 90.44169 
L 46.575399 90.4848 
L 48.000947 90.518189 
L 49.426494 90.539566 
L 50.852042 90.560958 
L 52.277589 90.586456 
L 53.703136 90.604451 
L 55.128684 90.617312 
L 56.554231 90.64024 
L 57.979779 90.661264 
L 59.405326 90.684231 
L 60.830874 90.712554 
L 62.256421 90.758514 
L 63.681969 90.800536 
L 65.107516 90.852704 
L 66.533063 90.907879 
L 67.958611 90.9639 
L 69.384158 91.019031 
L 70.809706 91.082556 
L 72.235253 91.143171 
L 73.660801 91.199603 
L 75.086348 91.260838 
L 76.511896 91.321686 
L 77.937443 91.376636 
L 79.36299 91.427717 
L 80.788538 91.47203 
L 82.214085 91.515815 
L 83.639633 91.563484 
L 85.06518 91.6165 
L 86.490728 91.672135 
L 87.916275 91.744092 
L 89.341823 91.826048 
L 90.76737 91.91028 
L 92.192917 91.992257 
L 93.618465 92.067341 
L 95.044012 92.136598 
L 96.46956 92.187271 
L 97.895107 92.23757 
L 99.320655 92.304156 
L 100.746202 92.381981 
L 102.17175 92.45802 
L 103.597297 92.540982 
L 105.022844 92.612348 
L 106.448392 92.673972 
L 107.873939 92.747579 
L 109.299487 92.832386 
L 110.725034 92.919221 
L 112.150582 93.00385 
L 113.576129 93.075494 
L 115.001677 93.12993 
L 116.427224 93.167197 
L 117.852771 93.207262 
L 119.278319 93.240822 
L 120.703866 93.265762 
L 122.129414 93.278476 
L 123.554961 93.300175 
L 124.980509 93.316472 
L 126.406056 93.324519 
L 127.831604 93.341266 
L 129.257151 93.354347 
L 130.682698 93.324964 
L 132.108246 93.264917 
L 133.533793 93.205665 
L 134.959341 93.134642 
L 136.384888 93.061149 
L 137.810436 93.01659 
L 139.235983 93.005384 
L 140.661531 92.996717 
L 142.087078 92.998791 
L 143.512625 93.025948 
L 144.938173 93.043908 
L 146.36372 93.038664 
L 147.789268 93.037258 
L 149.214815 93.046989 
L 150.640363 93.037459 
L 152.06591 92.952199 
" style="fill:none;stroke:#a9ddb5;stroke-dasharray:1,2,1,2;stroke-dashoffset:0;stroke-opacity:0.4;stroke-width:0.5;"/>
   </g>
   <g id="line2d_19">
    <path clip-path="url(#pdb94ab0270)" d="M 153.491458 99.489793 
L 167.746932 99.358247 
L 182.002406 101.79519 
L 184.853501 99.152081 
L 191.981239 99.255642 
" style="fill:none;stroke:#a9ddb5;stroke-dasharray:1,2,1,2;stroke-dashoffset:0;stroke-opacity:0.4;stroke-width:0.5;"/>
   </g>
   <g id="line2d_20">
    <path clip-path="url(#pdb94ab0270)" d="M 25.192187 121.563525 
L 26.617735 121.582324 
L 28.043282 121.62036 
L 29.46883 121.633807 
L 30.894377 121.636635 
L 32.319925 121.659164 
L 33.745472 121.669702 
L 35.17102 121.663921 
L 36.596567 121.666226 
L 38.022115 121.678319 
L 39.447662 121.68426 
L 40.873209 121.701464 
L 42.298757 121.726016 
L 43.724304 121.75136 
L 45.149852 121.772825 
L 46.575399 121.796609 
L 48.000947 121.816644 
L 49.426494 121.826 
L 50.852042 121.834164 
L 52.277589 121.846325 
L 53.703136 121.850957 
L 55.128684 121.847627 
L 56.554231 121.856787 
L 57.979779 121.858913 
L 59.405326 121.86922 
L 60.830874 121.884265 
L 62.256421 121.915067 
L 63.681969 121.931888 
L 65.107516 121.960725 
L 66.533063 121.986968 
L 67.958611 122.012239 
L 69.384158 122.039851 
L 70.809706 122.074187 
L 72.235253 122.107612 
L 73.660801 122.132249 
L 75.086348 122.165359 
L 76.511896 122.194624 
L 77.937443 122.22462 
L 79.36299 122.251137 
L 80.788538 122.271752 
L 82.214085 122.293244 
L 83.639633 122.315877 
L 85.06518 122.341947 
L 86.490728 122.370201 
L 87.916275 122.417132 
L 89.341823 122.466654 
L 90.76737 122.512268 
L 92.192917 122.549751 
L 93.618465 122.582342 
L 95.044012 122.613424 
L 96.46956 122.631038 
L 97.895107 122.654728 
L 99.320655 122.6982 
L 100.746202 122.742743 
L 102.17175 122.78493 
L 103.597297 122.833613 
L 105.022844 122.870191 
L 106.448392 122.897514 
L 107.873939 122.943734 
L 109.299487 122.99581 
L 110.725034 123.052043 
L 112.150582 123.111794 
L 113.576129 123.160726 
L 115.001677 123.188228 
L 116.427224 123.208376 
L 117.852771 123.238335 
L 119.278319 123.257328 
L 120.703866 123.273406 
L 122.129414 123.282188 
L 123.554961 123.292724 
L 124.980509 123.300518 
L 126.406056 123.30408 
L 127.831604 123.311903 
L 129.257151 123.321579 
L 130.682698 123.293678 
L 132.108246 123.245582 
L 133.533793 123.202448 
L 134.959341 123.155232 
L 136.384888 123.104478 
L 137.810436 123.08151 
L 139.235983 123.077203 
L 140.661531 123.065286 
L 142.087078 123.058412 
L 143.512625 123.076455 
L 144.938173 123.082292 
L 146.36372 123.067627 
L 147.789268 123.060912 
L 149.214815 123.06071 
L 150.640363 123.040218 
L 152.06591 122.939074 
" style="fill:none;stroke:#a9ddb5;stroke-dasharray:1,2,1,2;stroke-dashoffset:0;stroke-opacity:0.4;stroke-width:0.5;"/>
   </g>
   <g id="line2d_21">
    <path clip-path="url(#pdb94ab0270)" d="M 153.491458 116.256113 
L 167.746932 116.182198 
L 182.002406 113.416229 
L 184.853501 115.938897 
L 191.981239 115.985801 
" style="fill:none;stroke:#a9ddb5;stroke-dasharray:1,2,1,2;stroke-dashoffset:0;stroke-opacity:0.4;stroke-width:0.5;"/>
   </g>
   <g id="line2d_22">
    <path clip-path="url(#pdb94ab0270)" d="M 25.192187 16.97335 
L 26.617735 17.004071 
L 28.043282 17.096185 
L 29.46883 17.140136 
L 30.894377 17.15641 
L 32.319925 17.217643 
L 33.745472 17.261471 
L 35.17102 17.262856 
L 36.596567 17.274624 
L 38.022115 17.298867 
L 39.447662 17.317993 
L 40.873209 17.366815 
L 42.298757 17.433679 
L 43.724304 17.503669 
L 45.149852 17.580882 
L 46.575399 17.669644 
L 48.000947 17.738653 
L 49.426494 17.782274 
L 50.852042 17.82573 
L 52.277589 17.877922 
L 53.703136 17.914117 
L 55.128684 17.938909 
L 56.554231 17.985553 
L 57.979779 18.027307 
L 59.405326 18.074214 
L 60.830874 18.132436 
L 62.256421 18.227949 
L 63.681969 18.313441 
L 65.107516 18.420863 
L 66.533063 18.533788 
L 67.958611 18.648219 
L 69.384158 18.761278 
L 70.809706 18.891959 
L 72.235253 19.016761 
L 73.660801 19.131901 
L 75.086348 19.257873 
L 76.511896 19.382459 
L 77.937443 19.495549 
L 79.36299 19.600455 
L 80.788538 19.691071 
L 82.214085 19.78079 
L 83.639633 19.878344 
L 85.06518 19.986989 
L 86.490728 20.101144 
L 87.916275 20.250475 
L 89.341823 20.41992 
L 90.76737 20.593212 
L 92.192917 20.760744 
L 93.618465 20.913903 
L 95.044012 21.055346 
L 96.46956 21.158 
L 97.895107 21.260906 
L 99.320655 21.399099 
L 100.746202 21.5596 
L 102.17175 21.716201 
L 103.597297 21.887492 
L 105.022844 22.033979 
L 106.448392 22.159777 
L 107.873939 22.312243 
L 109.299487 22.487716 
L 110.725034 22.667858 
L 112.150582 22.844228 
L 113.576129 22.993269 
L 115.001677 23.104942 
L 116.427224 23.181606 
L 117.852771 23.26537 
L 119.278319 23.334546 
L 120.703866 23.386273 
L 122.129414 23.412739 
L 123.554961 23.457184 
L 124.980509 23.490545 
L 126.406056 23.506971 
L 127.831604 23.541224 
L 129.257151 23.568556 
L 130.682698 23.506157 
L 132.108246 23.380097 
L 133.533793 23.256402 
L 134.959341 23.108865 
L 136.384888 22.955886 
L 137.810436 22.864402 
L 139.235983 22.841634 
L 140.661531 22.822627 
L 142.087078 22.825594 
L 143.512625 22.882007 
L 144.938173 22.918323 
L 146.36372 22.905611 
L 147.789268 22.901747 
L 149.214815 22.920876 
L 150.640363 22.898771 
L 152.06591 22.71438 
" style="fill:none;stroke:#a9ddb5;stroke-dasharray:1.85,0.8;stroke-dashoffset:0;stroke-opacity:0.4;stroke-width:0.5;"/>
   </g>
   <g id="line2d_23">
    <path clip-path="url(#pdb94ab0270)" d="M 153.491458 33.663369 
L 167.746932 33.394406 
L 182.002406 36.586294 
L 184.853501 32.927916 
L 191.981239 33.135615 
" style="fill:none;stroke:#a9ddb5;stroke-dasharray:1.85,0.8;stroke-dashoffset:0;stroke-opacity:0.4;stroke-width:0.5;"/>
   </g>
   <g id="line2d_24">
    <path clip-path="url(#pdb94ab0270)" d="M 25.192187 87.838594 
L 26.617735 87.873573 
L 28.043282 87.944812 
L 29.46883 87.970172 
L 30.894377 87.975615 
L 32.319925 88.017912 
L 33.745472 88.037931 
L 35.17102 88.02734 
L 36.596567 88.031751 
L 38.022115 88.054324 
L 39.447662 88.065524 
L 40.873209 88.097856 
L 42.298757 88.143955 
L 43.724304 88.191557 
L 45.149852 88.232148 
L 46.575399 88.277173 
L 48.000947 88.315014 
L 49.426494 88.332859 
L 50.852042 88.348513 
L 52.277589 88.371639 
L 53.703136 88.380699 
L 55.128684 88.374969 
L 56.554231 88.3925 
L 57.979779 88.397046 
L 59.405326 88.416689 
L 60.830874 88.445202 
L 62.256421 88.503213 
L 63.681969 88.535408 
L 65.107516 88.589995 
L 66.533063 88.639907 
L 67.958611 88.688058 
L 69.384158 88.740485 
L 70.809706 88.805525 
L 72.235253 88.868805 
L 73.660801 88.915803 
L 75.086348 88.978521 
L 76.511896 89.034159 
L 77.937443 89.090963 
L 79.36299 89.141255 
L 80.788538 89.180493 
L 82.214085 89.221328 
L 83.639633 89.264377 
L 85.06518 89.313907 
L 86.490728 89.367529 
L 87.916275 89.455974 
L 89.341823 89.549484 
L 90.76737 89.635885 
L 92.192917 89.707273 
L 93.618465 89.769463 
L 95.044012 89.828697 
L 96.46956 89.862618 
L 97.895107 89.90769 
L 99.320655 89.989614 
L 100.746202 90.073848 
L 102.17175 90.153698 
L 103.597297 90.245698 
L 105.022844 90.3151 
L 106.448392 90.367195 
L 107.873939 90.454383 
L 109.299487 90.552676 
L 110.725034 90.658669 
L 112.150582 90.771059 
L 113.576129 90.863171 
L 115.001677 90.915374 
L 116.427224 90.953539 
L 117.852771 91.009824 
L 119.278319 91.045753 
L 120.703866 91.076062 
L 122.129414 91.092589 
L 123.554961 91.112615 
L 124.980509 91.127435 
L 126.406056 91.134227 
L 127.831604 91.149115 
L 129.257151 91.167295 
L 130.682698 91.115126 
L 132.108246 91.024902 
L 133.533793 90.943824 
L 134.959341 90.854884 
L 136.384888 90.759368 
L 137.810436 90.715798 
L 139.235983 90.707539 
L 140.661531 90.685378 
L 142.087078 90.672814 
L 143.512625 90.706799 
L 144.938173 90.718077 
L 146.36372 90.690971 
L 147.789268 90.678593 
L 149.214815 90.678524 
L 150.640363 90.640585 
L 152.06591 90.452165 
" style="fill:none;stroke:#a9ddb5;stroke-dasharray:1.85,0.8;stroke-dashoffset:0;stroke-opacity:0.4;stroke-width:0.5;"/>
   </g>
   <g id="line2d_25">
    <path clip-path="url(#pdb94ab0270)" d="M 153.491458 79.212442 
L 167.746932 79.070485 
L 182.002406 75.220546 
L 184.853501 78.63804 
L 191.981239 78.731273 
" style="fill:none;stroke:#a9ddb5;stroke-dasharray:1.85,0.8;stroke-dashoffset:0;stroke-opacity:0.4;stroke-width:0.5;"/>
   </g>
   <g id="line2d_26">
    <path clip-path="url(#pdb94ab0270)" d="M 190.555691 115.047215 
L 191.981239 113.408708 
L 193.406786 111.69658 
L 194.832333 109.907104 
L 196.257881 108.036353 
L 197.683428 106.080187 
L 199.108976 104.034244 
L 200.534523 101.893929 
L 201.960071 99.654395 
L 203.385618 97.310535 
L 204.811166 94.856966 
L 206.236713 92.288012 
L 207.66226 89.597691 
L 209.087808 86.779694 
L 210.513355 83.82737 
L 211.938903 80.733706 
L 213.36445 77.491307 
L 214.789998 74.092375 
L 216.215545 70.528686 
L 217.641093 66.791568 
L 219.06664 62.871871 
L 220.492187 58.75995 
" style="fill:none;"/>
   </g>
   <g id="line2d_27">
    <path clip-path="url(#pdb94ab0270)" d="M 190.555691 102.540622 
L 191.981239 100.443633 
L 193.406786 98.256515 
L 194.832333 95.974958 
L 196.257881 93.594429 
L 197.683428 91.110174 
L 199.108976 88.517181 
L 200.534523 85.810191 
L 201.960071 82.983664 
L 203.385618 80.031782 
L 204.811166 76.94842 
L 206.236713 73.727143 
L 207.66226 70.361177 
L 209.087808 66.84339 
L 210.513355 63.166288 
L 211.938903 59.321986 
L 213.36445 55.302179 
L 214.789998 51.098133 
L 216.215545 46.700655 
L 217.641093 42.100067 
L 219.06664 37.286187 
L 220.492187 32.248297 
" style="fill:none;"/>
   </g>
   <g id="line2d_28">
    <path clip-path="url(#pdb94ab0270)" d="M 221.204961 159.308 
L 221.204961 55.529818 
" style="fill:none;stroke:#ffffff;stroke-dasharray:1.85,0.8;stroke-dashoffset:0;stroke-opacity:0.7;stroke-width:0.5;"/>
   </g>
   <g id="line2d_29">
    <path clip-path="url(#pdb94ab0270)" d="M 196.257881 159.308 
L 196.257881 107.649527 
" style="fill:none;stroke:#ffffff;stroke-dasharray:1.85,0.8;stroke-dashoffset:0;stroke-opacity:0.7;stroke-width:0.5;"/>
   </g>
   <g id="line2d_30">
    <path clip-path="url(#pdb94ab0270)" d="M 212.651677 159.308 
L 212.651677 55.529818 
" style="fill:none;stroke:#ffffff;stroke-dasharray:1.85,0.8;stroke-dashoffset:0;stroke-opacity:0.7;stroke-width:0.5;"/>
   </g>
   <g id="line2d_31">
    <path clip-path="url(#pdb94ab0270)" d="M 186.279049 159.308 
L 186.279049 107.418909 
" style="fill:none;stroke:#ffffff;stroke-dasharray:1.85,0.8;stroke-dashoffset:0;stroke-opacity:0.7;stroke-width:0.5;"/>
   </g>
   <g id="patch_3">
    <path d="M 25.192188 159.308 
L 25.192188 7.1 
" style="fill:none;stroke:#000000;stroke-linecap:square;stroke-linejoin:miter;stroke-width:0.8;"/>
   </g>
   <g id="patch_4">
    <path d="M 25.192187 159.308 
L 220.492187 159.308 
" style="fill:none;stroke:#000000;stroke-linecap:square;stroke-linejoin:miter;stroke-width:0.8;"/>
   </g>
   <g id="text_14">
    <!-- biomass (wet) -->
    <defs>
     <path d="M 48.6875 27.296875 
Q 48.6875 37.203125 44.609375 42.84375 
Q 40.53125 48.484375 33.40625 48.484375 
Q 26.265625 48.484375 22.1875 42.84375 
Q 18.109375 37.203125 18.109375 27.296875 
Q 18.109375 17.390625 22.1875 11.75 
Q 26.265625 6.109375 33.40625 6.109375 
Q 40.53125 6.109375 44.609375 11.75 
Q 48.6875 17.390625 48.6875 27.296875 
z
M 18.109375 46.390625 
Q 20.953125 51.265625 25.265625 53.625 
Q 29.59375 56 35.59375 56 
Q 45.5625 56 51.78125 48.09375 
Q 58.015625 40.1875 58.015625 27.296875 
Q 58.015625 14.40625 51.78125 6.484375 
Q 45.5625 -1.421875 35.59375 -1.421875 
Q 29.59375 -1.421875 25.265625 0.953125 
Q 20.953125 3.328125 18.109375 8.203125 
L 18.109375 0 
L 9.078125 0 
L 9.078125 75.984375 
L 18.109375 75.984375 
z
" id="DejaVuSans-62"/>
     <path d="M 52 44.1875 
Q 55.375 50.25 60.0625 53.125 
Q 64.75 56 71.09375 56 
Q 79.640625 56 84.28125 50.015625 
Q 88.921875 44.046875 88.921875 33.015625 
L 88.921875 0 
L 79.890625 0 
L 79.890625 32.71875 
Q 79.890625 40.578125 77.09375 44.375 
Q 74.3125 48.1875 68.609375 48.1875 
Q 61.625 48.1875 57.5625 43.546875 
Q 53.515625 38.921875 53.515625 30.90625 
L 53.515625 0 
L 44.484375 0 
L 44.484375 32.71875 
Q 44.484375 40.625 41.703125 44.40625 
Q 38.921875 48.1875 33.109375 48.1875 
Q 26.21875 48.1875 22.15625 43.53125 
Q 18.109375 38.875 18.109375 30.90625 
L 18.109375 0 
L 9.078125 0 
L 9.078125 54.6875 
L 18.109375 54.6875 
L 18.109375 46.1875 
Q 21.1875 51.21875 25.484375 53.609375 
Q 29.78125 56 35.6875 56 
Q 41.65625 56 45.828125 52.96875 
Q 50 49.953125 52 44.1875 
z
" id="DejaVuSans-6d"/>
    </defs>
    <g transform="translate(47.288173 49.533745)scale(0.07 -0.07)">
     <use xlink:href="#DejaVuSans-62"/>
     <use x="63.476562" xlink:href="#DejaVuSans-69"/>
     <use x="91.259766" xlink:href="#DejaVuSans-6f"/>
     <use x="152.441406" xlink:href="#DejaVuSans-6d"/>
     <use x="249.853516" xlink:href="#DejaVuSans-61"/>
     <use x="311.132812" xlink:href="#DejaVuSans-73"/>
     <use x="363.232422" xlink:href="#DejaVuSans-73"/>
     <use x="415.332031" xlink:href="#DejaVuSans-20"/>
     <use x="447.119141" xlink:href="#DejaVuSans-28"/>
     <use x="486.132812" xlink:href="#DejaVuSans-77"/>
     <use x="567.919922" xlink:href="#DejaVuSans-65"/>
     <use x="629.443359" xlink:href="#DejaVuSans-74"/>
     <use x="668.652344" xlink:href="#DejaVuSans-29"/>
    </g>
   </g>
   <g id="text_15">
    <!-- biomass (dry) -->
    <defs>
     <path d="M 45.40625 46.390625 
L 45.40625 75.984375 
L 54.390625 75.984375 
L 54.390625 0 
L 45.40625 0 
L 45.40625 8.203125 
Q 42.578125 3.328125 38.25 0.953125 
Q 33.9375 -1.421875 27.875 -1.421875 
Q 17.96875 -1.421875 11.734375 6.484375 
Q 5.515625 14.40625 5.515625 27.296875 
Q 5.515625 40.1875 11.734375 48.09375 
Q 17.96875 56 27.875 56 
Q 33.9375 56 38.25 53.625 
Q 42.578125 51.265625 45.40625 46.390625 
z
M 14.796875 27.296875 
Q 14.796875 17.390625 18.875 11.75 
Q 22.953125 6.109375 30.078125 6.109375 
Q 37.203125 6.109375 41.296875 11.75 
Q 45.40625 17.390625 45.40625 27.296875 
Q 45.40625 37.203125 41.296875 42.84375 
Q 37.203125 48.484375 30.078125 48.484375 
Q 22.953125 48.484375 18.875 42.84375 
Q 14.796875 37.203125 14.796875 27.296875 
z
" id="DejaVuSans-64"/>
    </defs>
    <g transform="translate(47.288173 102.575927)scale(0.07 -0.07)">
     <use xlink:href="#DejaVuSans-62"/>
     <use x="63.476562" xlink:href="#DejaVuSans-69"/>
     <use x="91.259766" xlink:href="#DejaVuSans-6f"/>
     <use x="152.441406" xlink:href="#DejaVuSans-6d"/>
     <use x="249.853516" xlink:href="#DejaVuSans-61"/>
     <use x="311.132812" xlink:href="#DejaVuSans-73"/>
     <use x="363.232422" xlink:href="#DejaVuSans-73"/>
     <use x="415.332031" xlink:href="#DejaVuSans-20"/>
     <use x="447.119141" xlink:href="#DejaVuSans-28"/>
     <use x="486.132812" xlink:href="#DejaVuSans-64"/>
     <use x="549.609375" xlink:href="#DejaVuSans-72"/>
     <use x="590.722656" xlink:href="#DejaVuSans-79"/>
     <use x="649.902344" xlink:href="#DejaVuSans-29"/>
    </g>
   </g>
   <g id="text_16">
    <!-- 2037$\pm$10 -->
    <defs>
     <path d="M 8.203125 72.90625 
L 55.078125 72.90625 
L 55.078125 68.703125 
L 28.609375 0 
L 18.3125 0 
L 43.21875 64.59375 
L 8.203125 64.59375 
z
" id="DejaVuSans-37"/>
     <path d="M 46 62.703125 
L 46 43.796875 
L 73.1875 43.796875 
L 73.1875 35.5 
L 46 35.5 
L 46 16.609375 
L 37.796875 16.609375 
L 37.796875 35.5 
L 10.59375 35.5 
L 10.59375 43.796875 
L 37.796875 43.796875 
L 37.796875 62.703125 
z
M 10.59375 8.296875 
L 73.1875 8.296875 
L 73.1875 0 
L 10.59375 0 
z
" id="DejaVuSans-b1"/>
    </defs>
    <g transform="translate(195.830217 50.917455)scale(0.06 -0.06)">
     <use transform="translate(0 0.78125)" xlink:href="#DejaVuSans-32"/>
     <use transform="translate(63.623047 0.78125)" xlink:href="#DejaVuSans-30"/>
     <use transform="translate(127.246094 0.78125)" xlink:href="#DejaVuSans-33"/>
     <use transform="translate(190.869141 0.78125)" xlink:href="#DejaVuSans-37"/>
     <use transform="translate(254.492188 0.78125)" xlink:href="#DejaVuSans-b1"/>
     <use transform="translate(338.28125 0.78125)" xlink:href="#DejaVuSans-31"/>
     <use transform="translate(401.904297 0.78125)" xlink:href="#DejaVuSans-30"/>
    </g>
   </g>
   <g id="text_17">
    <!-- 2031$\pm$9 -->
    <g transform="translate(187.134377 65.677018)scale(0.06 -0.06)">
     <use transform="translate(0 0.78125)" xlink:href="#DejaVuSans-32"/>
     <use transform="translate(63.623047 0.78125)" xlink:href="#DejaVuSans-30"/>
     <use transform="translate(127.246094 0.78125)" xlink:href="#DejaVuSans-33"/>
     <use transform="translate(190.869141 0.78125)" xlink:href="#DejaVuSans-31"/>
     <use transform="translate(254.492188 0.78125)" xlink:href="#DejaVuSans-b1"/>
     <use transform="translate(338.28125 0.78125)" xlink:href="#DejaVuSans-39"/>
    </g>
   </g>
   <g id="text_18">
    <!-- 2020$\pm$6 -->
    <g transform="translate(176.300217 101.653455)scale(0.06 -0.06)">
     <use transform="translate(0 0.78125)" xlink:href="#DejaVuSans-32"/>
     <use transform="translate(63.623047 0.78125)" xlink:href="#DejaVuSans-30"/>
     <use transform="translate(127.246094 0.78125)" xlink:href="#DejaVuSans-32"/>
     <use transform="translate(190.869141 0.78125)" xlink:href="#DejaVuSans-30"/>
     <use transform="translate(254.492188 0.78125)" xlink:href="#DejaVuSans-b1"/>
     <use transform="translate(338.28125 0.78125)" xlink:href="#DejaVuSans-36"/>
    </g>
   </g>
   <g id="text_19">
    <!-- 2013$\pm$5 -->
    <defs>
     <path d="M 10.796875 72.90625 
L 49.515625 72.90625 
L 49.515625 64.59375 
L 19.828125 64.59375 
L 19.828125 46.734375 
Q 21.96875 47.46875 24.109375 47.828125 
Q 26.265625 48.1875 28.421875 48.1875 
Q 40.625 48.1875 47.75 41.5 
Q 54.890625 34.8125 54.890625 23.390625 
Q 54.890625 11.625 47.5625 5.09375 
Q 40.234375 -1.421875 26.90625 -1.421875 
Q 22.3125 -1.421875 17.546875 -0.640625 
Q 12.796875 0.140625 7.71875 1.703125 
L 7.71875 11.625 
Q 12.109375 9.234375 16.796875 8.0625 
Q 21.484375 6.890625 26.703125 6.890625 
Q 35.15625 6.890625 40.078125 11.328125 
Q 45.015625 15.765625 45.015625 23.390625 
Q 45.015625 31 40.078125 35.4375 
Q 35.15625 39.890625 26.703125 39.890625 
Q 22.75 39.890625 18.8125 39.015625 
Q 14.890625 38.140625 10.796875 36.28125 
z
" id="DejaVuSans-35"/>
    </defs>
    <g transform="translate(161.046859 117.796727)scale(0.06 -0.06)">
     <use transform="translate(0 0.78125)" xlink:href="#DejaVuSans-32"/>
     <use transform="translate(63.623047 0.78125)" xlink:href="#DejaVuSans-30"/>
     <use transform="translate(127.246094 0.78125)" xlink:href="#DejaVuSans-31"/>
     <use transform="translate(190.869141 0.78125)" xlink:href="#DejaVuSans-33"/>
     <use transform="translate(254.492188 0.78125)" xlink:href="#DejaVuSans-b1"/>
     <use transform="translate(338.28125 0.78125)" xlink:href="#DejaVuSans-35"/>
    </g>
   </g>
   <g id="legend_1">
    <g id="patch_5">
     <path d="M 30.592188 138.417312 
L 42.592188 138.417312 
L 42.592188 134.217312 
L 30.592188 134.217312 
z
" style="fill:#969696;"/>
    </g>
    <g id="text_20">
     <!-- anthropogenic mass waste -->
     <defs>
      <path d="M 18.109375 8.203125 
L 18.109375 -20.796875 
L 9.078125 -20.796875 
L 9.078125 54.6875 
L 18.109375 54.6875 
L 18.109375 46.390625 
Q 20.953125 51.265625 25.265625 53.625 
Q 29.59375 56 35.59375 56 
Q 45.5625 56 51.78125 48.09375 
Q 58.015625 40.1875 58.015625 27.296875 
Q 58.015625 14.40625 51.78125 6.484375 
Q 45.5625 -1.421875 35.59375 -1.421875 
Q 29.59375 -1.421875 25.265625 0.953125 
Q 20.953125 3.328125 18.109375 8.203125 
z
M 48.6875 27.296875 
Q 48.6875 37.203125 44.609375 42.84375 
Q 40.53125 48.484375 33.40625 48.484375 
Q 26.265625 48.484375 22.1875 42.84375 
Q 18.109375 37.203125 18.109375 27.296875 
Q 18.109375 17.390625 22.1875 11.75 
Q 26.265625 6.109375 33.40625 6.109375 
Q 40.53125 6.109375 44.609375 11.75 
Q 48.6875 17.390625 48.6875 27.296875 
z
" id="DejaVuSans-70"/>
      <path d="M 48.78125 52.59375 
L 48.78125 44.1875 
Q 44.96875 46.296875 41.140625 47.34375 
Q 37.3125 48.390625 33.40625 48.390625 
Q 24.65625 48.390625 19.8125 42.84375 
Q 14.984375 37.3125 14.984375 27.296875 
Q 14.984375 17.28125 19.8125 11.734375 
Q 24.65625 6.203125 33.40625 6.203125 
Q 37.3125 6.203125 41.140625 7.25 
Q 44.96875 8.296875 48.78125 10.40625 
L 48.78125 2.09375 
Q 45.015625 0.34375 40.984375 -0.53125 
Q 36.96875 -1.421875 32.421875 -1.421875 
Q 20.0625 -1.421875 12.78125 6.34375 
Q 5.515625 14.109375 5.515625 27.296875 
Q 5.515625 40.671875 12.859375 48.328125 
Q 20.21875 56 33.015625 56 
Q 37.15625 56 41.109375 55.140625 
Q 45.0625 54.296875 48.78125 52.59375 
z
" id="DejaVuSans-63"/>
     </defs>
     <g transform="translate(47.392188 138.417312)scale(0.06 -0.06)">
      <use xlink:href="#DejaVuSans-61"/>
      <use x="61.279297" xlink:href="#DejaVuSans-6e"/>
      <use x="124.658203" xlink:href="#DejaVuSans-74"/>
      <use x="163.867188" xlink:href="#DejaVuSans-68"/>
      <use x="227.246094" xlink:href="#DejaVuSans-72"/>
      <use x="268.328125" xlink:href="#DejaVuSans-6f"/>
      <use x="329.509766" xlink:href="#DejaVuSans-70"/>
      <use x="392.986328" xlink:href="#DejaVuSans-6f"/>
      <use x="454.167969" xlink:href="#DejaVuSans-67"/>
      <use x="517.644531" xlink:href="#DejaVuSans-65"/>
      <use x="579.167969" xlink:href="#DejaVuSans-6e"/>
      <use x="642.546875" xlink:href="#DejaVuSans-69"/>
      <use x="670.330078" xlink:href="#DejaVuSans-63"/>
      <use x="725.310547" xlink:href="#DejaVuSans-20"/>
      <use x="757.097656" xlink:href="#DejaVuSans-6d"/>
      <use x="854.509766" xlink:href="#DejaVuSans-61"/>
      <use x="915.789062" xlink:href="#DejaVuSans-73"/>
      <use x="967.888672" xlink:href="#DejaVuSans-73"/>
      <use x="1019.988281" xlink:href="#DejaVuSans-20"/>
      <use x="1051.775391" xlink:href="#DejaVuSans-77"/>
      <use x="1133.5625" xlink:href="#DejaVuSans-61"/>
      <use x="1194.841797" xlink:href="#DejaVuSans-73"/>
      <use x="1246.941406" xlink:href="#DejaVuSans-74"/>
      <use x="1286.150391" xlink:href="#DejaVuSans-65"/>
     </g>
    </g>
    <g id="patch_6">
     <path d="M 30.592188 147.224187 
L 42.592188 147.224187 
L 42.592188 143.024187 
L 30.592188 143.024187 
z
" style="fill:#352a86;"/>
    </g>
    <g id="text_21">
     <!-- anthropogenic mass -->
     <g transform="translate(47.392188 147.224187)scale(0.06 -0.06)">
      <use xlink:href="#DejaVuSans-61"/>
      <use x="61.279297" xlink:href="#DejaVuSans-6e"/>
      <use x="124.658203" xlink:href="#DejaVuSans-74"/>
      <use x="163.867188" xlink:href="#DejaVuSans-68"/>
      <use x="227.246094" xlink:href="#DejaVuSans-72"/>
      <use x="268.328125" xlink:href="#DejaVuSans-6f"/>
      <use x="329.509766" xlink:href="#DejaVuSans-70"/>
      <use x="392.986328" xlink:href="#DejaVuSans-6f"/>
      <use x="454.167969" xlink:href="#DejaVuSans-67"/>
      <use x="517.644531" xlink:href="#DejaVuSans-65"/>
      <use x="579.167969" xlink:href="#DejaVuSans-6e"/>
      <use x="642.546875" xlink:href="#DejaVuSans-69"/>
      <use x="670.330078" xlink:href="#DejaVuSans-63"/>
      <use x="725.310547" xlink:href="#DejaVuSans-20"/>
      <use x="757.097656" xlink:href="#DejaVuSans-6d"/>
      <use x="854.509766" xlink:href="#DejaVuSans-61"/>
      <use x="915.789062" xlink:href="#DejaVuSans-73"/>
      <use x="967.888672" xlink:href="#DejaVuSans-73"/>
     </g>
    </g>
   </g>
   <g id="PathCollection_1">
    <defs>
     <path d="M 0 1.224745 
C 0.324806 1.224745 0.636353 1.095698 0.866025 0.866025 
C 1.095698 0.636353 1.224745 0.324806 1.224745 0 
C 1.224745 -0.324806 1.095698 -0.636353 0.866025 -0.866025 
C 0.636353 -1.095698 0.324806 -1.224745 0 -1.224745 
C -0.324806 -1.224745 -0.636353 -1.095698 -0.866025 -0.866025 
C -1.095698 -0.636353 -1.224745 -0.324806 -1.224745 0 
C -1.224745 0.324806 -1.095698 0.636353 -0.866025 0.866025 
C -0.636353 1.095698 -0.324806 1.224745 0 1.224745 
z
" id="ma07a0fb428" style="stroke:#000000;"/>
    </defs>
    <g>
     <use style="stroke:#000000;" x="220.492187" xlink:href="#ma07a0fb428" y="55.760436"/>
    </g>
   </g>
   <g id="PathCollection_2">
    <g clip-path="url(#pdb94ab0270)">
     <use style="stroke:#000000;" x="212.651677" xlink:href="#ma07a0fb428" y="55.760436"/>
    </g>
   </g>
   <g id="PathCollection_3">
    <g clip-path="url(#pdb94ab0270)">
     <use style="stroke:#000000;" x="196.257881" xlink:href="#ma07a0fb428" y="107.55728"/>
    </g>
   </g>
   <g id="PathCollection_4">
    <g clip-path="url(#pdb94ab0270)">
     <use style="stroke:#000000;" x="186.279049" xlink:href="#ma07a0fb428" y="107.55728"/>
    </g>
   </g>
  </g>
 </g>
 <defs>
  <clipPath id="pdb94ab0270">
   <rect height="152.208" width="195.3" x="25.192188" y="7.1"/>
  </clipPath>
 </defs>
</svg>
